<svg width="1441" height="801" viewBox="0 0 1441 801" fill="none" xmlns="http://www.w3.org/2000/svg">
<g clip-path="url(#clip0_268_3584)">
<rect width="1440" height="800" transform="translate(0.7146 0.0404663)" fill="#DEDEDE"/>
<g clip-path="url(#clip1_268_3584)">
<rect width="1450.76" height="10980.4" transform="translate(0.7146 -7291.94)" fill="#E0E0E0"/>
<path d="M-787.129 431.915V521.37H-697.679V610.824H-337.086V703.073H-155.391V890.368H-68.7371V1072.07H-155.391V974.232H-337.086V1072.07V1158.73V1337.64H-515.985V1248.19H-697.679V1337.64H-787.129V1424.3H-155.391V1248.19H-68.7371V1424.3H112.957V1248.19H219.179V1555.68H300.242V1522.14V1337.64H481.937V1158.73H663.631V890.368H481.937V985.414H300.242V890.368H392.487V795.323H112.957V521.37H300.242V610.824H663.631V521.37H565.796V431.915H481.937V521.37H392.487V339.666H34.689V431.915H-68.7371V521.37H-515.985V431.915H-787.129Z" fill="#85B6FF"/>
<mask id="path-2-outside-1_268_3584" maskUnits="userSpaceOnUse" x="796.431" y="37.7129" width="253" height="161" fill="black">
<rect fill="white" x="796.431" y="37.7129" width="253" height="161"/>
<path d="M887.723 182.072L876.359 193.731L800.799 118.17L876.359 42.6098L887.723 54.4161L823.969 118.17L887.723 182.072ZM1044.6 118.17L969.039 193.731L957.528 182.072L1021.28 118.17L957.528 54.4161L969.039 42.6098L1044.6 118.17Z"/>
</mask>
<path d="M887.723 182.072L889.887 184.181L891.968 182.047L889.862 179.937L887.723 182.072ZM876.359 193.731L874.222 195.868L876.387 198.033L878.524 195.84L876.359 193.731ZM800.799 118.17L798.662 116.033L796.525 118.17L798.662 120.307L800.799 118.17ZM876.359 42.6098L878.537 40.5138L876.4 38.2942L874.222 40.4726L876.359 42.6098ZM887.723 54.4161L889.86 56.5533L891.957 54.4565L889.9 52.3201L887.723 54.4161ZM823.969 118.17L821.832 116.033L819.697 118.168L821.829 120.305L823.969 118.17ZM885.558 179.962L874.195 191.621L878.524 195.84L889.887 184.181L885.558 179.962ZM878.496 191.593L802.936 116.033L798.662 120.307L874.222 195.868L878.496 191.593ZM802.936 120.307L878.496 44.7469L874.222 40.4726L798.662 116.033L802.936 120.307ZM874.182 44.7057L885.545 56.512L889.9 52.3201L878.537 40.5138L874.182 44.7057ZM885.586 52.2789L821.832 116.033L826.106 120.307L889.86 56.5533L885.586 52.2789ZM821.829 120.305L885.583 184.207L889.862 179.937L826.108 116.035L821.829 120.305ZM1044.6 118.17L1046.74 120.307L1048.87 118.17L1046.74 116.033L1044.6 118.17ZM969.039 193.731L966.888 195.854L969.025 198.019L971.176 195.868L969.039 193.731ZM957.528 182.072L955.388 179.937L953.269 182.061L955.377 184.195L957.528 182.072ZM1021.28 118.17L1023.42 120.305L1025.55 118.168L1023.42 116.033L1021.28 118.17ZM957.528 54.4161L955.364 52.3061L953.28 54.443L955.391 56.5533L957.528 54.4161ZM969.039 42.6098L971.176 40.4726L969.012 38.3082L966.875 40.4998L969.039 42.6098ZM1042.46 116.033L966.902 191.593L971.176 195.868L1046.74 120.307L1042.46 116.033ZM971.19 191.607L959.678 179.948L955.377 184.195L966.888 195.854L971.19 191.607ZM959.667 184.207L1023.42 120.305L1019.14 116.035L955.388 179.937L959.667 184.207ZM1023.42 116.033L959.665 52.2789L955.391 56.5533L1019.14 120.307L1023.42 116.033ZM959.692 56.526L971.203 44.7197L966.875 40.4998L955.364 52.3061L959.692 56.526ZM966.902 44.7469L1042.46 120.307L1046.74 116.033L971.176 40.4726L966.902 44.7469Z" fill="#85B6FF" mask="url(#path-2-outside-1_268_3584)"/>
<mask id="path-4-outside-2_268_3584" maskUnits="userSpaceOnUse" x="1138.97" y="37.7129" width="253" height="161" fill="black">
<rect fill="white" x="1138.97" y="37.7129" width="253" height="161"/>
<path d="M1230.26 182.072L1218.9 193.731L1143.34 118.17L1218.9 42.6098L1230.26 54.4161L1166.51 118.17L1230.26 182.072ZM1387.14 118.17L1311.58 193.731L1300.07 182.072L1363.82 118.17L1300.07 54.4161L1311.58 42.6098L1387.14 118.17Z"/>
</mask>
<path d="M1230.26 182.072L1232.43 184.181L1234.51 182.047L1232.4 179.937L1230.26 182.072ZM1218.9 193.731L1216.76 195.868L1218.93 198.033L1221.06 195.84L1218.9 193.731ZM1143.34 118.17L1141.2 116.033L1139.07 118.17L1141.2 120.307L1143.34 118.17ZM1218.9 42.6098L1221.08 40.5138L1218.94 38.2942L1216.76 40.4726L1218.9 42.6098ZM1230.26 54.4161L1232.4 56.5533L1234.5 54.4565L1232.44 52.3201L1230.26 54.4161ZM1166.51 118.17L1164.37 116.033L1162.24 118.168L1164.37 120.305L1166.51 118.17ZM1228.1 179.962L1216.74 191.621L1221.06 195.84L1232.43 184.181L1228.1 179.962ZM1221.04 191.593L1145.48 116.033L1141.2 120.307L1216.76 195.868L1221.04 191.593ZM1145.48 120.307L1221.04 44.7469L1216.76 40.4726L1141.2 116.033L1145.48 120.307ZM1216.72 44.7057L1228.09 56.512L1232.44 52.3201L1221.08 40.5138L1216.72 44.7057ZM1228.13 52.2789L1164.37 116.033L1168.65 120.307L1232.4 56.5533L1228.13 52.2789ZM1164.37 120.305L1228.12 184.207L1232.4 179.937L1168.65 116.035L1164.37 120.305ZM1387.14 118.17L1389.28 120.307L1391.41 118.17L1389.28 116.033L1387.14 118.17ZM1311.58 193.731L1309.43 195.854L1311.57 198.019L1313.72 195.868L1311.58 193.731ZM1300.07 182.072L1297.93 179.937L1295.81 182.061L1297.92 184.195L1300.07 182.072ZM1363.82 118.17L1365.96 120.305L1368.09 118.168L1365.96 116.033L1363.82 118.17ZM1300.07 54.4161L1297.9 52.3061L1295.82 54.443L1297.93 56.5533L1300.07 54.4161ZM1311.58 42.6098L1313.72 40.4726L1311.55 38.3082L1309.42 40.4998L1311.58 42.6098ZM1385 116.033L1309.44 191.593L1313.72 195.868L1389.28 120.307L1385 116.033ZM1313.73 191.607L1302.22 179.948L1297.92 184.195L1309.43 195.854L1313.73 191.607ZM1302.21 184.207L1365.96 120.305L1361.68 116.035L1297.93 179.937L1302.21 184.207ZM1365.96 116.033L1302.21 52.2789L1297.93 56.5533L1361.69 120.307L1365.96 116.033ZM1302.23 56.526L1313.74 44.7197L1309.42 40.4998L1297.9 52.3061L1302.23 56.526ZM1309.44 44.7469L1385 120.307L1389.28 116.033L1313.72 40.4726L1309.44 44.7469Z" fill="#85B6FF" mask="url(#path-4-outside-2_268_3584)"/>
<path d="M684.789 305.411H971.791L1210.15 450.093L1283.12 337.022L1542.15 530.337L1298.92 1163.78H684.789V751.616M684.789 666.509V415.691M684.789 428.209V415.691M684.789 415.691L947.795 415.691L1246.96 583.473M786.942 1067.56H985.168" stroke="#85B6FF" stroke-width="4.02989"/>
<path d="M1123.5 463.53C1124.59 463.273 1125.26 462.186 1125 461.104L1120.81 443.46C1120.55 442.378 1119.46 441.709 1118.38 441.966C1117.3 442.223 1116.63 443.309 1116.89 444.392L1120.61 460.075L1104.93 463.802C1103.85 464.059 1103.18 465.145 1103.43 466.228C1103.69 467.31 1104.78 467.98 1105.86 467.722L1123.5 463.53ZM996.047 385.71L1121.98 463.285L1124.1 459.854L998.161 382.279L996.047 385.71Z" fill="#5DA0FF"/>
<path d="M726.391 592.121L724.887 593.664L714.887 583.664L724.887 573.664L726.391 575.227L717.953 583.664L726.391 592.121ZM750.082 593H747.387V581.77C747.387 580.142 747.035 578.879 746.332 577.98C745.629 577.082 744.49 576.633 742.914 576.633C741.924 576.633 741.026 576.861 740.219 577.316C739.424 577.772 738.747 578.384 738.188 579.152C737.628 579.908 737.198 580.78 736.898 581.77C736.612 582.746 736.469 583.768 736.469 584.836V593H733.793V567.512H736.469V579.367C737.758 576.034 740.056 574.367 743.363 574.367C747.842 574.367 750.082 576.835 750.082 581.77V593ZM773.07 587.199C772.862 589.113 772.107 590.637 770.805 591.77C769.516 592.889 767.901 593.449 765.961 593.449C764.893 593.449 763.917 593.273 763.031 592.922C762.146 592.57 761.391 592.082 760.766 591.457C760.141 590.832 759.652 590.083 759.301 589.211C758.962 588.326 758.793 587.362 758.793 586.32V577.082H754.672V574.797H758.793V567.512H761.469V574.797H769.223V577.082H761.469V586.32C761.469 586.984 761.573 587.609 761.781 588.195C762.003 588.781 762.302 589.296 762.68 589.738C763.07 590.181 763.539 590.533 764.086 590.793C764.633 591.04 765.258 591.164 765.961 591.164C767.289 591.164 768.396 590.754 769.281 589.934C770.18 589.1 770.694 588.026 770.824 586.711L773.07 587.199ZM794.711 593H792.035V579.914C792.035 578.872 791.853 578.065 791.488 577.492C791.124 576.919 790.596 576.633 789.906 576.633C788.891 576.633 788.142 577.167 787.66 578.234C787.191 579.302 786.957 580.799 786.957 582.727V593H784.262V579.914C784.262 578.872 784.073 578.065 783.695 577.492C783.331 576.919 782.803 576.633 782.113 576.633C781.475 576.633 780.967 576.822 780.59 577.199C780.212 577.577 779.913 578.059 779.691 578.645C779.483 579.23 779.346 579.882 779.281 580.598C779.216 581.314 779.184 582.023 779.184 582.727V593H776.508V574.797H779.184V577.434C779.743 575.389 780.961 574.367 782.836 574.367C784.62 574.367 785.831 575.259 786.469 577.043C787.354 575.259 788.604 574.367 790.219 574.367C791.768 574.367 792.901 574.829 793.617 575.754C794.346 576.665 794.711 578.052 794.711 579.914V593ZM812.895 593H801.977V590.715H806.098V569.797H801.977V567.512H808.793V590.715H812.895V593ZM856.566 593H845.648V590.715H849.77V569.797H845.648V567.512H852.465V590.715H856.566V593ZM863.812 588.078C863.812 586.932 864.099 585.975 864.672 585.207C865.245 584.426 865.993 583.814 866.918 583.371C867.855 582.915 868.923 582.59 870.121 582.395C871.332 582.186 872.562 582.082 873.812 582.082C874.294 582.082 874.724 582.089 875.102 582.102C875.492 582.115 875.857 582.134 876.195 582.16C876.547 582.186 876.898 582.219 877.25 582.258C877.602 582.297 877.986 582.342 878.402 582.395V581.086C878.402 580.201 878.207 579.471 877.816 578.898C877.439 578.326 876.97 577.876 876.41 577.551C875.85 577.212 875.264 576.978 874.652 576.848C874.04 576.704 873.52 576.633 873.09 576.633C871.736 576.633 870.486 576.815 869.34 577.18C868.194 577.544 867.126 578.033 866.137 578.645L864.926 576.633C866.02 575.969 867.243 575.428 868.598 575.012C869.965 574.582 871.462 574.367 873.09 574.367C874.079 574.367 875.049 574.497 876 574.758C876.964 575.005 877.823 575.396 878.578 575.93C879.346 576.451 879.958 577.141 880.414 578C880.87 578.859 881.098 579.888 881.098 581.086V593H878.402V589.953C877.934 590.539 877.4 591.053 876.801 591.496C876.215 591.939 875.596 592.303 874.945 592.59C874.294 592.863 873.643 593.072 872.992 593.215C872.341 593.371 871.723 593.449 871.137 593.449C868.728 593.449 866.905 592.987 865.668 592.062C864.431 591.138 863.812 589.81 863.812 588.078ZM871.137 591.164C872.257 591.164 873.259 591.001 874.145 590.676C875.043 590.337 875.805 589.921 876.43 589.426C877.055 588.931 877.536 588.404 877.875 587.844C878.227 587.284 878.402 586.776 878.402 586.32V584.602C877.53 584.471 876.69 584.4 875.883 584.387C875.089 584.374 874.398 584.367 873.812 584.367C872.849 584.367 871.918 584.432 871.02 584.562C870.134 584.693 869.359 584.908 868.695 585.207C868.031 585.493 867.497 585.871 867.094 586.34C866.69 586.809 866.488 587.388 866.488 588.078C866.488 588.846 866.859 589.556 867.602 590.207C868.357 590.845 869.535 591.164 871.137 591.164ZM902.934 593H900.238V581.77C900.238 580.142 899.887 578.879 899.184 577.98C898.48 577.082 897.341 576.633 895.766 576.633C894.776 576.633 893.878 576.861 893.07 577.316C892.276 577.772 891.599 578.384 891.039 579.152C890.479 579.908 890.049 580.78 889.75 581.77C889.464 582.746 889.32 583.768 889.32 584.836V593H886.645V574.797H889.32V579.367C890.609 576.034 892.908 574.367 896.215 574.367C900.694 574.367 902.934 576.835 902.934 581.77V593ZM924.77 592.805C924.77 594.055 924.555 595.168 924.125 596.145C923.695 597.121 923.09 597.948 922.309 598.625C921.54 599.302 920.629 599.816 919.574 600.168C918.533 600.533 917.367 600.715 916.078 600.715C914.268 600.715 912.725 600.376 911.449 599.699C910.186 599.022 909.092 598.046 908.168 596.77L910.043 595.324C910.603 596.171 911.41 596.88 912.465 597.453C913.52 598.026 914.724 598.312 916.078 598.312C917.927 598.312 919.385 597.844 920.453 596.906C921.534 595.982 922.074 594.641 922.074 592.883V590.93C920.486 592.336 918.676 593.039 916.645 593.039C913.793 593.039 911.553 592.225 909.926 590.598C908.298 588.97 907.484 586.743 907.484 583.918C907.484 582.538 907.693 581.268 908.109 580.109C908.539 578.938 909.145 577.928 909.926 577.082C910.72 576.223 911.684 575.559 912.816 575.09C913.949 574.608 915.225 574.367 916.645 574.367C917.634 574.367 918.591 574.543 919.516 574.895C920.453 575.233 921.306 575.747 922.074 576.438V574.797H924.77V592.805ZM922.074 579.035C921.306 578.189 920.46 577.577 919.535 577.199C918.624 576.822 917.66 576.633 916.645 576.633C915.577 576.633 914.633 576.822 913.812 577.199C913.005 577.577 912.335 578.091 911.801 578.742C911.267 579.393 910.857 580.168 910.57 581.066C910.297 581.952 910.16 582.902 910.16 583.918C910.16 586.001 910.701 587.661 911.781 588.898C912.862 590.135 914.483 590.754 916.645 590.754C917.66 590.754 918.624 590.565 919.535 590.188C920.46 589.797 921.306 589.172 922.074 588.312V579.035ZM947.562 580.52H929.359V578.195H947.562V580.52ZM947.562 589.113H929.359V586.828H947.562V589.113ZM965.746 567.512L964.965 576.594H962.953L962.113 567.512H965.746ZM958.48 567.512L957.641 576.594H955.668L954.828 567.512H958.48ZM990.238 577.355C989.275 576.874 988.129 576.633 986.801 576.633C985.707 576.633 984.73 576.867 983.871 577.336C983.012 577.805 982.283 578.423 981.684 579.191C981.085 579.947 980.622 580.819 980.297 581.809C979.984 582.785 979.828 583.794 979.828 584.836V590.715H983.949V593H973.031V590.715H977.152V577.082H973.031V574.797H979.828V579.367C981.052 576.034 983.376 574.367 986.801 574.367C987.725 574.367 988.526 574.426 989.203 574.543C989.893 574.66 990.531 574.868 991.117 575.168L990.238 577.355ZM995.824 574.797H998.5V586.047C998.5 587.674 998.852 588.938 999.555 589.836C1000.27 590.721 1001.42 591.164 1002.99 591.164C1003.98 591.164 1004.87 590.936 1005.67 590.48C1006.46 590.025 1007.14 589.419 1007.7 588.664C1008.26 587.896 1008.68 587.023 1008.97 586.047C1009.27 585.057 1009.42 584.029 1009.42 582.961V574.797H1012.11V593H1009.42V588.449C1008.14 591.783 1005.85 593.449 1002.54 593.449C998.064 593.449 995.824 590.982 995.824 586.047V574.797ZM1031.25 567.512L1030.47 576.594H1028.46L1027.62 567.512H1031.25ZM1023.99 567.512L1023.15 576.594H1021.18L1020.34 567.512H1023.99ZM1052.86 583.664L1042.86 593.664L1041.33 592.121L1049.77 583.664L1041.33 575.227L1042.86 573.664L1052.86 583.664ZM726.391 632.121L724.887 633.664L714.887 623.664L724.887 613.664L726.391 615.227L717.953 623.664L726.391 632.121ZM750.082 633H747.387V621.77C747.387 620.142 747.035 618.879 746.332 617.98C745.629 617.082 744.49 616.633 742.914 616.633C741.924 616.633 741.026 616.861 740.219 617.316C739.424 617.772 738.747 618.384 738.188 619.152C737.628 619.908 737.198 620.78 736.898 621.77C736.612 622.746 736.469 623.768 736.469 624.836V633H733.793V607.512H736.469V619.367C737.758 616.034 740.056 614.367 743.363 614.367C747.842 614.367 750.082 616.835 750.082 621.77V633ZM757.348 624.836C757.543 626.763 758.246 628.299 759.457 629.445C760.668 630.591 762.243 631.164 764.184 631.164C765.551 631.164 766.768 630.884 767.836 630.324C768.904 629.764 769.704 629.068 770.238 628.234L772.113 629.523C771.202 630.799 770.115 631.776 768.852 632.453C767.589 633.117 766.033 633.449 764.184 633.449C762.777 633.449 761.488 633.215 760.316 632.746C759.145 632.277 758.129 631.626 757.27 630.793C756.423 629.947 755.766 628.944 755.297 627.785C754.828 626.626 754.594 625.337 754.594 623.918C754.594 622.538 754.802 621.268 755.219 620.109C755.648 618.938 756.26 617.928 757.055 617.082C757.862 616.223 758.839 615.559 759.984 615.09C761.13 614.608 762.413 614.367 763.832 614.367C765.382 614.367 766.736 614.628 767.895 615.148C769.053 615.669 770.017 616.392 770.785 617.316C771.566 618.228 772.139 619.322 772.504 620.598C772.882 621.874 773.07 623.286 773.07 624.836H757.348ZM770.238 622.551C769.939 620.559 769.216 619.074 768.07 618.098C766.924 617.121 765.512 616.633 763.832 616.633C762.973 616.633 762.178 616.776 761.449 617.062C760.72 617.336 760.076 617.733 759.516 618.254C758.956 618.775 758.487 619.406 758.109 620.148C757.732 620.878 757.491 621.678 757.387 622.551H770.238ZM776.469 628.078C776.469 626.932 776.755 625.975 777.328 625.207C777.901 624.426 778.65 623.814 779.574 623.371C780.512 622.915 781.579 622.59 782.777 622.395C783.988 622.186 785.219 622.082 786.469 622.082C786.951 622.082 787.38 622.089 787.758 622.102C788.148 622.115 788.513 622.134 788.852 622.16C789.203 622.186 789.555 622.219 789.906 622.258C790.258 622.297 790.642 622.342 791.059 622.395V621.086C791.059 620.201 790.863 619.471 790.473 618.898C790.095 618.326 789.626 617.876 789.066 617.551C788.507 617.212 787.921 616.978 787.309 616.848C786.697 616.704 786.176 616.633 785.746 616.633C784.392 616.633 783.142 616.815 781.996 617.18C780.85 617.544 779.783 618.033 778.793 618.645L777.582 616.633C778.676 615.969 779.9 615.428 781.254 615.012C782.621 614.582 784.118 614.367 785.746 614.367C786.736 614.367 787.706 614.497 788.656 614.758C789.62 615.005 790.479 615.396 791.234 615.93C792.003 616.451 792.615 617.141 793.07 618C793.526 618.859 793.754 619.888 793.754 621.086V633H791.059V629.953C790.59 630.539 790.056 631.053 789.457 631.496C788.871 631.939 788.253 632.303 787.602 632.59C786.951 632.863 786.299 633.072 785.648 633.215C784.997 633.371 784.379 633.449 783.793 633.449C781.384 633.449 779.561 632.987 778.324 632.062C777.087 631.138 776.469 629.81 776.469 628.078ZM783.793 631.164C784.913 631.164 785.915 631.001 786.801 630.676C787.699 630.337 788.461 629.921 789.086 629.426C789.711 628.931 790.193 628.404 790.531 627.844C790.883 627.284 791.059 626.776 791.059 626.32V624.602C790.186 624.471 789.346 624.4 788.539 624.387C787.745 624.374 787.055 624.367 786.469 624.367C785.505 624.367 784.574 624.432 783.676 624.562C782.79 624.693 782.016 624.908 781.352 625.207C780.688 625.493 780.154 625.871 779.75 626.34C779.346 626.809 779.145 627.388 779.145 628.078C779.145 628.846 779.516 629.556 780.258 630.207C781.013 630.845 782.191 631.164 783.793 631.164ZM815.59 633H812.895V631.32C812.126 632.01 811.28 632.538 810.355 632.902C809.444 633.267 808.507 633.449 807.543 633.449C806.098 633.449 804.802 633.215 803.656 632.746C802.51 632.277 801.54 631.626 800.746 630.793C799.965 629.947 799.359 628.938 798.93 627.766C798.513 626.594 798.305 625.311 798.305 623.918C798.305 622.538 798.513 621.262 798.93 620.09C799.359 618.905 799.965 617.896 800.746 617.062C801.54 616.216 802.51 615.559 803.656 615.09C804.802 614.608 806.098 614.367 807.543 614.367C808.507 614.367 809.444 614.543 810.355 614.895C811.28 615.233 812.126 615.747 812.895 616.438V609.797H809.262V607.512H815.59V633ZM812.895 619.035C812.126 618.189 811.286 617.577 810.375 617.199C809.477 616.822 808.52 616.633 807.504 616.633C806.436 616.633 805.492 616.822 804.672 617.199C803.865 617.577 803.188 618.091 802.641 618.742C802.094 619.393 801.677 620.161 801.391 621.047C801.117 621.919 800.98 622.876 800.98 623.918C800.98 624.96 801.117 625.923 801.391 626.809C801.677 627.681 802.094 628.443 802.641 629.094C803.188 629.745 803.865 630.259 804.672 630.637C805.492 631.014 806.436 631.203 807.504 631.203C809.561 631.203 811.358 630.389 812.895 628.762V619.035ZM834.496 623.664L824.496 633.664L822.973 632.121L831.41 623.664L822.973 615.227L824.496 613.664L834.496 623.664ZM770.062 672.121L768.559 673.664L758.559 663.664L768.559 653.664L770.062 655.227L761.625 663.664L770.062 672.121ZM794.711 673H792.035V659.914C792.035 658.872 791.853 658.065 791.488 657.492C791.124 656.919 790.596 656.633 789.906 656.633C788.891 656.633 788.142 657.167 787.66 658.234C787.191 659.302 786.957 660.799 786.957 662.727V673H784.262V659.914C784.262 658.872 784.073 658.065 783.695 657.492C783.331 656.919 782.803 656.633 782.113 656.633C781.475 656.633 780.967 656.822 780.59 657.199C780.212 657.577 779.913 658.059 779.691 658.645C779.483 659.23 779.346 659.882 779.281 660.598C779.216 661.314 779.184 662.023 779.184 662.727V673H776.508V654.797H779.184V657.434C779.743 655.389 780.961 654.367 782.836 654.367C784.62 654.367 785.831 655.259 786.469 657.043C787.354 655.259 788.604 654.367 790.219 654.367C791.768 654.367 792.901 654.829 793.617 655.754C794.346 656.665 794.711 658.052 794.711 659.914V673ZM801.02 664.836C801.215 666.763 801.918 668.299 803.129 669.445C804.34 670.591 805.915 671.164 807.855 671.164C809.223 671.164 810.44 670.884 811.508 670.324C812.576 669.764 813.376 669.068 813.91 668.234L815.785 669.523C814.874 670.799 813.786 671.776 812.523 672.453C811.26 673.117 809.704 673.449 807.855 673.449C806.449 673.449 805.16 673.215 803.988 672.746C802.816 672.277 801.801 671.626 800.941 670.793C800.095 669.947 799.438 668.944 798.969 667.785C798.5 666.626 798.266 665.337 798.266 663.918C798.266 662.538 798.474 661.268 798.891 660.109C799.32 658.938 799.932 657.928 800.727 657.082C801.534 656.223 802.51 655.559 803.656 655.09C804.802 654.608 806.085 654.367 807.504 654.367C809.053 654.367 810.408 654.628 811.566 655.148C812.725 655.669 813.689 656.392 814.457 657.316C815.238 658.228 815.811 659.322 816.176 660.598C816.553 661.874 816.742 663.286 816.742 664.836H801.02ZM813.91 662.551C813.611 660.559 812.888 659.074 811.742 658.098C810.596 657.121 809.184 656.633 807.504 656.633C806.645 656.633 805.85 656.776 805.121 657.062C804.392 657.336 803.747 657.733 803.188 658.254C802.628 658.775 802.159 659.406 801.781 660.148C801.404 660.878 801.163 661.678 801.059 662.551H813.91ZM838.578 667.199C838.37 669.113 837.615 670.637 836.312 671.77C835.023 672.889 833.409 673.449 831.469 673.449C830.401 673.449 829.424 673.273 828.539 672.922C827.654 672.57 826.898 672.082 826.273 671.457C825.648 670.832 825.16 670.083 824.809 669.211C824.47 668.326 824.301 667.362 824.301 666.32V657.082H820.18V654.797H824.301V647.512H826.977V654.797H834.73V657.082H826.977V666.32C826.977 666.984 827.081 667.609 827.289 668.195C827.51 668.781 827.81 669.296 828.188 669.738C828.578 670.181 829.047 670.533 829.594 670.793C830.141 671.04 830.766 671.164 831.469 671.164C832.797 671.164 833.904 670.754 834.789 669.934C835.688 669.1 836.202 668.026 836.332 666.711L838.578 667.199ZM841.977 668.078C841.977 666.932 842.263 665.975 842.836 665.207C843.409 664.426 844.158 663.814 845.082 663.371C846.02 662.915 847.087 662.59 848.285 662.395C849.496 662.186 850.727 662.082 851.977 662.082C852.458 662.082 852.888 662.089 853.266 662.102C853.656 662.115 854.021 662.134 854.359 662.16C854.711 662.186 855.062 662.219 855.414 662.258C855.766 662.297 856.15 662.342 856.566 662.395V661.086C856.566 660.201 856.371 659.471 855.98 658.898C855.603 658.326 855.134 657.876 854.574 657.551C854.014 657.212 853.428 656.978 852.816 656.848C852.204 656.704 851.684 656.633 851.254 656.633C849.9 656.633 848.65 656.815 847.504 657.18C846.358 657.544 845.29 658.033 844.301 658.645L843.09 656.633C844.184 655.969 845.408 655.428 846.762 655.012C848.129 654.582 849.626 654.367 851.254 654.367C852.243 654.367 853.214 654.497 854.164 654.758C855.128 655.005 855.987 655.396 856.742 655.93C857.51 656.451 858.122 657.141 858.578 658C859.034 658.859 859.262 659.888 859.262 661.086V673H856.566V669.953C856.098 670.539 855.564 671.053 854.965 671.496C854.379 671.939 853.76 672.303 853.109 672.59C852.458 672.863 851.807 673.072 851.156 673.215C850.505 673.371 849.887 673.449 849.301 673.449C846.892 673.449 845.069 672.987 843.832 672.062C842.595 671.138 841.977 669.81 841.977 668.078ZM849.301 671.164C850.421 671.164 851.423 671.001 852.309 670.676C853.207 670.337 853.969 669.921 854.594 669.426C855.219 668.931 855.701 668.404 856.039 667.844C856.391 667.284 856.566 666.776 856.566 666.32V664.602C855.694 664.471 854.854 664.4 854.047 664.387C853.253 664.374 852.562 664.367 851.977 664.367C851.013 664.367 850.082 664.432 849.184 664.562C848.298 664.693 847.523 664.908 846.859 665.207C846.195 665.493 845.661 665.871 845.258 666.34C844.854 666.809 844.652 667.388 844.652 668.078C844.652 668.846 845.023 669.556 845.766 670.207C846.521 670.845 847.699 671.164 849.301 671.164ZM903.207 669.523C902.439 670.721 901.384 671.678 900.043 672.395C898.715 673.098 897.133 673.449 895.297 673.449C893.878 673.449 892.576 673.215 891.391 672.746C890.206 672.277 889.19 671.626 888.344 670.793C887.51 669.947 886.859 668.944 886.391 667.785C885.922 666.626 885.688 665.337 885.688 663.918C885.688 662.538 885.902 661.262 886.332 660.09C886.762 658.905 887.374 657.896 888.168 657.062C888.962 656.216 889.932 655.559 891.078 655.09C892.237 654.608 893.52 654.367 894.926 654.367C895.486 654.367 896.059 654.432 896.645 654.562C897.23 654.693 897.784 654.895 898.305 655.168C898.826 655.428 899.294 655.747 899.711 656.125C900.128 656.49 900.44 656.926 900.648 657.434V654.797H903.051V662.082H900.648C900.648 661.275 900.499 660.539 900.199 659.875C899.913 659.211 899.516 658.638 899.008 658.156C898.5 657.674 897.895 657.303 897.191 657.043C896.488 656.77 895.733 656.633 894.926 656.633C893.832 656.633 892.875 656.822 892.055 657.199C891.247 657.577 890.57 658.091 890.023 658.742C889.477 659.393 889.06 660.161 888.773 661.047C888.5 661.919 888.363 662.876 888.363 663.918C888.363 664.96 888.52 665.923 888.832 666.809C889.158 667.681 889.62 668.436 890.219 669.074C890.831 669.712 891.56 670.22 892.406 670.598C893.266 670.975 894.229 671.164 895.297 671.164C896.651 671.164 897.855 670.897 898.91 670.363C899.965 669.829 900.772 669.12 901.332 668.234L903.207 669.523ZM924.77 673H922.074V661.77C922.074 660.142 921.723 658.879 921.02 657.98C920.316 657.082 919.177 656.633 917.602 656.633C916.612 656.633 915.714 656.861 914.906 657.316C914.112 657.772 913.435 658.384 912.875 659.152C912.315 659.908 911.885 660.78 911.586 661.77C911.299 662.746 911.156 663.768 911.156 664.836V673H908.48V647.512H911.156V659.367C912.445 656.034 914.743 654.367 918.051 654.367C922.53 654.367 924.77 656.835 924.77 661.77V673ZM929.32 668.078C929.32 666.932 929.607 665.975 930.18 665.207C930.753 664.426 931.501 663.814 932.426 663.371C933.363 662.915 934.431 662.59 935.629 662.395C936.84 662.186 938.07 662.082 939.32 662.082C939.802 662.082 940.232 662.089 940.609 662.102C941 662.115 941.365 662.134 941.703 662.16C942.055 662.186 942.406 662.219 942.758 662.258C943.109 662.297 943.493 662.342 943.91 662.395V661.086C943.91 660.201 943.715 659.471 943.324 658.898C942.947 658.326 942.478 657.876 941.918 657.551C941.358 657.212 940.772 656.978 940.16 656.848C939.548 656.704 939.027 656.633 938.598 656.633C937.243 656.633 935.993 656.815 934.848 657.18C933.702 657.544 932.634 658.033 931.645 658.645L930.434 656.633C931.527 655.969 932.751 655.428 934.105 655.012C935.473 654.582 936.97 654.367 938.598 654.367C939.587 654.367 940.557 654.497 941.508 654.758C942.471 655.005 943.331 655.396 944.086 655.93C944.854 656.451 945.466 657.141 945.922 658C946.378 658.859 946.605 659.888 946.605 661.086V673H943.91V669.953C943.441 670.539 942.908 671.053 942.309 671.496C941.723 671.939 941.104 672.303 940.453 672.59C939.802 672.863 939.151 673.072 938.5 673.215C937.849 673.371 937.23 673.449 936.645 673.449C934.236 673.449 932.413 672.987 931.176 672.062C929.939 671.138 929.32 669.81 929.32 668.078ZM936.645 671.164C937.764 671.164 938.767 671.001 939.652 670.676C940.551 670.337 941.312 669.921 941.938 669.426C942.562 668.931 943.044 668.404 943.383 667.844C943.734 667.284 943.91 666.776 943.91 666.32V664.602C943.038 664.471 942.198 664.4 941.391 664.387C940.596 664.374 939.906 664.367 939.32 664.367C938.357 664.367 937.426 664.432 936.527 664.562C935.642 664.693 934.867 664.908 934.203 665.207C933.539 665.493 933.005 665.871 932.602 666.34C932.198 666.809 931.996 667.388 931.996 668.078C931.996 668.846 932.367 669.556 933.109 670.207C933.865 670.845 935.043 671.164 936.645 671.164ZM968.402 657.355C967.439 656.874 966.293 656.633 964.965 656.633C963.871 656.633 962.895 656.867 962.035 657.336C961.176 657.805 960.447 658.423 959.848 659.191C959.249 659.947 958.786 660.819 958.461 661.809C958.148 662.785 957.992 663.794 957.992 664.836V670.715H962.113V673H951.195V670.715H955.316V657.082H951.195V654.797H957.992V659.367C959.216 656.034 961.54 654.367 964.965 654.367C965.889 654.367 966.69 654.426 967.367 654.543C968.057 654.66 968.695 654.868 969.281 655.168L968.402 657.355ZM990.746 667.961C990.746 669.029 990.479 669.914 989.945 670.617C989.411 671.32 988.721 671.88 987.875 672.297C987.042 672.714 986.104 673.007 985.062 673.176C984.034 673.358 983.025 673.449 982.035 673.449C980.382 673.449 978.734 673.208 977.094 672.727C975.453 672.245 974.034 671.613 972.836 670.832L974.027 668.527C975.368 669.374 976.69 670.025 977.992 670.48C979.294 670.936 980.642 671.164 982.035 671.164C986.059 671.164 988.07 670.122 988.07 668.039C988.07 667.531 987.901 667.121 987.562 666.809C987.237 666.483 986.794 666.223 986.234 666.027C985.674 665.819 985.03 665.656 984.301 665.539C983.585 665.422 982.829 665.311 982.035 665.207C981.02 665.064 980.01 664.895 979.008 664.699C978.005 664.504 977.087 664.211 976.254 663.82C975.434 663.43 974.77 662.909 974.262 662.258C973.767 661.607 973.52 660.747 973.52 659.68C973.52 658.768 973.747 657.98 974.203 657.316C974.672 656.652 975.29 656.099 976.059 655.656C976.84 655.214 977.751 654.888 978.793 654.68C979.835 654.471 980.915 654.367 982.035 654.367C983.637 654.367 985.069 654.556 986.332 654.934C987.595 655.298 988.734 655.826 989.75 656.516L988.676 658.605C987.634 657.876 986.579 657.368 985.512 657.082C984.444 656.783 983.285 656.633 982.035 656.633C981.475 656.633 980.85 656.685 980.16 656.789C979.483 656.88 978.852 657.049 978.266 657.297C977.68 657.531 977.185 657.844 976.781 658.234C976.391 658.612 976.195 659.094 976.195 659.68C976.195 660.188 976.358 660.598 976.684 660.91C977.022 661.21 977.471 661.464 978.031 661.672C978.591 661.867 979.229 662.023 979.945 662.141C980.674 662.258 981.436 662.368 982.23 662.473C983.22 662.616 984.216 662.785 985.219 662.98C986.234 663.176 987.152 663.462 987.973 663.84C988.806 664.217 989.477 664.732 989.984 665.383C990.492 666.034 990.746 666.893 990.746 667.961ZM997.543 664.836C997.738 666.763 998.441 668.299 999.652 669.445C1000.86 670.591 1002.44 671.164 1004.38 671.164C1005.75 671.164 1006.96 670.884 1008.03 670.324C1009.1 669.764 1009.9 669.068 1010.43 668.234L1012.31 669.523C1011.4 670.799 1010.31 671.776 1009.05 672.453C1007.78 673.117 1006.23 673.449 1004.38 673.449C1002.97 673.449 1001.68 673.215 1000.51 672.746C999.34 672.277 998.324 671.626 997.465 670.793C996.618 669.947 995.961 668.944 995.492 667.785C995.023 666.626 994.789 665.337 994.789 663.918C994.789 662.538 994.997 661.268 995.414 660.109C995.844 658.938 996.456 657.928 997.25 657.082C998.057 656.223 999.034 655.559 1000.18 655.09C1001.33 654.608 1002.61 654.367 1004.03 654.367C1005.58 654.367 1006.93 654.628 1008.09 655.148C1009.25 655.669 1010.21 656.392 1010.98 657.316C1011.76 658.228 1012.33 659.322 1012.7 660.598C1013.08 661.874 1013.27 663.286 1013.27 664.836H997.543ZM1010.43 662.551C1010.13 660.559 1009.41 659.074 1008.27 658.098C1007.12 657.121 1005.71 656.633 1004.03 656.633C1003.17 656.633 1002.37 656.776 1001.64 657.062C1000.92 657.336 1000.27 657.733 999.711 658.254C999.151 658.775 998.682 659.406 998.305 660.148C997.927 660.878 997.686 661.678 997.582 662.551H1010.43ZM1035.1 667.199C1034.89 669.113 1034.14 670.637 1032.84 671.77C1031.55 672.889 1029.93 673.449 1027.99 673.449C1026.92 673.449 1025.95 673.273 1025.06 672.922C1024.18 672.57 1023.42 672.082 1022.8 671.457C1022.17 670.832 1021.68 670.083 1021.33 669.211C1020.99 668.326 1020.82 667.362 1020.82 666.32V657.082H1016.7V654.797H1020.82V647.512H1023.5V654.797H1031.25V657.082H1023.5V666.32C1023.5 666.984 1023.6 667.609 1023.81 668.195C1024.03 668.781 1024.33 669.296 1024.71 669.738C1025.1 670.181 1025.57 670.533 1026.12 670.793C1026.66 671.04 1027.29 671.164 1027.99 671.164C1029.32 671.164 1030.43 670.754 1031.31 669.934C1032.21 669.1 1032.73 668.026 1032.86 666.711L1035.1 667.199ZM1056.74 660.52H1038.54V658.195H1056.74V660.52ZM1056.74 669.113H1038.54V666.828H1056.74V669.113ZM1074.93 647.512L1074.14 656.594H1072.13L1071.29 647.512H1074.93ZM1067.66 647.512L1066.82 656.594H1064.85L1064.01 647.512H1067.66ZM1099.46 663.918C1099.46 665.363 1099.29 666.672 1098.97 667.844C1098.66 669.016 1098.16 670.018 1097.48 670.852C1096.82 671.672 1095.97 672.31 1094.95 672.766C1093.92 673.221 1092.7 673.449 1091.29 673.449C1089.87 673.449 1088.65 673.221 1087.62 672.766C1086.61 672.31 1085.77 671.672 1085.1 670.852C1084.45 670.018 1083.96 669.009 1083.64 667.824C1083.32 666.639 1083.17 665.324 1083.17 663.879V647.512H1085.84V663.918C1085.84 664.686 1085.91 665.5 1086.04 666.359C1086.18 667.219 1086.45 668 1086.84 668.703C1087.24 669.406 1087.8 669.992 1088.5 670.461C1089.22 670.93 1090.15 671.164 1091.29 671.164C1092.44 671.164 1093.37 670.93 1094.09 670.461C1094.82 669.992 1095.38 669.406 1095.77 668.703C1096.17 668 1096.44 667.219 1096.57 666.359C1096.7 665.5 1096.76 664.686 1096.76 663.918V647.512H1099.46V663.918ZM1122.25 656.125H1119.96V649.797H1114.5V670.715H1118.6V673H1107.68V670.715H1111.8V649.797H1106.33V656.125H1104.05V647.512H1122.25V656.125ZM1143.13 649.797H1129.52V658.918H1139.55V661.203H1129.52V673H1126.84V647.512H1143.13V649.797ZM1165.92 664.797H1147.72V662.512H1165.92V664.797ZM1187.95 665.832C1187.95 667.173 1187.71 668.319 1187.23 669.27C1186.75 670.207 1186.08 670.988 1185.24 671.613C1184.4 672.238 1183.42 672.701 1182.29 673C1181.16 673.299 1179.95 673.449 1178.68 673.449C1177.37 673.449 1176.16 673.299 1175.04 673C1173.92 672.701 1172.94 672.238 1172.09 671.613C1171.26 670.988 1170.6 670.207 1170.12 669.27C1169.64 668.319 1169.4 667.173 1169.4 665.832C1169.4 665.142 1169.52 664.445 1169.77 663.742C1170.03 663.039 1170.39 662.388 1170.86 661.789C1171.35 661.177 1171.92 660.676 1172.6 660.285C1173.29 659.882 1174.05 659.628 1174.87 659.523C1174.15 659.445 1173.51 659.211 1172.95 658.82C1172.39 658.43 1171.92 657.974 1171.53 657.453C1171.15 656.932 1170.85 656.366 1170.63 655.754C1170.42 655.142 1170.32 654.556 1170.32 653.996C1170.32 652.85 1170.54 651.848 1171 650.988C1171.46 650.116 1172.07 649.393 1172.84 648.82C1173.6 648.247 1174.5 647.818 1175.51 647.531C1176.53 647.232 1177.58 647.082 1178.68 647.082C1179.77 647.082 1180.82 647.232 1181.84 647.531C1182.86 647.818 1183.75 648.247 1184.52 648.82C1185.28 649.393 1185.9 650.116 1186.35 650.988C1186.81 651.848 1187.04 652.85 1187.04 653.996C1187.04 654.556 1186.92 655.142 1186.7 655.754C1186.49 656.366 1186.2 656.932 1185.8 657.453C1185.43 657.974 1184.95 658.43 1184.38 658.82C1183.81 659.211 1183.15 659.445 1182.43 659.523C1183.26 659.628 1184.01 659.882 1184.69 660.285C1185.37 660.676 1185.95 661.177 1186.43 661.789C1186.91 662.388 1187.28 663.039 1187.54 663.742C1187.82 664.445 1187.95 665.142 1187.95 665.832ZM1184.36 653.996C1184.36 652.564 1183.85 651.438 1182.84 650.617C1181.82 649.784 1180.43 649.367 1178.68 649.367C1176.92 649.367 1175.53 649.784 1174.52 650.617C1173.5 651.438 1172.99 652.564 1172.99 653.996C1172.99 655.337 1173.47 656.405 1174.44 657.199C1175.4 657.993 1176.81 658.391 1178.68 658.391C1180.54 658.391 1181.95 657.993 1182.91 657.199C1183.88 656.405 1184.36 655.337 1184.36 653.996ZM1185.28 665.832C1185.28 664.908 1185.1 664.12 1184.73 663.469C1184.38 662.805 1183.89 662.271 1183.27 661.867C1182.65 661.451 1181.96 661.151 1181.18 660.969C1180.39 660.773 1179.56 660.676 1178.68 660.676C1177.79 660.676 1176.96 660.773 1176.18 660.969C1175.39 661.151 1174.69 661.451 1174.07 661.867C1173.45 662.271 1172.97 662.805 1172.6 663.469C1172.25 664.12 1172.07 664.908 1172.07 665.832C1172.07 666.743 1172.25 667.531 1172.6 668.195C1172.97 668.859 1173.45 669.413 1174.07 669.855C1174.69 670.298 1175.39 670.63 1176.18 670.852C1176.96 671.06 1177.79 671.164 1178.68 671.164C1179.56 671.164 1180.39 671.06 1181.18 670.852C1181.96 670.63 1182.65 670.298 1183.27 669.855C1183.89 669.413 1184.38 668.859 1184.73 668.195C1185.1 667.531 1185.28 666.743 1185.28 665.832ZM1205.94 647.512L1205.16 656.594H1203.15L1202.31 647.512H1205.94ZM1198.68 647.512L1197.84 656.594H1195.86L1195.02 647.512H1198.68ZM1227.54 663.664L1217.54 673.664L1216.02 672.121L1224.46 663.664L1216.02 655.227L1217.54 653.664L1227.54 663.664ZM770.062 712.121L768.559 713.664L758.559 703.664L768.559 693.664L770.062 695.227L761.625 703.664L770.062 712.121ZM794.906 707.199C794.698 709.113 793.943 710.637 792.641 711.77C791.352 712.889 789.737 713.449 787.797 713.449C786.729 713.449 785.753 713.273 784.867 712.922C783.982 712.57 783.227 712.082 782.602 711.457C781.977 710.832 781.488 710.083 781.137 709.211C780.798 708.326 780.629 707.362 780.629 706.32V697.082H776.508V694.797H780.629V687.512H783.305V694.797H791.059V697.082H783.305V706.32C783.305 706.984 783.409 707.609 783.617 708.195C783.839 708.781 784.138 709.296 784.516 709.738C784.906 710.181 785.375 710.533 785.922 710.793C786.469 711.04 787.094 711.164 787.797 711.164C789.125 711.164 790.232 710.754 791.117 709.934C792.016 709.1 792.53 708.026 792.66 706.711L794.906 707.199ZM809.262 691.164H805.629V687.512H809.262V691.164ZM812.895 713H801.977V710.715H806.098V697.082H801.977V694.797H808.793V710.715H812.895V713ZM838.578 707.199C838.37 709.113 837.615 710.637 836.312 711.77C835.023 712.889 833.409 713.449 831.469 713.449C830.401 713.449 829.424 713.273 828.539 712.922C827.654 712.57 826.898 712.082 826.273 711.457C825.648 710.832 825.16 710.083 824.809 709.211C824.47 708.326 824.301 707.362 824.301 706.32V697.082H820.18V694.797H824.301V687.512H826.977V694.797H834.73V697.082H826.977V706.32C826.977 706.984 827.081 707.609 827.289 708.195C827.51 708.781 827.81 709.296 828.188 709.738C828.578 710.181 829.047 710.533 829.594 710.793C830.141 711.04 830.766 711.164 831.469 711.164C832.797 711.164 833.904 710.754 834.789 709.934C835.688 709.1 836.202 708.026 836.332 706.711L838.578 707.199ZM856.566 713H845.648V710.715H849.77V689.797H845.648V687.512H852.465V710.715H856.566V713ZM866.527 704.836C866.723 706.763 867.426 708.299 868.637 709.445C869.848 710.591 871.423 711.164 873.363 711.164C874.73 711.164 875.948 710.884 877.016 710.324C878.083 709.764 878.884 709.068 879.418 708.234L881.293 709.523C880.382 710.799 879.294 711.776 878.031 712.453C876.768 713.117 875.212 713.449 873.363 713.449C871.957 713.449 870.668 713.215 869.496 712.746C868.324 712.277 867.309 711.626 866.449 710.793C865.603 709.947 864.945 708.944 864.477 707.785C864.008 706.626 863.773 705.337 863.773 703.918C863.773 702.538 863.982 701.268 864.398 700.109C864.828 698.938 865.44 697.928 866.234 697.082C867.042 696.223 868.018 695.559 869.164 695.09C870.31 694.608 871.592 694.367 873.012 694.367C874.561 694.367 875.915 694.628 877.074 695.148C878.233 695.669 879.197 696.392 879.965 697.316C880.746 698.228 881.319 699.322 881.684 700.598C882.061 701.874 882.25 703.286 882.25 704.836H866.527ZM879.418 702.551C879.118 700.559 878.396 699.074 877.25 698.098C876.104 697.121 874.691 696.633 873.012 696.633C872.152 696.633 871.358 696.776 870.629 697.062C869.9 697.336 869.255 697.733 868.695 698.254C868.135 698.775 867.667 699.406 867.289 700.148C866.911 700.878 866.671 701.678 866.566 702.551H879.418ZM900.004 703.664L890.004 713.664L888.48 712.121L896.918 703.664L888.48 695.227L890.004 693.664L900.004 703.664ZM926.957 713H924.086L921.684 705.715H911.605L909.242 713H906.371L914.848 687.512H918.48L926.957 713ZM920.922 703.352L916.645 690.207L912.367 703.352H920.922ZM946.605 713H943.91V701.77C943.91 700.142 943.559 698.879 942.855 697.98C942.152 697.082 941.013 696.633 939.438 696.633C938.448 696.633 937.549 696.861 936.742 697.316C935.948 697.772 935.271 698.384 934.711 699.152C934.151 699.908 933.721 700.78 933.422 701.77C933.135 702.746 932.992 703.768 932.992 704.836V713H930.316V694.797H932.992V699.367C934.281 696.034 936.579 694.367 939.887 694.367C944.366 694.367 946.605 696.835 946.605 701.77V713ZM969.867 703.957C969.867 705.376 969.639 706.665 969.184 707.824C968.741 708.983 968.096 709.979 967.25 710.812C966.417 711.633 965.414 712.277 964.242 712.746C963.07 713.215 961.762 713.449 960.316 713.449C958.897 713.449 957.602 713.215 956.43 712.746C955.258 712.277 954.249 711.633 953.402 710.812C952.569 709.979 951.924 708.983 951.469 707.824C951.026 706.665 950.805 705.376 950.805 703.957C950.805 702.577 951.026 701.294 951.469 700.109C951.924 698.911 952.569 697.896 953.402 697.062C954.249 696.216 955.258 695.559 956.43 695.09C957.602 694.608 958.897 694.367 960.316 694.367C961.762 694.367 963.07 694.608 964.242 695.09C965.414 695.559 966.417 696.216 967.25 697.062C968.096 697.896 968.741 698.911 969.184 700.109C969.639 701.294 969.867 702.577 969.867 703.957ZM967.191 703.957C967.191 702.915 967.035 701.958 966.723 701.086C966.423 700.201 965.974 699.426 965.375 698.762C964.776 698.098 964.047 697.577 963.188 697.199C962.341 696.822 961.384 696.633 960.316 696.633C959.249 696.633 958.285 696.822 957.426 697.199C956.579 697.577 955.863 698.098 955.277 698.762C954.691 699.426 954.242 700.201 953.93 701.086C953.63 701.958 953.48 702.915 953.48 703.957C953.48 704.999 953.63 705.962 953.93 706.848C954.242 707.72 954.691 708.475 955.277 709.113C955.863 709.751 956.579 710.253 957.426 710.617C958.285 710.982 959.249 711.164 960.316 711.164C961.384 711.164 962.341 710.982 963.188 710.617C964.047 710.253 964.776 709.751 965.375 709.113C965.974 708.475 966.423 707.72 966.723 706.848C967.035 705.962 967.191 704.999 967.191 703.957ZM990.277 713H987.582V701.77C987.582 700.142 987.23 698.879 986.527 697.98C985.824 697.082 984.685 696.633 983.109 696.633C982.12 696.633 981.221 696.861 980.414 697.316C979.62 697.772 978.943 698.384 978.383 699.152C977.823 699.908 977.393 700.78 977.094 701.77C976.807 702.746 976.664 703.768 976.664 704.836V713H973.988V694.797H976.664V699.367C977.953 696.034 980.251 694.367 983.559 694.367C988.038 694.367 990.277 696.835 990.277 701.77V713ZM1013.64 694.797L1003.79 717.609C1003.29 718.885 1002.57 719.719 1001.64 720.109C1000.72 720.513 999.698 720.715 998.578 720.715C997.328 720.715 996.078 720.487 994.828 720.031L995.355 717.727C995.967 717.987 996.566 718.169 997.152 718.273C997.738 718.391 998.214 718.449 998.578 718.449C999.464 718.449 1000.07 718.234 1000.39 717.805C1000.73 717.375 1001.03 716.867 1001.27 716.281L1002.39 713.527L994.262 694.797H997.426L1003.99 710.715L1010.43 694.797H1013.64ZM1034.91 713H1032.23V699.914C1032.23 698.872 1032.05 698.065 1031.68 697.492C1031.32 696.919 1030.79 696.633 1030.1 696.633C1029.09 696.633 1028.34 697.167 1027.86 698.234C1027.39 699.302 1027.15 700.799 1027.15 702.727V713H1024.46V699.914C1024.46 698.872 1024.27 698.065 1023.89 697.492C1023.53 696.919 1023 696.633 1022.31 696.633C1021.67 696.633 1021.16 696.822 1020.79 697.199C1020.41 697.577 1020.11 698.059 1019.89 698.645C1019.68 699.23 1019.54 699.882 1019.48 700.598C1019.41 701.314 1019.38 702.023 1019.38 702.727V713H1016.7V694.797H1019.38V697.434C1019.94 695.389 1021.16 694.367 1023.03 694.367C1024.82 694.367 1026.03 695.259 1026.66 697.043C1027.55 695.259 1028.8 694.367 1030.41 694.367C1031.96 694.367 1033.1 694.829 1033.81 695.754C1034.54 696.665 1034.91 698.052 1034.91 699.914V713ZM1057.21 703.957C1057.21 705.376 1056.98 706.665 1056.53 707.824C1056.08 708.983 1055.44 709.979 1054.59 710.812C1053.76 711.633 1052.76 712.277 1051.59 712.746C1050.41 713.215 1049.11 713.449 1047.66 713.449C1046.24 713.449 1044.95 713.215 1043.77 712.746C1042.6 712.277 1041.59 711.633 1040.75 710.812C1039.91 709.979 1039.27 708.983 1038.81 707.824C1038.37 706.665 1038.15 705.376 1038.15 703.957C1038.15 702.577 1038.37 701.294 1038.81 700.109C1039.27 698.911 1039.91 697.896 1040.75 697.062C1041.59 696.216 1042.6 695.559 1043.77 695.09C1044.95 694.608 1046.24 694.367 1047.66 694.367C1049.11 694.367 1050.41 694.608 1051.59 695.09C1052.76 695.559 1053.76 696.216 1054.59 697.062C1055.44 697.896 1056.08 698.911 1056.53 700.109C1056.98 701.294 1057.21 702.577 1057.21 703.957ZM1054.54 703.957C1054.54 702.915 1054.38 701.958 1054.07 701.086C1053.77 700.201 1053.32 699.426 1052.72 698.762C1052.12 698.098 1051.39 697.577 1050.53 697.199C1049.68 696.822 1048.73 696.633 1047.66 696.633C1046.59 696.633 1045.63 696.822 1044.77 697.199C1043.92 697.577 1043.21 698.098 1042.62 698.762C1042.04 699.426 1041.59 700.201 1041.27 701.086C1040.97 701.958 1040.82 702.915 1040.82 703.957C1040.82 704.999 1040.97 705.962 1041.27 706.848C1041.59 707.72 1042.04 708.475 1042.62 709.113C1043.21 709.751 1043.92 710.253 1044.77 710.617C1045.63 710.982 1046.59 711.164 1047.66 711.164C1048.73 711.164 1049.68 710.982 1050.53 710.617C1051.39 710.253 1052.12 709.751 1052.72 709.113C1053.32 708.475 1053.77 707.72 1054.07 706.848C1054.38 705.962 1054.54 704.999 1054.54 703.957ZM1061.33 694.797H1064.01V706.047C1064.01 707.674 1064.36 708.938 1065.06 709.836C1065.78 710.721 1066.92 711.164 1068.5 711.164C1069.49 711.164 1070.38 710.936 1071.18 710.48C1071.97 710.025 1072.65 709.419 1073.21 708.664C1073.77 707.896 1074.19 707.023 1074.48 706.047C1074.78 705.057 1074.93 704.029 1074.93 702.961V694.797H1077.62V713H1074.93V708.449C1073.65 711.783 1071.36 713.449 1068.05 713.449C1063.57 713.449 1061.33 710.982 1061.33 706.047V694.797ZM1099.93 707.961C1099.93 709.029 1099.66 709.914 1099.12 710.617C1098.59 711.32 1097.9 711.88 1097.05 712.297C1096.22 712.714 1095.28 713.007 1094.24 713.176C1093.21 713.358 1092.2 713.449 1091.21 713.449C1089.56 713.449 1087.91 713.208 1086.27 712.727C1084.63 712.245 1083.21 711.613 1082.02 710.832L1083.21 708.527C1084.55 709.374 1085.87 710.025 1087.17 710.48C1088.47 710.936 1089.82 711.164 1091.21 711.164C1095.24 711.164 1097.25 710.122 1097.25 708.039C1097.25 707.531 1097.08 707.121 1096.74 706.809C1096.42 706.483 1095.97 706.223 1095.41 706.027C1094.85 705.819 1094.21 705.656 1093.48 705.539C1092.76 705.422 1092.01 705.311 1091.21 705.207C1090.2 705.064 1089.19 704.895 1088.19 704.699C1087.18 704.504 1086.27 704.211 1085.43 703.82C1084.61 703.43 1083.95 702.909 1083.44 702.258C1082.95 701.607 1082.7 700.747 1082.7 699.68C1082.7 698.768 1082.93 697.98 1083.38 697.316C1083.85 696.652 1084.47 696.099 1085.24 695.656C1086.02 695.214 1086.93 694.888 1087.97 694.68C1089.01 694.471 1090.1 694.367 1091.21 694.367C1092.82 694.367 1094.25 694.556 1095.51 694.934C1096.77 695.298 1097.91 695.826 1098.93 696.516L1097.86 698.605C1096.81 697.876 1095.76 697.368 1094.69 697.082C1093.62 696.783 1092.46 696.633 1091.21 696.633C1090.65 696.633 1090.03 696.685 1089.34 696.789C1088.66 696.88 1088.03 697.049 1087.45 697.297C1086.86 697.531 1086.36 697.844 1085.96 698.234C1085.57 698.612 1085.38 699.094 1085.38 699.68C1085.38 700.188 1085.54 700.598 1085.86 700.91C1086.2 701.21 1086.65 701.464 1087.21 701.672C1087.77 701.867 1088.41 702.023 1089.12 702.141C1089.85 702.258 1090.62 702.368 1091.41 702.473C1092.4 702.616 1093.4 702.785 1094.4 702.98C1095.41 703.176 1096.33 703.462 1097.15 703.84C1097.99 704.217 1098.66 704.732 1099.16 705.383C1099.67 706.034 1099.93 706.893 1099.93 707.961ZM1144.05 694.797C1144.05 697.258 1143.28 699.087 1141.74 700.285C1140.21 701.483 1138.05 702.082 1135.28 702.082H1129.52V713H1126.84V687.512H1135.24C1138.04 687.512 1140.21 688.124 1141.74 689.348C1143.28 690.559 1144.05 692.375 1144.05 694.797ZM1141.37 694.797C1141.37 693.039 1140.82 691.77 1139.71 690.988C1138.6 690.194 1137.13 689.797 1135.28 689.797H1129.52V699.797H1135.28C1137.13 699.797 1138.6 699.406 1139.71 698.625C1140.82 697.831 1141.37 696.555 1141.37 694.797ZM1164.93 697.355C1163.96 696.874 1162.82 696.633 1161.49 696.633C1160.39 696.633 1159.42 696.867 1158.56 697.336C1157.7 697.805 1156.97 698.423 1156.37 699.191C1155.77 699.947 1155.31 700.819 1154.98 701.809C1154.67 702.785 1154.52 703.794 1154.52 704.836V710.715H1158.64V713H1147.72V710.715H1151.84V697.082H1147.72V694.797H1154.52V699.367C1155.74 696.034 1158.06 694.367 1161.49 694.367C1162.41 694.367 1163.21 694.426 1163.89 694.543C1164.58 694.66 1165.22 694.868 1165.8 695.168L1164.93 697.355ZM1188.23 703.957C1188.23 705.376 1188 706.665 1187.54 707.824C1187.1 708.983 1186.46 709.979 1185.61 710.812C1184.78 711.633 1183.77 712.277 1182.6 712.746C1181.43 713.215 1180.12 713.449 1178.68 713.449C1177.26 713.449 1175.96 713.215 1174.79 712.746C1173.62 712.277 1172.61 711.633 1171.76 710.812C1170.93 709.979 1170.28 708.983 1169.83 707.824C1169.39 706.665 1169.16 705.376 1169.16 703.957C1169.16 702.577 1169.39 701.294 1169.83 700.109C1170.28 698.911 1170.93 697.896 1171.76 697.062C1172.61 696.216 1173.62 695.559 1174.79 695.09C1175.96 694.608 1177.26 694.367 1178.68 694.367C1180.12 694.367 1181.43 694.608 1182.6 695.09C1183.77 695.559 1184.78 696.216 1185.61 697.062C1186.46 697.896 1187.1 698.911 1187.54 700.109C1188 701.294 1188.23 702.577 1188.23 703.957ZM1185.55 703.957C1185.55 702.915 1185.39 701.958 1185.08 701.086C1184.78 700.201 1184.33 699.426 1183.73 698.762C1183.14 698.098 1182.41 697.577 1181.55 697.199C1180.7 696.822 1179.74 696.633 1178.68 696.633C1177.61 696.633 1176.64 696.822 1175.79 697.199C1174.94 697.577 1174.22 698.098 1173.64 698.762C1173.05 699.426 1172.6 700.201 1172.29 701.086C1171.99 701.958 1171.84 702.915 1171.84 703.957C1171.84 704.999 1171.99 705.962 1172.29 706.848C1172.6 707.72 1173.05 708.475 1173.64 709.113C1174.22 709.751 1174.94 710.253 1175.79 710.617C1176.64 710.982 1177.61 711.164 1178.68 711.164C1179.74 711.164 1180.7 710.982 1181.55 710.617C1182.41 710.253 1183.14 709.751 1183.73 709.113C1184.33 708.475 1184.78 707.72 1185.08 706.848C1185.39 705.962 1185.55 704.999 1185.55 703.957ZM1206.78 712.121L1205.28 713.664L1195.28 703.664L1205.28 693.664L1206.78 695.227L1198.34 703.664L1206.78 712.121ZM1230.9 687.551L1215.94 717.688L1214.03 716.672L1228.99 686.555L1230.9 687.551ZM1253.46 707.199C1253.25 709.113 1252.5 710.637 1251.2 711.77C1249.91 712.889 1248.29 713.449 1246.35 713.449C1245.28 713.449 1244.31 713.273 1243.42 712.922C1242.54 712.57 1241.78 712.082 1241.16 711.457C1240.53 710.832 1240.04 710.083 1239.69 709.211C1239.35 708.326 1239.18 707.362 1239.18 706.32V697.082H1235.06V694.797H1239.18V687.512H1241.86V694.797H1249.61V697.082H1241.86V706.32C1241.86 706.984 1241.96 707.609 1242.17 708.195C1242.39 708.781 1242.69 709.296 1243.07 709.738C1243.46 710.181 1243.93 710.533 1244.48 710.793C1245.02 711.04 1245.65 711.164 1246.35 711.164C1247.68 711.164 1248.79 710.754 1249.67 709.934C1250.57 709.1 1251.08 708.026 1251.21 706.711L1253.46 707.199ZM1267.82 691.164H1264.18V687.512H1267.82V691.164ZM1271.45 713H1260.53V710.715H1264.65V697.082H1260.53V694.797H1267.35V710.715H1271.45V713ZM1297.13 707.199C1296.92 709.113 1296.17 710.637 1294.87 711.77C1293.58 712.889 1291.96 713.449 1290.02 713.449C1288.96 713.449 1287.98 713.273 1287.09 712.922C1286.21 712.57 1285.45 712.082 1284.83 711.457C1284.2 710.832 1283.71 710.083 1283.36 709.211C1283.02 708.326 1282.86 707.362 1282.86 706.32V697.082H1278.73V694.797H1282.86V687.512H1285.53V694.797H1293.29V697.082H1285.53V706.32C1285.53 706.984 1285.64 707.609 1285.84 708.195C1286.07 708.781 1286.36 709.296 1286.74 709.738C1287.13 710.181 1287.6 710.533 1288.15 710.793C1288.7 711.04 1289.32 711.164 1290.02 711.164C1291.35 711.164 1292.46 710.754 1293.34 709.934C1294.24 709.1 1294.76 708.026 1294.89 706.711L1297.13 707.199ZM1315.12 713H1304.2V710.715H1308.32V689.797H1304.2V687.512H1311.02V710.715H1315.12V713ZM1325.08 704.836C1325.28 706.763 1325.98 708.299 1327.19 709.445C1328.4 710.591 1329.98 711.164 1331.92 711.164C1333.29 711.164 1334.5 710.884 1335.57 710.324C1336.64 709.764 1337.44 709.068 1337.97 708.234L1339.85 709.523C1338.94 710.799 1337.85 711.776 1336.59 712.453C1335.32 713.117 1333.77 713.449 1331.92 713.449C1330.51 713.449 1329.22 713.215 1328.05 712.746C1326.88 712.277 1325.86 711.626 1325 710.793C1324.16 709.947 1323.5 708.944 1323.03 707.785C1322.56 706.626 1322.33 705.337 1322.33 703.918C1322.33 702.538 1322.54 701.268 1322.95 700.109C1323.38 698.938 1323.99 697.928 1324.79 697.082C1325.6 696.223 1326.57 695.559 1327.72 695.09C1328.86 694.608 1330.15 694.367 1331.57 694.367C1333.12 694.367 1334.47 694.628 1335.63 695.148C1336.79 695.669 1337.75 696.392 1338.52 697.316C1339.3 698.228 1339.87 699.322 1340.24 700.598C1340.62 701.874 1340.8 703.286 1340.8 704.836H1325.08ZM1337.97 702.551C1337.67 700.559 1336.95 699.074 1335.8 698.098C1334.66 697.121 1333.25 696.633 1331.57 696.633C1330.71 696.633 1329.91 696.776 1329.18 697.062C1328.45 697.336 1327.81 697.733 1327.25 698.254C1326.69 698.775 1326.22 699.406 1325.84 700.148C1325.47 700.878 1325.23 701.678 1325.12 702.551H1337.97ZM1358.56 703.664L1348.56 713.664L1347.04 712.121L1355.47 703.664L1347.04 695.227L1348.56 693.664L1358.56 703.664ZM770.062 752.121L768.559 753.664L758.559 743.664L768.559 733.664L770.062 735.227L761.625 743.664L770.062 752.121ZM794.223 747.961C794.223 749.029 793.956 749.914 793.422 750.617C792.888 751.32 792.198 751.88 791.352 752.297C790.518 752.714 789.581 753.007 788.539 753.176C787.51 753.358 786.501 753.449 785.512 753.449C783.858 753.449 782.211 753.208 780.57 752.727C778.93 752.245 777.51 751.613 776.312 750.832L777.504 748.527C778.845 749.374 780.167 750.025 781.469 750.48C782.771 750.936 784.118 751.164 785.512 751.164C789.535 751.164 791.547 750.122 791.547 748.039C791.547 747.531 791.378 747.121 791.039 746.809C790.714 746.483 790.271 746.223 789.711 746.027C789.151 745.819 788.507 745.656 787.777 745.539C787.061 745.422 786.306 745.311 785.512 745.207C784.496 745.064 783.487 744.895 782.484 744.699C781.482 744.504 780.564 744.211 779.73 743.82C778.91 743.43 778.246 742.909 777.738 742.258C777.243 741.607 776.996 740.747 776.996 739.68C776.996 738.768 777.224 737.98 777.68 737.316C778.148 736.652 778.767 736.099 779.535 735.656C780.316 735.214 781.228 734.888 782.27 734.68C783.311 734.471 784.392 734.367 785.512 734.367C787.113 734.367 788.546 734.556 789.809 734.934C791.072 735.298 792.211 735.826 793.227 736.516L792.152 738.605C791.111 737.876 790.056 737.368 788.988 737.082C787.921 736.783 786.762 736.633 785.512 736.633C784.952 736.633 784.327 736.685 783.637 736.789C782.96 736.88 782.328 737.049 781.742 737.297C781.156 737.531 780.661 737.844 780.258 738.234C779.867 738.612 779.672 739.094 779.672 739.68C779.672 740.188 779.835 740.598 780.16 740.91C780.499 741.21 780.948 741.464 781.508 741.672C782.068 741.867 782.706 742.023 783.422 742.141C784.151 742.258 784.913 742.368 785.707 742.473C786.697 742.616 787.693 742.785 788.695 742.98C789.711 743.176 790.629 743.462 791.449 743.84C792.283 744.217 792.953 744.732 793.461 745.383C793.969 746.034 794.223 746.893 794.223 747.961ZM816.742 747.199C816.534 749.113 815.779 750.637 814.477 751.77C813.188 752.889 811.573 753.449 809.633 753.449C808.565 753.449 807.589 753.273 806.703 752.922C805.818 752.57 805.062 752.082 804.438 751.457C803.812 750.832 803.324 750.083 802.973 749.211C802.634 748.326 802.465 747.362 802.465 746.32V737.082H798.344V734.797H802.465V727.512H805.141V734.797H812.895V737.082H805.141V746.32C805.141 746.984 805.245 747.609 805.453 748.195C805.674 748.781 805.974 749.296 806.352 749.738C806.742 750.181 807.211 750.533 807.758 750.793C808.305 751.04 808.93 751.164 809.633 751.164C810.961 751.164 812.068 750.754 812.953 749.934C813.852 749.1 814.366 748.026 814.496 746.711L816.742 747.199ZM838.949 734.797L829.105 757.609C828.598 758.885 827.882 759.719 826.957 760.109C826.033 760.513 825.01 760.715 823.891 760.715C822.641 760.715 821.391 760.487 820.141 760.031L820.668 757.727C821.28 757.987 821.879 758.169 822.465 758.273C823.051 758.391 823.526 758.449 823.891 758.449C824.776 758.449 825.382 758.234 825.707 757.805C826.046 757.375 826.339 756.867 826.586 756.281L827.699 753.527L819.574 734.797H822.738L829.301 750.715L835.746 734.797H838.949ZM856.566 753H845.648V750.715H849.77V729.797H845.648V727.512H852.465V750.715H856.566V753ZM866.527 744.836C866.723 746.763 867.426 748.299 868.637 749.445C869.848 750.591 871.423 751.164 873.363 751.164C874.73 751.164 875.948 750.884 877.016 750.324C878.083 749.764 878.884 749.068 879.418 748.234L881.293 749.523C880.382 750.799 879.294 751.776 878.031 752.453C876.768 753.117 875.212 753.449 873.363 753.449C871.957 753.449 870.668 753.215 869.496 752.746C868.324 752.277 867.309 751.626 866.449 750.793C865.603 749.947 864.945 748.944 864.477 747.785C864.008 746.626 863.773 745.337 863.773 743.918C863.773 742.538 863.982 741.268 864.398 740.109C864.828 738.938 865.44 737.928 866.234 737.082C867.042 736.223 868.018 735.559 869.164 735.09C870.31 734.608 871.592 734.367 873.012 734.367C874.561 734.367 875.915 734.628 877.074 735.148C878.233 735.669 879.197 736.392 879.965 737.316C880.746 738.228 881.319 739.322 881.684 740.598C882.061 741.874 882.25 743.286 882.25 744.836H866.527ZM879.418 742.551C879.118 740.559 878.396 739.074 877.25 738.098C876.104 737.121 874.691 736.633 873.012 736.633C872.152 736.633 871.358 736.776 870.629 737.062C869.9 737.336 869.255 737.733 868.695 738.254C868.135 738.775 867.667 739.406 867.289 740.148C866.911 740.878 866.671 741.678 866.566 742.551H879.418ZM900.004 743.664L890.004 753.664L888.48 752.121L896.918 743.664L888.48 735.227L890.004 733.664L900.004 743.664ZM860.219 817.082H852.465V830.715H856.566V833H845.648V830.715H849.77V817.082H845.648V814.797H849.77C849.77 812.297 850.414 810.389 851.703 809.074C853.005 807.746 854.965 807.082 857.582 807.082C858.194 807.082 858.708 807.102 859.125 807.141C859.555 807.18 859.919 807.225 860.219 807.277V809.562C859.841 809.51 859.444 809.465 859.027 809.426C858.624 809.387 858.142 809.367 857.582 809.367C855.876 809.367 854.594 809.803 853.734 810.676C852.888 811.535 852.465 812.909 852.465 814.797H860.219V817.082ZM882.523 823.957C882.523 825.376 882.296 826.665 881.84 827.824C881.397 828.983 880.753 829.979 879.906 830.812C879.073 831.633 878.07 832.277 876.898 832.746C875.727 833.215 874.418 833.449 872.973 833.449C871.553 833.449 870.258 833.215 869.086 832.746C867.914 832.277 866.905 831.633 866.059 830.812C865.225 829.979 864.581 828.983 864.125 827.824C863.682 826.665 863.461 825.376 863.461 823.957C863.461 822.577 863.682 821.294 864.125 820.109C864.581 818.911 865.225 817.896 866.059 817.062C866.905 816.216 867.914 815.559 869.086 815.09C870.258 814.608 871.553 814.367 872.973 814.367C874.418 814.367 875.727 814.608 876.898 815.09C878.07 815.559 879.073 816.216 879.906 817.062C880.753 817.896 881.397 818.911 881.84 820.109C882.296 821.294 882.523 822.577 882.523 823.957ZM879.848 823.957C879.848 822.915 879.691 821.958 879.379 821.086C879.079 820.201 878.63 819.426 878.031 818.762C877.432 818.098 876.703 817.577 875.844 817.199C874.997 816.822 874.04 816.633 872.973 816.633C871.905 816.633 870.941 816.822 870.082 817.199C869.236 817.577 868.52 818.098 867.934 818.762C867.348 819.426 866.898 820.201 866.586 821.086C866.286 821.958 866.137 822.915 866.137 823.957C866.137 824.999 866.286 825.962 866.586 826.848C866.898 827.72 867.348 828.475 867.934 829.113C868.52 829.751 869.236 830.253 870.082 830.617C870.941 830.982 871.905 831.164 872.973 831.164C874.04 831.164 874.997 830.982 875.844 830.617C876.703 830.253 877.432 829.751 878.031 829.113C878.63 828.475 879.079 827.72 879.379 826.848C879.691 825.962 879.848 824.999 879.848 823.957ZM902.934 833H900.238V821.77C900.238 820.142 899.887 818.879 899.184 817.98C898.48 817.082 897.341 816.633 895.766 816.633C894.776 816.633 893.878 816.861 893.07 817.316C892.276 817.772 891.599 818.384 891.039 819.152C890.479 819.908 890.049 820.78 889.75 821.77C889.464 822.746 889.32 823.768 889.32 824.836V833H886.645V814.797H889.32V819.367C890.609 816.034 892.908 814.367 896.215 814.367C900.694 814.367 902.934 816.835 902.934 821.77V833ZM925.922 827.199C925.714 829.113 924.958 830.637 923.656 831.77C922.367 832.889 920.753 833.449 918.812 833.449C917.745 833.449 916.768 833.273 915.883 832.922C914.997 832.57 914.242 832.082 913.617 831.457C912.992 830.832 912.504 830.083 912.152 829.211C911.814 828.326 911.645 827.362 911.645 826.32V817.082H907.523V814.797H911.645V807.512H914.32V814.797H922.074V817.082H914.32V826.32C914.32 826.984 914.424 827.609 914.633 828.195C914.854 828.781 915.154 829.296 915.531 829.738C915.922 830.181 916.391 830.533 916.938 830.793C917.484 831.04 918.109 831.164 918.812 831.164C920.141 831.164 921.247 830.754 922.133 829.934C923.031 829.1 923.546 828.026 923.676 826.711L925.922 827.199ZM947.562 824.797H929.359V822.512H947.562V824.797ZM969.398 817.082H961.645V830.715H965.746V833H954.828V830.715H958.949V817.082H954.828V814.797H958.949C958.949 812.297 959.594 810.389 960.883 809.074C962.185 807.746 964.145 807.082 966.762 807.082C967.374 807.082 967.888 807.102 968.305 807.141C968.734 807.18 969.099 807.225 969.398 807.277V809.562C969.021 809.51 968.624 809.465 968.207 809.426C967.803 809.387 967.322 809.367 966.762 809.367C965.056 809.367 963.773 809.803 962.914 810.676C962.068 811.535 961.645 812.909 961.645 814.797H969.398V817.082ZM972.992 828.078C972.992 826.932 973.279 825.975 973.852 825.207C974.424 824.426 975.173 823.814 976.098 823.371C977.035 822.915 978.103 822.59 979.301 822.395C980.512 822.186 981.742 822.082 982.992 822.082C983.474 822.082 983.904 822.089 984.281 822.102C984.672 822.115 985.036 822.134 985.375 822.16C985.727 822.186 986.078 822.219 986.43 822.258C986.781 822.297 987.165 822.342 987.582 822.395V821.086C987.582 820.201 987.387 819.471 986.996 818.898C986.618 818.326 986.15 817.876 985.59 817.551C985.03 817.212 984.444 816.978 983.832 816.848C983.22 816.704 982.699 816.633 982.27 816.633C980.915 816.633 979.665 816.815 978.52 817.18C977.374 817.544 976.306 818.033 975.316 818.645L974.105 816.633C975.199 815.969 976.423 815.428 977.777 815.012C979.145 814.582 980.642 814.367 982.27 814.367C983.259 814.367 984.229 814.497 985.18 814.758C986.143 815.005 987.003 815.396 987.758 815.93C988.526 816.451 989.138 817.141 989.594 818C990.049 818.859 990.277 819.888 990.277 821.086V833H987.582V829.953C987.113 830.539 986.579 831.053 985.98 831.496C985.395 831.939 984.776 832.303 984.125 832.59C983.474 832.863 982.823 833.072 982.172 833.215C981.521 833.371 980.902 833.449 980.316 833.449C977.908 833.449 976.085 832.987 974.848 832.062C973.611 831.138 972.992 829.81 972.992 828.078ZM980.316 831.164C981.436 831.164 982.439 831.001 983.324 830.676C984.223 830.337 984.984 829.921 985.609 829.426C986.234 828.931 986.716 828.404 987.055 827.844C987.406 827.284 987.582 826.776 987.582 826.32V824.602C986.71 824.471 985.87 824.4 985.062 824.387C984.268 824.374 983.578 824.367 982.992 824.367C982.029 824.367 981.098 824.432 980.199 824.562C979.314 824.693 978.539 824.908 977.875 825.207C977.211 825.493 976.677 825.871 976.273 826.34C975.87 826.809 975.668 827.388 975.668 828.078C975.668 828.846 976.039 829.556 976.781 830.207C977.536 830.845 978.715 831.164 980.316 831.164ZM1013.07 833H1010.39V819.914C1010.39 818.872 1010.21 818.065 1009.85 817.492C1009.48 816.919 1008.96 816.633 1008.27 816.633C1007.25 816.633 1006.5 817.167 1006.02 818.234C1005.55 819.302 1005.32 820.799 1005.32 822.727V833H1002.62V819.914C1002.62 818.872 1002.43 818.065 1002.05 817.492C1001.69 816.919 1001.16 816.633 1000.47 816.633C999.835 816.633 999.327 816.822 998.949 817.199C998.572 817.577 998.272 818.059 998.051 818.645C997.842 819.23 997.706 819.882 997.641 820.598C997.576 821.314 997.543 822.023 997.543 822.727V833H994.867V814.797H997.543V817.434C998.103 815.389 999.32 814.367 1001.2 814.367C1002.98 814.367 1004.19 815.259 1004.83 817.043C1005.71 815.259 1006.96 814.367 1008.58 814.367C1010.13 814.367 1011.26 814.829 1011.98 815.754C1012.71 816.665 1013.07 818.052 1013.07 819.914V833ZM1027.62 811.164H1023.99V807.512H1027.62V811.164ZM1031.25 833H1020.34V830.715H1024.46V817.082H1020.34V814.797H1027.15V830.715H1031.25V833ZM1053.09 833H1042.17V830.715H1046.29V809.797H1042.17V807.512H1048.99V830.715H1053.09V833ZM1079.14 814.797L1069.3 837.609C1068.79 838.885 1068.08 839.719 1067.15 840.109C1066.23 840.513 1065.21 840.715 1064.09 840.715C1062.84 840.715 1061.59 840.487 1060.34 840.031L1060.86 837.727C1061.48 837.987 1062.07 838.169 1062.66 838.273C1063.25 838.391 1063.72 838.449 1064.09 838.449C1064.97 838.449 1065.58 838.234 1065.9 837.805C1066.24 837.375 1066.53 836.867 1066.78 836.281L1067.89 833.527L1059.77 814.797H1062.93L1069.5 830.715L1075.94 814.797H1079.14ZM1093.13 818.449H1089.5V814.797H1093.13V818.449ZM1093.13 833H1089.5V829.367H1093.13V833ZM1136.8 807.512L1135.96 816.672H1133.97L1133.17 807.512H1136.8ZM1167.15 833H1164.28L1161.88 825.715H1151.8L1149.44 833H1146.57L1155.04 807.512H1158.68L1167.15 833ZM1161.12 823.352L1156.84 810.207L1152.56 823.352H1161.12ZM1186.8 833H1184.11V821.77C1184.11 820.142 1183.75 818.879 1183.05 817.98C1182.35 817.082 1181.21 816.633 1179.63 816.633C1178.64 816.633 1177.74 816.861 1176.94 817.316C1176.14 817.772 1175.47 818.384 1174.91 819.152C1174.35 819.908 1173.92 820.78 1173.62 821.77C1173.33 822.746 1173.19 823.768 1173.19 824.836V833H1170.51V814.797H1173.19V819.367C1174.48 816.034 1176.77 814.367 1180.08 814.367C1184.56 814.367 1186.8 816.835 1186.8 821.77V833ZM1210.06 823.957C1210.06 825.376 1209.83 826.665 1209.38 827.824C1208.94 828.983 1208.29 829.979 1207.45 830.812C1206.61 831.633 1205.61 832.277 1204.44 832.746C1203.27 833.215 1201.96 833.449 1200.51 833.449C1199.09 833.449 1197.8 833.215 1196.62 832.746C1195.45 832.277 1194.44 831.633 1193.6 830.812C1192.76 829.979 1192.12 828.983 1191.66 827.824C1191.22 826.665 1191 825.376 1191 823.957C1191 822.577 1191.22 821.294 1191.66 820.109C1192.12 818.911 1192.76 817.896 1193.6 817.062C1194.44 816.216 1195.45 815.559 1196.62 815.09C1197.8 814.608 1199.09 814.367 1200.51 814.367C1201.96 814.367 1203.27 814.608 1204.44 815.09C1205.61 815.559 1206.61 816.216 1207.45 817.062C1208.29 817.896 1208.94 818.911 1209.38 820.109C1209.83 821.294 1210.06 822.577 1210.06 823.957ZM1207.39 823.957C1207.39 822.915 1207.23 821.958 1206.92 821.086C1206.62 820.201 1206.17 819.426 1205.57 818.762C1204.97 818.098 1204.24 817.577 1203.38 817.199C1202.54 816.822 1201.58 816.633 1200.51 816.633C1199.44 816.633 1198.48 816.822 1197.62 817.199C1196.77 817.577 1196.06 818.098 1195.47 818.762C1194.89 819.426 1194.44 820.201 1194.12 821.086C1193.83 821.958 1193.68 822.915 1193.68 823.957C1193.68 824.999 1193.83 825.962 1194.12 826.848C1194.44 827.72 1194.89 828.475 1195.47 829.113C1196.06 829.751 1196.77 830.253 1197.62 830.617C1198.48 830.982 1199.44 831.164 1200.51 831.164C1201.58 831.164 1202.54 830.982 1203.38 830.617C1204.24 830.253 1204.97 829.751 1205.57 829.113C1206.17 828.475 1206.62 827.72 1206.92 826.848C1207.23 825.962 1207.39 824.999 1207.39 823.957ZM1230.47 833H1227.78V821.77C1227.78 820.142 1227.43 818.879 1226.72 817.98C1226.02 817.082 1224.88 816.633 1223.3 816.633C1222.32 816.633 1221.42 816.861 1220.61 817.316C1219.82 817.772 1219.14 818.384 1218.58 819.152C1218.02 819.908 1217.59 820.78 1217.29 821.77C1217 822.746 1216.86 823.768 1216.86 824.836V833H1214.18V814.797H1216.86V819.367C1218.15 816.034 1220.45 814.367 1223.75 814.367C1228.23 814.367 1230.47 816.835 1230.47 821.77V833ZM1253.83 814.797L1243.99 837.609C1243.48 838.885 1242.76 839.719 1241.84 840.109C1240.92 840.513 1239.89 840.715 1238.77 840.715C1237.52 840.715 1236.27 840.487 1235.02 840.031L1235.55 837.727C1236.16 837.987 1236.76 838.169 1237.35 838.273C1237.93 838.391 1238.41 838.449 1238.77 838.449C1239.66 838.449 1240.26 838.234 1240.59 837.805C1240.93 837.375 1241.22 836.867 1241.47 836.281L1242.58 833.527L1234.46 814.797H1237.62L1244.18 830.715L1250.63 814.797H1253.83ZM1275.1 833H1272.43V819.914C1272.43 818.872 1272.24 818.065 1271.88 817.492C1271.51 816.919 1270.99 816.633 1270.3 816.633C1269.28 816.633 1268.53 817.167 1268.05 818.234C1267.58 819.302 1267.35 820.799 1267.35 822.727V833H1264.65V819.914C1264.65 818.872 1264.46 818.065 1264.09 817.492C1263.72 816.919 1263.19 816.633 1262.5 816.633C1261.87 816.633 1261.36 816.822 1260.98 817.199C1260.6 817.577 1260.3 818.059 1260.08 818.645C1259.87 819.23 1259.74 819.882 1259.67 820.598C1259.61 821.314 1259.57 822.023 1259.57 822.727V833H1256.9V814.797H1259.57V817.434C1260.13 815.389 1261.35 814.367 1263.23 814.367C1265.01 814.367 1266.22 815.259 1266.86 817.043C1267.74 815.259 1268.99 814.367 1270.61 814.367C1272.16 814.367 1273.29 814.829 1274.01 815.754C1274.74 816.665 1275.1 818.052 1275.1 819.914V833ZM1297.41 823.957C1297.41 825.376 1297.18 826.665 1296.72 827.824C1296.28 828.983 1295.64 829.979 1294.79 830.812C1293.96 831.633 1292.95 832.277 1291.78 832.746C1290.61 833.215 1289.3 833.449 1287.86 833.449C1286.44 833.449 1285.14 833.215 1283.97 832.746C1282.8 832.277 1281.79 831.633 1280.94 830.812C1280.11 829.979 1279.46 828.983 1279.01 827.824C1278.57 826.665 1278.34 825.376 1278.34 823.957C1278.34 822.577 1278.57 821.294 1279.01 820.109C1279.46 818.911 1280.11 817.896 1280.94 817.062C1281.79 816.216 1282.8 815.559 1283.97 815.09C1285.14 814.608 1286.44 814.367 1287.86 814.367C1289.3 814.367 1290.61 814.608 1291.78 815.09C1292.95 815.559 1293.96 816.216 1294.79 817.062C1295.64 817.896 1296.28 818.911 1296.72 820.109C1297.18 821.294 1297.41 822.577 1297.41 823.957ZM1294.73 823.957C1294.73 822.915 1294.57 821.958 1294.26 821.086C1293.96 820.201 1293.51 819.426 1292.91 818.762C1292.32 818.098 1291.59 817.577 1290.73 817.199C1289.88 816.822 1288.92 816.633 1287.86 816.633C1286.79 816.633 1285.82 816.822 1284.96 817.199C1284.12 817.577 1283.4 818.098 1282.82 818.762C1282.23 819.426 1281.78 820.201 1281.47 821.086C1281.17 821.958 1281.02 822.915 1281.02 823.957C1281.02 824.999 1281.17 825.962 1281.47 826.848C1281.78 827.72 1282.23 828.475 1282.82 829.113C1283.4 829.751 1284.12 830.253 1284.96 830.617C1285.82 830.982 1286.79 831.164 1287.86 831.164C1288.92 831.164 1289.88 830.982 1290.73 830.617C1291.59 830.253 1292.32 829.751 1292.91 829.113C1293.51 828.475 1293.96 827.72 1294.26 826.848C1294.57 825.962 1294.73 824.999 1294.73 823.957ZM1301.53 814.797H1304.2V826.047C1304.2 827.674 1304.55 828.938 1305.26 829.836C1305.97 830.721 1307.12 831.164 1308.7 831.164C1309.68 831.164 1310.58 830.936 1311.37 830.48C1312.17 830.025 1312.84 829.419 1313.4 828.664C1313.96 827.896 1314.39 827.023 1314.67 826.047C1314.97 825.057 1315.12 824.029 1315.12 822.961V814.797H1317.82V833H1315.12V828.449C1313.85 831.783 1311.55 833.449 1308.25 833.449C1303.77 833.449 1301.53 830.982 1301.53 826.047V814.797ZM1340.12 827.961C1340.12 829.029 1339.85 829.914 1339.32 830.617C1338.79 831.32 1338.1 831.88 1337.25 832.297C1336.42 832.714 1335.48 833.007 1334.44 833.176C1333.41 833.358 1332.4 833.449 1331.41 833.449C1329.76 833.449 1328.11 833.208 1326.47 832.727C1324.83 832.245 1323.41 831.613 1322.21 830.832L1323.4 828.527C1324.74 829.374 1326.07 830.025 1327.37 830.48C1328.67 830.936 1330.02 831.164 1331.41 831.164C1335.43 831.164 1337.45 830.122 1337.45 828.039C1337.45 827.531 1337.28 827.121 1336.94 826.809C1336.61 826.483 1336.17 826.223 1335.61 826.027C1335.05 825.819 1334.4 825.656 1333.68 825.539C1332.96 825.422 1332.2 825.311 1331.41 825.207C1330.39 825.064 1329.39 824.895 1328.38 824.699C1327.38 824.504 1326.46 824.211 1325.63 823.82C1324.81 823.43 1324.14 822.909 1323.64 822.258C1323.14 821.607 1322.89 820.747 1322.89 819.68C1322.89 818.768 1323.12 817.98 1323.58 817.316C1324.05 816.652 1324.67 816.099 1325.43 815.656C1326.21 815.214 1327.13 814.888 1328.17 814.68C1329.21 814.471 1330.29 814.367 1331.41 814.367C1333.01 814.367 1334.44 814.556 1335.71 814.934C1336.97 815.298 1338.11 815.826 1339.12 816.516L1338.05 818.605C1337.01 817.876 1335.95 817.368 1334.89 817.082C1333.82 816.783 1332.66 816.633 1331.41 816.633C1330.85 816.633 1330.23 816.685 1329.54 816.789C1328.86 816.88 1328.23 817.049 1327.64 817.297C1327.05 817.531 1326.56 817.844 1326.16 818.234C1325.77 818.612 1325.57 819.094 1325.57 819.68C1325.57 820.188 1325.73 820.598 1326.06 820.91C1326.4 821.21 1326.85 821.464 1327.41 821.672C1327.97 821.867 1328.6 822.023 1329.32 822.141C1330.05 822.258 1330.81 822.368 1331.61 822.473C1332.6 822.616 1333.59 822.785 1334.59 822.98C1335.61 823.176 1336.53 823.462 1337.35 823.84C1338.18 824.217 1338.85 824.732 1339.36 825.383C1339.87 826.034 1340.12 826.893 1340.12 827.961ZM729.164 854.797C729.164 857.258 728.396 859.087 726.859 860.285C725.323 861.483 723.168 862.082 720.395 862.082H714.633V873H711.957V847.512H720.355C723.155 847.512 725.323 848.124 726.859 849.348C728.396 850.559 729.164 852.375 729.164 854.797ZM726.488 854.797C726.488 853.039 725.935 851.77 724.828 850.988C723.721 850.194 722.243 849.797 720.395 849.797H714.633V859.797H720.395C722.243 859.797 723.721 859.406 724.828 858.625C725.935 857.831 726.488 856.555 726.488 854.797ZM750.043 857.355C749.079 856.874 747.934 856.633 746.605 856.633C745.512 856.633 744.535 856.867 743.676 857.336C742.816 857.805 742.087 858.423 741.488 859.191C740.889 859.947 740.427 860.819 740.102 861.809C739.789 862.785 739.633 863.794 739.633 864.836V870.715H743.754V873H732.836V870.715H736.957V857.082H732.836V854.797H739.633V859.367C740.857 856.034 743.181 854.367 746.605 854.367C747.53 854.367 748.331 854.426 749.008 854.543C749.698 854.66 750.336 854.868 750.922 855.168L750.043 857.355ZM773.344 863.957C773.344 865.376 773.116 866.665 772.66 867.824C772.217 868.983 771.573 869.979 770.727 870.812C769.893 871.633 768.891 872.277 767.719 872.746C766.547 873.215 765.238 873.449 763.793 873.449C762.374 873.449 761.078 873.215 759.906 872.746C758.734 872.277 757.725 871.633 756.879 870.812C756.046 869.979 755.401 868.983 754.945 867.824C754.503 866.665 754.281 865.376 754.281 863.957C754.281 862.577 754.503 861.294 754.945 860.109C755.401 858.911 756.046 857.896 756.879 857.062C757.725 856.216 758.734 855.559 759.906 855.09C761.078 854.608 762.374 854.367 763.793 854.367C765.238 854.367 766.547 854.608 767.719 855.09C768.891 855.559 769.893 856.216 770.727 857.062C771.573 857.896 772.217 858.911 772.66 860.109C773.116 861.294 773.344 862.577 773.344 863.957ZM770.668 863.957C770.668 862.915 770.512 861.958 770.199 861.086C769.9 860.201 769.451 859.426 768.852 858.762C768.253 858.098 767.523 857.577 766.664 857.199C765.818 856.822 764.861 856.633 763.793 856.633C762.725 856.633 761.762 856.822 760.902 857.199C760.056 857.577 759.34 858.098 758.754 858.762C758.168 859.426 757.719 860.201 757.406 861.086C757.107 861.958 756.957 862.915 756.957 863.957C756.957 864.999 757.107 865.962 757.406 866.848C757.719 867.72 758.168 868.475 758.754 869.113C759.34 869.751 760.056 870.253 760.902 870.617C761.762 870.982 762.725 871.164 763.793 871.164C764.861 871.164 765.818 870.982 766.664 870.617C767.523 870.253 768.253 869.751 768.852 869.113C769.451 868.475 769.9 867.72 770.199 866.848C770.512 865.962 770.668 864.999 770.668 863.957ZM787.426 847.512L786.586 856.672H784.594L783.793 847.512H787.426ZM810.258 869.367L804.906 880.285H803.031L806.664 869.367H810.258ZM860.219 873H857.543V859.914C857.543 858.872 857.361 858.065 856.996 857.492C856.632 856.919 856.104 856.633 855.414 856.633C854.398 856.633 853.65 857.167 853.168 858.234C852.699 859.302 852.465 860.799 852.465 862.727V873H849.77V859.914C849.77 858.872 849.581 858.065 849.203 857.492C848.839 856.919 848.311 856.633 847.621 856.633C846.983 856.633 846.475 856.822 846.098 857.199C845.72 857.577 845.421 858.059 845.199 858.645C844.991 859.23 844.854 859.882 844.789 860.598C844.724 861.314 844.691 862.023 844.691 862.727V873H842.016V854.797H844.691V857.434C845.251 855.389 846.469 854.367 848.344 854.367C850.128 854.367 851.339 855.259 851.977 857.043C852.862 855.259 854.112 854.367 855.727 854.367C857.276 854.367 858.409 854.829 859.125 855.754C859.854 856.665 860.219 858.052 860.219 859.914V873ZM882.523 863.957C882.523 865.376 882.296 866.665 881.84 867.824C881.397 868.983 880.753 869.979 879.906 870.812C879.073 871.633 878.07 872.277 876.898 872.746C875.727 873.215 874.418 873.449 872.973 873.449C871.553 873.449 870.258 873.215 869.086 872.746C867.914 872.277 866.905 871.633 866.059 870.812C865.225 869.979 864.581 868.983 864.125 867.824C863.682 866.665 863.461 865.376 863.461 863.957C863.461 862.577 863.682 861.294 864.125 860.109C864.581 858.911 865.225 857.896 866.059 857.062C866.905 856.216 867.914 855.559 869.086 855.09C870.258 854.608 871.553 854.367 872.973 854.367C874.418 854.367 875.727 854.608 876.898 855.09C878.07 855.559 879.073 856.216 879.906 857.062C880.753 857.896 881.397 858.911 881.84 860.109C882.296 861.294 882.523 862.577 882.523 863.957ZM879.848 863.957C879.848 862.915 879.691 861.958 879.379 861.086C879.079 860.201 878.63 859.426 878.031 858.762C877.432 858.098 876.703 857.577 875.844 857.199C874.997 856.822 874.04 856.633 872.973 856.633C871.905 856.633 870.941 856.822 870.082 857.199C869.236 857.577 868.52 858.098 867.934 858.762C867.348 859.426 866.898 860.201 866.586 861.086C866.286 861.958 866.137 862.915 866.137 863.957C866.137 864.999 866.286 865.962 866.586 866.848C866.898 867.72 867.348 868.475 867.934 869.113C868.52 869.751 869.236 870.253 870.082 870.617C870.941 870.982 871.905 871.164 872.973 871.164C874.04 871.164 874.997 870.982 875.844 870.617C876.703 870.253 877.432 869.751 878.031 869.113C878.63 868.475 879.079 867.72 879.379 866.848C879.691 865.962 879.848 864.999 879.848 863.957ZM902.934 873H900.238V861.77C900.238 860.142 899.887 858.879 899.184 857.98C898.48 857.082 897.341 856.633 895.766 856.633C894.776 856.633 893.878 856.861 893.07 857.316C892.276 857.772 891.599 858.384 891.039 859.152C890.479 859.908 890.049 860.78 889.75 861.77C889.464 862.746 889.32 863.768 889.32 864.836V873H886.645V854.797H889.32V859.367C890.609 856.034 892.908 854.367 896.215 854.367C900.694 854.367 902.934 856.835 902.934 861.77V873ZM926.195 863.957C926.195 865.376 925.967 866.665 925.512 867.824C925.069 868.983 924.424 869.979 923.578 870.812C922.745 871.633 921.742 872.277 920.57 872.746C919.398 873.215 918.09 873.449 916.645 873.449C915.225 873.449 913.93 873.215 912.758 872.746C911.586 872.277 910.577 871.633 909.73 870.812C908.897 869.979 908.253 868.983 907.797 867.824C907.354 866.665 907.133 865.376 907.133 863.957C907.133 862.577 907.354 861.294 907.797 860.109C908.253 858.911 908.897 857.896 909.73 857.062C910.577 856.216 911.586 855.559 912.758 855.09C913.93 854.608 915.225 854.367 916.645 854.367C918.09 854.367 919.398 854.608 920.57 855.09C921.742 855.559 922.745 856.216 923.578 857.062C924.424 857.896 925.069 858.911 925.512 860.109C925.967 861.294 926.195 862.577 926.195 863.957ZM923.52 863.957C923.52 862.915 923.363 861.958 923.051 861.086C922.751 860.201 922.302 859.426 921.703 858.762C921.104 858.098 920.375 857.577 919.516 857.199C918.669 856.822 917.712 856.633 916.645 856.633C915.577 856.633 914.613 856.822 913.754 857.199C912.908 857.577 912.191 858.098 911.605 858.762C911.02 859.426 910.57 860.201 910.258 861.086C909.958 861.958 909.809 862.915 909.809 863.957C909.809 864.999 909.958 865.962 910.258 866.848C910.57 867.72 911.02 868.475 911.605 869.113C912.191 869.751 912.908 870.253 913.754 870.617C914.613 870.982 915.577 871.164 916.645 871.164C917.712 871.164 918.669 870.982 919.516 870.617C920.375 870.253 921.104 869.751 921.703 869.113C922.302 868.475 922.751 867.72 923.051 866.848C923.363 865.962 923.52 864.999 923.52 863.957ZM947.074 867.961C947.074 869.029 946.807 869.914 946.273 870.617C945.74 871.32 945.049 871.88 944.203 872.297C943.37 872.714 942.432 873.007 941.391 873.176C940.362 873.358 939.353 873.449 938.363 873.449C936.71 873.449 935.062 873.208 933.422 872.727C931.781 872.245 930.362 871.613 929.164 870.832L930.355 868.527C931.697 869.374 933.018 870.025 934.32 870.48C935.622 870.936 936.97 871.164 938.363 871.164C942.387 871.164 944.398 870.122 944.398 868.039C944.398 867.531 944.229 867.121 943.891 866.809C943.565 866.483 943.122 866.223 942.562 866.027C942.003 865.819 941.358 865.656 940.629 865.539C939.913 865.422 939.158 865.311 938.363 865.207C937.348 865.064 936.339 864.895 935.336 864.699C934.333 864.504 933.415 864.211 932.582 863.82C931.762 863.43 931.098 862.909 930.59 862.258C930.095 861.607 929.848 860.747 929.848 859.68C929.848 858.768 930.076 857.98 930.531 857.316C931 856.652 931.618 856.099 932.387 855.656C933.168 855.214 934.079 854.888 935.121 854.68C936.163 854.471 937.243 854.367 938.363 854.367C939.965 854.367 941.397 854.556 942.66 854.934C943.923 855.298 945.062 855.826 946.078 856.516L945.004 858.605C943.962 857.876 942.908 857.368 941.84 857.082C940.772 856.783 939.613 856.633 938.363 856.633C937.803 856.633 937.178 856.685 936.488 856.789C935.811 856.88 935.18 857.049 934.594 857.297C934.008 857.531 933.513 857.844 933.109 858.234C932.719 858.612 932.523 859.094 932.523 859.68C932.523 860.188 932.686 860.598 933.012 860.91C933.35 861.21 933.799 861.464 934.359 861.672C934.919 861.867 935.557 862.023 936.273 862.141C937.003 862.258 937.764 862.368 938.559 862.473C939.548 862.616 940.544 862.785 941.547 862.98C942.562 863.176 943.48 863.462 944.301 863.84C945.134 864.217 945.805 864.732 946.312 865.383C946.82 866.034 947.074 866.893 947.074 867.961ZM969.398 863.918C969.398 865.337 969.177 866.626 968.734 867.785C968.292 868.944 967.667 869.947 966.859 870.793C966.065 871.626 965.102 872.277 963.969 872.746C962.836 873.215 961.566 873.449 960.16 873.449C959.197 873.449 958.259 873.273 957.348 872.922C956.449 872.57 955.609 872.049 954.828 871.359V880.285H952.152V854.797H954.828V856.477C956.482 855.07 958.259 854.367 960.16 854.367C961.566 854.367 962.836 854.602 963.969 855.07C965.102 855.526 966.065 856.184 966.859 857.043C967.667 857.889 968.292 858.905 968.734 860.09C969.177 861.262 969.398 862.538 969.398 863.918ZM966.723 863.918C966.723 862.902 966.579 861.952 966.293 861.066C966.02 860.168 965.603 859.393 965.043 858.742C964.483 858.091 963.793 857.577 962.973 857.199C962.165 856.822 961.228 856.633 960.16 856.633C959.145 856.633 958.194 856.822 957.309 857.199C956.436 857.577 955.609 858.189 954.828 859.035V868.801C955.609 869.647 956.436 870.253 957.309 870.617C958.194 870.982 959.145 871.164 960.16 871.164C961.228 871.164 962.165 870.975 962.973 870.598C963.793 870.22 964.483 869.706 965.043 869.055C965.603 868.404 966.02 867.642 966.293 866.77C966.579 865.884 966.723 864.934 966.723 863.918ZM972.992 868.078C972.992 866.932 973.279 865.975 973.852 865.207C974.424 864.426 975.173 863.814 976.098 863.371C977.035 862.915 978.103 862.59 979.301 862.395C980.512 862.186 981.742 862.082 982.992 862.082C983.474 862.082 983.904 862.089 984.281 862.102C984.672 862.115 985.036 862.134 985.375 862.16C985.727 862.186 986.078 862.219 986.43 862.258C986.781 862.297 987.165 862.342 987.582 862.395V861.086C987.582 860.201 987.387 859.471 986.996 858.898C986.618 858.326 986.15 857.876 985.59 857.551C985.03 857.212 984.444 856.978 983.832 856.848C983.22 856.704 982.699 856.633 982.27 856.633C980.915 856.633 979.665 856.815 978.52 857.18C977.374 857.544 976.306 858.033 975.316 858.645L974.105 856.633C975.199 855.969 976.423 855.428 977.777 855.012C979.145 854.582 980.642 854.367 982.27 854.367C983.259 854.367 984.229 854.497 985.18 854.758C986.143 855.005 987.003 855.396 987.758 855.93C988.526 856.451 989.138 857.141 989.594 858C990.049 858.859 990.277 859.888 990.277 861.086V873H987.582V869.953C987.113 870.539 986.579 871.053 985.98 871.496C985.395 871.939 984.776 872.303 984.125 872.59C983.474 872.863 982.823 873.072 982.172 873.215C981.521 873.371 980.902 873.449 980.316 873.449C977.908 873.449 976.085 872.987 974.848 872.062C973.611 871.138 972.992 869.81 972.992 868.078ZM980.316 871.164C981.436 871.164 982.439 871.001 983.324 870.676C984.223 870.337 984.984 869.921 985.609 869.426C986.234 868.931 986.716 868.404 987.055 867.844C987.406 867.284 987.582 866.776 987.582 866.32V864.602C986.71 864.471 985.87 864.4 985.062 864.387C984.268 864.374 983.578 864.367 982.992 864.367C982.029 864.367 981.098 864.432 980.199 864.562C979.314 864.693 978.539 864.908 977.875 865.207C977.211 865.493 976.677 865.871 976.273 866.34C975.87 866.809 975.668 867.388 975.668 868.078C975.668 868.846 976.039 869.556 976.781 870.207C977.536 870.845 978.715 871.164 980.316 871.164ZM1012.39 869.523C1011.62 870.721 1010.56 871.678 1009.22 872.395C1007.89 873.098 1006.31 873.449 1004.48 873.449C1003.06 873.449 1001.76 873.215 1000.57 872.746C999.385 872.277 998.37 871.626 997.523 870.793C996.69 869.947 996.039 868.944 995.57 867.785C995.102 866.626 994.867 865.337 994.867 863.918C994.867 862.538 995.082 861.262 995.512 860.09C995.941 858.905 996.553 857.896 997.348 857.062C998.142 856.216 999.112 855.559 1000.26 855.09C1001.42 854.608 1002.7 854.367 1004.11 854.367C1004.67 854.367 1005.24 854.432 1005.82 854.562C1006.41 854.693 1006.96 854.895 1007.48 855.168C1008.01 855.428 1008.47 855.747 1008.89 856.125C1009.31 856.49 1009.62 856.926 1009.83 857.434V854.797H1012.23V862.082H1009.83C1009.83 861.275 1009.68 860.539 1009.38 859.875C1009.09 859.211 1008.7 858.638 1008.19 858.156C1007.68 857.674 1007.07 857.303 1006.37 857.043C1005.67 856.77 1004.91 856.633 1004.11 856.633C1003.01 856.633 1002.05 856.822 1001.23 857.199C1000.43 857.577 999.75 858.091 999.203 858.742C998.656 859.393 998.24 860.161 997.953 861.047C997.68 861.919 997.543 862.876 997.543 863.918C997.543 864.96 997.699 865.923 998.012 866.809C998.337 867.681 998.799 868.436 999.398 869.074C1000.01 869.712 1000.74 870.22 1001.59 870.598C1002.45 870.975 1003.41 871.164 1004.48 871.164C1005.83 871.164 1007.04 870.897 1008.09 870.363C1009.14 869.829 1009.95 869.12 1010.51 868.234L1012.39 869.523ZM1019.38 864.836C1019.57 866.763 1020.28 868.299 1021.49 869.445C1022.7 870.591 1024.27 871.164 1026.21 871.164C1027.58 871.164 1028.8 870.884 1029.87 870.324C1030.93 869.764 1031.74 869.068 1032.27 868.234L1034.14 869.523C1033.23 870.799 1032.15 871.776 1030.88 872.453C1029.62 873.117 1028.06 873.449 1026.21 873.449C1024.81 873.449 1023.52 873.215 1022.35 872.746C1021.18 872.277 1020.16 871.626 1019.3 870.793C1018.45 869.947 1017.8 868.944 1017.33 867.785C1016.86 866.626 1016.62 865.337 1016.62 863.918C1016.62 862.538 1016.83 861.268 1017.25 860.109C1017.68 858.938 1018.29 857.928 1019.09 857.082C1019.89 856.223 1020.87 855.559 1022.02 855.09C1023.16 854.608 1024.44 854.367 1025.86 854.367C1027.41 854.367 1028.77 854.628 1029.93 855.148C1031.08 855.669 1032.05 856.392 1032.82 857.316C1033.6 858.228 1034.17 859.322 1034.54 860.598C1034.91 861.874 1035.1 863.286 1035.1 864.836H1019.38ZM1032.27 862.551C1031.97 860.559 1031.25 859.074 1030.1 858.098C1028.96 857.121 1027.54 856.633 1025.86 856.633C1025 856.633 1024.21 856.776 1023.48 857.062C1022.75 857.336 1022.11 857.733 1021.55 858.254C1020.99 858.775 1020.52 859.406 1020.14 860.148C1019.76 860.878 1019.52 861.678 1019.42 862.551H1032.27ZM1049.46 858.449H1045.82V854.797H1049.46V858.449ZM1050.45 869.367L1045.1 880.285H1043.23L1046.86 869.367H1050.45Z" fill="#5DA0FF"/>
</g>
</g>
<defs>
<clipPath id="clip0_268_3584">
<rect width="1440" height="800" fill="white" transform="translate(0.7146 0.0404663)"/>
</clipPath>
<clipPath id="clip1_268_3584">
<rect width="1450.76" height="10980.4" fill="white" transform="translate(0.7146 -7291.94)"/>
</clipPath>
</defs>
</svg>
