<svg width="1440" height="800" viewBox="0 0 1440 800" fill="none" xmlns="http://www.w3.org/2000/svg">
<g clip-path="url(#clip0_321_870)">
<rect width="1440" height="800" fill="#DEDEDE"/>
<path d="M384.5 794.174L341.939 767.418H365.559H367.559V765.418L367.559 735.665H401.441L401.441 765.418V767.418H403.441H427.061L384.5 794.174Z" stroke="#85B6FF" stroke-width="4"/>
<path d="M0 645.566V734.356H88.7861V823.147H446.705V914.713H627.052V1100.62H713.064V1280.97H627.052V1183.86H446.705V1280.97V1366.99V1544.57H269.133V1455.78H88.7861V1544.57H0V1630.59H627.052V1455.78H713.064V1630.59H893.41V1455.78H998.844V1761H1079.31V1727.7V1544.57H1259.65V1366.99H1440V1100.62H1259.65V1194.96H1079.31V1100.62H1170.87V1006.28H893.41V734.356H1079.31V823.147H1440V734.356H1342.89V645.566H1259.65V734.356H1170.87V554H815.723V645.566H713.064V734.356H269.133V645.566H0Z" fill="#85B6FF"/>
<path d="M125.799 675.13C121.039 675.13 117.15 672.618 117.15 669.584C117.15 668.122 118.061 666.72 119.683 665.686C121.305 664.653 123.505 664.072 125.799 664.072C130.609 664.072 134.499 666.551 134.499 669.584C134.499 672.618 130.609 675.13 125.799 675.13ZM110.241 713.49L79.8935 709.641L81.6335 704.096L102.872 706.868L109.781 684.491L102.002 686.449V695.778H93.3529V682.861L115.871 676.761L119.299 676.5C122.37 676.5 124.929 677.609 126.618 679.272L131.019 683.676C134.499 687.623 141.408 690.298 149.647 690.298V695.778C140.128 695.778 131.428 693.07 125.799 688.928L123.24 697.213L132.298 702.726V723.504H123.649V706.868L114.54 701.356L110.241 713.49ZM165 723.504H154.765V658.266H88.2353V701.029L78 699.659V651.742H165V723.504ZM88.2353 723.504H78V713.001L88.2353 714.371V723.504Z" fill="#85B6FF"/>
<path d="M433.293 780.293C432.903 780.683 432.903 781.317 433.293 781.707L439.657 788.071C440.048 788.462 440.681 788.462 441.071 788.071C441.462 787.681 441.462 787.047 441.071 786.657L435.415 781L441.071 775.343C441.462 774.953 441.462 774.319 441.071 773.929C440.681 773.538 440.048 773.538 439.657 773.929L433.293 780.293ZM619.529 780H434V782H619.529V780Z" fill="#E0E0E0"/>
<line x1="-27" y1="284" x2="1426" y2="284" stroke="#85B6FF" stroke-width="4" stroke-dasharray="8 8"/>
<rect x="296" y="-86" width="320" height="301" fill="#99BFF8"/>
<path d="M302 124V164.253H346.549L399.814 237L434.194 215.176L399.814 164.253H428.383V124H302Z" stroke="#DEDEDE" stroke-width="4"/>
<path d="M514.091 164.253L481.648 212.266L516.028 234.575L567.356 164.253H609V124H481.648V164.253H514.091Z" stroke="#DEDEDE" stroke-width="4"/>
<rect x="650" y="-86" width="320" height="301" fill="#99BFF8"/>
<path d="M842 215V-72H751.302V30.2192C728.956 0.0776253 674.011 -61.7781 633 -68.0685M751.302 215C749.987 183.548 739.472 113.567 707.925 85.2603" stroke="#E0E0E0" stroke-width="4"/>
<rect x="1004" y="-86" width="320" height="301" fill="#99BFF8"/>
<path d="M1238 -70V44.5094V49H1161.6V-7.13207H1047V-70H1238Z" stroke="#E0E0E0" stroke-width="4"/>
<rect x="1070" y="162" width="187" height="37" stroke="#E0E0E0" stroke-width="4"/>
</g>
<defs>
<clipPath id="clip0_321_870">
<rect width="1440" height="800" fill="white"/>
</clipPath>
</defs>
</svg>
