<svg width="1438" height="809" viewBox="0 0 1438 809" fill="none" xmlns="http://www.w3.org/2000/svg">
<g clip-path="url(#clip0_268_3711)">
<rect width="1437.29" height="808.473" fill="#DEDEDE"/>
<g clip-path="url(#clip1_268_3711)">
<rect width="1450.76" height="10980.4" transform="translate(0 -8090.72)" fill="#E0E0E0"/>
<rect width="120.897" height="120.897" transform="translate(1088.07 472.795)" fill="#E0E0E0"/>
<path d="M-787.843 -366.867V-277.413H-698.394V-187.958H-337.8V-95.7088H-156.106V91.5861H-69.4517V273.29H-156.106V175.449H-337.8V273.29V359.949V538.857H-516.699V449.403H-698.394V538.857H-787.843V625.516H-156.106V449.403H-69.4517V625.516H112.243V449.403H218.464V756.902H299.528V723.357V538.857H481.222V359.949H662.917V91.5861H481.222V186.631H299.528V91.5861H391.773V-3.45908H112.243V-277.413H299.528V-187.958H662.917V-277.413H565.081V-366.867H481.222V-277.413H391.773V-459.117H33.9744V-366.867H-69.4517V-277.413H-516.699V-366.867H-787.843Z" fill="#85B6FF"/>
<path d="M684.074 -493.371H971.076L1209.43 -348.688L1282.4 -461.759L1541.43 -268.445L1298.21 364.996H684.074V-47.1661M684.074 -132.273V-383.091M684.074 -370.573V-383.091M684.074 -383.091L947.08 -383.091L1246.24 -215.308M786.227 268.782H984.454" stroke="#85B6FF" stroke-width="4.02989"/>
<rect x="689.615" y="473.299" width="622.618" height="152.128" fill="#D3DAE4" stroke="#85B6FF" stroke-width="1.00747"/>
<path d="M741.391 -130.879L739.887 -129.336L729.887 -139.336L739.887 -149.336L741.391 -147.773L732.953 -139.336L741.391 -130.879ZM765.082 -130H762.387V-141.23C762.387 -142.858 762.035 -144.121 761.332 -145.02C760.629 -145.918 759.49 -146.367 757.914 -146.367C756.924 -146.367 756.026 -146.139 755.219 -145.684C754.424 -145.228 753.747 -144.616 753.188 -143.848C752.628 -143.092 752.198 -142.22 751.898 -141.23C751.612 -140.254 751.469 -139.232 751.469 -138.164V-130H748.793V-155.488H751.469V-143.633C752.758 -146.966 755.056 -148.633 758.363 -148.633C762.842 -148.633 765.082 -146.165 765.082 -141.23V-130ZM788.07 -135.801C787.862 -133.887 787.107 -132.363 785.805 -131.23C784.516 -130.111 782.901 -129.551 780.961 -129.551C779.893 -129.551 778.917 -129.727 778.031 -130.078C777.146 -130.43 776.391 -130.918 775.766 -131.543C775.141 -132.168 774.652 -132.917 774.301 -133.789C773.962 -134.674 773.793 -135.638 773.793 -136.68V-145.918H769.672V-148.203H773.793V-155.488H776.469V-148.203H784.223V-145.918H776.469V-136.68C776.469 -136.016 776.573 -135.391 776.781 -134.805C777.003 -134.219 777.302 -133.704 777.68 -133.262C778.07 -132.819 778.539 -132.467 779.086 -132.207C779.633 -131.96 780.258 -131.836 780.961 -131.836C782.289 -131.836 783.396 -132.246 784.281 -133.066C785.18 -133.9 785.694 -134.974 785.824 -136.289L788.07 -135.801ZM809.711 -130H807.035V-143.086C807.035 -144.128 806.853 -144.935 806.488 -145.508C806.124 -146.081 805.596 -146.367 804.906 -146.367C803.891 -146.367 803.142 -145.833 802.66 -144.766C802.191 -143.698 801.957 -142.201 801.957 -140.273V-130H799.262V-143.086C799.262 -144.128 799.073 -144.935 798.695 -145.508C798.331 -146.081 797.803 -146.367 797.113 -146.367C796.475 -146.367 795.967 -146.178 795.59 -145.801C795.212 -145.423 794.913 -144.941 794.691 -144.355C794.483 -143.77 794.346 -143.118 794.281 -142.402C794.216 -141.686 794.184 -140.977 794.184 -140.273V-130H791.508V-148.203H794.184V-145.566C794.743 -147.611 795.961 -148.633 797.836 -148.633C799.62 -148.633 800.831 -147.741 801.469 -145.957C802.354 -147.741 803.604 -148.633 805.219 -148.633C806.768 -148.633 807.901 -148.171 808.617 -147.246C809.346 -146.335 809.711 -144.948 809.711 -143.086V-130ZM827.895 -130H816.977V-132.285H821.098V-153.203H816.977V-155.488H823.793V-132.285H827.895V-130ZM871.566 -130H860.648V-132.285H864.77V-153.203H860.648V-155.488H867.465V-132.285H871.566V-130ZM878.812 -134.922C878.812 -136.068 879.099 -137.025 879.672 -137.793C880.245 -138.574 880.993 -139.186 881.918 -139.629C882.855 -140.085 883.923 -140.41 885.121 -140.605C886.332 -140.814 887.562 -140.918 888.812 -140.918C889.294 -140.918 889.724 -140.911 890.102 -140.898C890.492 -140.885 890.857 -140.866 891.195 -140.84C891.547 -140.814 891.898 -140.781 892.25 -140.742C892.602 -140.703 892.986 -140.658 893.402 -140.605V-141.914C893.402 -142.799 893.207 -143.529 892.816 -144.102C892.439 -144.674 891.97 -145.124 891.41 -145.449C890.85 -145.788 890.264 -146.022 889.652 -146.152C889.04 -146.296 888.52 -146.367 888.09 -146.367C886.736 -146.367 885.486 -146.185 884.34 -145.82C883.194 -145.456 882.126 -144.967 881.137 -144.355L879.926 -146.367C881.02 -147.031 882.243 -147.572 883.598 -147.988C884.965 -148.418 886.462 -148.633 888.09 -148.633C889.079 -148.633 890.049 -148.503 891 -148.242C891.964 -147.995 892.823 -147.604 893.578 -147.07C894.346 -146.549 894.958 -145.859 895.414 -145C895.87 -144.141 896.098 -143.112 896.098 -141.914V-130H893.402V-133.047C892.934 -132.461 892.4 -131.947 891.801 -131.504C891.215 -131.061 890.596 -130.697 889.945 -130.41C889.294 -130.137 888.643 -129.928 887.992 -129.785C887.341 -129.629 886.723 -129.551 886.137 -129.551C883.728 -129.551 881.905 -130.013 880.668 -130.938C879.431 -131.862 878.812 -133.19 878.812 -134.922ZM886.137 -131.836C887.257 -131.836 888.259 -131.999 889.145 -132.324C890.043 -132.663 890.805 -133.079 891.43 -133.574C892.055 -134.069 892.536 -134.596 892.875 -135.156C893.227 -135.716 893.402 -136.224 893.402 -136.68V-138.398C892.53 -138.529 891.69 -138.6 890.883 -138.613C890.089 -138.626 889.398 -138.633 888.812 -138.633C887.849 -138.633 886.918 -138.568 886.02 -138.438C885.134 -138.307 884.359 -138.092 883.695 -137.793C883.031 -137.507 882.497 -137.129 882.094 -136.66C881.69 -136.191 881.488 -135.612 881.488 -134.922C881.488 -134.154 881.859 -133.444 882.602 -132.793C883.357 -132.155 884.535 -131.836 886.137 -131.836ZM917.934 -130H915.238V-141.23C915.238 -142.858 914.887 -144.121 914.184 -145.02C913.48 -145.918 912.341 -146.367 910.766 -146.367C909.776 -146.367 908.878 -146.139 908.07 -145.684C907.276 -145.228 906.599 -144.616 906.039 -143.848C905.479 -143.092 905.049 -142.22 904.75 -141.23C904.464 -140.254 904.32 -139.232 904.32 -138.164V-130H901.645V-148.203H904.32V-143.633C905.609 -146.966 907.908 -148.633 911.215 -148.633C915.694 -148.633 917.934 -146.165 917.934 -141.23V-130ZM939.77 -130.195C939.77 -128.945 939.555 -127.832 939.125 -126.855C938.695 -125.879 938.09 -125.052 937.309 -124.375C936.54 -123.698 935.629 -123.184 934.574 -122.832C933.533 -122.467 932.367 -122.285 931.078 -122.285C929.268 -122.285 927.725 -122.624 926.449 -123.301C925.186 -123.978 924.092 -124.954 923.168 -126.23L925.043 -127.676C925.603 -126.829 926.41 -126.12 927.465 -125.547C928.52 -124.974 929.724 -124.688 931.078 -124.688C932.927 -124.688 934.385 -125.156 935.453 -126.094C936.534 -127.018 937.074 -128.359 937.074 -130.117V-132.07C935.486 -130.664 933.676 -129.961 931.645 -129.961C928.793 -129.961 926.553 -130.775 924.926 -132.402C923.298 -134.03 922.484 -136.257 922.484 -139.082C922.484 -140.462 922.693 -141.732 923.109 -142.891C923.539 -144.062 924.145 -145.072 924.926 -145.918C925.72 -146.777 926.684 -147.441 927.816 -147.91C928.949 -148.392 930.225 -148.633 931.645 -148.633C932.634 -148.633 933.591 -148.457 934.516 -148.105C935.453 -147.767 936.306 -147.253 937.074 -146.562V-148.203H939.77V-130.195ZM937.074 -143.965C936.306 -144.811 935.46 -145.423 934.535 -145.801C933.624 -146.178 932.66 -146.367 931.645 -146.367C930.577 -146.367 929.633 -146.178 928.812 -145.801C928.005 -145.423 927.335 -144.909 926.801 -144.258C926.267 -143.607 925.857 -142.832 925.57 -141.934C925.297 -141.048 925.16 -140.098 925.16 -139.082C925.16 -136.999 925.701 -135.339 926.781 -134.102C927.862 -132.865 929.483 -132.246 931.645 -132.246C932.66 -132.246 933.624 -132.435 934.535 -132.812C935.46 -133.203 936.306 -133.828 937.074 -134.688V-143.965ZM962.562 -142.48H944.359V-144.805H962.562V-142.48ZM962.562 -133.887H944.359V-136.172H962.562V-133.887ZM980.746 -155.488L979.965 -146.406H977.953L977.113 -155.488H980.746ZM973.48 -155.488L972.641 -146.406H970.668L969.828 -155.488H973.48ZM1005.24 -145.645C1004.27 -146.126 1003.13 -146.367 1001.8 -146.367C1000.71 -146.367 999.73 -146.133 998.871 -145.664C998.012 -145.195 997.283 -144.577 996.684 -143.809C996.085 -143.053 995.622 -142.181 995.297 -141.191C994.984 -140.215 994.828 -139.206 994.828 -138.164V-132.285H998.949V-130H988.031V-132.285H992.152V-145.918H988.031V-148.203H994.828V-143.633C996.052 -146.966 998.376 -148.633 1001.8 -148.633C1002.73 -148.633 1003.53 -148.574 1004.2 -148.457C1004.89 -148.34 1005.53 -148.132 1006.12 -147.832L1005.24 -145.645ZM1010.82 -148.203H1013.5V-136.953C1013.5 -135.326 1013.85 -134.062 1014.55 -133.164C1015.27 -132.279 1016.42 -131.836 1017.99 -131.836C1018.98 -131.836 1019.87 -132.064 1020.67 -132.52C1021.46 -132.975 1022.14 -133.581 1022.7 -134.336C1023.26 -135.104 1023.68 -135.977 1023.97 -136.953C1024.27 -137.943 1024.42 -138.971 1024.42 -140.039V-148.203H1027.11V-130H1024.42V-134.551C1023.14 -131.217 1020.85 -129.551 1017.54 -129.551C1013.06 -129.551 1010.82 -132.018 1010.82 -136.953V-148.203ZM1046.25 -155.488L1045.47 -146.406H1043.46L1042.62 -155.488H1046.25ZM1038.99 -155.488L1038.15 -146.406H1036.18L1035.34 -155.488H1038.99ZM1067.86 -139.336L1057.86 -129.336L1056.33 -130.879L1064.77 -139.336L1056.33 -147.773L1057.86 -149.336L1067.86 -139.336ZM741.391 -90.8789L739.887 -89.3359L729.887 -99.3359L739.887 -109.336L741.391 -107.773L732.953 -99.3359L741.391 -90.8789ZM765.082 -90H762.387V-101.23C762.387 -102.858 762.035 -104.121 761.332 -105.02C760.629 -105.918 759.49 -106.367 757.914 -106.367C756.924 -106.367 756.026 -106.139 755.219 -105.684C754.424 -105.228 753.747 -104.616 753.188 -103.848C752.628 -103.092 752.198 -102.22 751.898 -101.23C751.612 -100.254 751.469 -99.2318 751.469 -98.1641V-90H748.793V-115.488H751.469V-103.633C752.758 -106.966 755.056 -108.633 758.363 -108.633C762.842 -108.633 765.082 -106.165 765.082 -101.23V-90ZM772.348 -98.1641C772.543 -96.237 773.246 -94.7005 774.457 -93.5547C775.668 -92.4089 777.243 -91.8359 779.184 -91.8359C780.551 -91.8359 781.768 -92.1159 782.836 -92.6758C783.904 -93.2357 784.704 -93.9323 785.238 -94.7656L787.113 -93.4766C786.202 -92.2005 785.115 -91.224 783.852 -90.5469C782.589 -89.8828 781.033 -89.5508 779.184 -89.5508C777.777 -89.5508 776.488 -89.7852 775.316 -90.2539C774.145 -90.7227 773.129 -91.3737 772.27 -92.207C771.423 -93.0534 770.766 -94.056 770.297 -95.2148C769.828 -96.3737 769.594 -97.6628 769.594 -99.082C769.594 -100.462 769.802 -101.732 770.219 -102.891C770.648 -104.062 771.26 -105.072 772.055 -105.918C772.862 -106.777 773.839 -107.441 774.984 -107.91C776.13 -108.392 777.413 -108.633 778.832 -108.633C780.382 -108.633 781.736 -108.372 782.895 -107.852C784.053 -107.331 785.017 -106.608 785.785 -105.684C786.566 -104.772 787.139 -103.678 787.504 -102.402C787.882 -101.126 788.07 -99.7135 788.07 -98.1641H772.348ZM785.238 -100.449C784.939 -102.441 784.216 -103.926 783.07 -104.902C781.924 -105.879 780.512 -106.367 778.832 -106.367C777.973 -106.367 777.178 -106.224 776.449 -105.938C775.72 -105.664 775.076 -105.267 774.516 -104.746C773.956 -104.225 773.487 -103.594 773.109 -102.852C772.732 -102.122 772.491 -101.322 772.387 -100.449H785.238ZM791.469 -94.9219C791.469 -96.0677 791.755 -97.0247 792.328 -97.793C792.901 -98.5742 793.65 -99.1862 794.574 -99.6289C795.512 -100.085 796.579 -100.41 797.777 -100.605C798.988 -100.814 800.219 -100.918 801.469 -100.918C801.951 -100.918 802.38 -100.911 802.758 -100.898C803.148 -100.885 803.513 -100.866 803.852 -100.84C804.203 -100.814 804.555 -100.781 804.906 -100.742C805.258 -100.703 805.642 -100.658 806.059 -100.605V-101.914C806.059 -102.799 805.863 -103.529 805.473 -104.102C805.095 -104.674 804.626 -105.124 804.066 -105.449C803.507 -105.788 802.921 -106.022 802.309 -106.152C801.697 -106.296 801.176 -106.367 800.746 -106.367C799.392 -106.367 798.142 -106.185 796.996 -105.82C795.85 -105.456 794.783 -104.967 793.793 -104.355L792.582 -106.367C793.676 -107.031 794.9 -107.572 796.254 -107.988C797.621 -108.418 799.118 -108.633 800.746 -108.633C801.736 -108.633 802.706 -108.503 803.656 -108.242C804.62 -107.995 805.479 -107.604 806.234 -107.07C807.003 -106.549 807.615 -105.859 808.07 -105C808.526 -104.141 808.754 -103.112 808.754 -101.914V-90H806.059V-93.0469C805.59 -92.4609 805.056 -91.9466 804.457 -91.5039C803.871 -91.0612 803.253 -90.6966 802.602 -90.4102C801.951 -90.1367 801.299 -89.9284 800.648 -89.7852C799.997 -89.6289 799.379 -89.5508 798.793 -89.5508C796.384 -89.5508 794.561 -90.013 793.324 -90.9375C792.087 -91.862 791.469 -93.1901 791.469 -94.9219ZM798.793 -91.8359C799.913 -91.8359 800.915 -91.9987 801.801 -92.3242C802.699 -92.6628 803.461 -93.0794 804.086 -93.5742C804.711 -94.069 805.193 -94.5964 805.531 -95.1562C805.883 -95.7161 806.059 -96.224 806.059 -96.6797V-98.3984C805.186 -98.5286 804.346 -98.6003 803.539 -98.6133C802.745 -98.6263 802.055 -98.6328 801.469 -98.6328C800.505 -98.6328 799.574 -98.5677 798.676 -98.4375C797.79 -98.3073 797.016 -98.0924 796.352 -97.793C795.688 -97.5065 795.154 -97.1289 794.75 -96.6602C794.346 -96.1914 794.145 -95.612 794.145 -94.9219C794.145 -94.1536 794.516 -93.444 795.258 -92.793C796.013 -92.1549 797.191 -91.8359 798.793 -91.8359ZM830.59 -90H827.895V-91.6797C827.126 -90.9896 826.28 -90.4622 825.355 -90.0977C824.444 -89.7331 823.507 -89.5508 822.543 -89.5508C821.098 -89.5508 819.802 -89.7852 818.656 -90.2539C817.51 -90.7227 816.54 -91.3737 815.746 -92.207C814.965 -93.0534 814.359 -94.0625 813.93 -95.2344C813.513 -96.4062 813.305 -97.6888 813.305 -99.082C813.305 -100.462 813.513 -101.738 813.93 -102.91C814.359 -104.095 814.965 -105.104 815.746 -105.938C816.54 -106.784 817.51 -107.441 818.656 -107.91C819.802 -108.392 821.098 -108.633 822.543 -108.633C823.507 -108.633 824.444 -108.457 825.355 -108.105C826.28 -107.767 827.126 -107.253 827.895 -106.562V-113.203H824.262V-115.488H830.59V-90ZM827.895 -103.965C827.126 -104.811 826.286 -105.423 825.375 -105.801C824.477 -106.178 823.52 -106.367 822.504 -106.367C821.436 -106.367 820.492 -106.178 819.672 -105.801C818.865 -105.423 818.188 -104.909 817.641 -104.258C817.094 -103.607 816.677 -102.839 816.391 -101.953C816.117 -101.081 815.98 -100.124 815.98 -99.082C815.98 -98.0404 816.117 -97.0768 816.391 -96.1914C816.677 -95.319 817.094 -94.5573 817.641 -93.9062C818.188 -93.2552 818.865 -92.7409 819.672 -92.3633C820.492 -91.9857 821.436 -91.7969 822.504 -91.7969C824.561 -91.7969 826.358 -92.6107 827.895 -94.2383V-103.965ZM849.496 -99.3359L839.496 -89.3359L837.973 -90.8789L846.41 -99.3359L837.973 -107.773L839.496 -109.336L849.496 -99.3359ZM785.062 -50.8789L783.559 -49.3359L773.559 -59.3359L783.559 -69.3359L785.062 -67.7734L776.625 -59.3359L785.062 -50.8789ZM809.711 -50H807.035V-63.0859C807.035 -64.1276 806.853 -64.9349 806.488 -65.5078C806.124 -66.0807 805.596 -66.3672 804.906 -66.3672C803.891 -66.3672 803.142 -65.8333 802.66 -64.7656C802.191 -63.6979 801.957 -62.2005 801.957 -60.2734V-50H799.262V-63.0859C799.262 -64.1276 799.073 -64.9349 798.695 -65.5078C798.331 -66.0807 797.803 -66.3672 797.113 -66.3672C796.475 -66.3672 795.967 -66.1784 795.59 -65.8008C795.212 -65.4232 794.913 -64.9414 794.691 -64.3555C794.483 -63.7695 794.346 -63.1185 794.281 -62.4023C794.216 -61.6862 794.184 -60.9766 794.184 -60.2734V-50H791.508V-68.2031H794.184V-65.5664C794.743 -67.6107 795.961 -68.6328 797.836 -68.6328C799.62 -68.6328 800.831 -67.7409 801.469 -65.957C802.354 -67.7409 803.604 -68.6328 805.219 -68.6328C806.768 -68.6328 807.901 -68.1706 808.617 -67.2461C809.346 -66.3346 809.711 -64.9479 809.711 -63.0859V-50ZM816.02 -58.1641C816.215 -56.237 816.918 -54.7005 818.129 -53.5547C819.34 -52.4089 820.915 -51.8359 822.855 -51.8359C824.223 -51.8359 825.44 -52.1159 826.508 -52.6758C827.576 -53.2357 828.376 -53.9323 828.91 -54.7656L830.785 -53.4766C829.874 -52.2005 828.786 -51.224 827.523 -50.5469C826.26 -49.8828 824.704 -49.5508 822.855 -49.5508C821.449 -49.5508 820.16 -49.7852 818.988 -50.2539C817.816 -50.7227 816.801 -51.3737 815.941 -52.207C815.095 -53.0534 814.438 -54.056 813.969 -55.2148C813.5 -56.3737 813.266 -57.6628 813.266 -59.082C813.266 -60.4622 813.474 -61.7318 813.891 -62.8906C814.32 -64.0625 814.932 -65.0716 815.727 -65.918C816.534 -66.7773 817.51 -67.4414 818.656 -67.9102C819.802 -68.3919 821.085 -68.6328 822.504 -68.6328C824.053 -68.6328 825.408 -68.3724 826.566 -67.8516C827.725 -67.3307 828.689 -66.6081 829.457 -65.6836C830.238 -64.7721 830.811 -63.6784 831.176 -62.4023C831.553 -61.1263 831.742 -59.7135 831.742 -58.1641H816.02ZM828.91 -60.4492C828.611 -62.4414 827.888 -63.9258 826.742 -64.9023C825.596 -65.8789 824.184 -66.3672 822.504 -66.3672C821.645 -66.3672 820.85 -66.224 820.121 -65.9375C819.392 -65.6641 818.747 -65.2669 818.188 -64.7461C817.628 -64.2253 817.159 -63.5938 816.781 -62.8516C816.404 -62.1224 816.163 -61.3216 816.059 -60.4492H828.91ZM853.578 -55.8008C853.37 -53.8867 852.615 -52.3633 851.312 -51.2305C850.023 -50.1107 848.409 -49.5508 846.469 -49.5508C845.401 -49.5508 844.424 -49.7266 843.539 -50.0781C842.654 -50.4297 841.898 -50.918 841.273 -51.543C840.648 -52.168 840.16 -52.9167 839.809 -53.7891C839.47 -54.6745 839.301 -55.638 839.301 -56.6797V-65.918H835.18V-68.2031H839.301V-75.4883H841.977V-68.2031H849.73V-65.918H841.977V-56.6797C841.977 -56.0156 842.081 -55.3906 842.289 -54.8047C842.51 -54.2188 842.81 -53.7044 843.188 -53.2617C843.578 -52.819 844.047 -52.4674 844.594 -52.207C845.141 -51.9596 845.766 -51.8359 846.469 -51.8359C847.797 -51.8359 848.904 -52.2461 849.789 -53.0664C850.688 -53.8997 851.202 -54.974 851.332 -56.2891L853.578 -55.8008ZM856.977 -54.9219C856.977 -56.0677 857.263 -57.0247 857.836 -57.793C858.409 -58.5742 859.158 -59.1862 860.082 -59.6289C861.02 -60.0846 862.087 -60.4102 863.285 -60.6055C864.496 -60.8138 865.727 -60.918 866.977 -60.918C867.458 -60.918 867.888 -60.9115 868.266 -60.8984C868.656 -60.8854 869.021 -60.8659 869.359 -60.8398C869.711 -60.8138 870.062 -60.7812 870.414 -60.7422C870.766 -60.7031 871.15 -60.6576 871.566 -60.6055V-61.9141C871.566 -62.7995 871.371 -63.5286 870.98 -64.1016C870.603 -64.6745 870.134 -65.1237 869.574 -65.4492C869.014 -65.7878 868.428 -66.0221 867.816 -66.1523C867.204 -66.2956 866.684 -66.3672 866.254 -66.3672C864.9 -66.3672 863.65 -66.1849 862.504 -65.8203C861.358 -65.4557 860.29 -64.9674 859.301 -64.3555L858.09 -66.3672C859.184 -67.0312 860.408 -67.5716 861.762 -67.9883C863.129 -68.418 864.626 -68.6328 866.254 -68.6328C867.243 -68.6328 868.214 -68.5026 869.164 -68.2422C870.128 -67.9948 870.987 -67.6042 871.742 -67.0703C872.51 -66.5495 873.122 -65.8594 873.578 -65C874.034 -64.1406 874.262 -63.112 874.262 -61.9141V-50H871.566V-53.0469C871.098 -52.4609 870.564 -51.9466 869.965 -51.5039C869.379 -51.0612 868.76 -50.6966 868.109 -50.4102C867.458 -50.1367 866.807 -49.9284 866.156 -49.7852C865.505 -49.6289 864.887 -49.5508 864.301 -49.5508C861.892 -49.5508 860.069 -50.013 858.832 -50.9375C857.595 -51.862 856.977 -53.1901 856.977 -54.9219ZM864.301 -51.8359C865.421 -51.8359 866.423 -51.9987 867.309 -52.3242C868.207 -52.6628 868.969 -53.0794 869.594 -53.5742C870.219 -54.069 870.701 -54.5964 871.039 -55.1562C871.391 -55.7161 871.566 -56.224 871.566 -56.6797V-58.3984C870.694 -58.5286 869.854 -58.6003 869.047 -58.6133C868.253 -58.6263 867.562 -58.6328 866.977 -58.6328C866.013 -58.6328 865.082 -58.5677 864.184 -58.4375C863.298 -58.3073 862.523 -58.0924 861.859 -57.793C861.195 -57.5065 860.661 -57.1289 860.258 -56.6602C859.854 -56.1914 859.652 -55.612 859.652 -54.9219C859.652 -54.1536 860.023 -53.444 860.766 -52.793C861.521 -52.1549 862.699 -51.8359 864.301 -51.8359ZM918.207 -53.4766C917.439 -52.2786 916.384 -51.3216 915.043 -50.6055C913.715 -49.9023 912.133 -49.5508 910.297 -49.5508C908.878 -49.5508 907.576 -49.7852 906.391 -50.2539C905.206 -50.7227 904.19 -51.3737 903.344 -52.207C902.51 -53.0534 901.859 -54.056 901.391 -55.2148C900.922 -56.3737 900.688 -57.6628 900.688 -59.082C900.688 -60.4622 900.902 -61.7383 901.332 -62.9102C901.762 -64.0951 902.374 -65.1042 903.168 -65.9375C903.962 -66.7839 904.932 -67.4414 906.078 -67.9102C907.237 -68.3919 908.52 -68.6328 909.926 -68.6328C910.486 -68.6328 911.059 -68.5677 911.645 -68.4375C912.23 -68.3073 912.784 -68.1055 913.305 -67.832C913.826 -67.5716 914.294 -67.2526 914.711 -66.875C915.128 -66.5104 915.44 -66.0742 915.648 -65.5664V-68.2031H918.051V-60.918H915.648C915.648 -61.7253 915.499 -62.4609 915.199 -63.125C914.913 -63.7891 914.516 -64.362 914.008 -64.8438C913.5 -65.3255 912.895 -65.6966 912.191 -65.957C911.488 -66.2305 910.733 -66.3672 909.926 -66.3672C908.832 -66.3672 907.875 -66.1784 907.055 -65.8008C906.247 -65.4232 905.57 -64.9089 905.023 -64.2578C904.477 -63.6068 904.06 -62.8385 903.773 -61.9531C903.5 -61.0807 903.363 -60.1237 903.363 -59.082C903.363 -58.0404 903.52 -57.0768 903.832 -56.1914C904.158 -55.319 904.62 -54.5638 905.219 -53.9258C905.831 -53.2878 906.56 -52.7799 907.406 -52.4023C908.266 -52.0247 909.229 -51.8359 910.297 -51.8359C911.651 -51.8359 912.855 -52.1029 913.91 -52.6367C914.965 -53.1706 915.772 -53.8802 916.332 -54.7656L918.207 -53.4766ZM939.77 -50H937.074V-61.2305C937.074 -62.8581 936.723 -64.1211 936.02 -65.0195C935.316 -65.918 934.177 -66.3672 932.602 -66.3672C931.612 -66.3672 930.714 -66.1393 929.906 -65.6836C929.112 -65.2279 928.435 -64.6159 927.875 -63.8477C927.315 -63.0924 926.885 -62.2201 926.586 -61.2305C926.299 -60.2539 926.156 -59.2318 926.156 -58.1641V-50H923.48V-75.4883H926.156V-63.6328C927.445 -66.9661 929.743 -68.6328 933.051 -68.6328C937.53 -68.6328 939.77 -66.1654 939.77 -61.2305V-50ZM944.32 -54.9219C944.32 -56.0677 944.607 -57.0247 945.18 -57.793C945.753 -58.5742 946.501 -59.1862 947.426 -59.6289C948.363 -60.0846 949.431 -60.4102 950.629 -60.6055C951.84 -60.8138 953.07 -60.918 954.32 -60.918C954.802 -60.918 955.232 -60.9115 955.609 -60.8984C956 -60.8854 956.365 -60.8659 956.703 -60.8398C957.055 -60.8138 957.406 -60.7812 957.758 -60.7422C958.109 -60.7031 958.493 -60.6576 958.91 -60.6055V-61.9141C958.91 -62.7995 958.715 -63.5286 958.324 -64.1016C957.947 -64.6745 957.478 -65.1237 956.918 -65.4492C956.358 -65.7878 955.772 -66.0221 955.16 -66.1523C954.548 -66.2956 954.027 -66.3672 953.598 -66.3672C952.243 -66.3672 950.993 -66.1849 949.848 -65.8203C948.702 -65.4557 947.634 -64.9674 946.645 -64.3555L945.434 -66.3672C946.527 -67.0312 947.751 -67.5716 949.105 -67.9883C950.473 -68.418 951.97 -68.6328 953.598 -68.6328C954.587 -68.6328 955.557 -68.5026 956.508 -68.2422C957.471 -67.9948 958.331 -67.6042 959.086 -67.0703C959.854 -66.5495 960.466 -65.8594 960.922 -65C961.378 -64.1406 961.605 -63.112 961.605 -61.9141V-50H958.91V-53.0469C958.441 -52.4609 957.908 -51.9466 957.309 -51.5039C956.723 -51.0612 956.104 -50.6966 955.453 -50.4102C954.802 -50.1367 954.151 -49.9284 953.5 -49.7852C952.849 -49.6289 952.23 -49.5508 951.645 -49.5508C949.236 -49.5508 947.413 -50.013 946.176 -50.9375C944.939 -51.862 944.32 -53.1901 944.32 -54.9219ZM951.645 -51.8359C952.764 -51.8359 953.767 -51.9987 954.652 -52.3242C955.551 -52.6628 956.312 -53.0794 956.938 -53.5742C957.562 -54.069 958.044 -54.5964 958.383 -55.1562C958.734 -55.7161 958.91 -56.224 958.91 -56.6797V-58.3984C958.038 -58.5286 957.198 -58.6003 956.391 -58.6133C955.596 -58.6263 954.906 -58.6328 954.32 -58.6328C953.357 -58.6328 952.426 -58.5677 951.527 -58.4375C950.642 -58.3073 949.867 -58.0924 949.203 -57.793C948.539 -57.5065 948.005 -57.1289 947.602 -56.6602C947.198 -56.1914 946.996 -55.612 946.996 -54.9219C946.996 -54.1536 947.367 -53.444 948.109 -52.793C948.865 -52.1549 950.043 -51.8359 951.645 -51.8359ZM983.402 -65.6445C982.439 -66.1263 981.293 -66.3672 979.965 -66.3672C978.871 -66.3672 977.895 -66.1328 977.035 -65.6641C976.176 -65.1953 975.447 -64.5768 974.848 -63.8086C974.249 -63.0534 973.786 -62.181 973.461 -61.1914C973.148 -60.2148 972.992 -59.2057 972.992 -58.1641V-52.2852H977.113V-50H966.195V-52.2852H970.316V-65.918H966.195V-68.2031H972.992V-63.6328C974.216 -66.9661 976.54 -68.6328 979.965 -68.6328C980.889 -68.6328 981.69 -68.5742 982.367 -68.457C983.057 -68.3398 983.695 -68.1315 984.281 -67.832L983.402 -65.6445ZM1005.75 -55.0391C1005.75 -53.9714 1005.48 -53.0859 1004.95 -52.3828C1004.41 -51.6797 1003.72 -51.1198 1002.88 -50.7031C1002.04 -50.2865 1001.1 -49.9935 1000.06 -49.8242C999.034 -49.6419 998.025 -49.5508 997.035 -49.5508C995.382 -49.5508 993.734 -49.7917 992.094 -50.2734C990.453 -50.7552 989.034 -51.3867 987.836 -52.168L989.027 -54.4727C990.368 -53.6263 991.69 -52.9753 992.992 -52.5195C994.294 -52.0638 995.642 -51.8359 997.035 -51.8359C1001.06 -51.8359 1003.07 -52.8776 1003.07 -54.9609C1003.07 -55.4688 1002.9 -55.8789 1002.56 -56.1914C1002.24 -56.5169 1001.79 -56.7773 1001.23 -56.9727C1000.67 -57.181 1000.03 -57.3438 999.301 -57.4609C998.585 -57.5781 997.829 -57.6888 997.035 -57.793C996.02 -57.9362 995.01 -58.1055 994.008 -58.3008C993.005 -58.4961 992.087 -58.7891 991.254 -59.1797C990.434 -59.5703 989.77 -60.0911 989.262 -60.7422C988.767 -61.3932 988.52 -62.2526 988.52 -63.3203C988.52 -64.2318 988.747 -65.0195 989.203 -65.6836C989.672 -66.3477 990.29 -66.901 991.059 -67.3438C991.84 -67.7865 992.751 -68.112 993.793 -68.3203C994.835 -68.5286 995.915 -68.6328 997.035 -68.6328C998.637 -68.6328 1000.07 -68.444 1001.33 -68.0664C1002.6 -67.7018 1003.73 -67.1745 1004.75 -66.4844L1003.68 -64.3945C1002.63 -65.1237 1001.58 -65.6315 1000.51 -65.918C999.444 -66.2174 998.285 -66.3672 997.035 -66.3672C996.475 -66.3672 995.85 -66.3151 995.16 -66.2109C994.483 -66.1198 993.852 -65.9505 993.266 -65.7031C992.68 -65.4688 992.185 -65.1562 991.781 -64.7656C991.391 -64.388 991.195 -63.9062 991.195 -63.3203C991.195 -62.8125 991.358 -62.4023 991.684 -62.0898C992.022 -61.7904 992.471 -61.5365 993.031 -61.3281C993.591 -61.1328 994.229 -60.9766 994.945 -60.8594C995.674 -60.7422 996.436 -60.6315 997.23 -60.5273C998.22 -60.3841 999.216 -60.2148 1000.22 -60.0195C1001.23 -59.8242 1002.15 -59.5378 1002.97 -59.1602C1003.81 -58.7826 1004.48 -58.2682 1004.98 -57.6172C1005.49 -56.9661 1005.75 -56.1068 1005.75 -55.0391ZM1012.54 -58.1641C1012.74 -56.237 1013.44 -54.7005 1014.65 -53.5547C1015.86 -52.4089 1017.44 -51.8359 1019.38 -51.8359C1020.75 -51.8359 1021.96 -52.1159 1023.03 -52.6758C1024.1 -53.2357 1024.9 -53.9323 1025.43 -54.7656L1027.31 -53.4766C1026.4 -52.2005 1025.31 -51.224 1024.05 -50.5469C1022.78 -49.8828 1021.23 -49.5508 1019.38 -49.5508C1017.97 -49.5508 1016.68 -49.7852 1015.51 -50.2539C1014.34 -50.7227 1013.32 -51.3737 1012.46 -52.207C1011.62 -53.0534 1010.96 -54.056 1010.49 -55.2148C1010.02 -56.3737 1009.79 -57.6628 1009.79 -59.082C1009.79 -60.4622 1010 -61.7318 1010.41 -62.8906C1010.84 -64.0625 1011.46 -65.0716 1012.25 -65.918C1013.06 -66.7773 1014.03 -67.4414 1015.18 -67.9102C1016.33 -68.3919 1017.61 -68.6328 1019.03 -68.6328C1020.58 -68.6328 1021.93 -68.3724 1023.09 -67.8516C1024.25 -67.3307 1025.21 -66.6081 1025.98 -65.6836C1026.76 -64.7721 1027.33 -63.6784 1027.7 -62.4023C1028.08 -61.1263 1028.27 -59.7135 1028.27 -58.1641H1012.54ZM1025.43 -60.4492C1025.13 -62.4414 1024.41 -63.9258 1023.27 -64.9023C1022.12 -65.8789 1020.71 -66.3672 1019.03 -66.3672C1018.17 -66.3672 1017.37 -66.224 1016.64 -65.9375C1015.92 -65.6641 1015.27 -65.2669 1014.71 -64.7461C1014.15 -64.2253 1013.68 -63.5938 1013.3 -62.8516C1012.93 -62.1224 1012.69 -61.3216 1012.58 -60.4492H1025.43ZM1050.1 -55.8008C1049.89 -53.8867 1049.14 -52.3633 1047.84 -51.2305C1046.55 -50.1107 1044.93 -49.5508 1042.99 -49.5508C1041.92 -49.5508 1040.95 -49.7266 1040.06 -50.0781C1039.18 -50.4297 1038.42 -50.918 1037.8 -51.543C1037.17 -52.168 1036.68 -52.9167 1036.33 -53.7891C1035.99 -54.6745 1035.82 -55.638 1035.82 -56.6797V-65.918H1031.7V-68.2031H1035.82V-75.4883H1038.5V-68.2031H1046.25V-65.918H1038.5V-56.6797C1038.5 -56.0156 1038.6 -55.3906 1038.81 -54.8047C1039.03 -54.2188 1039.33 -53.7044 1039.71 -53.2617C1040.1 -52.819 1040.57 -52.4674 1041.12 -52.207C1041.66 -51.9596 1042.29 -51.8359 1042.99 -51.8359C1044.32 -51.8359 1045.43 -52.2461 1046.31 -53.0664C1047.21 -53.8997 1047.73 -54.974 1047.86 -56.2891L1050.1 -55.8008ZM1071.74 -62.4805H1053.54V-64.8047H1071.74V-62.4805ZM1071.74 -53.8867H1053.54V-56.1719H1071.74V-53.8867ZM1089.93 -75.4883L1089.14 -66.4062H1087.13L1086.29 -75.4883H1089.93ZM1082.66 -75.4883L1081.82 -66.4062H1079.85L1079.01 -75.4883H1082.66ZM1114.46 -59.082C1114.46 -57.6367 1114.29 -56.3281 1113.97 -55.1562C1113.66 -53.9844 1113.16 -52.9818 1112.48 -52.1484C1111.82 -51.3281 1110.97 -50.6901 1109.95 -50.2344C1108.92 -49.7786 1107.7 -49.5508 1106.29 -49.5508C1104.87 -49.5508 1103.65 -49.7786 1102.62 -50.2344C1101.61 -50.6901 1100.77 -51.3281 1100.1 -52.1484C1099.45 -52.9818 1098.96 -53.9909 1098.64 -55.1758C1098.32 -56.3607 1098.17 -57.6758 1098.17 -59.1211V-75.4883H1100.84V-59.082C1100.84 -58.3138 1100.91 -57.5 1101.04 -56.6406C1101.18 -55.7812 1101.45 -55 1101.84 -54.2969C1102.24 -53.5938 1102.8 -53.0078 1103.5 -52.5391C1104.22 -52.0703 1105.15 -51.8359 1106.29 -51.8359C1107.44 -51.8359 1108.37 -52.0703 1109.09 -52.5391C1109.82 -53.0078 1110.38 -53.5938 1110.77 -54.2969C1111.17 -55 1111.44 -55.7812 1111.57 -56.6406C1111.7 -57.5 1111.76 -58.3138 1111.76 -59.082V-75.4883H1114.46V-59.082ZM1137.25 -66.875H1134.96V-73.2031H1129.5V-52.2852H1133.6V-50H1122.68V-52.2852H1126.8V-73.2031H1121.33V-66.875H1119.05V-75.4883H1137.25V-66.875ZM1158.13 -73.2031H1144.52V-64.082H1154.55V-61.7969H1144.52V-50H1141.84V-75.4883H1158.13V-73.2031ZM1180.92 -58.2031H1162.72V-60.4883H1180.92V-58.2031ZM1202.95 -57.168C1202.95 -55.8268 1202.71 -54.681 1202.23 -53.7305C1201.75 -52.793 1201.08 -52.0117 1200.24 -51.3867C1199.4 -50.7617 1198.42 -50.2995 1197.29 -50C1196.16 -49.7005 1194.95 -49.5508 1193.68 -49.5508C1192.37 -49.5508 1191.16 -49.7005 1190.04 -50C1188.92 -50.2995 1187.94 -50.7617 1187.09 -51.3867C1186.26 -52.0117 1185.6 -52.793 1185.12 -53.7305C1184.64 -54.681 1184.4 -55.8268 1184.4 -57.168C1184.4 -57.8581 1184.52 -58.5547 1184.77 -59.2578C1185.03 -59.9609 1185.39 -60.612 1185.86 -61.2109C1186.35 -61.8229 1186.92 -62.3242 1187.6 -62.7148C1188.29 -63.1185 1189.05 -63.3724 1189.87 -63.4766C1189.15 -63.5547 1188.51 -63.7891 1187.95 -64.1797C1187.39 -64.5703 1186.92 -65.026 1186.53 -65.5469C1186.15 -66.0677 1185.85 -66.6341 1185.63 -67.2461C1185.42 -67.8581 1185.32 -68.444 1185.32 -69.0039C1185.32 -70.1497 1185.54 -71.1523 1186 -72.0117C1186.46 -72.8841 1187.07 -73.6068 1187.84 -74.1797C1188.6 -74.7526 1189.5 -75.1823 1190.51 -75.4688C1191.53 -75.7682 1192.58 -75.918 1193.68 -75.918C1194.77 -75.918 1195.82 -75.7682 1196.84 -75.4688C1197.86 -75.1823 1198.75 -74.7526 1199.52 -74.1797C1200.28 -73.6068 1200.9 -72.8841 1201.35 -72.0117C1201.81 -71.1523 1202.04 -70.1497 1202.04 -69.0039C1202.04 -68.444 1201.92 -67.8581 1201.7 -67.2461C1201.49 -66.6341 1201.2 -66.0677 1200.8 -65.5469C1200.43 -65.026 1199.95 -64.5703 1199.38 -64.1797C1198.81 -63.7891 1198.15 -63.5547 1197.43 -63.4766C1198.26 -63.3724 1199.01 -63.1185 1199.69 -62.7148C1200.37 -62.3242 1200.95 -61.8229 1201.43 -61.2109C1201.91 -60.612 1202.28 -59.9609 1202.54 -59.2578C1202.82 -58.5547 1202.95 -57.8581 1202.95 -57.168ZM1199.36 -69.0039C1199.36 -70.4362 1198.85 -71.5625 1197.84 -72.3828C1196.82 -73.2161 1195.43 -73.6328 1193.68 -73.6328C1191.92 -73.6328 1190.53 -73.2161 1189.52 -72.3828C1188.5 -71.5625 1187.99 -70.4362 1187.99 -69.0039C1187.99 -67.6628 1188.47 -66.5951 1189.44 -65.8008C1190.4 -65.0065 1191.81 -64.6094 1193.68 -64.6094C1195.54 -64.6094 1196.95 -65.0065 1197.91 -65.8008C1198.88 -66.5951 1199.36 -67.6628 1199.36 -69.0039ZM1200.28 -57.168C1200.28 -58.0924 1200.1 -58.8802 1199.73 -59.5312C1199.38 -60.1953 1198.89 -60.7292 1198.27 -61.1328C1197.65 -61.5495 1196.96 -61.849 1196.18 -62.0312C1195.39 -62.2266 1194.56 -62.3242 1193.68 -62.3242C1192.79 -62.3242 1191.96 -62.2266 1191.18 -62.0312C1190.39 -61.849 1189.69 -61.5495 1189.07 -61.1328C1188.45 -60.7292 1187.97 -60.1953 1187.6 -59.5312C1187.25 -58.8802 1187.07 -58.0924 1187.07 -57.168C1187.07 -56.2565 1187.25 -55.4688 1187.6 -54.8047C1187.97 -54.1406 1188.45 -53.5872 1189.07 -53.1445C1189.69 -52.7018 1190.39 -52.3698 1191.18 -52.1484C1191.96 -51.9401 1192.79 -51.8359 1193.68 -51.8359C1194.56 -51.8359 1195.39 -51.9401 1196.18 -52.1484C1196.96 -52.3698 1197.65 -52.7018 1198.27 -53.1445C1198.89 -53.5872 1199.38 -54.1406 1199.73 -54.8047C1200.1 -55.4688 1200.28 -56.2565 1200.28 -57.168ZM1220.94 -75.4883L1220.16 -66.4062H1218.15L1217.31 -75.4883H1220.94ZM1213.68 -75.4883L1212.84 -66.4062H1210.86L1210.02 -75.4883H1213.68ZM1242.54 -59.3359L1232.54 -49.3359L1231.02 -50.8789L1239.46 -59.3359L1231.02 -67.7734L1232.54 -69.3359L1242.54 -59.3359ZM785.062 -10.8789L783.559 -9.33594L773.559 -19.3359L783.559 -29.3359L785.062 -27.7734L776.625 -19.3359L785.062 -10.8789ZM809.906 -15.8008C809.698 -13.8867 808.943 -12.3633 807.641 -11.2305C806.352 -10.1107 804.737 -9.55078 802.797 -9.55078C801.729 -9.55078 800.753 -9.72656 799.867 -10.0781C798.982 -10.4297 798.227 -10.918 797.602 -11.543C796.977 -12.168 796.488 -12.9167 796.137 -13.7891C795.798 -14.6745 795.629 -15.638 795.629 -16.6797V-25.918H791.508V-28.2031H795.629V-35.4883H798.305V-28.2031H806.059V-25.918H798.305V-16.6797C798.305 -16.0156 798.409 -15.3906 798.617 -14.8047C798.839 -14.2188 799.138 -13.7044 799.516 -13.2617C799.906 -12.819 800.375 -12.4674 800.922 -12.207C801.469 -11.9596 802.094 -11.8359 802.797 -11.8359C804.125 -11.8359 805.232 -12.2461 806.117 -13.0664C807.016 -13.8997 807.53 -14.974 807.66 -16.2891L809.906 -15.8008ZM824.262 -31.8359H820.629V-35.4883H824.262V-31.8359ZM827.895 -10H816.977V-12.2852H821.098V-25.918H816.977V-28.2031H823.793V-12.2852H827.895V-10ZM853.578 -15.8008C853.37 -13.8867 852.615 -12.3633 851.312 -11.2305C850.023 -10.1107 848.409 -9.55078 846.469 -9.55078C845.401 -9.55078 844.424 -9.72656 843.539 -10.0781C842.654 -10.4297 841.898 -10.918 841.273 -11.543C840.648 -12.168 840.16 -12.9167 839.809 -13.7891C839.47 -14.6745 839.301 -15.638 839.301 -16.6797V-25.918H835.18V-28.2031H839.301V-35.4883H841.977V-28.2031H849.73V-25.918H841.977V-16.6797C841.977 -16.0156 842.081 -15.3906 842.289 -14.8047C842.51 -14.2188 842.81 -13.7044 843.188 -13.2617C843.578 -12.819 844.047 -12.4674 844.594 -12.207C845.141 -11.9596 845.766 -11.8359 846.469 -11.8359C847.797 -11.8359 848.904 -12.2461 849.789 -13.0664C850.688 -13.8997 851.202 -14.974 851.332 -16.2891L853.578 -15.8008ZM871.566 -10H860.648V-12.2852H864.77V-33.2031H860.648V-35.4883H867.465V-12.2852H871.566V-10ZM881.527 -18.1641C881.723 -16.237 882.426 -14.7005 883.637 -13.5547C884.848 -12.4089 886.423 -11.8359 888.363 -11.8359C889.73 -11.8359 890.948 -12.1159 892.016 -12.6758C893.083 -13.2357 893.884 -13.9323 894.418 -14.7656L896.293 -13.4766C895.382 -12.2005 894.294 -11.224 893.031 -10.5469C891.768 -9.88281 890.212 -9.55078 888.363 -9.55078C886.957 -9.55078 885.668 -9.78516 884.496 -10.2539C883.324 -10.7227 882.309 -11.3737 881.449 -12.207C880.603 -13.0534 879.945 -14.056 879.477 -15.2148C879.008 -16.3737 878.773 -17.6628 878.773 -19.082C878.773 -20.4622 878.982 -21.7318 879.398 -22.8906C879.828 -24.0625 880.44 -25.0716 881.234 -25.918C882.042 -26.7773 883.018 -27.4414 884.164 -27.9102C885.31 -28.3919 886.592 -28.6328 888.012 -28.6328C889.561 -28.6328 890.915 -28.3724 892.074 -27.8516C893.233 -27.3307 894.197 -26.6081 894.965 -25.6836C895.746 -24.7721 896.319 -23.6784 896.684 -22.4023C897.061 -21.1263 897.25 -19.7135 897.25 -18.1641H881.527ZM894.418 -20.4492C894.118 -22.4414 893.396 -23.9258 892.25 -24.9023C891.104 -25.8789 889.691 -26.3672 888.012 -26.3672C887.152 -26.3672 886.358 -26.224 885.629 -25.9375C884.9 -25.6641 884.255 -25.2669 883.695 -24.7461C883.135 -24.2253 882.667 -23.5938 882.289 -22.8516C881.911 -22.1224 881.671 -21.3216 881.566 -20.4492H894.418ZM915.004 -19.3359L905.004 -9.33594L903.48 -10.8789L911.918 -19.3359L903.48 -27.7734L905.004 -29.3359L915.004 -19.3359ZM941.957 -10H939.086L936.684 -17.2852H926.605L924.242 -10H921.371L929.848 -35.4883H933.48L941.957 -10ZM935.922 -19.6484L931.645 -32.793L927.367 -19.6484H935.922ZM961.605 -10H958.91V-21.2305C958.91 -22.8581 958.559 -24.1211 957.855 -25.0195C957.152 -25.918 956.013 -26.3672 954.438 -26.3672C953.448 -26.3672 952.549 -26.1393 951.742 -25.6836C950.948 -25.2279 950.271 -24.6159 949.711 -23.8477C949.151 -23.0924 948.721 -22.2201 948.422 -21.2305C948.135 -20.2539 947.992 -19.2318 947.992 -18.1641V-10H945.316V-28.2031H947.992V-23.6328C949.281 -26.9661 951.579 -28.6328 954.887 -28.6328C959.366 -28.6328 961.605 -26.1654 961.605 -21.2305V-10ZM984.867 -19.043C984.867 -17.6237 984.639 -16.3346 984.184 -15.1758C983.741 -14.0169 983.096 -13.0208 982.25 -12.1875C981.417 -11.3672 980.414 -10.7227 979.242 -10.2539C978.07 -9.78516 976.762 -9.55078 975.316 -9.55078C973.897 -9.55078 972.602 -9.78516 971.43 -10.2539C970.258 -10.7227 969.249 -11.3672 968.402 -12.1875C967.569 -13.0208 966.924 -14.0169 966.469 -15.1758C966.026 -16.3346 965.805 -17.6237 965.805 -19.043C965.805 -20.4232 966.026 -21.7057 966.469 -22.8906C966.924 -24.0885 967.569 -25.1042 968.402 -25.9375C969.249 -26.7839 970.258 -27.4414 971.43 -27.9102C972.602 -28.3919 973.897 -28.6328 975.316 -28.6328C976.762 -28.6328 978.07 -28.3919 979.242 -27.9102C980.414 -27.4414 981.417 -26.7839 982.25 -25.9375C983.096 -25.1042 983.741 -24.0885 984.184 -22.8906C984.639 -21.7057 984.867 -20.4232 984.867 -19.043ZM982.191 -19.043C982.191 -20.0846 982.035 -21.0417 981.723 -21.9141C981.423 -22.7995 980.974 -23.5742 980.375 -24.2383C979.776 -24.9023 979.047 -25.4232 978.188 -25.8008C977.341 -26.1784 976.384 -26.3672 975.316 -26.3672C974.249 -26.3672 973.285 -26.1784 972.426 -25.8008C971.579 -25.4232 970.863 -24.9023 970.277 -24.2383C969.691 -23.5742 969.242 -22.7995 968.93 -21.9141C968.63 -21.0417 968.48 -20.0846 968.48 -19.043C968.48 -18.0013 968.63 -17.0378 968.93 -16.1523C969.242 -15.2799 969.691 -14.5247 970.277 -13.8867C970.863 -13.2487 971.579 -12.7474 972.426 -12.3828C973.285 -12.0182 974.249 -11.8359 975.316 -11.8359C976.384 -11.8359 977.341 -12.0182 978.188 -12.3828C979.047 -12.7474 979.776 -13.2487 980.375 -13.8867C980.974 -14.5247 981.423 -15.2799 981.723 -16.1523C982.035 -17.0378 982.191 -18.0013 982.191 -19.043ZM1005.28 -10H1002.58V-21.2305C1002.58 -22.8581 1002.23 -24.1211 1001.53 -25.0195C1000.82 -25.918 999.685 -26.3672 998.109 -26.3672C997.12 -26.3672 996.221 -26.1393 995.414 -25.6836C994.62 -25.2279 993.943 -24.6159 993.383 -23.8477C992.823 -23.0924 992.393 -22.2201 992.094 -21.2305C991.807 -20.2539 991.664 -19.2318 991.664 -18.1641V-10H988.988V-28.2031H991.664V-23.6328C992.953 -26.9661 995.251 -28.6328 998.559 -28.6328C1003.04 -28.6328 1005.28 -26.1654 1005.28 -21.2305V-10ZM1028.64 -28.2031L1018.79 -5.39062C1018.29 -4.11458 1017.57 -3.28125 1016.64 -2.89062C1015.72 -2.48698 1014.7 -2.28516 1013.58 -2.28516C1012.33 -2.28516 1011.08 -2.51302 1009.83 -2.96875L1010.36 -5.27344C1010.97 -5.01302 1011.57 -4.83073 1012.15 -4.72656C1012.74 -4.60938 1013.21 -4.55078 1013.58 -4.55078C1014.46 -4.55078 1015.07 -4.76562 1015.39 -5.19531C1015.73 -5.625 1016.03 -6.13281 1016.27 -6.71875L1017.39 -9.47266L1009.26 -28.2031H1012.43L1018.99 -12.2852L1025.43 -28.2031H1028.64ZM1049.91 -10H1047.23V-23.0859C1047.23 -24.1276 1047.05 -24.9349 1046.68 -25.5078C1046.32 -26.0807 1045.79 -26.3672 1045.1 -26.3672C1044.09 -26.3672 1043.34 -25.8333 1042.86 -24.7656C1042.39 -23.6979 1042.15 -22.2005 1042.15 -20.2734V-10H1039.46V-23.0859C1039.46 -24.1276 1039.27 -24.9349 1038.89 -25.5078C1038.53 -26.0807 1038 -26.3672 1037.31 -26.3672C1036.67 -26.3672 1036.16 -26.1784 1035.79 -25.8008C1035.41 -25.4232 1035.11 -24.9414 1034.89 -24.3555C1034.68 -23.7695 1034.54 -23.1185 1034.48 -22.4023C1034.41 -21.6862 1034.38 -20.9766 1034.38 -20.2734V-10H1031.7V-28.2031H1034.38V-25.5664C1034.94 -27.6107 1036.16 -28.6328 1038.03 -28.6328C1039.82 -28.6328 1041.03 -27.7409 1041.66 -25.957C1042.55 -27.7409 1043.8 -28.6328 1045.41 -28.6328C1046.96 -28.6328 1048.1 -28.1706 1048.81 -27.2461C1049.54 -26.3346 1049.91 -24.9479 1049.91 -23.0859V-10ZM1072.21 -19.043C1072.21 -17.6237 1071.98 -16.3346 1071.53 -15.1758C1071.08 -14.0169 1070.44 -13.0208 1069.59 -12.1875C1068.76 -11.3672 1067.76 -10.7227 1066.59 -10.2539C1065.41 -9.78516 1064.11 -9.55078 1062.66 -9.55078C1061.24 -9.55078 1059.95 -9.78516 1058.77 -10.2539C1057.6 -10.7227 1056.59 -11.3672 1055.75 -12.1875C1054.91 -13.0208 1054.27 -14.0169 1053.81 -15.1758C1053.37 -16.3346 1053.15 -17.6237 1053.15 -19.043C1053.15 -20.4232 1053.37 -21.7057 1053.81 -22.8906C1054.27 -24.0885 1054.91 -25.1042 1055.75 -25.9375C1056.59 -26.7839 1057.6 -27.4414 1058.77 -27.9102C1059.95 -28.3919 1061.24 -28.6328 1062.66 -28.6328C1064.11 -28.6328 1065.41 -28.3919 1066.59 -27.9102C1067.76 -27.4414 1068.76 -26.7839 1069.59 -25.9375C1070.44 -25.1042 1071.08 -24.0885 1071.53 -22.8906C1071.98 -21.7057 1072.21 -20.4232 1072.21 -19.043ZM1069.54 -19.043C1069.54 -20.0846 1069.38 -21.0417 1069.07 -21.9141C1068.77 -22.7995 1068.32 -23.5742 1067.72 -24.2383C1067.12 -24.9023 1066.39 -25.4232 1065.53 -25.8008C1064.68 -26.1784 1063.73 -26.3672 1062.66 -26.3672C1061.59 -26.3672 1060.63 -26.1784 1059.77 -25.8008C1058.92 -25.4232 1058.21 -24.9023 1057.62 -24.2383C1057.04 -23.5742 1056.59 -22.7995 1056.27 -21.9141C1055.97 -21.0417 1055.82 -20.0846 1055.82 -19.043C1055.82 -18.0013 1055.97 -17.0378 1056.27 -16.1523C1056.59 -15.2799 1057.04 -14.5247 1057.62 -13.8867C1058.21 -13.2487 1058.92 -12.7474 1059.77 -12.3828C1060.63 -12.0182 1061.59 -11.8359 1062.66 -11.8359C1063.73 -11.8359 1064.68 -12.0182 1065.53 -12.3828C1066.39 -12.7474 1067.12 -13.2487 1067.72 -13.8867C1068.32 -14.5247 1068.77 -15.2799 1069.07 -16.1523C1069.38 -17.0378 1069.54 -18.0013 1069.54 -19.043ZM1076.33 -28.2031H1079.01V-16.9531C1079.01 -15.3255 1079.36 -14.0625 1080.06 -13.1641C1080.78 -12.2786 1081.92 -11.8359 1083.5 -11.8359C1084.49 -11.8359 1085.38 -12.0638 1086.18 -12.5195C1086.97 -12.9753 1087.65 -13.5807 1088.21 -14.3359C1088.77 -15.1042 1089.19 -15.9766 1089.48 -16.9531C1089.78 -17.9427 1089.93 -18.9714 1089.93 -20.0391V-28.2031H1092.62V-10H1089.93V-14.5508C1088.65 -11.2174 1086.36 -9.55078 1083.05 -9.55078C1078.57 -9.55078 1076.33 -12.0182 1076.33 -16.9531V-28.2031ZM1114.93 -15.0391C1114.93 -13.9714 1114.66 -13.0859 1114.12 -12.3828C1113.59 -11.6797 1112.9 -11.1198 1112.05 -10.7031C1111.22 -10.2865 1110.28 -9.99349 1109.24 -9.82422C1108.21 -9.64193 1107.2 -9.55078 1106.21 -9.55078C1104.56 -9.55078 1102.91 -9.79167 1101.27 -10.2734C1099.63 -10.7552 1098.21 -11.3867 1097.02 -12.168L1098.21 -14.4727C1099.55 -13.6263 1100.87 -12.9753 1102.17 -12.5195C1103.47 -12.0638 1104.82 -11.8359 1106.21 -11.8359C1110.24 -11.8359 1112.25 -12.8776 1112.25 -14.9609C1112.25 -15.4688 1112.08 -15.8789 1111.74 -16.1914C1111.42 -16.5169 1110.97 -16.7773 1110.41 -16.9727C1109.85 -17.181 1109.21 -17.3438 1108.48 -17.4609C1107.76 -17.5781 1107.01 -17.6888 1106.21 -17.793C1105.2 -17.9362 1104.19 -18.1055 1103.19 -18.3008C1102.18 -18.4961 1101.27 -18.7891 1100.43 -19.1797C1099.61 -19.5703 1098.95 -20.0911 1098.44 -20.7422C1097.95 -21.3932 1097.7 -22.2526 1097.7 -23.3203C1097.7 -24.2318 1097.93 -25.0195 1098.38 -25.6836C1098.85 -26.3477 1099.47 -26.901 1100.24 -27.3438C1101.02 -27.7865 1101.93 -28.112 1102.97 -28.3203C1104.01 -28.5286 1105.1 -28.6328 1106.21 -28.6328C1107.82 -28.6328 1109.25 -28.444 1110.51 -28.0664C1111.77 -27.7018 1112.91 -27.1745 1113.93 -26.4844L1112.86 -24.3945C1111.81 -25.1237 1110.76 -25.6315 1109.69 -25.918C1108.62 -26.2174 1107.46 -26.3672 1106.21 -26.3672C1105.65 -26.3672 1105.03 -26.3151 1104.34 -26.2109C1103.66 -26.1198 1103.03 -25.9505 1102.45 -25.7031C1101.86 -25.4688 1101.36 -25.1562 1100.96 -24.7656C1100.57 -24.388 1100.38 -23.9062 1100.38 -23.3203C1100.38 -22.8125 1100.54 -22.4023 1100.86 -22.0898C1101.2 -21.7904 1101.65 -21.5365 1102.21 -21.3281C1102.77 -21.1328 1103.41 -20.9766 1104.12 -20.8594C1104.85 -20.7422 1105.62 -20.6315 1106.41 -20.5273C1107.4 -20.3841 1108.4 -20.2148 1109.4 -20.0195C1110.41 -19.8242 1111.33 -19.5378 1112.15 -19.1602C1112.99 -18.7826 1113.66 -18.2682 1114.16 -17.6172C1114.67 -16.9661 1114.93 -16.1068 1114.93 -15.0391ZM1159.05 -28.2031C1159.05 -25.7422 1158.28 -23.9128 1156.74 -22.7148C1155.21 -21.5169 1153.05 -20.918 1150.28 -20.918H1144.52V-10H1141.84V-35.4883H1150.24C1153.04 -35.4883 1155.21 -34.8763 1156.74 -33.6523C1158.28 -32.4414 1159.05 -30.625 1159.05 -28.2031ZM1156.37 -28.2031C1156.37 -29.9609 1155.82 -31.2305 1154.71 -32.0117C1153.6 -32.806 1152.13 -33.2031 1150.28 -33.2031H1144.52V-23.2031H1150.28C1152.13 -23.2031 1153.6 -23.5938 1154.71 -24.375C1155.82 -25.1693 1156.37 -26.4453 1156.37 -28.2031ZM1179.93 -25.6445C1178.96 -26.1263 1177.82 -26.3672 1176.49 -26.3672C1175.39 -26.3672 1174.42 -26.1328 1173.56 -25.6641C1172.7 -25.1953 1171.97 -24.5768 1171.37 -23.8086C1170.77 -23.0534 1170.31 -22.181 1169.98 -21.1914C1169.67 -20.2148 1169.52 -19.2057 1169.52 -18.1641V-12.2852H1173.64V-10H1162.72V-12.2852H1166.84V-25.918H1162.72V-28.2031H1169.52V-23.6328C1170.74 -26.9661 1173.06 -28.6328 1176.49 -28.6328C1177.41 -28.6328 1178.21 -28.5742 1178.89 -28.457C1179.58 -28.3398 1180.22 -28.1315 1180.8 -27.832L1179.93 -25.6445ZM1203.23 -19.043C1203.23 -17.6237 1203 -16.3346 1202.54 -15.1758C1202.1 -14.0169 1201.46 -13.0208 1200.61 -12.1875C1199.78 -11.3672 1198.77 -10.7227 1197.6 -10.2539C1196.43 -9.78516 1195.12 -9.55078 1193.68 -9.55078C1192.26 -9.55078 1190.96 -9.78516 1189.79 -10.2539C1188.62 -10.7227 1187.61 -11.3672 1186.76 -12.1875C1185.93 -13.0208 1185.28 -14.0169 1184.83 -15.1758C1184.39 -16.3346 1184.16 -17.6237 1184.16 -19.043C1184.16 -20.4232 1184.39 -21.7057 1184.83 -22.8906C1185.28 -24.0885 1185.93 -25.1042 1186.76 -25.9375C1187.61 -26.7839 1188.62 -27.4414 1189.79 -27.9102C1190.96 -28.3919 1192.26 -28.6328 1193.68 -28.6328C1195.12 -28.6328 1196.43 -28.3919 1197.6 -27.9102C1198.77 -27.4414 1199.78 -26.7839 1200.61 -25.9375C1201.46 -25.1042 1202.1 -24.0885 1202.54 -22.8906C1203 -21.7057 1203.23 -20.4232 1203.23 -19.043ZM1200.55 -19.043C1200.55 -20.0846 1200.39 -21.0417 1200.08 -21.9141C1199.78 -22.7995 1199.33 -23.5742 1198.73 -24.2383C1198.14 -24.9023 1197.41 -25.4232 1196.55 -25.8008C1195.7 -26.1784 1194.74 -26.3672 1193.68 -26.3672C1192.61 -26.3672 1191.64 -26.1784 1190.79 -25.8008C1189.94 -25.4232 1189.22 -24.9023 1188.64 -24.2383C1188.05 -23.5742 1187.6 -22.7995 1187.29 -21.9141C1186.99 -21.0417 1186.84 -20.0846 1186.84 -19.043C1186.84 -18.0013 1186.99 -17.0378 1187.29 -16.1523C1187.6 -15.2799 1188.05 -14.5247 1188.64 -13.8867C1189.22 -13.2487 1189.94 -12.7474 1190.79 -12.3828C1191.64 -12.0182 1192.61 -11.8359 1193.68 -11.8359C1194.74 -11.8359 1195.7 -12.0182 1196.55 -12.3828C1197.41 -12.7474 1198.14 -13.2487 1198.73 -13.8867C1199.33 -14.5247 1199.78 -15.2799 1200.08 -16.1523C1200.39 -17.0378 1200.55 -18.0013 1200.55 -19.043ZM1221.78 -10.8789L1220.28 -9.33594L1210.28 -19.3359L1220.28 -29.3359L1221.78 -27.7734L1213.34 -19.3359L1221.78 -10.8789ZM1245.9 -35.4492L1230.94 -5.3125L1229.03 -6.32812L1243.99 -36.4453L1245.9 -35.4492ZM1268.46 -15.8008C1268.25 -13.8867 1267.5 -12.3633 1266.2 -11.2305C1264.91 -10.1107 1263.29 -9.55078 1261.35 -9.55078C1260.28 -9.55078 1259.31 -9.72656 1258.42 -10.0781C1257.54 -10.4297 1256.78 -10.918 1256.16 -11.543C1255.53 -12.168 1255.04 -12.9167 1254.69 -13.7891C1254.35 -14.6745 1254.18 -15.638 1254.18 -16.6797V-25.918H1250.06V-28.2031H1254.18V-35.4883H1256.86V-28.2031H1264.61V-25.918H1256.86V-16.6797C1256.86 -16.0156 1256.96 -15.3906 1257.17 -14.8047C1257.39 -14.2188 1257.69 -13.7044 1258.07 -13.2617C1258.46 -12.819 1258.93 -12.4674 1259.48 -12.207C1260.02 -11.9596 1260.65 -11.8359 1261.35 -11.8359C1262.68 -11.8359 1263.79 -12.2461 1264.67 -13.0664C1265.57 -13.8997 1266.08 -14.974 1266.21 -16.2891L1268.46 -15.8008ZM1282.82 -31.8359H1279.18V-35.4883H1282.82V-31.8359ZM1286.45 -10H1275.53V-12.2852H1279.65V-25.918H1275.53V-28.2031H1282.35V-12.2852H1286.45V-10ZM1312.13 -15.8008C1311.92 -13.8867 1311.17 -12.3633 1309.87 -11.2305C1308.58 -10.1107 1306.96 -9.55078 1305.02 -9.55078C1303.96 -9.55078 1302.98 -9.72656 1302.09 -10.0781C1301.21 -10.4297 1300.45 -10.918 1299.83 -11.543C1299.2 -12.168 1298.71 -12.9167 1298.36 -13.7891C1298.02 -14.6745 1297.86 -15.638 1297.86 -16.6797V-25.918H1293.73V-28.2031H1297.86V-35.4883H1300.53V-28.2031H1308.29V-25.918H1300.53V-16.6797C1300.53 -16.0156 1300.64 -15.3906 1300.84 -14.8047C1301.07 -14.2188 1301.36 -13.7044 1301.74 -13.2617C1302.13 -12.819 1302.6 -12.4674 1303.15 -12.207C1303.7 -11.9596 1304.32 -11.8359 1305.02 -11.8359C1306.35 -11.8359 1307.46 -12.2461 1308.34 -13.0664C1309.24 -13.8997 1309.76 -14.974 1309.89 -16.2891L1312.13 -15.8008ZM1330.12 -10H1319.2V-12.2852H1323.32V-33.2031H1319.2V-35.4883H1326.02V-12.2852H1330.12V-10ZM1340.08 -18.1641C1340.28 -16.237 1340.98 -14.7005 1342.19 -13.5547C1343.4 -12.4089 1344.98 -11.8359 1346.92 -11.8359C1348.29 -11.8359 1349.5 -12.1159 1350.57 -12.6758C1351.64 -13.2357 1352.44 -13.9323 1352.97 -14.7656L1354.85 -13.4766C1353.94 -12.2005 1352.85 -11.224 1351.59 -10.5469C1350.32 -9.88281 1348.77 -9.55078 1346.92 -9.55078C1345.51 -9.55078 1344.22 -9.78516 1343.05 -10.2539C1341.88 -10.7227 1340.86 -11.3737 1340 -12.207C1339.16 -13.0534 1338.5 -14.056 1338.03 -15.2148C1337.56 -16.3737 1337.33 -17.6628 1337.33 -19.082C1337.33 -20.4622 1337.54 -21.7318 1337.95 -22.8906C1338.38 -24.0625 1338.99 -25.0716 1339.79 -25.918C1340.6 -26.7773 1341.57 -27.4414 1342.72 -27.9102C1343.86 -28.3919 1345.15 -28.6328 1346.57 -28.6328C1348.12 -28.6328 1349.47 -28.3724 1350.63 -27.8516C1351.79 -27.3307 1352.75 -26.6081 1353.52 -25.6836C1354.3 -24.7721 1354.87 -23.6784 1355.24 -22.4023C1355.62 -21.1263 1355.8 -19.7135 1355.8 -18.1641H1340.08ZM1352.97 -20.4492C1352.67 -22.4414 1351.95 -23.9258 1350.8 -24.9023C1349.66 -25.8789 1348.25 -26.3672 1346.57 -26.3672C1345.71 -26.3672 1344.91 -26.224 1344.18 -25.9375C1343.45 -25.6641 1342.81 -25.2669 1342.25 -24.7461C1341.69 -24.2253 1341.22 -23.5938 1340.84 -22.8516C1340.47 -22.1224 1340.23 -21.3216 1340.12 -20.4492H1352.97ZM1373.56 -19.3359L1363.56 -9.33594L1362.04 -10.8789L1370.47 -19.3359L1362.04 -27.7734L1363.56 -29.3359L1373.56 -19.3359ZM785.062 29.1211L783.559 30.6641L773.559 20.6641L783.559 10.6641L785.062 12.2266L776.625 20.6641L785.062 29.1211ZM809.223 24.9609C809.223 26.0286 808.956 26.9141 808.422 27.6172C807.888 28.3203 807.198 28.8802 806.352 29.2969C805.518 29.7135 804.581 30.0065 803.539 30.1758C802.51 30.3581 801.501 30.4492 800.512 30.4492C798.858 30.4492 797.211 30.2083 795.57 29.7266C793.93 29.2448 792.51 28.6133 791.312 27.832L792.504 25.5273C793.845 26.3737 795.167 27.0247 796.469 27.4805C797.771 27.9362 799.118 28.1641 800.512 28.1641C804.535 28.1641 806.547 27.1224 806.547 25.0391C806.547 24.5312 806.378 24.1211 806.039 23.8086C805.714 23.4831 805.271 23.2227 804.711 23.0273C804.151 22.819 803.507 22.6562 802.777 22.5391C802.061 22.4219 801.306 22.3112 800.512 22.207C799.496 22.0638 798.487 21.8945 797.484 21.6992C796.482 21.5039 795.564 21.2109 794.73 20.8203C793.91 20.4297 793.246 19.9089 792.738 19.2578C792.243 18.6068 791.996 17.7474 791.996 16.6797C791.996 15.7682 792.224 14.9805 792.68 14.3164C793.148 13.6523 793.767 13.099 794.535 12.6562C795.316 12.2135 796.228 11.888 797.27 11.6797C798.311 11.4714 799.392 11.3672 800.512 11.3672C802.113 11.3672 803.546 11.556 804.809 11.9336C806.072 12.2982 807.211 12.8255 808.227 13.5156L807.152 15.6055C806.111 14.8763 805.056 14.3685 803.988 14.082C802.921 13.7826 801.762 13.6328 800.512 13.6328C799.952 13.6328 799.327 13.6849 798.637 13.7891C797.96 13.8802 797.328 14.0495 796.742 14.2969C796.156 14.5312 795.661 14.8438 795.258 15.2344C794.867 15.612 794.672 16.0938 794.672 16.6797C794.672 17.1875 794.835 17.5977 795.16 17.9102C795.499 18.2096 795.948 18.4635 796.508 18.6719C797.068 18.8672 797.706 19.0234 798.422 19.1406C799.151 19.2578 799.913 19.3685 800.707 19.4727C801.697 19.6159 802.693 19.7852 803.695 19.9805C804.711 20.1758 805.629 20.4622 806.449 20.8398C807.283 21.2174 807.953 21.7318 808.461 22.3828C808.969 23.0339 809.223 23.8932 809.223 24.9609ZM831.742 24.1992C831.534 26.1133 830.779 27.6367 829.477 28.7695C828.188 29.8893 826.573 30.4492 824.633 30.4492C823.565 30.4492 822.589 30.2734 821.703 29.9219C820.818 29.5703 820.062 29.082 819.438 28.457C818.812 27.832 818.324 27.0833 817.973 26.2109C817.634 25.3255 817.465 24.362 817.465 23.3203V14.082H813.344V11.7969H817.465V4.51172H820.141V11.7969H827.895V14.082H820.141V23.3203C820.141 23.9844 820.245 24.6094 820.453 25.1953C820.674 25.7812 820.974 26.2956 821.352 26.7383C821.742 27.181 822.211 27.5326 822.758 27.793C823.305 28.0404 823.93 28.1641 824.633 28.1641C825.961 28.1641 827.068 27.7539 827.953 26.9336C828.852 26.1003 829.366 25.026 829.496 23.7109L831.742 24.1992ZM853.949 11.7969L844.105 34.6094C843.598 35.8854 842.882 36.7188 841.957 37.1094C841.033 37.513 840.01 37.7148 838.891 37.7148C837.641 37.7148 836.391 37.487 835.141 37.0312L835.668 34.7266C836.28 34.987 836.879 35.1693 837.465 35.2734C838.051 35.3906 838.526 35.4492 838.891 35.4492C839.776 35.4492 840.382 35.2344 840.707 34.8047C841.046 34.375 841.339 33.8672 841.586 33.2812L842.699 30.5273L834.574 11.7969H837.738L844.301 27.7148L850.746 11.7969H853.949ZM871.566 30H860.648V27.7148H864.77V6.79688H860.648V4.51172H867.465V27.7148H871.566V30ZM881.527 21.8359C881.723 23.763 882.426 25.2995 883.637 26.4453C884.848 27.5911 886.423 28.1641 888.363 28.1641C889.73 28.1641 890.948 27.8841 892.016 27.3242C893.083 26.7643 893.884 26.0677 894.418 25.2344L896.293 26.5234C895.382 27.7995 894.294 28.776 893.031 29.4531C891.768 30.1172 890.212 30.4492 888.363 30.4492C886.957 30.4492 885.668 30.2148 884.496 29.7461C883.324 29.2773 882.309 28.6263 881.449 27.793C880.603 26.9466 879.945 25.944 879.477 24.7852C879.008 23.6263 878.773 22.3372 878.773 20.918C878.773 19.5378 878.982 18.2682 879.398 17.1094C879.828 15.9375 880.44 14.9284 881.234 14.082C882.042 13.2227 883.018 12.5586 884.164 12.0898C885.31 11.6081 886.592 11.3672 888.012 11.3672C889.561 11.3672 890.915 11.6276 892.074 12.1484C893.233 12.6693 894.197 13.3919 894.965 14.3164C895.746 15.2279 896.319 16.3216 896.684 17.5977C897.061 18.8737 897.25 20.2865 897.25 21.8359H881.527ZM894.418 19.5508C894.118 17.5586 893.396 16.0742 892.25 15.0977C891.104 14.1211 889.691 13.6328 888.012 13.6328C887.152 13.6328 886.358 13.776 885.629 14.0625C884.9 14.3359 884.255 14.7331 883.695 15.2539C883.135 15.7747 882.667 16.4062 882.289 17.1484C881.911 17.8776 881.671 18.6784 881.566 19.5508H894.418ZM915.004 20.6641L905.004 30.6641L903.48 29.1211L911.918 20.6641L903.48 12.2266L905.004 10.6641L915.004 20.6641ZM831.547 60.918C831.547 62.3112 831.332 63.5938 830.902 64.7656C830.473 65.9375 829.854 66.9466 829.047 67.793C828.253 68.6263 827.289 69.2773 826.156 69.7461C825.023 70.2148 823.754 70.4492 822.348 70.4492C821.358 70.4492 820.408 70.2734 819.496 69.9219C818.598 69.5703 817.758 69.0495 816.977 68.3594V70H814.301V44.5117H816.977V53.4766C817.758 52.8125 818.598 52.2982 819.496 51.9336C820.408 51.556 821.358 51.3672 822.348 51.3672C823.754 51.3672 825.023 51.6081 826.156 52.0898C827.289 52.5586 828.253 53.2161 829.047 54.0625C829.854 54.8958 830.473 55.9049 830.902 57.0898C831.332 58.2617 831.547 59.5378 831.547 60.918ZM828.832 60.918C828.832 59.8763 828.695 58.9193 828.422 58.0469C828.161 57.1615 827.758 56.3932 827.211 55.7422C826.664 55.0911 825.98 54.5768 825.16 54.1992C824.353 53.8216 823.415 53.6328 822.348 53.6328C820.29 53.6328 818.5 54.4466 816.977 56.0742V65.8008C817.758 66.6471 818.591 67.2526 819.477 67.6172C820.375 67.9818 821.332 68.1641 822.348 68.1641C823.415 68.1641 824.346 67.9753 825.141 67.5977C825.948 67.2201 826.625 66.7057 827.172 66.0547C827.719 65.4036 828.129 64.6419 828.402 63.7695C828.689 62.8841 828.832 61.9336 828.832 60.918ZM853.852 60.957C853.852 62.3763 853.624 63.6654 853.168 64.8242C852.725 65.9831 852.081 66.9792 851.234 67.8125C850.401 68.6328 849.398 69.2773 848.227 69.7461C847.055 70.2148 845.746 70.4492 844.301 70.4492C842.882 70.4492 841.586 70.2148 840.414 69.7461C839.242 69.2773 838.233 68.6328 837.387 67.8125C836.553 66.9792 835.909 65.9831 835.453 64.8242C835.01 63.6654 834.789 62.3763 834.789 60.957C834.789 59.5768 835.01 58.2943 835.453 57.1094C835.909 55.9115 836.553 54.8958 837.387 54.0625C838.233 53.2161 839.242 52.5586 840.414 52.0898C841.586 51.6081 842.882 51.3672 844.301 51.3672C845.746 51.3672 847.055 51.6081 848.227 52.0898C849.398 52.5586 850.401 53.2161 851.234 54.0625C852.081 54.8958 852.725 55.9115 853.168 57.1094C853.624 58.2943 853.852 59.5768 853.852 60.957ZM851.176 60.957C851.176 59.9154 851.02 58.9583 850.707 58.0859C850.408 57.2005 849.958 56.4258 849.359 55.7617C848.76 55.0977 848.031 54.5768 847.172 54.1992C846.326 53.8216 845.368 53.6328 844.301 53.6328C843.233 53.6328 842.27 53.8216 841.41 54.1992C840.564 54.5768 839.848 55.0977 839.262 55.7617C838.676 56.4258 838.227 57.2005 837.914 58.0859C837.615 58.9583 837.465 59.9154 837.465 60.957C837.465 61.9987 837.615 62.9622 837.914 63.8477C838.227 64.7201 838.676 65.4753 839.262 66.1133C839.848 66.7513 840.564 67.2526 841.41 67.6172C842.27 67.9818 843.233 68.1641 844.301 68.1641C845.368 68.1641 846.326 67.9818 847.172 67.6172C848.031 67.2526 848.76 66.7513 849.359 66.1133C849.958 65.4753 850.408 64.7201 850.707 63.8477C851.02 62.9622 851.176 61.9987 851.176 60.957ZM874.262 70H871.566V68.3203C870.798 69.0104 869.952 69.5378 869.027 69.9023C868.116 70.2669 867.178 70.4492 866.215 70.4492C864.77 70.4492 863.474 70.2148 862.328 69.7461C861.182 69.2773 860.212 68.6263 859.418 67.793C858.637 66.9466 858.031 65.9375 857.602 64.7656C857.185 63.5938 856.977 62.3112 856.977 60.918C856.977 59.5378 857.185 58.2617 857.602 57.0898C858.031 55.9049 858.637 54.8958 859.418 54.0625C860.212 53.2161 861.182 52.5586 862.328 52.0898C863.474 51.6081 864.77 51.3672 866.215 51.3672C867.178 51.3672 868.116 51.543 869.027 51.8945C869.952 52.2331 870.798 52.7474 871.566 53.4375V46.7969H867.934V44.5117H874.262V70ZM871.566 56.0352C870.798 55.1888 869.958 54.5768 869.047 54.1992C868.148 53.8216 867.191 53.6328 866.176 53.6328C865.108 53.6328 864.164 53.8216 863.344 54.1992C862.536 54.5768 861.859 55.0911 861.312 55.7422C860.766 56.3932 860.349 57.1615 860.062 58.0469C859.789 58.9193 859.652 59.8763 859.652 60.918C859.652 61.9596 859.789 62.9232 860.062 63.8086C860.349 64.681 860.766 65.4427 861.312 66.0938C861.859 66.7448 862.536 67.2591 863.344 67.6367C864.164 68.0143 865.108 68.2031 866.176 68.2031C868.233 68.2031 870.03 67.3893 871.566 65.7617V56.0352ZM897.621 51.7969L887.777 74.6094C887.27 75.8854 886.553 76.7188 885.629 77.1094C884.704 77.513 883.682 77.7148 882.562 77.7148C881.312 77.7148 880.062 77.487 878.812 77.0312L879.34 74.7266C879.952 74.987 880.551 75.1693 881.137 75.2734C881.723 75.3906 882.198 75.4492 882.562 75.4492C883.448 75.4492 884.053 75.2344 884.379 74.8047C884.717 74.375 885.01 73.8672 885.258 73.2812L886.371 70.5273L878.246 51.7969H881.41L887.973 67.7148L894.418 51.7969H897.621ZM937.035 77.2852H935.238C934.444 77.2852 933.708 77.1419 933.031 76.8555C932.367 76.582 931.794 76.2044 931.312 75.7227C930.844 75.2409 930.473 74.6615 930.199 73.9844C929.939 73.3073 929.809 72.5651 929.809 71.7578V63.4766C929.809 61.2891 928.591 60.1953 926.156 60.1953V58.0078C928.591 58.0078 929.809 56.9141 929.809 54.7266V46.3281C929.809 45.5208 929.939 44.7852 930.199 44.1211C930.473 43.457 930.844 42.8841 931.312 42.4023C931.794 41.9206 932.367 41.5495 933.031 41.2891C933.708 41.0156 934.444 40.8789 935.238 40.8789H937.035V43.0469H935.238C933.025 43.0469 931.918 44.1406 931.918 46.3281V54.7266C931.918 55.1693 931.833 55.6315 931.664 56.1133C931.495 56.5951 931.26 57.0443 930.961 57.4609C930.674 57.8776 930.323 58.2422 929.906 58.5547C929.49 58.8542 929.04 59.043 928.559 59.1211C929.04 59.1992 929.483 59.388 929.887 59.6875C930.29 59.974 930.642 60.3255 930.941 60.7422C931.254 61.1589 931.495 61.6081 931.664 62.0898C931.833 62.5586 931.918 63.0208 931.918 63.4766V71.7578C931.918 73.9714 933.025 75.0781 935.238 75.0781H937.035V77.2852ZM875.219 94.082H867.465V107.715H871.566V110H860.648V107.715H864.77V94.082H860.648V91.7969H864.77C864.77 89.2969 865.414 87.3893 866.703 86.0742C868.005 84.7461 869.965 84.082 872.582 84.082C873.194 84.082 873.708 84.1016 874.125 84.1406C874.555 84.1797 874.919 84.2253 875.219 84.2773V86.5625C874.841 86.5104 874.444 86.4648 874.027 86.4258C873.624 86.3867 873.142 86.3672 872.582 86.3672C870.876 86.3672 869.594 86.8034 868.734 87.6758C867.888 88.5352 867.465 89.9089 867.465 91.7969H875.219V94.082ZM897.523 100.957C897.523 102.376 897.296 103.665 896.84 104.824C896.397 105.983 895.753 106.979 894.906 107.812C894.073 108.633 893.07 109.277 891.898 109.746C890.727 110.215 889.418 110.449 887.973 110.449C886.553 110.449 885.258 110.215 884.086 109.746C882.914 109.277 881.905 108.633 881.059 107.812C880.225 106.979 879.581 105.983 879.125 104.824C878.682 103.665 878.461 102.376 878.461 100.957C878.461 99.5768 878.682 98.2943 879.125 97.1094C879.581 95.9115 880.225 94.8958 881.059 94.0625C881.905 93.2161 882.914 92.5586 884.086 92.0898C885.258 91.6081 886.553 91.3672 887.973 91.3672C889.418 91.3672 890.727 91.6081 891.898 92.0898C893.07 92.5586 894.073 93.2161 894.906 94.0625C895.753 94.8958 896.397 95.9115 896.84 97.1094C897.296 98.2943 897.523 99.5768 897.523 100.957ZM894.848 100.957C894.848 99.9154 894.691 98.9583 894.379 98.0859C894.079 97.2005 893.63 96.4258 893.031 95.7617C892.432 95.0977 891.703 94.5768 890.844 94.1992C889.997 93.8216 889.04 93.6328 887.973 93.6328C886.905 93.6328 885.941 93.8216 885.082 94.1992C884.236 94.5768 883.52 95.0977 882.934 95.7617C882.348 96.4258 881.898 97.2005 881.586 98.0859C881.286 98.9583 881.137 99.9154 881.137 100.957C881.137 101.999 881.286 102.962 881.586 103.848C881.898 104.72 882.348 105.475 882.934 106.113C883.52 106.751 884.236 107.253 885.082 107.617C885.941 107.982 886.905 108.164 887.973 108.164C889.04 108.164 889.997 107.982 890.844 107.617C891.703 107.253 892.432 106.751 893.031 106.113C893.63 105.475 894.079 104.72 894.379 103.848C894.691 102.962 894.848 101.999 894.848 100.957ZM917.934 110H915.238V98.7695C915.238 97.1419 914.887 95.8789 914.184 94.9805C913.48 94.082 912.341 93.6328 910.766 93.6328C909.776 93.6328 908.878 93.8607 908.07 94.3164C907.276 94.7721 906.599 95.3841 906.039 96.1523C905.479 96.9076 905.049 97.7799 904.75 98.7695C904.464 99.7461 904.32 100.768 904.32 101.836V110H901.645V91.7969H904.32V96.3672C905.609 93.0339 907.908 91.3672 911.215 91.3672C915.694 91.3672 917.934 93.8346 917.934 98.7695V110ZM940.922 104.199C940.714 106.113 939.958 107.637 938.656 108.77C937.367 109.889 935.753 110.449 933.812 110.449C932.745 110.449 931.768 110.273 930.883 109.922C929.997 109.57 929.242 109.082 928.617 108.457C927.992 107.832 927.504 107.083 927.152 106.211C926.814 105.326 926.645 104.362 926.645 103.32V94.082H922.523V91.7969H926.645V84.5117H929.32V91.7969H937.074V94.082H929.32V103.32C929.32 103.984 929.424 104.609 929.633 105.195C929.854 105.781 930.154 106.296 930.531 106.738C930.922 107.181 931.391 107.533 931.938 107.793C932.484 108.04 933.109 108.164 933.812 108.164C935.141 108.164 936.247 107.754 937.133 106.934C938.031 106.1 938.546 105.026 938.676 103.711L940.922 104.199ZM962.562 101.797H944.359V99.5117H962.562V101.797ZM984.398 94.082H976.645V107.715H980.746V110H969.828V107.715H973.949V94.082H969.828V91.7969H973.949C973.949 89.2969 974.594 87.3893 975.883 86.0742C977.185 84.7461 979.145 84.082 981.762 84.082C982.374 84.082 982.888 84.1016 983.305 84.1406C983.734 84.1797 984.099 84.2253 984.398 84.2773V86.5625C984.021 86.5104 983.624 86.4648 983.207 86.4258C982.803 86.3867 982.322 86.3672 981.762 86.3672C980.056 86.3672 978.773 86.8034 977.914 87.6758C977.068 88.5352 976.645 89.9089 976.645 91.7969H984.398V94.082ZM987.992 105.078C987.992 103.932 988.279 102.975 988.852 102.207C989.424 101.426 990.173 100.814 991.098 100.371C992.035 99.9154 993.103 99.5898 994.301 99.3945C995.512 99.1862 996.742 99.082 997.992 99.082C998.474 99.082 998.904 99.0885 999.281 99.1016C999.672 99.1146 1000.04 99.1341 1000.38 99.1602C1000.73 99.1862 1001.08 99.2188 1001.43 99.2578C1001.78 99.2969 1002.17 99.3424 1002.58 99.3945V98.0859C1002.58 97.2005 1002.39 96.4714 1002 95.8984C1001.62 95.3255 1001.15 94.8763 1000.59 94.5508C1000.03 94.2122 999.444 93.9779 998.832 93.8477C998.22 93.7044 997.699 93.6328 997.27 93.6328C995.915 93.6328 994.665 93.8151 993.52 94.1797C992.374 94.5443 991.306 95.0326 990.316 95.6445L989.105 93.6328C990.199 92.9688 991.423 92.4284 992.777 92.0117C994.145 91.582 995.642 91.3672 997.27 91.3672C998.259 91.3672 999.229 91.4974 1000.18 91.7578C1001.14 92.0052 1002 92.3958 1002.76 92.9297C1003.53 93.4505 1004.14 94.1406 1004.59 95C1005.05 95.8594 1005.28 96.888 1005.28 98.0859V110H1002.58V106.953C1002.11 107.539 1001.58 108.053 1000.98 108.496C1000.39 108.939 999.776 109.303 999.125 109.59C998.474 109.863 997.823 110.072 997.172 110.215C996.521 110.371 995.902 110.449 995.316 110.449C992.908 110.449 991.085 109.987 989.848 109.062C988.611 108.138 987.992 106.81 987.992 105.078ZM995.316 108.164C996.436 108.164 997.439 108.001 998.324 107.676C999.223 107.337 999.984 106.921 1000.61 106.426C1001.23 105.931 1001.72 105.404 1002.05 104.844C1002.41 104.284 1002.58 103.776 1002.58 103.32V101.602C1001.71 101.471 1000.87 101.4 1000.06 101.387C999.268 101.374 998.578 101.367 997.992 101.367C997.029 101.367 996.098 101.432 995.199 101.562C994.314 101.693 993.539 101.908 992.875 102.207C992.211 102.493 991.677 102.871 991.273 103.34C990.87 103.809 990.668 104.388 990.668 105.078C990.668 105.846 991.039 106.556 991.781 107.207C992.536 107.845 993.715 108.164 995.316 108.164ZM1028.07 110H1025.39V96.9141C1025.39 95.8724 1025.21 95.0651 1024.85 94.4922C1024.48 93.9193 1023.96 93.6328 1023.27 93.6328C1022.25 93.6328 1021.5 94.1667 1021.02 95.2344C1020.55 96.3021 1020.32 97.7995 1020.32 99.7266V110H1017.62V96.9141C1017.62 95.8724 1017.43 95.0651 1017.05 94.4922C1016.69 93.9193 1016.16 93.6328 1015.47 93.6328C1014.83 93.6328 1014.33 93.8216 1013.95 94.1992C1013.57 94.5768 1013.27 95.0586 1013.05 95.6445C1012.84 96.2305 1012.71 96.8815 1012.64 97.5977C1012.58 98.3138 1012.54 99.0234 1012.54 99.7266V110H1009.87V91.7969H1012.54V94.4336C1013.1 92.3893 1014.32 91.3672 1016.2 91.3672C1017.98 91.3672 1019.19 92.2591 1019.83 94.043C1020.71 92.2591 1021.96 91.3672 1023.58 91.3672C1025.13 91.3672 1026.26 91.8294 1026.98 92.7539C1027.71 93.6654 1028.07 95.0521 1028.07 96.9141V110ZM1042.62 88.1641H1038.99V84.5117H1042.62V88.1641ZM1046.25 110H1035.34V107.715H1039.46V94.082H1035.34V91.7969H1042.15V107.715H1046.25V110ZM1068.09 110H1057.17V107.715H1061.29V86.7969H1057.17V84.5117H1063.99V107.715H1068.09V110ZM1094.14 91.7969L1084.3 114.609C1083.79 115.885 1083.08 116.719 1082.15 117.109C1081.23 117.513 1080.21 117.715 1079.09 117.715C1077.84 117.715 1076.59 117.487 1075.34 117.031L1075.86 114.727C1076.48 114.987 1077.07 115.169 1077.66 115.273C1078.25 115.391 1078.72 115.449 1079.09 115.449C1079.97 115.449 1080.58 115.234 1080.9 114.805C1081.24 114.375 1081.53 113.867 1081.78 113.281L1082.89 110.527L1074.77 91.7969H1077.93L1084.5 107.715L1090.94 91.7969H1094.14ZM1108.13 95.4492H1104.5V91.7969H1108.13V95.4492ZM1108.13 110H1104.5V106.367H1108.13V110ZM1151.8 84.5117L1150.96 93.6719H1148.97L1148.17 84.5117H1151.8ZM1182.15 110H1179.28L1176.88 102.715H1166.8L1164.44 110H1161.57L1170.04 84.5117H1173.68L1182.15 110ZM1176.12 100.352L1171.84 87.207L1167.56 100.352H1176.12ZM1201.8 110H1199.11V98.7695C1199.11 97.1419 1198.75 95.8789 1198.05 94.9805C1197.35 94.082 1196.21 93.6328 1194.63 93.6328C1193.64 93.6328 1192.74 93.8607 1191.94 94.3164C1191.14 94.7721 1190.47 95.3841 1189.91 96.1523C1189.35 96.9076 1188.92 97.7799 1188.62 98.7695C1188.33 99.7461 1188.19 100.768 1188.19 101.836V110H1185.51V91.7969H1188.19V96.3672C1189.48 93.0339 1191.77 91.3672 1195.08 91.3672C1199.56 91.3672 1201.8 93.8346 1201.8 98.7695V110ZM1225.06 100.957C1225.06 102.376 1224.83 103.665 1224.38 104.824C1223.94 105.983 1223.29 106.979 1222.45 107.812C1221.61 108.633 1220.61 109.277 1219.44 109.746C1218.27 110.215 1216.96 110.449 1215.51 110.449C1214.09 110.449 1212.8 110.215 1211.62 109.746C1210.45 109.277 1209.44 108.633 1208.6 107.812C1207.76 106.979 1207.12 105.983 1206.66 104.824C1206.22 103.665 1206 102.376 1206 100.957C1206 99.5768 1206.22 98.2943 1206.66 97.1094C1207.12 95.9115 1207.76 94.8958 1208.6 94.0625C1209.44 93.2161 1210.45 92.5586 1211.62 92.0898C1212.8 91.6081 1214.09 91.3672 1215.51 91.3672C1216.96 91.3672 1218.27 91.6081 1219.44 92.0898C1220.61 92.5586 1221.61 93.2161 1222.45 94.0625C1223.29 94.8958 1223.94 95.9115 1224.38 97.1094C1224.83 98.2943 1225.06 99.5768 1225.06 100.957ZM1222.39 100.957C1222.39 99.9154 1222.23 98.9583 1221.92 98.0859C1221.62 97.2005 1221.17 96.4258 1220.57 95.7617C1219.97 95.0977 1219.24 94.5768 1218.38 94.1992C1217.54 93.8216 1216.58 93.6328 1215.51 93.6328C1214.44 93.6328 1213.48 93.8216 1212.62 94.1992C1211.77 94.5768 1211.06 95.0977 1210.47 95.7617C1209.89 96.4258 1209.44 97.2005 1209.12 98.0859C1208.83 98.9583 1208.68 99.9154 1208.68 100.957C1208.68 101.999 1208.83 102.962 1209.12 103.848C1209.44 104.72 1209.89 105.475 1210.47 106.113C1211.06 106.751 1211.77 107.253 1212.62 107.617C1213.48 107.982 1214.44 108.164 1215.51 108.164C1216.58 108.164 1217.54 107.982 1218.38 107.617C1219.24 107.253 1219.97 106.751 1220.57 106.113C1221.17 105.475 1221.62 104.72 1221.92 103.848C1222.23 102.962 1222.39 101.999 1222.39 100.957ZM1245.47 110H1242.78V98.7695C1242.78 97.1419 1242.43 95.8789 1241.72 94.9805C1241.02 94.082 1239.88 93.6328 1238.3 93.6328C1237.32 93.6328 1236.42 93.8607 1235.61 94.3164C1234.82 94.7721 1234.14 95.3841 1233.58 96.1523C1233.02 96.9076 1232.59 97.7799 1232.29 98.7695C1232 99.7461 1231.86 100.768 1231.86 101.836V110H1229.18V91.7969H1231.86V96.3672C1233.15 93.0339 1235.45 91.3672 1238.75 91.3672C1243.23 91.3672 1245.47 93.8346 1245.47 98.7695V110ZM1268.83 91.7969L1258.99 114.609C1258.48 115.885 1257.76 116.719 1256.84 117.109C1255.92 117.513 1254.89 117.715 1253.77 117.715C1252.52 117.715 1251.27 117.487 1250.02 117.031L1250.55 114.727C1251.16 114.987 1251.76 115.169 1252.35 115.273C1252.93 115.391 1253.41 115.449 1253.77 115.449C1254.66 115.449 1255.26 115.234 1255.59 114.805C1255.93 114.375 1256.22 113.867 1256.47 113.281L1257.58 110.527L1249.46 91.7969H1252.62L1259.18 107.715L1265.63 91.7969H1268.83ZM1290.1 110H1287.43V96.9141C1287.43 95.8724 1287.24 95.0651 1286.88 94.4922C1286.51 93.9193 1285.99 93.6328 1285.3 93.6328C1284.28 93.6328 1283.53 94.1667 1283.05 95.2344C1282.58 96.3021 1282.35 97.7995 1282.35 99.7266V110H1279.65V96.9141C1279.65 95.8724 1279.46 95.0651 1279.09 94.4922C1278.72 93.9193 1278.19 93.6328 1277.5 93.6328C1276.87 93.6328 1276.36 93.8216 1275.98 94.1992C1275.6 94.5768 1275.3 95.0586 1275.08 95.6445C1274.87 96.2305 1274.74 96.8815 1274.67 97.5977C1274.61 98.3138 1274.57 99.0234 1274.57 99.7266V110H1271.9V91.7969H1274.57V94.4336C1275.13 92.3893 1276.35 91.3672 1278.23 91.3672C1280.01 91.3672 1281.22 92.2591 1281.86 94.043C1282.74 92.2591 1283.99 91.3672 1285.61 91.3672C1287.16 91.3672 1288.29 91.8294 1289.01 92.7539C1289.74 93.6654 1290.1 95.0521 1290.1 96.9141V110ZM1312.41 100.957C1312.41 102.376 1312.18 103.665 1311.72 104.824C1311.28 105.983 1310.64 106.979 1309.79 107.812C1308.96 108.633 1307.95 109.277 1306.78 109.746C1305.61 110.215 1304.3 110.449 1302.86 110.449C1301.44 110.449 1300.14 110.215 1298.97 109.746C1297.8 109.277 1296.79 108.633 1295.94 107.812C1295.11 106.979 1294.46 105.983 1294.01 104.824C1293.57 103.665 1293.34 102.376 1293.34 100.957C1293.34 99.5768 1293.57 98.2943 1294.01 97.1094C1294.46 95.9115 1295.11 94.8958 1295.94 94.0625C1296.79 93.2161 1297.8 92.5586 1298.97 92.0898C1300.14 91.6081 1301.44 91.3672 1302.86 91.3672C1304.3 91.3672 1305.61 91.6081 1306.78 92.0898C1307.95 92.5586 1308.96 93.2161 1309.79 94.0625C1310.64 94.8958 1311.28 95.9115 1311.72 97.1094C1312.18 98.2943 1312.41 99.5768 1312.41 100.957ZM1309.73 100.957C1309.73 99.9154 1309.57 98.9583 1309.26 98.0859C1308.96 97.2005 1308.51 96.4258 1307.91 95.7617C1307.32 95.0977 1306.59 94.5768 1305.73 94.1992C1304.88 93.8216 1303.92 93.6328 1302.86 93.6328C1301.79 93.6328 1300.82 93.8216 1299.96 94.1992C1299.12 94.5768 1298.4 95.0977 1297.82 95.7617C1297.23 96.4258 1296.78 97.2005 1296.47 98.0859C1296.17 98.9583 1296.02 99.9154 1296.02 100.957C1296.02 101.999 1296.17 102.962 1296.47 103.848C1296.78 104.72 1297.23 105.475 1297.82 106.113C1298.4 106.751 1299.12 107.253 1299.96 107.617C1300.82 107.982 1301.79 108.164 1302.86 108.164C1303.92 108.164 1304.88 107.982 1305.73 107.617C1306.59 107.253 1307.32 106.751 1307.91 106.113C1308.51 105.475 1308.96 104.72 1309.26 103.848C1309.57 102.962 1309.73 101.999 1309.73 100.957ZM1316.53 91.7969H1319.2V103.047C1319.2 104.674 1319.55 105.938 1320.26 106.836C1320.97 107.721 1322.12 108.164 1323.7 108.164C1324.68 108.164 1325.58 107.936 1326.37 107.48C1327.17 107.025 1327.84 106.419 1328.4 105.664C1328.96 104.896 1329.39 104.023 1329.67 103.047C1329.97 102.057 1330.12 101.029 1330.12 99.9609V91.7969H1332.82V110H1330.12V105.449C1328.85 108.783 1326.55 110.449 1323.25 110.449C1318.77 110.449 1316.53 107.982 1316.53 103.047V91.7969ZM1355.12 104.961C1355.12 106.029 1354.85 106.914 1354.32 107.617C1353.79 108.32 1353.1 108.88 1352.25 109.297C1351.42 109.714 1350.48 110.007 1349.44 110.176C1348.41 110.358 1347.4 110.449 1346.41 110.449C1344.76 110.449 1343.11 110.208 1341.47 109.727C1339.83 109.245 1338.41 108.613 1337.21 107.832L1338.4 105.527C1339.74 106.374 1341.07 107.025 1342.37 107.48C1343.67 107.936 1345.02 108.164 1346.41 108.164C1350.43 108.164 1352.45 107.122 1352.45 105.039C1352.45 104.531 1352.28 104.121 1351.94 103.809C1351.61 103.483 1351.17 103.223 1350.61 103.027C1350.05 102.819 1349.4 102.656 1348.68 102.539C1347.96 102.422 1347.2 102.311 1346.41 102.207C1345.39 102.064 1344.39 101.895 1343.38 101.699C1342.38 101.504 1341.46 101.211 1340.63 100.82C1339.81 100.43 1339.14 99.9089 1338.64 99.2578C1338.14 98.6068 1337.89 97.7474 1337.89 96.6797C1337.89 95.7682 1338.12 94.9805 1338.58 94.3164C1339.05 93.6523 1339.67 93.099 1340.43 92.6562C1341.21 92.2135 1342.13 91.888 1343.17 91.6797C1344.21 91.4714 1345.29 91.3672 1346.41 91.3672C1348.01 91.3672 1349.44 91.556 1350.71 91.9336C1351.97 92.2982 1353.11 92.8255 1354.12 93.5156L1353.05 95.6055C1352.01 94.8763 1350.95 94.3685 1349.89 94.082C1348.82 93.7826 1347.66 93.6328 1346.41 93.6328C1345.85 93.6328 1345.23 93.6849 1344.54 93.7891C1343.86 93.8802 1343.23 94.0495 1342.64 94.2969C1342.05 94.5312 1341.56 94.8438 1341.16 95.2344C1340.77 95.612 1340.57 96.0938 1340.57 96.6797C1340.57 97.1875 1340.73 97.5977 1341.06 97.9102C1341.4 98.2096 1341.85 98.4635 1342.41 98.6719C1342.97 98.8672 1343.6 99.0234 1344.32 99.1406C1345.05 99.2578 1345.81 99.3685 1346.61 99.4727C1347.6 99.6159 1348.59 99.7852 1349.59 99.9805C1350.61 100.176 1351.53 100.462 1352.35 100.84C1353.18 101.217 1353.85 101.732 1354.36 102.383C1354.87 103.034 1355.12 103.893 1355.12 104.961ZM744.164 131.797C744.164 134.258 743.396 136.087 741.859 137.285C740.323 138.483 738.168 139.082 735.395 139.082H729.633V150H726.957V124.512H735.355C738.155 124.512 740.323 125.124 741.859 126.348C743.396 127.559 744.164 129.375 744.164 131.797ZM741.488 131.797C741.488 130.039 740.935 128.77 739.828 127.988C738.721 127.194 737.243 126.797 735.395 126.797H729.633V136.797H735.395C737.243 136.797 738.721 136.406 739.828 135.625C740.935 134.831 741.488 133.555 741.488 131.797ZM765.043 134.355C764.079 133.874 762.934 133.633 761.605 133.633C760.512 133.633 759.535 133.867 758.676 134.336C757.816 134.805 757.087 135.423 756.488 136.191C755.889 136.947 755.427 137.819 755.102 138.809C754.789 139.785 754.633 140.794 754.633 141.836V147.715H758.754V150H747.836V147.715H751.957V134.082H747.836V131.797H754.633V136.367C755.857 133.034 758.181 131.367 761.605 131.367C762.53 131.367 763.331 131.426 764.008 131.543C764.698 131.66 765.336 131.868 765.922 132.168L765.043 134.355ZM788.344 140.957C788.344 142.376 788.116 143.665 787.66 144.824C787.217 145.983 786.573 146.979 785.727 147.812C784.893 148.633 783.891 149.277 782.719 149.746C781.547 150.215 780.238 150.449 778.793 150.449C777.374 150.449 776.078 150.215 774.906 149.746C773.734 149.277 772.725 148.633 771.879 147.812C771.046 146.979 770.401 145.983 769.945 144.824C769.503 143.665 769.281 142.376 769.281 140.957C769.281 139.577 769.503 138.294 769.945 137.109C770.401 135.911 771.046 134.896 771.879 134.062C772.725 133.216 773.734 132.559 774.906 132.09C776.078 131.608 777.374 131.367 778.793 131.367C780.238 131.367 781.547 131.608 782.719 132.09C783.891 132.559 784.893 133.216 785.727 134.062C786.573 134.896 787.217 135.911 787.66 137.109C788.116 138.294 788.344 139.577 788.344 140.957ZM785.668 140.957C785.668 139.915 785.512 138.958 785.199 138.086C784.9 137.201 784.451 136.426 783.852 135.762C783.253 135.098 782.523 134.577 781.664 134.199C780.818 133.822 779.861 133.633 778.793 133.633C777.725 133.633 776.762 133.822 775.902 134.199C775.056 134.577 774.34 135.098 773.754 135.762C773.168 136.426 772.719 137.201 772.406 138.086C772.107 138.958 771.957 139.915 771.957 140.957C771.957 141.999 772.107 142.962 772.406 143.848C772.719 144.72 773.168 145.475 773.754 146.113C774.34 146.751 775.056 147.253 775.902 147.617C776.762 147.982 777.725 148.164 778.793 148.164C779.861 148.164 780.818 147.982 781.664 147.617C782.523 147.253 783.253 146.751 783.852 146.113C784.451 145.475 784.9 144.72 785.199 143.848C785.512 142.962 785.668 141.999 785.668 140.957ZM802.426 124.512L801.586 133.672H799.594L798.793 124.512H802.426ZM825.258 146.367L819.906 157.285H818.031L821.664 146.367H825.258ZM875.219 150H872.543V136.914C872.543 135.872 872.361 135.065 871.996 134.492C871.632 133.919 871.104 133.633 870.414 133.633C869.398 133.633 868.65 134.167 868.168 135.234C867.699 136.302 867.465 137.799 867.465 139.727V150H864.77V136.914C864.77 135.872 864.581 135.065 864.203 134.492C863.839 133.919 863.311 133.633 862.621 133.633C861.983 133.633 861.475 133.822 861.098 134.199C860.72 134.577 860.421 135.059 860.199 135.645C859.991 136.23 859.854 136.882 859.789 137.598C859.724 138.314 859.691 139.023 859.691 139.727V150H857.016V131.797H859.691V134.434C860.251 132.389 861.469 131.367 863.344 131.367C865.128 131.367 866.339 132.259 866.977 134.043C867.862 132.259 869.112 131.367 870.727 131.367C872.276 131.367 873.409 131.829 874.125 132.754C874.854 133.665 875.219 135.052 875.219 136.914V150ZM897.523 140.957C897.523 142.376 897.296 143.665 896.84 144.824C896.397 145.983 895.753 146.979 894.906 147.812C894.073 148.633 893.07 149.277 891.898 149.746C890.727 150.215 889.418 150.449 887.973 150.449C886.553 150.449 885.258 150.215 884.086 149.746C882.914 149.277 881.905 148.633 881.059 147.812C880.225 146.979 879.581 145.983 879.125 144.824C878.682 143.665 878.461 142.376 878.461 140.957C878.461 139.577 878.682 138.294 879.125 137.109C879.581 135.911 880.225 134.896 881.059 134.062C881.905 133.216 882.914 132.559 884.086 132.09C885.258 131.608 886.553 131.367 887.973 131.367C889.418 131.367 890.727 131.608 891.898 132.09C893.07 132.559 894.073 133.216 894.906 134.062C895.753 134.896 896.397 135.911 896.84 137.109C897.296 138.294 897.523 139.577 897.523 140.957ZM894.848 140.957C894.848 139.915 894.691 138.958 894.379 138.086C894.079 137.201 893.63 136.426 893.031 135.762C892.432 135.098 891.703 134.577 890.844 134.199C889.997 133.822 889.04 133.633 887.973 133.633C886.905 133.633 885.941 133.822 885.082 134.199C884.236 134.577 883.52 135.098 882.934 135.762C882.348 136.426 881.898 137.201 881.586 138.086C881.286 138.958 881.137 139.915 881.137 140.957C881.137 141.999 881.286 142.962 881.586 143.848C881.898 144.72 882.348 145.475 882.934 146.113C883.52 146.751 884.236 147.253 885.082 147.617C885.941 147.982 886.905 148.164 887.973 148.164C889.04 148.164 889.997 147.982 890.844 147.617C891.703 147.253 892.432 146.751 893.031 146.113C893.63 145.475 894.079 144.72 894.379 143.848C894.691 142.962 894.848 141.999 894.848 140.957ZM917.934 150H915.238V138.77C915.238 137.142 914.887 135.879 914.184 134.98C913.48 134.082 912.341 133.633 910.766 133.633C909.776 133.633 908.878 133.861 908.07 134.316C907.276 134.772 906.599 135.384 906.039 136.152C905.479 136.908 905.049 137.78 904.75 138.77C904.464 139.746 904.32 140.768 904.32 141.836V150H901.645V131.797H904.32V136.367C905.609 133.034 907.908 131.367 911.215 131.367C915.694 131.367 917.934 133.835 917.934 138.77V150ZM941.195 140.957C941.195 142.376 940.967 143.665 940.512 144.824C940.069 145.983 939.424 146.979 938.578 147.812C937.745 148.633 936.742 149.277 935.57 149.746C934.398 150.215 933.09 150.449 931.645 150.449C930.225 150.449 928.93 150.215 927.758 149.746C926.586 149.277 925.577 148.633 924.73 147.812C923.897 146.979 923.253 145.983 922.797 144.824C922.354 143.665 922.133 142.376 922.133 140.957C922.133 139.577 922.354 138.294 922.797 137.109C923.253 135.911 923.897 134.896 924.73 134.062C925.577 133.216 926.586 132.559 927.758 132.09C928.93 131.608 930.225 131.367 931.645 131.367C933.09 131.367 934.398 131.608 935.57 132.09C936.742 132.559 937.745 133.216 938.578 134.062C939.424 134.896 940.069 135.911 940.512 137.109C940.967 138.294 941.195 139.577 941.195 140.957ZM938.52 140.957C938.52 139.915 938.363 138.958 938.051 138.086C937.751 137.201 937.302 136.426 936.703 135.762C936.104 135.098 935.375 134.577 934.516 134.199C933.669 133.822 932.712 133.633 931.645 133.633C930.577 133.633 929.613 133.822 928.754 134.199C927.908 134.577 927.191 135.098 926.605 135.762C926.02 136.426 925.57 137.201 925.258 138.086C924.958 138.958 924.809 139.915 924.809 140.957C924.809 141.999 924.958 142.962 925.258 143.848C925.57 144.72 926.02 145.475 926.605 146.113C927.191 146.751 927.908 147.253 928.754 147.617C929.613 147.982 930.577 148.164 931.645 148.164C932.712 148.164 933.669 147.982 934.516 147.617C935.375 147.253 936.104 146.751 936.703 146.113C937.302 145.475 937.751 144.72 938.051 143.848C938.363 142.962 938.52 141.999 938.52 140.957ZM962.074 144.961C962.074 146.029 961.807 146.914 961.273 147.617C960.74 148.32 960.049 148.88 959.203 149.297C958.37 149.714 957.432 150.007 956.391 150.176C955.362 150.358 954.353 150.449 953.363 150.449C951.71 150.449 950.062 150.208 948.422 149.727C946.781 149.245 945.362 148.613 944.164 147.832L945.355 145.527C946.697 146.374 948.018 147.025 949.32 147.48C950.622 147.936 951.97 148.164 953.363 148.164C957.387 148.164 959.398 147.122 959.398 145.039C959.398 144.531 959.229 144.121 958.891 143.809C958.565 143.483 958.122 143.223 957.562 143.027C957.003 142.819 956.358 142.656 955.629 142.539C954.913 142.422 954.158 142.311 953.363 142.207C952.348 142.064 951.339 141.895 950.336 141.699C949.333 141.504 948.415 141.211 947.582 140.82C946.762 140.43 946.098 139.909 945.59 139.258C945.095 138.607 944.848 137.747 944.848 136.68C944.848 135.768 945.076 134.98 945.531 134.316C946 133.652 946.618 133.099 947.387 132.656C948.168 132.214 949.079 131.888 950.121 131.68C951.163 131.471 952.243 131.367 953.363 131.367C954.965 131.367 956.397 131.556 957.66 131.934C958.923 132.298 960.062 132.826 961.078 133.516L960.004 135.605C958.962 134.876 957.908 134.368 956.84 134.082C955.772 133.783 954.613 133.633 953.363 133.633C952.803 133.633 952.178 133.685 951.488 133.789C950.811 133.88 950.18 134.049 949.594 134.297C949.008 134.531 948.513 134.844 948.109 135.234C947.719 135.612 947.523 136.094 947.523 136.68C947.523 137.188 947.686 137.598 948.012 137.91C948.35 138.21 948.799 138.464 949.359 138.672C949.919 138.867 950.557 139.023 951.273 139.141C952.003 139.258 952.764 139.368 953.559 139.473C954.548 139.616 955.544 139.785 956.547 139.98C957.562 140.176 958.48 140.462 959.301 140.84C960.134 141.217 960.805 141.732 961.312 142.383C961.82 143.034 962.074 143.893 962.074 144.961ZM984.398 140.918C984.398 142.337 984.177 143.626 983.734 144.785C983.292 145.944 982.667 146.947 981.859 147.793C981.065 148.626 980.102 149.277 978.969 149.746C977.836 150.215 976.566 150.449 975.16 150.449C974.197 150.449 973.259 150.273 972.348 149.922C971.449 149.57 970.609 149.049 969.828 148.359V157.285H967.152V131.797H969.828V133.477C971.482 132.07 973.259 131.367 975.16 131.367C976.566 131.367 977.836 131.602 978.969 132.07C980.102 132.526 981.065 133.184 981.859 134.043C982.667 134.889 983.292 135.905 983.734 137.09C984.177 138.262 984.398 139.538 984.398 140.918ZM981.723 140.918C981.723 139.902 981.579 138.952 981.293 138.066C981.02 137.168 980.603 136.393 980.043 135.742C979.483 135.091 978.793 134.577 977.973 134.199C977.165 133.822 976.228 133.633 975.16 133.633C974.145 133.633 973.194 133.822 972.309 134.199C971.436 134.577 970.609 135.189 969.828 136.035V145.801C970.609 146.647 971.436 147.253 972.309 147.617C973.194 147.982 974.145 148.164 975.16 148.164C976.228 148.164 977.165 147.975 977.973 147.598C978.793 147.22 979.483 146.706 980.043 146.055C980.603 145.404 981.02 144.642 981.293 143.77C981.579 142.884 981.723 141.934 981.723 140.918ZM987.992 145.078C987.992 143.932 988.279 142.975 988.852 142.207C989.424 141.426 990.173 140.814 991.098 140.371C992.035 139.915 993.103 139.59 994.301 139.395C995.512 139.186 996.742 139.082 997.992 139.082C998.474 139.082 998.904 139.089 999.281 139.102C999.672 139.115 1000.04 139.134 1000.38 139.16C1000.73 139.186 1001.08 139.219 1001.43 139.258C1001.78 139.297 1002.17 139.342 1002.58 139.395V138.086C1002.58 137.201 1002.39 136.471 1002 135.898C1001.62 135.326 1001.15 134.876 1000.59 134.551C1000.03 134.212 999.444 133.978 998.832 133.848C998.22 133.704 997.699 133.633 997.27 133.633C995.915 133.633 994.665 133.815 993.52 134.18C992.374 134.544 991.306 135.033 990.316 135.645L989.105 133.633C990.199 132.969 991.423 132.428 992.777 132.012C994.145 131.582 995.642 131.367 997.27 131.367C998.259 131.367 999.229 131.497 1000.18 131.758C1001.14 132.005 1002 132.396 1002.76 132.93C1003.53 133.451 1004.14 134.141 1004.59 135C1005.05 135.859 1005.28 136.888 1005.28 138.086V150H1002.58V146.953C1002.11 147.539 1001.58 148.053 1000.98 148.496C1000.39 148.939 999.776 149.303 999.125 149.59C998.474 149.863 997.823 150.072 997.172 150.215C996.521 150.371 995.902 150.449 995.316 150.449C992.908 150.449 991.085 149.987 989.848 149.062C988.611 148.138 987.992 146.81 987.992 145.078ZM995.316 148.164C996.436 148.164 997.439 148.001 998.324 147.676C999.223 147.337 999.984 146.921 1000.61 146.426C1001.23 145.931 1001.72 145.404 1002.05 144.844C1002.41 144.284 1002.58 143.776 1002.58 143.32V141.602C1001.71 141.471 1000.87 141.4 1000.06 141.387C999.268 141.374 998.578 141.367 997.992 141.367C997.029 141.367 996.098 141.432 995.199 141.562C994.314 141.693 993.539 141.908 992.875 142.207C992.211 142.493 991.677 142.871 991.273 143.34C990.87 143.809 990.668 144.388 990.668 145.078C990.668 145.846 991.039 146.556 991.781 147.207C992.536 147.845 993.715 148.164 995.316 148.164ZM1027.39 146.523C1026.62 147.721 1025.56 148.678 1024.22 149.395C1022.89 150.098 1021.31 150.449 1019.48 150.449C1018.06 150.449 1016.76 150.215 1015.57 149.746C1014.39 149.277 1013.37 148.626 1012.52 147.793C1011.69 146.947 1011.04 145.944 1010.57 144.785C1010.1 143.626 1009.87 142.337 1009.87 140.918C1009.87 139.538 1010.08 138.262 1010.51 137.09C1010.94 135.905 1011.55 134.896 1012.35 134.062C1013.14 133.216 1014.11 132.559 1015.26 132.09C1016.42 131.608 1017.7 131.367 1019.11 131.367C1019.67 131.367 1020.24 131.432 1020.82 131.562C1021.41 131.693 1021.96 131.895 1022.48 132.168C1023.01 132.428 1023.47 132.747 1023.89 133.125C1024.31 133.49 1024.62 133.926 1024.83 134.434V131.797H1027.23V139.082H1024.83C1024.83 138.275 1024.68 137.539 1024.38 136.875C1024.09 136.211 1023.7 135.638 1023.19 135.156C1022.68 134.674 1022.07 134.303 1021.37 134.043C1020.67 133.77 1019.91 133.633 1019.11 133.633C1018.01 133.633 1017.05 133.822 1016.23 134.199C1015.43 134.577 1014.75 135.091 1014.2 135.742C1013.66 136.393 1013.24 137.161 1012.95 138.047C1012.68 138.919 1012.54 139.876 1012.54 140.918C1012.54 141.96 1012.7 142.923 1013.01 143.809C1013.34 144.681 1013.8 145.436 1014.4 146.074C1015.01 146.712 1015.74 147.22 1016.59 147.598C1017.45 147.975 1018.41 148.164 1019.48 148.164C1020.83 148.164 1022.04 147.897 1023.09 147.363C1024.14 146.829 1024.95 146.12 1025.51 145.234L1027.39 146.523ZM1034.38 141.836C1034.57 143.763 1035.28 145.299 1036.49 146.445C1037.7 147.591 1039.27 148.164 1041.21 148.164C1042.58 148.164 1043.8 147.884 1044.87 147.324C1045.93 146.764 1046.74 146.068 1047.27 145.234L1049.14 146.523C1048.23 147.799 1047.15 148.776 1045.88 149.453C1044.62 150.117 1043.06 150.449 1041.21 150.449C1039.81 150.449 1038.52 150.215 1037.35 149.746C1036.18 149.277 1035.16 148.626 1034.3 147.793C1033.45 146.947 1032.8 145.944 1032.33 144.785C1031.86 143.626 1031.62 142.337 1031.62 140.918C1031.62 139.538 1031.83 138.268 1032.25 137.109C1032.68 135.938 1033.29 134.928 1034.09 134.082C1034.89 133.223 1035.87 132.559 1037.02 132.09C1038.16 131.608 1039.44 131.367 1040.86 131.367C1042.41 131.367 1043.77 131.628 1044.93 132.148C1046.08 132.669 1047.05 133.392 1047.82 134.316C1048.6 135.228 1049.17 136.322 1049.54 137.598C1049.91 138.874 1050.1 140.286 1050.1 141.836H1034.38ZM1047.27 139.551C1046.97 137.559 1046.25 136.074 1045.1 135.098C1043.96 134.121 1042.54 133.633 1040.86 133.633C1040 133.633 1039.21 133.776 1038.48 134.062C1037.75 134.336 1037.11 134.733 1036.55 135.254C1035.99 135.775 1035.52 136.406 1035.14 137.148C1034.76 137.878 1034.52 138.678 1034.42 139.551H1047.27ZM1064.46 135.449H1060.82V131.797H1064.46V135.449ZM1065.45 146.367L1060.1 157.285H1058.23L1061.86 146.367H1065.45Z" fill="#5DA0FF"/>
</g>
</g>
<defs>
<clipPath id="clip0_268_3711">
<rect width="1437.29" height="808.473" fill="white"/>
</clipPath>
<clipPath id="clip1_268_3711">
<rect width="1450.76" height="10980.4" fill="white" transform="translate(0 -8090.72)"/>
</clipPath>
</defs>
</svg>
