<svg width="1440" height="800" viewBox="0 0 1440 800" fill="none" xmlns="http://www.w3.org/2000/svg">
<g clip-path="url(#clip0_320_574)">
<rect width="1440" height="800" fill="#DEDEDE"/>
<path d="M-772 558.566V647.356H-683.214V736.147H-325.295V827.713H-144.948V1013.62H-58.9365V1193.97H-144.948V1096.86H-325.295V1193.97V1279.99V1457.57H-502.867V1368.78H-683.214V1457.57H-772V1543.59H-144.948V1368.78H-58.9365V1543.59H121.41V1368.78H226.844V1674H307.306V1640.7V1457.57H487.653V1279.99H668V1013.62H487.653V1107.96H307.306V1013.62H398.867V919.278H121.41V647.356H307.306V736.147H668V647.356H570.89V558.566H487.653V647.356H398.867V467H43.7225V558.566H-58.9365V647.356H-502.867V558.566H-772Z" fill="#85B6FF"/>
<mask id="path-2-outside-1_320_574" maskUnits="userSpaceOnUse" x="799" y="167" width="252" height="160" fill="black">
<rect fill="white" x="799" y="167" width="252" height="160"/>
<path d="M890.43 310.408L879.15 321.98L804.15 246.98L879.15 171.98L890.43 183.699L827.148 246.98L890.43 310.408ZM1046.14 246.98L971.143 321.98L959.717 310.408L1023 246.98L959.717 183.699L971.143 171.98L1046.14 246.98Z"/>
</mask>
<path d="M890.43 310.408L892.578 312.502L894.643 310.384L892.553 308.289L890.43 310.408ZM879.15 321.98L877.029 324.102L879.178 326.25L881.299 324.074L879.15 321.98ZM804.15 246.98L802.029 244.859L799.908 246.98L802.029 249.102L804.15 246.98ZM879.15 171.98L881.312 169.9L879.191 167.697L877.029 169.859L879.15 171.98ZM890.43 183.699L892.551 185.821L894.632 183.739L892.591 181.619L890.43 183.699ZM827.148 246.98L825.027 244.859L822.908 246.978L825.025 249.099L827.148 246.98ZM888.281 308.314L877.002 319.887L881.299 324.074L892.578 312.502L888.281 308.314ZM881.272 319.859L806.272 244.859L802.029 249.102L877.029 324.102L881.272 319.859ZM806.272 249.102L881.272 174.102L877.029 169.859L802.029 244.859L806.272 249.102ZM876.989 174.061L888.268 185.78L892.591 181.619L881.312 169.9L876.989 174.061ZM888.308 181.578L825.027 244.859L829.27 249.102L892.551 185.821L888.308 181.578ZM825.025 249.099L888.306 312.527L892.553 308.289L829.272 244.862L825.025 249.099ZM1046.14 246.98L1048.26 249.102L1050.39 246.98L1048.26 244.859L1046.14 246.98ZM971.143 321.98L969.008 324.088L971.129 326.237L973.264 324.102L971.143 321.98ZM959.717 310.408L957.593 308.289L955.49 310.397L957.582 312.516L959.717 310.408ZM1023 246.98L1025.12 249.099L1027.24 246.978L1025.12 244.859L1023 246.98ZM959.717 183.699L957.569 181.605L955.501 183.726L957.595 185.821L959.717 183.699ZM971.143 171.98L973.264 169.859L971.116 167.711L968.995 169.886L971.143 171.98ZM1044.02 244.859L969.021 319.859L973.264 324.102L1048.26 249.102L1044.02 244.859ZM973.277 319.873L961.852 308.3L957.582 312.516L969.008 324.088L973.277 319.873ZM961.841 312.527L1025.12 249.099L1020.87 244.862L957.593 308.289L961.841 312.527ZM1025.12 244.859L961.838 181.578L957.595 185.821L1020.88 249.102L1025.12 244.859ZM961.865 185.794L973.291 174.075L968.995 169.886L957.569 181.605L961.865 185.794ZM969.021 174.102L1044.02 249.102L1048.26 244.859L973.264 169.859L969.021 174.102Z" fill="#85B6FF" mask="url(#path-2-outside-1_320_574)"/>
<mask id="path-4-outside-2_320_574" maskUnits="userSpaceOnUse" x="1139" y="167" width="252" height="160" fill="black">
<rect fill="white" x="1139" y="167" width="252" height="160"/>
<path d="M1230.43 310.408L1219.15 321.98L1144.15 246.98L1219.15 171.98L1230.43 183.699L1167.15 246.98L1230.43 310.408ZM1386.14 246.98L1311.14 321.98L1299.72 310.408L1363 246.98L1299.72 183.699L1311.14 171.98L1386.14 246.98Z"/>
</mask>
<path d="M1230.43 310.408L1232.58 312.502L1234.64 310.384L1232.55 308.289L1230.43 310.408ZM1219.15 321.98L1217.03 324.102L1219.18 326.25L1221.3 324.074L1219.15 321.98ZM1144.15 246.98L1142.03 244.859L1139.91 246.98L1142.03 249.102L1144.15 246.98ZM1219.15 171.98L1221.31 169.9L1219.19 167.697L1217.03 169.859L1219.15 171.98ZM1230.43 183.699L1232.55 185.821L1234.63 183.739L1232.59 181.619L1230.43 183.699ZM1167.15 246.98L1165.03 244.859L1162.91 246.978L1165.02 249.099L1167.15 246.98ZM1228.28 308.314L1217 319.887L1221.3 324.074L1232.58 312.502L1228.28 308.314ZM1221.27 319.859L1146.27 244.859L1142.03 249.102L1217.03 324.102L1221.27 319.859ZM1146.27 249.102L1221.27 174.102L1217.03 169.859L1142.03 244.859L1146.27 249.102ZM1216.99 174.061L1228.27 185.78L1232.59 181.619L1221.31 169.9L1216.99 174.061ZM1228.31 181.578L1165.03 244.859L1169.27 249.102L1232.55 185.821L1228.31 181.578ZM1165.02 249.099L1228.31 312.527L1232.55 308.289L1169.27 244.862L1165.02 249.099ZM1386.14 246.98L1388.26 249.102L1390.39 246.98L1388.26 244.859L1386.14 246.98ZM1311.14 321.98L1309.01 324.088L1311.13 326.237L1313.26 324.102L1311.14 321.98ZM1299.72 310.408L1297.59 308.289L1295.49 310.397L1297.58 312.516L1299.72 310.408ZM1363 246.98L1365.12 249.099L1367.24 246.978L1365.12 244.859L1363 246.98ZM1299.72 183.699L1297.57 181.605L1295.5 183.726L1297.6 185.821L1299.72 183.699ZM1311.14 171.98L1313.26 169.859L1311.12 167.711L1308.99 169.886L1311.14 171.98ZM1384.02 244.859L1309.02 319.859L1313.26 324.102L1388.26 249.102L1384.02 244.859ZM1313.28 319.873L1301.85 308.3L1297.58 312.516L1309.01 324.088L1313.28 319.873ZM1301.84 312.527L1365.12 249.099L1360.87 244.862L1297.59 308.289L1301.84 312.527ZM1365.12 244.859L1301.84 181.578L1297.6 185.821L1360.88 249.102L1365.12 244.859ZM1301.86 185.794L1313.29 174.075L1308.99 169.886L1297.57 181.605L1301.86 185.794ZM1309.02 174.102L1384.02 249.102L1388.26 244.859L1313.26 169.859L1309.02 174.102Z" fill="#85B6FF" mask="url(#path-4-outside-2_320_574)"/>
<path d="M689 433H973.874L1210.46 576.609L1282.89 464.377L1540 656.258L1298.58 1285H689V875.895M689 791.419V542.462M689 554.887V542.462M689 542.462L950.055 542.462L1247 709M790.396 1189.5H987.152" stroke="#85B6FF" stroke-width="4"/>
<path d="M1124.46 589.946C1125.54 589.69 1126.2 588.612 1125.95 587.538L1121.78 570.025C1121.53 568.951 1120.45 568.286 1119.38 568.542C1118.3 568.797 1117.64 569.875 1117.89 570.95L1121.59 586.517L1106.03 590.216C1104.95 590.471 1104.29 591.549 1104.54 592.624C1104.8 593.698 1105.88 594.363 1106.95 594.107L1124.46 589.946ZM997.951 512.703L1122.95 589.703L1125.05 586.297L1000.05 509.297L997.951 512.703Z" fill="#5DA0FF"/>
<path d="M68.7993 498.584H59V497.354H68.7993V498.584ZM72.4567 500.35C72.4567 499.734 72.6109 499.218 72.9193 498.805C73.2277 498.384 73.6308 498.055 74.1284 497.816C74.6331 497.571 75.2079 497.396 75.8528 497.291C76.5047 497.179 77.1671 497.122 77.84 497.122C78.0993 497.122 78.3307 497.126 78.5339 497.133C78.7442 497.14 78.9405 497.151 79.1227 497.165C79.312 497.179 79.5012 497.196 79.6905 497.217C79.8798 497.238 80.0865 497.263 80.3109 497.291V496.586C80.3109 496.11 80.2057 495.717 79.9954 495.409C79.7921 495.1 79.5398 494.858 79.2384 494.683C78.937 494.501 78.6215 494.375 78.2921 494.305C77.9627 494.228 77.6823 494.189 77.451 494.189C76.722 494.189 76.049 494.287 75.4322 494.483C74.8154 494.68 74.2406 494.943 73.7079 495.272L73.056 494.189C73.6448 493.832 74.3037 493.541 75.0327 493.316C75.7687 493.085 76.5748 492.969 77.451 492.969C77.9837 492.969 78.5059 493.039 79.0176 493.18C79.5363 493.313 79.9989 493.523 80.4055 493.81C80.819 494.091 81.1485 494.462 81.3938 494.925C81.6392 495.388 81.7618 495.941 81.7618 496.586V503H80.3109V501.36C80.0585 501.675 79.7711 501.952 79.4487 502.19C79.1332 502.429 78.8003 502.625 78.4498 502.779C78.0993 502.926 77.7489 503.039 77.3984 503.116C77.0479 503.2 76.715 503.242 76.3995 503.242C75.1028 503.242 74.1214 502.993 73.4555 502.495C72.7896 501.998 72.4567 501.283 72.4567 500.35ZM76.3995 502.012C77.0023 502.012 77.5421 501.924 78.0187 501.749C78.5024 501.567 78.9124 501.342 79.2489 501.076C79.5854 500.81 79.8447 500.526 80.027 500.224C80.2162 499.923 80.3109 499.649 80.3109 499.404V498.479C79.8412 498.409 79.3891 498.37 78.9545 498.363C78.5269 498.356 78.1554 498.353 77.84 498.353C77.3213 498.353 76.8201 498.388 76.3364 498.458C75.8598 498.528 75.4427 498.644 75.0852 498.805C74.7277 498.959 74.4404 499.162 74.2231 499.415C74.0058 499.667 73.8971 499.979 73.8971 500.35C73.8971 500.764 74.0969 501.146 74.4964 501.496C74.903 501.84 75.5373 502.012 76.3995 502.012ZM85.9554 501.77C86.2848 501.7 86.6002 501.51 86.9016 501.202C87.2031 500.894 87.4659 500.466 87.6902 499.919C87.9145 499.373 88.0933 498.71 88.2265 497.932C88.3666 497.147 88.4367 496.246 88.4367 495.23V493.201H93.7885V501.77H95.7547V506.354H94.4614V503H87.2486V506.354H85.9554V501.77ZM89.8772 495.23C89.8772 496.043 89.8176 496.807 89.6985 497.522C89.5863 498.23 89.4356 498.864 89.2463 499.425C89.0641 499.986 88.8538 500.47 88.6155 500.876C88.3772 501.276 88.1423 501.574 87.911 501.77H92.3481V494.431H89.8772V495.23ZM109.232 498.111C109.232 498.875 109.113 499.569 108.875 500.193C108.637 500.817 108.3 501.356 107.866 501.812C107.438 502.26 106.919 502.611 106.309 502.863C105.7 503.116 105.016 503.242 104.259 503.242C103.74 503.242 103.236 503.147 102.745 502.958C102.261 502.769 101.809 502.488 101.389 502.117V506.922H99.9482V493.201H101.389V494.105C102.279 493.348 103.236 492.969 104.259 492.969C105.016 492.969 105.7 493.096 106.309 493.348C106.919 493.593 107.438 493.947 107.866 494.41C108.3 494.865 108.637 495.412 108.875 496.05C109.113 496.681 109.232 497.368 109.232 498.111ZM107.792 498.111C107.792 497.564 107.715 497.052 107.561 496.576C107.413 496.092 107.189 495.675 106.888 495.325C106.586 494.974 106.215 494.697 105.773 494.494C105.339 494.291 104.834 494.189 104.259 494.189C103.712 494.189 103.201 494.291 102.724 494.494C102.254 494.697 101.809 495.027 101.389 495.482V500.739C101.809 501.195 102.254 501.521 102.724 501.717C103.201 501.914 103.712 502.012 104.259 502.012C104.834 502.012 105.339 501.91 105.773 501.707C106.215 501.503 106.586 501.227 106.888 500.876C107.189 500.526 107.413 500.116 107.561 499.646C107.715 499.169 107.792 498.658 107.792 498.111ZM114.351 498.605C114.456 499.642 114.835 500.47 115.487 501.086C116.139 501.703 116.987 502.012 118.031 502.012C118.767 502.012 119.423 501.861 119.997 501.56C120.572 501.258 121.003 500.883 121.291 500.435L122.3 501.128C121.809 501.815 121.224 502.341 120.544 502.706C119.864 503.063 119.027 503.242 118.031 503.242C117.274 503.242 116.58 503.116 115.949 502.863C115.319 502.611 114.772 502.26 114.309 501.812C113.854 501.356 113.5 500.817 113.247 500.193C112.995 499.569 112.869 498.875 112.869 498.111C112.869 497.368 112.981 496.684 113.205 496.061C113.436 495.43 113.766 494.886 114.193 494.431C114.628 493.968 115.154 493.611 115.771 493.358C116.387 493.099 117.078 492.969 117.842 492.969C118.676 492.969 119.405 493.11 120.029 493.39C120.653 493.67 121.171 494.059 121.585 494.557C122.006 495.048 122.314 495.636 122.51 496.323C122.714 497.01 122.815 497.771 122.815 498.605H114.351ZM121.291 497.375C121.129 496.302 120.74 495.503 120.124 494.978C119.507 494.452 118.746 494.189 117.842 494.189C117.379 494.189 116.952 494.266 116.559 494.42C116.167 494.568 115.82 494.781 115.518 495.062C115.217 495.342 114.965 495.682 114.761 496.082C114.558 496.474 114.428 496.905 114.372 497.375H121.291ZM135.82 501.149C135.406 501.794 134.838 502.306 134.116 502.685C133.401 503.056 132.55 503.242 131.561 503.242C130.797 503.242 130.096 503.116 129.459 502.863C128.821 502.611 128.274 502.26 127.818 501.812C127.37 501.356 127.019 500.817 126.767 500.193C126.515 499.569 126.388 498.875 126.388 498.111C126.388 497.368 126.504 496.681 126.735 496.05C126.967 495.412 127.296 494.869 127.724 494.42C128.151 493.965 128.674 493.611 129.29 493.358C129.914 493.099 130.605 492.969 131.362 492.969C131.663 492.969 131.972 493.004 132.287 493.074C132.602 493.145 132.9 493.253 133.181 493.4C133.461 493.541 133.713 493.712 133.938 493.916C134.162 494.112 134.33 494.347 134.442 494.62V493.201H135.736V497.122H134.442C134.442 496.688 134.362 496.292 134.201 495.934C134.046 495.577 133.833 495.268 133.559 495.009C133.286 494.75 132.96 494.55 132.581 494.41C132.203 494.263 131.796 494.189 131.362 494.189C130.773 494.189 130.258 494.291 129.816 494.494C129.381 494.697 129.017 494.974 128.723 495.325C128.428 495.675 128.204 496.089 128.05 496.565C127.902 497.035 127.829 497.55 127.829 498.111C127.829 498.672 127.913 499.19 128.081 499.667C128.256 500.137 128.505 500.543 128.828 500.887C129.157 501.23 129.55 501.503 130.005 501.707C130.468 501.91 130.987 502.012 131.561 502.012C132.29 502.012 132.939 501.871 133.507 501.591C134.074 501.311 134.509 500.932 134.81 500.456L135.82 501.149ZM163.122 500.203C163.122 501.149 162.772 501.854 162.071 502.317C161.377 502.772 160.378 503 159.074 503H153.859V493.201H158.748C159.225 493.201 159.694 493.239 160.157 493.316C160.627 493.386 161.044 493.516 161.408 493.705C161.773 493.888 162.071 494.143 162.302 494.473C162.533 494.802 162.649 495.233 162.649 495.766C162.649 496.271 162.526 496.695 162.281 497.038C162.036 497.382 161.555 497.645 160.84 497.827C161.717 498.03 162.316 498.332 162.638 498.731C162.961 499.124 163.122 499.614 163.122 500.203ZM161.208 495.85C161.208 495.549 161.128 495.307 160.967 495.125C160.805 494.936 160.606 494.792 160.367 494.694C160.136 494.589 159.877 494.518 159.589 494.483C159.302 494.448 159.022 494.431 158.748 494.431H155.299V497.249H158.748C159.036 497.249 159.326 497.231 159.621 497.196C159.915 497.161 160.182 497.091 160.42 496.986C160.658 496.874 160.847 496.73 160.988 496.555C161.135 496.372 161.208 496.138 161.208 495.85ZM161.682 500.14C161.682 499.565 161.447 499.145 160.977 498.878C160.508 498.612 159.866 498.479 159.053 498.479H155.299V501.77H159.053C159.866 501.77 160.508 501.633 160.977 501.36C161.447 501.086 161.682 500.68 161.682 500.14ZM166.8 500.35C166.8 499.734 166.955 499.218 167.263 498.805C167.571 498.384 167.975 498.055 168.472 497.816C168.977 497.571 169.552 497.396 170.197 497.291C170.848 497.179 171.511 497.122 172.184 497.122C172.443 497.122 172.674 497.126 172.878 497.133C173.088 497.14 173.284 497.151 173.466 497.165C173.656 497.179 173.845 497.196 174.034 497.217C174.224 497.238 174.43 497.263 174.655 497.291V496.586C174.655 496.11 174.549 495.717 174.339 495.409C174.136 495.1 173.884 494.858 173.582 494.683C173.281 494.501 172.965 494.375 172.636 494.305C172.306 494.228 172.026 494.189 171.795 494.189C171.066 494.189 170.393 494.287 169.776 494.483C169.159 494.68 168.584 494.943 168.052 495.272L167.4 494.189C167.989 493.832 168.647 493.541 169.376 493.316C170.112 493.085 170.919 492.969 171.795 492.969C172.327 492.969 172.85 493.039 173.361 493.18C173.88 493.313 174.343 493.523 174.749 493.81C175.163 494.091 175.492 494.462 175.738 494.925C175.983 495.388 176.106 495.941 176.106 496.586V503H174.655V501.36C174.402 501.675 174.115 501.952 173.792 502.19C173.477 502.429 173.144 502.625 172.794 502.779C172.443 502.926 172.093 503.039 171.742 503.116C171.392 503.2 171.059 503.242 170.743 503.242C169.447 503.242 168.465 502.993 167.799 502.495C167.133 501.998 166.8 501.283 166.8 500.35ZM170.743 502.012C171.346 502.012 171.886 501.924 172.362 501.749C172.846 501.567 173.256 501.342 173.593 501.076C173.929 500.81 174.188 500.526 174.371 500.224C174.56 499.923 174.655 499.649 174.655 499.404V498.479C174.185 498.409 173.733 498.37 173.298 498.363C172.871 498.356 172.499 498.353 172.184 498.353C171.665 498.353 171.164 498.388 170.68 498.458C170.204 498.528 169.786 498.644 169.429 498.805C169.072 498.959 168.784 499.162 168.567 499.415C168.35 499.667 168.241 499.979 168.241 500.35C168.241 500.764 168.441 501.146 168.84 501.496C169.247 501.84 169.881 502.012 170.743 502.012ZM184.473 493.201H185.924V501.77H188.658V493.201H190.098V503H180.299V493.201H181.74V501.77H184.473V493.201ZM195.217 498.605C195.322 499.642 195.701 500.47 196.353 501.086C197.005 501.703 197.853 502.012 198.897 502.012C199.633 502.012 200.289 501.861 200.863 501.56C201.438 501.258 201.869 500.883 202.157 500.435L203.166 501.128C202.675 501.815 202.09 502.341 201.41 502.706C200.73 503.063 199.893 503.242 198.897 503.242C198.14 503.242 197.446 503.116 196.815 502.863C196.185 502.611 195.638 502.26 195.175 501.812C194.72 501.356 194.366 500.817 194.113 500.193C193.861 499.569 193.735 498.875 193.735 498.111C193.735 497.368 193.847 496.684 194.071 496.061C194.303 495.43 194.632 494.886 195.06 494.431C195.494 493.968 196.02 493.611 196.637 493.358C197.254 493.099 197.944 492.969 198.708 492.969C199.542 492.969 200.271 493.11 200.895 493.39C201.519 493.67 202.038 494.059 202.451 494.557C202.872 495.048 203.18 495.636 203.376 496.323C203.58 497.01 203.681 497.771 203.681 498.605H195.217ZM202.157 497.375C201.995 496.302 201.606 495.503 200.99 494.978C200.373 494.452 199.612 494.189 198.708 494.189C198.245 494.189 197.818 494.266 197.425 494.42C197.033 494.568 196.686 494.781 196.384 495.062C196.083 495.342 195.831 495.682 195.627 496.082C195.424 496.474 195.294 496.905 195.238 497.375H202.157ZM207.77 493.201H217.054V494.431H209.21V503H207.77V493.201ZM230.784 498.132C230.784 498.896 230.661 499.59 230.416 500.214C230.178 500.838 229.831 501.374 229.375 501.822C228.926 502.264 228.387 502.611 227.756 502.863C227.125 503.116 226.42 503.242 225.642 503.242C224.878 503.242 224.181 503.116 223.55 502.863C222.919 502.611 222.376 502.264 221.92 501.822C221.472 501.374 221.125 500.838 220.879 500.214C220.641 499.59 220.522 498.896 220.522 498.132C220.522 497.389 220.641 496.698 220.879 496.061C221.125 495.416 221.472 494.869 221.92 494.42C222.376 493.965 222.919 493.611 223.55 493.358C224.181 493.099 224.878 492.969 225.642 492.969C226.42 492.969 227.125 493.099 227.756 493.358C228.387 493.611 228.926 493.965 229.375 494.42C229.831 494.869 230.178 495.416 230.416 496.061C230.661 496.698 230.784 497.389 230.784 498.132ZM229.343 498.132C229.343 497.571 229.259 497.056 229.091 496.586C228.93 496.11 228.688 495.693 228.366 495.335C228.043 494.978 227.651 494.697 227.188 494.494C226.732 494.291 226.217 494.189 225.642 494.189C225.068 494.189 224.549 494.291 224.086 494.494C223.631 494.697 223.245 494.978 222.93 495.335C222.614 495.693 222.372 496.11 222.204 496.586C222.043 497.056 221.962 497.571 221.962 498.132C221.962 498.693 222.043 499.211 222.204 499.688C222.372 500.158 222.614 500.564 222.93 500.908C223.245 501.251 223.631 501.521 224.086 501.717C224.549 501.914 225.068 502.012 225.642 502.012C226.217 502.012 226.732 501.914 227.188 501.717C227.651 501.521 228.043 501.251 228.366 500.908C228.688 500.564 228.93 500.158 229.091 499.688C229.259 499.211 229.343 498.693 229.343 498.132ZM68.2841 531H66.8332V523.23L64.4254 528.308H63.395L60.9557 523.23V531H59.5152V521.201H61.3868L63.9102 526.311L66.4126 521.201H68.2841V531ZM73.9181 526.605C74.0233 527.642 74.4018 528.47 75.0537 529.086C75.7056 529.703 76.5537 530.012 77.5982 530.012C78.3342 530.012 78.9896 529.861 79.5643 529.56C80.1391 529.258 80.5702 528.883 80.8576 528.435L81.867 529.128C81.3763 529.815 80.791 530.341 80.1111 530.706C79.4312 531.063 78.5935 531.242 77.5982 531.242C76.8411 531.242 76.1472 531.116 75.5163 530.863C74.8855 530.611 74.3387 530.26 73.8761 529.812C73.4205 529.356 73.0665 528.817 72.8141 528.193C72.5618 527.569 72.4356 526.875 72.4356 526.111C72.4356 525.368 72.5478 524.684 72.7721 524.061C73.0034 523.43 73.3328 522.886 73.7604 522.431C74.195 521.968 74.7207 521.611 75.3376 521.358C75.9544 521.099 76.6449 520.969 77.4089 520.969C78.243 520.969 78.972 521.11 79.5959 521.39C80.2197 521.67 80.7384 522.059 81.152 522.557C81.5726 523.048 81.881 523.636 82.0773 524.323C82.2805 525.01 82.3822 525.771 82.3822 526.605H73.9181ZM80.8576 525.375C80.6964 524.302 80.3073 523.503 79.6905 522.978C79.0737 522.452 78.3131 522.189 77.4089 522.189C76.9463 522.189 76.5187 522.266 76.1262 522.42C75.7336 522.568 75.3866 522.781 75.0852 523.062C74.7838 523.342 74.5315 523.682 74.3282 524.082C74.1249 524.474 73.9952 524.905 73.9392 525.375H80.8576ZM95.3867 529.149C94.9731 529.794 94.4054 530.306 93.6834 530.685C92.9684 531.056 92.1168 531.242 91.1284 531.242C90.3644 531.242 89.6634 531.116 89.0255 530.863C88.3877 530.611 87.8409 530.26 87.3853 529.812C86.9367 529.356 86.5862 528.817 86.3339 528.193C86.0815 527.569 85.9554 526.875 85.9554 526.111C85.9554 525.368 86.071 524.681 86.3023 524.05C86.5336 523.412 86.8631 522.869 87.2907 522.42C87.7183 521.965 88.2405 521.611 88.8573 521.358C89.4812 521.099 90.1716 520.969 90.9286 520.969C91.23 520.969 91.5385 521.004 91.8539 521.074C92.1693 521.145 92.4672 521.253 92.7476 521.4C93.028 521.541 93.2803 521.712 93.5046 521.916C93.729 522.112 93.8972 522.347 94.0093 522.62V521.201H95.3026V525.122H94.0093C94.0093 524.688 93.9287 524.292 93.7675 523.934C93.6133 523.577 93.3995 523.268 93.1261 523.009C92.8528 522.75 92.5268 522.55 92.1483 522.41C91.7698 522.263 91.3632 522.189 90.9286 522.189C90.3398 522.189 89.8246 522.291 89.383 522.494C88.9484 522.697 88.5839 522.974 88.2895 523.325C87.9951 523.675 87.7708 524.089 87.6166 524.565C87.4694 525.035 87.3958 525.55 87.3958 526.111C87.3958 526.672 87.4799 527.19 87.6482 527.667C87.8234 528.137 88.0722 528.543 88.3947 528.887C88.7241 529.23 89.1167 529.503 89.5723 529.707C90.0349 529.91 90.5536 530.012 91.1284 530.012C91.8574 530.012 92.5058 529.871 93.0736 529.591C93.6413 529.311 94.0759 528.932 94.3773 528.456L95.3867 529.149ZM109.232 525.827H108.002V522.431H105.058V529.77H107.266V531H101.389V529.77H103.607V522.431H100.663V525.827H99.433V521.201H109.232V525.827ZM122.962 526.132C122.962 526.896 122.84 527.59 122.594 528.214C122.356 528.838 122.009 529.374 121.553 529.822C121.105 530.264 120.565 530.611 119.934 530.863C119.303 531.116 118.599 531.242 117.821 531.242C117.057 531.242 116.359 531.116 115.729 530.863C115.098 530.611 114.554 530.264 114.099 529.822C113.65 529.374 113.303 528.838 113.058 528.214C112.82 527.59 112.7 526.896 112.7 526.132C112.7 525.389 112.82 524.698 113.058 524.061C113.303 523.416 113.65 522.869 114.099 522.42C114.554 521.965 115.098 521.611 115.729 521.358C116.359 521.099 117.057 520.969 117.821 520.969C118.599 520.969 119.303 521.099 119.934 521.358C120.565 521.611 121.105 521.965 121.553 522.42C122.009 522.869 122.356 523.416 122.594 524.061C122.84 524.698 122.962 525.389 122.962 526.132ZM121.522 526.132C121.522 525.571 121.438 525.056 121.27 524.586C121.108 524.11 120.867 523.693 120.544 523.335C120.222 522.978 119.829 522.697 119.367 522.494C118.911 522.291 118.396 522.189 117.821 522.189C117.246 522.189 116.727 522.291 116.265 522.494C115.809 522.697 115.424 522.978 115.108 523.335C114.793 523.693 114.551 524.11 114.383 524.586C114.222 525.056 114.141 525.571 114.141 526.132C114.141 526.693 114.222 527.211 114.383 527.688C114.551 528.158 114.793 528.564 115.108 528.908C115.424 529.251 115.809 529.521 116.265 529.717C116.727 529.914 117.246 530.012 117.821 530.012C118.396 530.012 118.911 529.914 119.367 529.717C119.829 529.521 120.222 529.251 120.544 528.908C120.867 528.564 121.108 528.158 121.27 527.688C121.438 527.211 121.522 526.693 121.522 526.132ZM135.673 531H134.222V526.605H128.344V531H126.904V521.201H128.344V525.375H134.222V521.201H135.673V531ZM139.845 528.35C139.845 527.734 139.999 527.218 140.308 526.805C140.616 526.384 141.019 526.055 141.517 525.816C142.022 525.571 142.596 525.396 143.241 525.291C143.893 525.179 144.555 525.122 145.228 525.122C145.488 525.122 145.719 525.126 145.922 525.133C146.133 525.14 146.329 525.151 146.511 525.165C146.7 525.179 146.89 525.196 147.079 525.217C147.268 525.238 147.475 525.263 147.699 525.291V524.586C147.699 524.11 147.594 523.717 147.384 523.409C147.181 523.1 146.928 522.858 146.627 522.683C146.325 522.501 146.01 522.375 145.681 522.305C145.351 522.228 145.071 522.189 144.839 522.189C144.11 522.189 143.437 522.287 142.821 522.483C142.204 522.68 141.629 522.943 141.096 523.272L140.444 522.189C141.033 521.832 141.692 521.541 142.421 521.316C143.157 521.085 143.963 520.969 144.839 520.969C145.372 520.969 145.894 521.039 146.406 521.18C146.925 521.313 147.387 521.523 147.794 521.81C148.207 522.091 148.537 522.462 148.782 522.925C149.028 523.388 149.15 523.941 149.15 524.586V531H147.699V529.36C147.447 529.675 147.16 529.952 146.837 530.19C146.522 530.429 146.189 530.625 145.838 530.779C145.488 530.926 145.137 531.039 144.787 531.116C144.436 531.2 144.103 531.242 143.788 531.242C142.491 531.242 141.51 530.993 140.844 530.495C140.178 529.998 139.845 529.283 139.845 528.35ZM143.788 530.012C144.391 530.012 144.93 529.924 145.407 529.749C145.891 529.567 146.301 529.342 146.637 529.076C146.974 528.81 147.233 528.526 147.415 528.224C147.605 527.923 147.699 527.649 147.699 527.404V526.479C147.23 526.409 146.777 526.37 146.343 526.363C145.915 526.356 145.544 526.353 145.228 526.353C144.71 526.353 144.208 526.388 143.725 526.458C143.248 526.528 142.831 526.644 142.474 526.805C142.116 526.959 141.829 527.162 141.611 527.415C141.394 527.667 141.286 527.979 141.286 528.35C141.286 528.764 141.485 529.146 141.885 529.496C142.291 529.84 142.926 530.012 143.788 530.012ZM163.374 531H159.326V529.728H160.189L158.254 526.889L156.34 529.728H157.129V531H153.133V529.728H154.658L157.35 526.027L154.763 522.494H153.344V521.201H157.371V522.494H156.467L158.254 525.165L160.062 522.494H159.074V521.201H163.143V522.494H161.766L159.179 526.027L161.871 529.728H163.374V531ZM176.873 526.132C176.873 526.896 176.75 527.59 176.505 528.214C176.267 528.838 175.92 529.374 175.464 529.822C175.016 530.264 174.476 530.611 173.845 530.863C173.214 531.116 172.51 531.242 171.732 531.242C170.968 531.242 170.27 531.116 169.639 530.863C169.008 530.611 168.465 530.264 168.01 529.822C167.561 529.374 167.214 528.838 166.969 528.214C166.73 527.59 166.611 526.896 166.611 526.132C166.611 525.389 166.73 524.698 166.969 524.061C167.214 523.416 167.561 522.869 168.01 522.42C168.465 521.965 169.008 521.611 169.639 521.358C170.27 521.099 170.968 520.969 171.732 520.969C172.51 520.969 173.214 521.099 173.845 521.358C174.476 521.611 175.016 521.965 175.464 522.42C175.92 522.869 176.267 523.416 176.505 524.061C176.75 524.698 176.873 525.389 176.873 526.132ZM175.433 526.132C175.433 525.571 175.349 525.056 175.18 524.586C175.019 524.11 174.777 523.693 174.455 523.335C174.132 522.978 173.74 522.697 173.277 522.494C172.822 522.291 172.306 522.189 171.732 522.189C171.157 522.189 170.638 522.291 170.176 522.494C169.72 522.697 169.334 522.978 169.019 523.335C168.704 523.693 168.462 524.11 168.293 524.586C168.132 525.056 168.052 525.571 168.052 526.132C168.052 526.693 168.132 527.211 168.293 527.688C168.462 528.158 168.704 528.564 169.019 528.908C169.334 529.251 169.72 529.521 170.176 529.717C170.638 529.914 171.157 530.012 171.732 530.012C172.306 530.012 172.822 529.914 173.277 529.717C173.74 529.521 174.132 529.251 174.455 528.908C174.777 528.564 175.019 528.158 175.18 527.688C175.349 527.211 175.433 526.693 175.433 526.132ZM183.138 525.49L180.131 521.201H181.74L184.473 525.333V521.201H185.924V525.333L188.658 521.201H190.267L187.26 525.49L190.267 531H188.721L186.439 526.605L185.924 527.362V531H184.473V527.362L183.958 526.605L181.676 531H180.131L183.138 525.49ZM193.777 529.77C194.106 529.7 194.422 529.51 194.723 529.202C195.024 528.894 195.287 528.466 195.512 527.919C195.736 527.373 195.915 526.71 196.048 525.932C196.188 525.147 196.258 524.246 196.258 523.23V521.201H201.61V529.77H203.576V534.354H202.283V531H195.07V534.354H193.777V529.77ZM197.699 523.23C197.699 524.043 197.639 524.807 197.52 525.522C197.408 526.23 197.257 526.864 197.068 527.425C196.886 527.986 196.675 528.47 196.437 528.876C196.199 529.276 195.964 529.574 195.732 529.77H200.17V522.431H197.699V523.23ZM208.695 526.605C208.8 527.642 209.179 528.47 209.83 529.086C210.482 529.703 211.331 530.012 212.375 530.012C213.111 530.012 213.766 529.861 214.341 529.56C214.916 529.258 215.347 528.883 215.634 528.435L216.644 529.128C216.153 529.815 215.568 530.341 214.888 530.706C214.208 531.063 213.37 531.242 212.375 531.242C211.618 531.242 210.924 531.116 210.293 530.863C209.662 530.611 209.116 530.26 208.653 529.812C208.197 529.356 207.843 528.817 207.591 528.193C207.339 527.569 207.212 526.875 207.212 526.111C207.212 525.368 207.325 524.684 207.549 524.061C207.78 523.43 208.11 522.886 208.537 522.431C208.972 521.968 209.498 521.611 210.114 521.358C210.731 521.099 211.422 520.969 212.186 520.969C213.02 520.969 213.749 521.11 214.373 521.39C214.997 521.67 215.515 522.059 215.929 522.557C216.349 523.048 216.658 523.636 216.854 524.323C217.057 525.01 217.159 525.771 217.159 526.605H208.695ZM215.634 525.375C215.473 524.302 215.084 523.503 214.467 522.978C213.85 522.452 213.09 522.189 212.186 522.189C211.723 522.189 211.295 522.266 210.903 522.42C210.51 522.568 210.163 522.781 209.862 523.062C209.561 523.342 209.308 523.682 209.105 524.082C208.902 524.474 208.772 524.905 208.716 525.375H215.634ZM230.016 531H228.565V526.605H222.688V531H221.247V521.201H222.688V525.375H228.565V521.201H230.016V531ZM237.848 527.078C236.684 527.022 235.79 526.763 235.167 526.3C234.543 525.83 234.231 525.115 234.231 524.155C234.231 523.132 234.578 522.385 235.272 521.916C235.973 521.439 236.975 521.201 238.279 521.201H243.494V531H242.043V527.078H239.698L236.123 531H234.084L237.848 527.078ZM235.671 524.155C235.671 524.702 235.903 525.122 236.365 525.417C236.835 525.711 237.48 525.858 238.3 525.858H242.043V522.431H238.3C237.48 522.431 236.835 522.582 236.365 522.883C235.903 523.184 235.671 523.608 235.671 524.155ZM261.68 521.201H263.121V529.107L268.42 521.201H270.449V531H268.998V522.736L263.468 531H261.68V521.201ZM291.054 525.375H296.406C296.266 524.443 295.88 523.679 295.249 523.083C294.618 522.487 293.784 522.189 292.747 522.189C292.018 522.189 291.369 522.333 290.802 522.62C290.234 522.907 289.799 523.289 289.498 523.766L288.489 523.072C288.902 522.427 289.466 521.916 290.181 521.537C290.903 521.159 291.759 520.969 292.747 520.969C293.511 520.969 294.212 521.096 294.85 521.348C295.488 521.593 296.031 521.944 296.479 522.399C296.935 522.848 297.289 523.391 297.541 524.029C297.794 524.66 297.92 525.354 297.92 526.111C297.92 526.875 297.794 527.569 297.541 528.193C297.289 528.817 296.935 529.356 296.479 529.812C296.031 530.26 295.488 530.611 294.85 530.863C294.212 531.116 293.511 531.242 292.747 531.242C291.759 531.242 290.903 531.056 290.181 530.685C289.466 530.306 288.902 529.794 288.489 529.149L289.498 528.456C289.799 528.932 290.234 529.311 290.802 529.591C291.369 529.871 292.018 530.012 292.747 530.012C293.826 530.012 294.689 529.693 295.333 529.055C295.978 528.417 296.353 527.6 296.458 526.605H291.054V525.375ZM311.398 525.827H310.167V522.431H307.223V529.77H309.431V531H303.554V529.77H305.772V522.431H302.828V525.827H301.598V521.201H311.398V525.827ZM315.055 528.35C315.055 527.734 315.209 527.218 315.518 526.805C315.826 526.384 316.229 526.055 316.727 525.816C317.231 525.571 317.806 525.396 318.451 525.291C319.103 525.179 319.765 525.122 320.438 525.122C320.698 525.122 320.929 525.126 321.132 525.133C321.342 525.14 321.539 525.151 321.721 525.165C321.91 525.179 322.099 525.196 322.289 525.217C322.478 525.238 322.685 525.263 322.909 525.291V524.586C322.909 524.11 322.804 523.717 322.594 523.409C322.39 523.1 322.138 522.858 321.837 522.683C321.535 522.501 321.22 522.375 320.89 522.305C320.561 522.228 320.281 522.189 320.049 522.189C319.32 522.189 318.647 522.287 318.03 522.483C317.414 522.68 316.839 522.943 316.306 523.272L315.654 522.189C316.243 521.832 316.902 521.541 317.631 521.316C318.367 521.085 319.173 520.969 320.049 520.969C320.582 520.969 321.104 521.039 321.616 521.18C322.135 521.313 322.597 521.523 323.004 521.81C323.417 522.091 323.747 522.462 323.992 522.925C324.237 523.388 324.36 523.941 324.36 524.586V531H322.909V529.36C322.657 529.675 322.369 529.952 322.047 530.19C321.731 530.429 321.399 530.625 321.048 530.779C320.698 530.926 320.347 531.039 319.997 531.116C319.646 531.2 319.313 531.242 318.998 531.242C317.701 531.242 316.72 530.993 316.054 530.495C315.388 529.998 315.055 529.283 315.055 528.35ZM318.998 530.012C319.601 530.012 320.14 529.924 320.617 529.749C321.101 529.567 321.511 529.342 321.847 529.076C322.184 528.81 322.443 528.526 322.625 528.224C322.814 527.923 322.909 527.649 322.909 527.404V526.479C322.439 526.409 321.987 526.37 321.553 526.363C321.125 526.356 320.754 526.353 320.438 526.353C319.92 526.353 319.418 526.388 318.935 526.458C318.458 526.528 318.041 526.644 317.683 526.805C317.326 526.959 317.039 527.162 316.821 527.415C316.604 527.667 316.495 527.979 316.495 528.35C316.495 528.764 316.695 529.146 317.095 529.496C317.501 529.84 318.136 530.012 318.998 530.012ZM331.392 525.49L328.385 521.201H329.994L332.728 525.333V521.201H334.179V525.333L336.912 521.201H338.521L335.514 525.49L338.521 531H336.976L334.694 526.605L334.179 527.362V531H332.728V527.362L332.213 526.605L329.931 531H328.385L331.392 525.49ZM59.5152 550.201H60.9557V558.107L66.2549 550.201H68.2841V560H66.8332V551.736L61.3026 560H59.5152V550.201ZM95.2395 560H93.7885V552.23L91.3808 557.308H90.3503L87.911 552.23V560H86.4706V550.201H88.3421L90.8655 555.311L93.368 550.201H95.2395V560ZM100.874 555.605C100.979 556.642 101.357 557.47 102.009 558.086C102.661 558.703 103.509 559.012 104.554 559.012C105.29 559.012 105.945 558.861 106.52 558.56C107.094 558.258 107.526 557.883 107.813 557.435L108.822 558.128C108.332 558.815 107.746 559.341 107.066 559.706C106.387 560.063 105.549 560.242 104.554 560.242C103.796 560.242 103.103 560.116 102.472 559.863C101.841 559.611 101.294 559.26 100.831 558.812C100.376 558.356 100.022 557.817 99.7695 557.193C99.5172 556.569 99.391 555.875 99.391 555.111C99.391 554.368 99.5031 553.684 99.7274 553.061C99.9588 552.43 100.288 551.886 100.716 551.431C101.15 550.968 101.676 550.611 102.293 550.358C102.91 550.099 103.6 549.969 104.364 549.969C105.198 549.969 105.927 550.11 106.551 550.39C107.175 550.67 107.694 551.059 108.107 551.557C108.528 552.048 108.836 552.636 109.033 553.323C109.236 554.01 109.338 554.771 109.338 555.605H100.874ZM107.813 554.375C107.652 553.302 107.263 552.503 106.646 551.978C106.029 551.452 105.268 551.189 104.364 551.189C103.902 551.189 103.474 551.266 103.082 551.42C102.689 551.568 102.342 551.781 102.041 552.062C101.739 552.342 101.487 552.682 101.284 553.082C101.08 553.474 100.951 553.905 100.895 554.375H107.813ZM122.342 558.149C121.929 558.794 121.361 559.306 120.639 559.685C119.924 560.056 119.072 560.242 118.084 560.242C117.32 560.242 116.619 560.116 115.981 559.863C115.343 559.611 114.796 559.26 114.341 558.812C113.892 558.356 113.542 557.817 113.289 557.193C113.037 556.569 112.911 555.875 112.911 555.111C112.911 554.368 113.026 553.681 113.258 553.05C113.489 552.412 113.818 551.869 114.246 551.42C114.674 550.965 115.196 550.611 115.813 550.358C116.437 550.099 117.127 549.969 117.884 549.969C118.185 549.969 118.494 550.004 118.809 550.074C119.125 550.145 119.423 550.253 119.703 550.4C119.983 550.541 120.236 550.712 120.46 550.916C120.684 551.112 120.853 551.347 120.965 551.62V550.201H122.258V554.122H120.965C120.965 553.688 120.884 553.292 120.723 552.934C120.569 552.577 120.355 552.268 120.081 552.009C119.808 551.75 119.482 551.55 119.104 551.41C118.725 551.263 118.319 551.189 117.884 551.189C117.295 551.189 116.78 551.291 116.338 551.494C115.904 551.697 115.539 551.974 115.245 552.325C114.95 552.675 114.726 553.089 114.572 553.565C114.425 554.035 114.351 554.55 114.351 555.111C114.351 555.672 114.435 556.19 114.604 556.667C114.779 557.137 115.028 557.543 115.35 557.887C115.679 558.23 116.072 558.503 116.528 558.707C116.99 558.91 117.509 559.012 118.084 559.012C118.813 559.012 119.461 558.871 120.029 558.591C120.597 558.311 121.031 557.932 121.333 557.456L122.342 558.149ZM136.188 554.827H134.958V551.431H132.014V558.77H134.222V560H128.344V558.77H130.563V551.431H127.619V554.827H126.388V550.201H136.188V554.827ZM149.918 555.132C149.918 555.896 149.795 556.59 149.55 557.214C149.311 557.838 148.964 558.374 148.509 558.822C148.06 559.264 147.521 559.611 146.89 559.863C146.259 560.116 145.554 560.242 144.776 560.242C144.012 560.242 143.315 560.116 142.684 559.863C142.053 559.611 141.51 559.264 141.054 558.822C140.606 558.374 140.259 557.838 140.013 557.214C139.775 556.59 139.656 555.896 139.656 555.132C139.656 554.389 139.775 553.698 140.013 553.061C140.259 552.416 140.606 551.869 141.054 551.42C141.51 550.965 142.053 550.611 142.684 550.358C143.315 550.099 144.012 549.969 144.776 549.969C145.554 549.969 146.259 550.099 146.89 550.358C147.521 550.611 148.06 550.965 148.509 551.42C148.964 551.869 149.311 552.416 149.55 553.061C149.795 553.698 149.918 554.389 149.918 555.132ZM148.477 555.132C148.477 554.571 148.393 554.056 148.225 553.586C148.064 553.11 147.822 552.693 147.499 552.335C147.177 551.978 146.785 551.697 146.322 551.494C145.866 551.291 145.351 551.189 144.776 551.189C144.201 551.189 143.683 551.291 143.22 551.494C142.765 551.697 142.379 551.978 142.064 552.335C141.748 552.693 141.506 553.11 141.338 553.586C141.177 554.056 141.096 554.571 141.096 555.132C141.096 555.693 141.177 556.211 141.338 556.688C141.506 557.158 141.748 557.564 142.064 557.908C142.379 558.251 142.765 558.521 143.22 558.717C143.683 558.914 144.201 559.012 144.776 559.012C145.351 559.012 145.866 558.914 146.322 558.717C146.785 558.521 147.177 558.251 147.499 557.908C147.822 557.564 148.064 557.158 148.225 556.688C148.393 556.211 148.477 555.693 148.477 555.132ZM176.6 557.203C176.6 558.149 176.249 558.854 175.548 559.317C174.854 559.772 173.856 560 172.552 560H167.337V550.201H172.226C172.702 550.201 173.172 550.239 173.635 550.316C174.104 550.386 174.521 550.516 174.886 550.705C175.25 550.888 175.548 551.143 175.78 551.473C176.011 551.802 176.127 552.233 176.127 552.766C176.127 553.271 176.004 553.695 175.759 554.038C175.513 554.382 175.033 554.645 174.318 554.827C175.194 555.03 175.794 555.332 176.116 555.731C176.439 556.124 176.6 556.614 176.6 557.203ZM174.686 552.85C174.686 552.549 174.606 552.307 174.444 552.125C174.283 551.936 174.083 551.792 173.845 551.694C173.614 551.589 173.354 551.518 173.067 551.483C172.78 551.448 172.499 551.431 172.226 551.431H168.777V554.249H172.226C172.513 554.249 172.804 554.231 173.098 554.196C173.393 554.161 173.659 554.091 173.898 553.986C174.136 553.874 174.325 553.73 174.465 553.555C174.613 553.372 174.686 553.138 174.686 552.85ZM175.159 557.14C175.159 556.565 174.924 556.145 174.455 555.878C173.985 555.612 173.344 555.479 172.531 555.479H168.777V558.77H172.531C173.344 558.77 173.985 558.633 174.455 558.36C174.924 558.086 175.159 557.68 175.159 557.14ZM190.351 555.132C190.351 555.896 190.228 556.59 189.983 557.214C189.744 557.838 189.398 558.374 188.942 558.822C188.493 559.264 187.954 559.611 187.323 559.863C186.692 560.116 185.987 560.242 185.209 560.242C184.445 560.242 183.748 560.116 183.117 559.863C182.486 559.611 181.943 559.264 181.487 558.822C181.039 558.374 180.692 557.838 180.446 557.214C180.208 556.59 180.089 555.896 180.089 555.132C180.089 554.389 180.208 553.698 180.446 553.061C180.692 552.416 181.039 551.869 181.487 551.42C181.943 550.965 182.486 550.611 183.117 550.358C183.748 550.099 184.445 549.969 185.209 549.969C185.987 549.969 186.692 550.099 187.323 550.358C187.954 550.611 188.493 550.965 188.942 551.42C189.398 551.869 189.744 552.416 189.983 553.061C190.228 553.698 190.351 554.389 190.351 555.132ZM188.91 555.132C188.91 554.571 188.826 554.056 188.658 553.586C188.497 553.11 188.255 552.693 187.933 552.335C187.61 551.978 187.218 551.697 186.755 551.494C186.299 551.291 185.784 551.189 185.209 551.189C184.635 551.189 184.116 551.291 183.653 551.494C183.198 551.697 182.812 551.978 182.497 552.335C182.181 552.693 181.939 553.11 181.771 553.586C181.61 554.056 181.529 554.571 181.529 555.132C181.529 555.693 181.61 556.211 181.771 556.688C181.939 557.158 182.181 557.564 182.497 557.908C182.812 558.251 183.198 558.521 183.653 558.717C184.116 558.914 184.635 559.012 185.209 559.012C185.784 559.012 186.299 558.914 186.755 558.717C187.218 558.521 187.61 558.251 187.933 557.908C188.255 557.564 188.497 557.158 188.658 556.688C188.826 556.211 188.91 555.693 188.91 555.132ZM203.061 552.892C203.061 553.369 202.893 553.818 202.556 554.238C202.227 554.652 201.719 554.915 201.032 555.027C201.677 555.153 202.195 555.426 202.588 555.847C202.987 556.26 203.187 556.72 203.187 557.224C203.187 557.694 203.061 558.118 202.809 558.496C202.556 558.868 202.209 559.183 201.768 559.443C201.333 559.702 200.818 559.898 200.222 560.032C199.626 560.172 198.978 560.242 198.277 560.242C197.155 560.242 196.23 560.07 195.501 559.727C194.779 559.376 194.197 558.85 193.756 558.149L194.765 557.456C195.095 557.96 195.547 558.346 196.121 558.612C196.696 558.878 197.415 559.012 198.277 559.012C199.307 559.012 200.141 558.854 200.779 558.539C201.424 558.223 201.747 557.785 201.747 557.224C201.747 557.035 201.684 556.846 201.557 556.656C201.438 556.46 201.259 556.288 201.021 556.141C200.783 555.987 200.488 555.864 200.138 555.773C199.787 555.675 199.374 555.626 198.897 555.626H197.257V554.406H198.897C199.816 554.406 200.495 554.245 200.937 553.923C201.386 553.593 201.61 553.25 201.61 552.892C201.61 552.374 201.323 551.96 200.748 551.652C200.18 551.343 199.398 551.189 198.403 551.189C197.576 551.189 196.893 551.336 196.353 551.631C195.813 551.925 195.4 552.318 195.112 552.808L194.04 552.072C194.467 551.371 195.032 550.846 195.732 550.495C196.44 550.145 197.331 549.969 198.403 549.969C199.083 549.969 199.703 550.039 200.264 550.18C200.832 550.313 201.323 550.506 201.736 550.758C202.157 551.003 202.483 551.312 202.714 551.683C202.945 552.048 203.061 552.451 203.061 552.892ZM207.77 550.201H217.054V551.431H209.21V560H207.77V550.201ZM230.784 555.132C230.784 555.896 230.661 556.59 230.416 557.214C230.178 557.838 229.831 558.374 229.375 558.822C228.926 559.264 228.387 559.611 227.756 559.863C227.125 560.116 226.42 560.242 225.642 560.242C224.878 560.242 224.181 560.116 223.55 559.863C222.919 559.611 222.376 559.264 221.92 558.822C221.472 558.374 221.125 557.838 220.879 557.214C220.641 556.59 220.522 555.896 220.522 555.132C220.522 554.389 220.641 553.698 220.879 553.061C221.125 552.416 221.472 551.869 221.92 551.42C222.376 550.965 222.919 550.611 223.55 550.358C224.181 550.099 224.878 549.969 225.642 549.969C226.42 549.969 227.125 550.099 227.756 550.358C228.387 550.611 228.926 550.965 229.375 551.42C229.831 551.869 230.178 552.416 230.416 553.061C230.661 553.698 230.784 554.389 230.784 555.132ZM229.343 555.132C229.343 554.571 229.259 554.056 229.091 553.586C228.93 553.11 228.688 552.693 228.366 552.335C228.043 551.978 227.651 551.697 227.188 551.494C226.732 551.291 226.217 551.189 225.642 551.189C225.068 551.189 224.549 551.291 224.086 551.494C223.631 551.697 223.245 551.978 222.93 552.335C222.614 552.693 222.372 553.11 222.204 553.586C222.043 554.056 221.962 554.571 221.962 555.132C221.962 555.693 222.043 556.211 222.204 556.688C222.372 557.158 222.614 557.564 222.93 557.908C223.245 558.251 223.631 558.521 224.086 558.717C224.549 558.914 225.068 559.012 225.642 559.012C226.217 559.012 226.732 558.914 227.188 558.717C227.651 558.521 228.043 558.251 228.366 557.908C228.688 557.564 228.93 557.158 229.091 556.688C229.259 556.211 229.343 555.693 229.343 555.132ZM244.009 555.111C244.009 555.875 243.89 556.569 243.652 557.193C243.413 557.817 243.077 558.356 242.642 558.812C242.215 559.26 241.696 559.611 241.086 559.863C240.476 560.116 239.793 560.242 239.036 560.242C238.517 560.242 238.013 560.147 237.522 559.958C237.038 559.769 236.586 559.488 236.166 559.117V563.922H234.725V550.201H236.166V551.105C237.056 550.348 238.013 549.969 239.036 549.969C239.793 549.969 240.476 550.096 241.086 550.348C241.696 550.593 242.215 550.947 242.642 551.41C243.077 551.865 243.413 552.412 243.652 553.05C243.89 553.681 244.009 554.368 244.009 555.111ZM242.569 555.111C242.569 554.564 242.492 554.052 242.337 553.576C242.19 553.092 241.966 552.675 241.664 552.325C241.363 551.974 240.992 551.697 240.55 551.494C240.115 551.291 239.611 551.189 239.036 551.189C238.489 551.189 237.977 551.291 237.501 551.494C237.031 551.697 236.586 552.027 236.166 552.482V557.739C236.586 558.195 237.031 558.521 237.501 558.717C237.977 558.914 238.489 559.012 239.036 559.012C239.611 559.012 240.115 558.91 240.55 558.707C240.992 558.503 241.363 558.227 241.664 557.876C241.966 557.526 242.19 557.116 242.337 556.646C242.492 556.169 242.569 555.658 242.569 555.111ZM247.667 557.35C247.667 556.734 247.821 556.218 248.129 555.805C248.438 555.384 248.841 555.055 249.338 554.816C249.843 554.571 250.418 554.396 251.063 554.291C251.715 554.179 252.377 554.122 253.05 554.122C253.309 554.122 253.541 554.126 253.744 554.133C253.954 554.14 254.15 554.151 254.333 554.165C254.522 554.179 254.711 554.196 254.9 554.217C255.09 554.238 255.296 554.263 255.521 554.291V553.586C255.521 553.11 255.416 552.717 255.205 552.409C255.002 552.1 254.75 551.858 254.448 551.683C254.147 551.501 253.831 551.375 253.502 551.305C253.173 551.228 252.892 551.189 252.661 551.189C251.932 551.189 251.259 551.287 250.642 551.483C250.025 551.68 249.45 551.943 248.918 552.272L248.266 551.189C248.855 550.832 249.514 550.541 250.243 550.316C250.979 550.085 251.785 549.969 252.661 549.969C253.194 549.969 253.716 550.039 254.227 550.18C254.746 550.313 255.209 550.523 255.615 550.81C256.029 551.091 256.358 551.462 256.604 551.925C256.849 552.388 256.972 552.941 256.972 553.586V560H255.521V558.36C255.268 558.675 254.981 558.952 254.659 559.19C254.343 559.429 254.01 559.625 253.66 559.779C253.309 559.926 252.959 560.039 252.608 560.116C252.258 560.2 251.925 560.242 251.609 560.242C250.313 560.242 249.331 559.993 248.665 559.495C247.999 558.998 247.667 558.283 247.667 557.35ZM251.609 559.012C252.212 559.012 252.752 558.924 253.229 558.749C253.712 558.567 254.122 558.342 254.459 558.076C254.795 557.81 255.055 557.526 255.237 557.224C255.426 556.923 255.521 556.649 255.521 556.404V555.479C255.051 555.409 254.599 555.37 254.164 555.363C253.737 555.356 253.365 555.353 253.05 555.353C252.531 555.353 252.03 555.388 251.546 555.458C251.07 555.528 250.653 555.644 250.295 555.805C249.938 555.959 249.65 556.162 249.433 556.415C249.216 556.667 249.107 556.979 249.107 557.35C249.107 557.764 249.307 558.146 249.706 558.496C250.113 558.84 250.747 559.012 251.609 559.012ZM270.449 560H268.998V555.605H263.121V560H261.68V550.201H263.121V554.375H268.998V550.201H270.449V560ZM275.158 550.201H276.599V558.107L281.898 550.201H283.927V560H282.476V551.736L276.946 560H275.158V550.201ZM291.759 556.078C290.595 556.022 289.701 555.763 289.077 555.3C288.454 554.83 288.142 554.115 288.142 553.155C288.142 552.132 288.489 551.385 289.183 550.916C289.883 550.439 290.886 550.201 292.19 550.201H297.405V560H295.954V556.078H293.609L290.034 560H287.994L291.759 556.078ZM289.582 553.155C289.582 553.702 289.813 554.122 290.276 554.417C290.746 554.711 291.391 554.858 292.211 554.858H295.954V551.431H292.211C291.391 551.431 290.746 551.582 290.276 551.883C289.813 552.184 289.582 552.608 289.582 553.155ZM68.4313 586.149C68.0178 586.794 67.45 587.306 66.728 587.685C66.0131 588.056 65.1614 588.242 64.173 588.242C63.409 588.242 62.7081 588.116 62.0702 587.863C61.4323 587.611 60.8856 587.26 60.4299 586.812C59.9813 586.356 59.6309 585.817 59.3785 585.193C59.1262 584.569 59 583.875 59 583.111C59 582.368 59.1157 581.681 59.347 581.05C59.5783 580.412 59.9077 579.869 60.3353 579.42C60.7629 578.965 61.2851 578.611 61.902 578.358C62.5258 578.099 63.2162 577.969 63.9733 577.969C64.2747 577.969 64.5831 578.004 64.8985 578.074C65.214 578.145 65.5119 578.253 65.7923 578.4C66.0726 578.541 66.325 578.712 66.5493 578.916C66.7736 579.112 66.9418 579.347 67.054 579.62V578.201H68.3472V582.122H67.054C67.054 581.688 66.9734 581.292 66.8121 580.934C66.6579 580.577 66.4441 580.268 66.1708 580.009C65.8974 579.75 65.5715 579.55 65.1929 579.41C64.8144 579.263 64.4079 579.189 63.9733 579.189C63.3845 579.189 62.8693 579.291 62.4277 579.494C61.9931 579.697 61.6286 579.974 61.3342 580.325C61.0398 580.675 60.8155 581.089 60.6613 581.565C60.5141 582.035 60.4405 582.55 60.4405 583.111C60.4405 583.672 60.5246 584.19 60.6928 584.667C60.868 585.137 61.1169 585.543 61.4393 585.887C61.7688 586.23 62.1613 586.503 62.6169 586.707C63.0796 586.91 63.5983 587.012 64.173 587.012C64.902 587.012 65.5504 586.871 66.1182 586.591C66.686 586.311 67.1206 585.932 67.422 585.456L68.4313 586.149ZM82.256 585.203C82.256 586.149 81.9055 586.854 81.2046 587.317C80.5106 587.772 79.5118 588 78.208 588H72.9929V578.201H77.882C78.3587 578.201 78.8283 578.239 79.291 578.316C79.7606 578.386 80.1777 578.516 80.5422 578.705C80.9067 578.888 81.2046 579.143 81.4359 579.473C81.6672 579.802 81.7829 580.233 81.7829 580.766C81.7829 581.271 81.6602 581.695 81.4149 582.038C81.1695 582.382 80.6894 582.645 79.9744 582.827C80.8506 583.03 81.4499 583.332 81.7723 583.731C82.0948 584.124 82.256 584.614 82.256 585.203ZM80.3424 580.85C80.3424 580.549 80.2618 580.307 80.1006 580.125C79.9393 579.936 79.7396 579.792 79.5012 579.694C79.2699 579.589 79.0106 579.518 78.7232 579.483C78.4358 579.448 78.1554 579.431 77.882 579.431H74.4333V582.249H77.882C78.1694 582.249 78.4603 582.231 78.7547 582.196C79.0491 582.161 79.3155 582.091 79.5538 581.986C79.7921 581.874 79.9814 581.73 80.1216 581.555C80.2688 581.372 80.3424 581.138 80.3424 580.85ZM80.8155 585.14C80.8155 584.565 80.5807 584.145 80.1111 583.878C79.6414 583.612 79.0001 583.479 78.187 583.479H74.4333V586.77H78.187C79.0001 586.77 79.6414 586.633 80.1111 586.36C80.5807 586.086 80.8155 585.68 80.8155 585.14ZM96.0071 583.132C96.0071 583.896 95.8844 584.59 95.6391 585.214C95.4007 585.838 95.0538 586.374 94.5981 586.822C94.1495 587.264 93.6098 587.611 92.9789 587.863C92.3481 588.116 91.6436 588.242 90.8655 588.242C90.1015 588.242 89.4041 588.116 88.7732 587.863C88.1423 587.611 87.5991 587.264 87.1435 586.822C86.6949 586.374 86.3479 585.838 86.1026 585.214C85.8642 584.59 85.7451 583.896 85.7451 583.132C85.7451 582.389 85.8642 581.698 86.1026 581.061C86.3479 580.416 86.6949 579.869 87.1435 579.42C87.5991 578.965 88.1423 578.611 88.7732 578.358C89.4041 578.099 90.1015 577.969 90.8655 577.969C91.6436 577.969 92.3481 578.099 92.9789 578.358C93.6098 578.611 94.1495 578.965 94.5981 579.42C95.0538 579.869 95.4007 580.416 95.6391 581.061C95.8844 581.698 96.0071 582.389 96.0071 583.132ZM94.5666 583.132C94.5666 582.571 94.4825 582.056 94.3142 581.586C94.153 581.11 93.9112 580.693 93.5888 580.335C93.2663 579.978 92.8738 579.697 92.4112 579.494C91.9555 579.291 91.4403 579.189 90.8655 579.189C90.2908 579.189 89.7721 579.291 89.3094 579.494C88.8538 579.697 88.4683 579.978 88.1529 580.335C87.8374 580.693 87.5956 581.11 87.4274 581.586C87.2661 582.056 87.1855 582.571 87.1855 583.132C87.1855 583.693 87.2661 584.211 87.4274 584.688C87.5956 585.158 87.8374 585.564 88.1529 585.908C88.4683 586.251 88.8538 586.521 89.3094 586.717C89.7721 586.914 90.2908 587.012 90.8655 587.012C91.4403 587.012 91.9555 586.914 92.4112 586.717C92.8738 586.521 93.2663 586.251 93.5888 585.908C93.9112 585.564 94.153 585.158 94.3142 584.688C94.4825 584.211 94.5666 583.693 94.5666 583.132ZM99.9482 578.201H101.389V582.49H103.376C103.502 579.476 104.476 577.969 106.299 577.969C108.255 577.969 109.232 579.683 109.232 583.111C109.232 586.531 108.255 588.242 106.299 588.242C104.448 588.242 103.474 586.731 103.376 583.71H101.389V588H99.9482V578.201ZM106.299 587.075C107.294 587.075 107.792 585.753 107.792 583.111C107.792 580.482 107.294 579.168 106.299 579.168C105.311 579.168 104.816 580.482 104.816 583.111C104.816 585.753 105.311 587.075 106.299 587.075ZM130.563 580.188C130.163 579.522 129.669 579.189 129.08 579.189C128.561 579.189 128.172 579.49 127.913 580.093C127.661 580.696 127.534 581.702 127.534 583.111C127.534 584.52 127.661 585.522 127.913 586.118C128.172 586.714 128.561 587.012 129.08 587.012C129.669 587.012 130.163 586.682 130.563 586.023V580.188ZM130.563 587.338C130.191 587.94 129.697 588.242 129.08 588.242C128.078 588.242 127.328 587.8 126.83 586.917C126.332 586.034 126.083 584.765 126.083 583.111C126.083 581.464 126.332 580.195 126.83 579.305C127.328 578.414 128.078 577.969 129.08 577.969C129.697 577.969 130.191 578.271 130.563 578.874V574.279H132.014V578.874C132.385 578.271 132.879 577.969 133.496 577.969C134.498 577.969 135.248 578.414 135.746 579.305C136.244 580.195 136.493 581.464 136.493 583.111C136.493 584.765 136.244 586.034 135.746 586.917C135.248 587.8 134.498 588.242 133.496 588.242C132.879 588.242 132.385 587.94 132.014 587.338V591.922H130.563V587.338ZM132.014 586.023C132.413 586.682 132.907 587.012 133.496 587.012C134.015 587.012 134.4 586.714 134.653 586.118C134.912 585.522 135.042 584.52 135.042 583.111C135.042 581.702 134.912 580.696 134.653 580.093C134.4 579.49 134.015 579.189 133.496 579.189C132.907 579.189 132.413 579.522 132.014 580.188V586.023ZM139.845 585.35C139.845 584.734 139.999 584.218 140.308 583.805C140.616 583.384 141.019 583.055 141.517 582.816C142.022 582.571 142.596 582.396 143.241 582.291C143.893 582.179 144.555 582.122 145.228 582.122C145.488 582.122 145.719 582.126 145.922 582.133C146.133 582.14 146.329 582.151 146.511 582.165C146.7 582.179 146.89 582.196 147.079 582.217C147.268 582.238 147.475 582.263 147.699 582.291V581.586C147.699 581.11 147.594 580.717 147.384 580.409C147.181 580.1 146.928 579.858 146.627 579.683C146.325 579.501 146.01 579.375 145.681 579.305C145.351 579.228 145.071 579.189 144.839 579.189C144.11 579.189 143.437 579.287 142.821 579.483C142.204 579.68 141.629 579.943 141.096 580.272L140.444 579.189C141.033 578.832 141.692 578.541 142.421 578.316C143.157 578.085 143.963 577.969 144.839 577.969C145.372 577.969 145.894 578.039 146.406 578.18C146.925 578.313 147.387 578.523 147.794 578.81C148.207 579.091 148.537 579.462 148.782 579.925C149.028 580.388 149.15 580.941 149.15 581.586V588H147.699V586.36C147.447 586.675 147.16 586.952 146.837 587.19C146.522 587.429 146.189 587.625 145.838 587.779C145.488 587.926 145.137 588.039 144.787 588.116C144.436 588.2 144.103 588.242 143.788 588.242C142.491 588.242 141.51 587.993 140.844 587.495C140.178 586.998 139.845 586.283 139.845 585.35ZM143.788 587.012C144.391 587.012 144.93 586.924 145.407 586.749C145.891 586.567 146.301 586.342 146.637 586.076C146.974 585.81 147.233 585.526 147.415 585.224C147.605 584.923 147.699 584.649 147.699 584.404V583.479C147.23 583.409 146.777 583.37 146.343 583.363C145.915 583.356 145.544 583.353 145.228 583.353C144.71 583.353 144.208 583.388 143.725 583.458C143.248 583.528 142.831 583.644 142.474 583.805C142.116 583.959 141.829 584.162 141.611 584.415C141.394 584.667 141.286 584.979 141.286 585.35C141.286 585.764 141.485 586.146 141.885 586.496C142.291 586.84 142.926 587.012 143.788 587.012ZM162.628 588H161.177V580.23L158.769 585.308H157.739L155.299 580.23V588H153.859V578.201H155.731L158.254 583.311L160.756 578.201H162.628V588ZM167.337 578.201H168.777V586.107L174.076 578.201H176.106V588H174.655V579.736L169.124 588H167.337V578.201ZM189.583 578.201V588H188.132V579.431H183.706V585.824C183.706 586.209 183.639 586.553 183.506 586.854C183.38 587.155 183.208 587.408 182.991 587.611C182.773 587.814 182.521 587.968 182.234 588.074C181.946 588.186 181.645 588.242 181.33 588.242C180.741 588.242 180.31 588.154 180.036 587.979L180.32 586.833C180.418 586.896 180.527 586.942 180.646 586.97C180.772 586.998 180.937 587.012 181.14 587.012C181.883 587.012 182.255 586.616 182.255 585.824V578.201H189.583ZM194.292 578.201H195.732V586.107L201.032 578.201H203.061V588H201.61V579.736L196.079 588H194.292V578.201ZM207.77 578.201H209.21V582.49H211.197C211.324 579.476 212.298 577.969 214.12 577.969C216.076 577.969 217.054 579.683 217.054 583.111C217.054 586.531 216.076 588.242 214.12 588.242C212.27 588.242 211.295 586.731 211.197 583.71H209.21V588H207.77V578.201ZM214.12 587.075C215.116 587.075 215.613 585.753 215.613 583.111C215.613 580.482 215.116 579.168 214.12 579.168C213.132 579.168 212.638 580.482 212.638 583.111C212.638 585.753 213.132 587.075 214.12 587.075ZM234.725 578.201H236.166V586.107L241.465 578.201H243.494V588H242.043V579.736L236.512 588H234.725V578.201ZM270.965 582.827H269.734V579.431H266.79V586.77H268.998V588H263.121V586.77H265.339V579.431H262.395V582.827H261.165V578.201H270.965V582.827ZM276.083 583.605C276.188 584.642 276.567 585.47 277.219 586.086C277.871 586.703 278.719 587.012 279.763 587.012C280.499 587.012 281.155 586.861 281.73 586.56C282.304 586.258 282.735 585.883 283.023 585.435L284.032 586.128C283.542 586.815 282.956 587.341 282.276 587.706C281.596 588.063 280.759 588.242 279.763 588.242C279.006 588.242 278.312 588.116 277.682 587.863C277.051 587.611 276.504 587.26 276.041 586.812C275.586 586.356 275.232 585.817 274.979 585.193C274.727 584.569 274.601 583.875 274.601 583.111C274.601 582.368 274.713 581.684 274.937 581.061C275.169 580.43 275.498 579.886 275.926 579.431C276.36 578.968 276.886 578.611 277.503 578.358C278.12 578.099 278.81 577.969 279.574 577.969C280.408 577.969 281.137 578.11 281.761 578.39C282.385 578.67 282.904 579.059 283.317 579.557C283.738 580.048 284.046 580.636 284.242 581.323C284.446 582.01 284.547 582.771 284.547 583.605H276.083ZM283.023 582.375C282.862 581.302 282.473 580.503 281.856 579.978C281.239 579.452 280.478 579.189 279.574 579.189C279.111 579.189 278.684 579.266 278.291 579.42C277.899 579.568 277.552 579.781 277.25 580.062C276.949 580.342 276.697 580.682 276.493 581.082C276.29 581.474 276.16 581.905 276.104 582.375H283.023ZM297.405 578.201V588H295.954V579.431H291.527V585.824C291.527 586.209 291.461 586.553 291.327 586.854C291.201 587.155 291.03 587.408 290.812 587.611C290.595 587.814 290.343 587.968 290.055 588.074C289.768 588.186 289.466 588.242 289.151 588.242C288.562 588.242 288.131 588.154 287.858 587.979L288.142 586.833C288.24 586.896 288.348 586.942 288.468 586.97C288.594 586.998 288.758 587.012 288.962 587.012C289.705 587.012 290.076 586.616 290.076 585.824V578.201H297.405ZM303.039 583.605C303.144 584.642 303.522 585.47 304.174 586.086C304.826 586.703 305.674 587.012 306.719 587.012C307.455 587.012 308.11 586.861 308.685 586.56C309.26 586.258 309.691 585.883 309.978 585.435L310.988 586.128C310.497 586.815 309.912 587.341 309.232 587.706C308.552 588.063 307.714 588.242 306.719 588.242C305.962 588.242 305.268 588.116 304.637 587.863C304.006 587.611 303.459 587.26 302.997 586.812C302.541 586.356 302.187 585.817 301.935 585.193C301.682 584.569 301.556 583.875 301.556 583.111C301.556 582.368 301.668 581.684 301.893 581.061C302.124 580.43 302.453 579.886 302.881 579.431C303.316 578.968 303.841 578.611 304.458 578.358C305.075 578.099 305.765 577.969 306.529 577.969C307.364 577.969 308.093 578.11 308.716 578.39C309.34 578.67 309.859 579.059 310.273 579.557C310.693 580.048 311.002 580.636 311.198 581.323C311.401 582.01 311.503 582.771 311.503 583.605H303.039ZM309.978 582.375C309.817 581.302 309.428 580.503 308.811 579.978C308.194 579.452 307.434 579.189 306.529 579.189C306.067 579.189 305.639 579.266 305.247 579.42C304.854 579.568 304.507 579.781 304.206 580.062C303.904 580.342 303.652 580.682 303.449 581.082C303.245 581.474 303.116 581.905 303.06 582.375H309.978ZM319.25 580.188C318.851 579.522 318.356 579.189 317.768 579.189C317.249 579.189 316.86 579.49 316.601 580.093C316.348 580.696 316.222 581.702 316.222 583.111C316.222 584.52 316.348 585.522 316.601 586.118C316.86 586.714 317.249 587.012 317.768 587.012C318.356 587.012 318.851 586.682 319.25 586.023V580.188ZM319.25 587.338C318.879 587.94 318.384 588.242 317.768 588.242C316.765 588.242 316.015 587.8 315.518 586.917C315.02 586.034 314.771 584.765 314.771 583.111C314.771 581.464 315.02 580.195 315.518 579.305C316.015 578.414 316.765 577.969 317.768 577.969C318.384 577.969 318.879 578.271 319.25 578.874V574.279H320.701V578.874C321.073 578.271 321.567 577.969 322.184 577.969C323.186 577.969 323.936 578.414 324.434 579.305C324.931 580.195 325.18 581.464 325.18 583.111C325.18 584.765 324.931 586.034 324.434 586.917C323.936 587.8 323.186 588.242 322.184 588.242C321.567 588.242 321.073 587.94 320.701 587.338V591.922H319.25V587.338ZM320.701 586.023C321.101 586.682 321.595 587.012 322.184 587.012C322.702 587.012 323.088 586.714 323.34 586.118C323.6 585.522 323.729 584.52 323.729 583.111C323.729 581.702 323.6 580.696 323.34 580.093C323.088 579.49 322.702 579.189 322.184 579.189C321.595 579.189 321.101 579.522 320.701 580.188V586.023ZM338.605 583.132C338.605 583.896 338.483 584.59 338.237 585.214C337.999 585.838 337.652 586.374 337.196 586.822C336.748 587.264 336.208 587.611 335.577 587.863C334.946 588.116 334.242 588.242 333.464 588.242C332.7 588.242 332.002 588.116 331.371 587.863C330.741 587.611 330.197 587.264 329.742 586.822C329.293 586.374 328.946 585.838 328.701 585.214C328.462 584.59 328.343 583.896 328.343 583.132C328.343 582.389 328.462 581.698 328.701 581.061C328.946 580.416 329.293 579.869 329.742 579.42C330.197 578.965 330.741 578.611 331.371 578.358C332.002 578.099 332.7 577.969 333.464 577.969C334.242 577.969 334.946 578.099 335.577 578.358C336.208 578.611 336.748 578.965 337.196 579.42C337.652 579.869 337.999 580.416 338.237 581.061C338.483 581.698 338.605 582.389 338.605 583.132ZM337.165 583.132C337.165 582.571 337.081 582.056 336.912 581.586C336.751 581.11 336.509 580.693 336.187 580.335C335.865 579.978 335.472 579.697 335.009 579.494C334.554 579.291 334.039 579.189 333.464 579.189C332.889 579.189 332.37 579.291 331.908 579.494C331.452 579.697 331.067 579.978 330.751 580.335C330.436 580.693 330.194 581.11 330.026 581.586C329.864 582.056 329.784 582.571 329.784 583.132C329.784 583.693 329.864 584.211 330.026 584.688C330.194 585.158 330.436 585.564 330.751 585.908C331.067 586.251 331.452 586.521 331.908 586.717C332.37 586.914 332.889 587.012 333.464 587.012C334.039 587.012 334.554 586.914 335.009 586.717C335.472 586.521 335.865 586.251 336.187 585.908C336.509 585.564 336.751 585.158 336.912 584.688C337.081 584.211 337.165 583.693 337.165 583.132ZM351.315 588H349.864V583.605H343.987V588H342.546V578.201H343.987V582.375H349.864V578.201H351.315V588Z" fill="white"/>
<path d="M340.281 702.719H333V701.805H340.281V702.719ZM349.913 706H348.835V699.633H344.467V706H343.397V698.719H349.913V706ZM360.31 702.367C360.31 702.935 360.221 703.451 360.044 703.914C359.867 704.378 359.617 704.779 359.294 705.117C358.977 705.451 358.591 705.711 358.138 705.898C357.685 706.086 357.177 706.18 356.615 706.18C356.229 706.18 355.854 706.109 355.49 705.969C355.13 705.828 354.794 705.62 354.482 705.344V708.914H353.412V698.719H354.482V699.391C355.143 698.828 355.854 698.547 356.615 698.547C357.177 698.547 357.685 698.641 358.138 698.828C358.591 699.01 358.977 699.273 359.294 699.617C359.617 699.956 359.867 700.362 360.044 700.836C360.221 701.305 360.31 701.815 360.31 702.367ZM359.24 702.367C359.24 701.961 359.182 701.581 359.068 701.227C358.958 700.867 358.792 700.557 358.568 700.297C358.344 700.036 358.068 699.831 357.74 699.68C357.417 699.529 357.042 699.453 356.615 699.453C356.208 699.453 355.828 699.529 355.474 699.68C355.125 699.831 354.794 700.076 354.482 700.414V704.32C354.794 704.659 355.125 704.901 355.474 705.047C355.828 705.193 356.208 705.266 356.615 705.266C357.042 705.266 357.417 705.19 357.74 705.039C358.068 704.888 358.344 704.682 358.568 704.422C358.792 704.161 358.958 703.857 359.068 703.508C359.182 703.154 359.24 702.773 359.24 702.367ZM363.426 698.719H364.496V704.594L368.434 698.719H369.942V706H368.863V699.859L364.754 706H363.426V698.719ZM379.956 706H378.878V700.227L377.089 704H376.323L374.511 700.227V706H373.44V698.719H374.831L376.706 702.516L378.565 698.719H379.956V706ZM383.455 698.719H384.525V704.594L388.463 698.719H389.97V706H388.892V699.859L384.783 706H383.455V698.719ZM400.368 702.156H399.453V699.633H397.266V705.086H398.907V706H394.539V705.086H396.188V699.633H394V702.156H393.086V698.719H400.368V702.156ZM404.171 702.734C404.249 703.505 404.53 704.12 405.015 704.578C405.499 705.036 406.129 705.266 406.905 705.266C407.452 705.266 407.939 705.154 408.366 704.93C408.793 704.706 409.114 704.427 409.327 704.094L410.077 704.609C409.713 705.12 409.278 705.51 408.772 705.781C408.267 706.047 407.645 706.18 406.905 706.18C406.343 706.18 405.827 706.086 405.358 705.898C404.89 705.711 404.483 705.451 404.14 705.117C403.801 704.779 403.538 704.378 403.351 703.914C403.163 703.451 403.069 702.935 403.069 702.367C403.069 701.815 403.153 701.307 403.319 700.844C403.491 700.375 403.736 699.971 404.054 699.633C404.377 699.289 404.767 699.023 405.226 698.836C405.684 698.643 406.197 698.547 406.765 698.547C407.384 698.547 407.926 698.651 408.39 698.859C408.853 699.068 409.239 699.357 409.546 699.727C409.858 700.091 410.088 700.529 410.233 701.039C410.384 701.549 410.46 702.115 410.46 702.734H404.171ZM409.327 701.82C409.207 701.023 408.918 700.43 408.46 700.039C408.002 699.648 407.437 699.453 406.765 699.453C406.421 699.453 406.103 699.51 405.812 699.625C405.52 699.734 405.262 699.893 405.038 700.102C404.814 700.31 404.627 700.562 404.476 700.859C404.325 701.151 404.228 701.471 404.187 701.82H409.327ZM430.028 706H428.95V700.227L427.161 704H426.395L424.582 700.227V706H423.512V698.719H424.903L426.778 702.516L428.637 698.719H430.028V706ZM434.214 702.734C434.292 703.505 434.573 704.12 435.058 704.578C435.542 705.036 436.172 705.266 436.948 705.266C437.495 705.266 437.982 705.154 438.409 704.93C438.836 704.706 439.157 704.427 439.37 704.094L440.12 704.609C439.756 705.12 439.321 705.51 438.816 705.781C438.31 706.047 437.688 706.18 436.948 706.18C436.386 706.18 435.87 706.086 435.402 705.898C434.933 705.711 434.527 705.451 434.183 705.117C433.844 704.779 433.581 704.378 433.394 703.914C433.206 703.451 433.113 702.935 433.113 702.367C433.113 701.815 433.196 701.307 433.363 700.844C433.534 700.375 433.779 699.971 434.097 699.633C434.42 699.289 434.81 699.023 435.269 698.836C435.727 698.643 436.24 698.547 436.808 698.547C437.428 698.547 437.969 698.651 438.433 698.859C438.896 699.068 439.282 699.357 439.589 699.727C439.902 700.091 440.131 700.529 440.277 701.039C440.428 701.549 440.503 702.115 440.503 702.734H434.214ZM439.37 701.82C439.251 701.023 438.961 700.43 438.503 700.039C438.045 699.648 437.48 699.453 436.808 699.453C436.464 699.453 436.146 699.51 435.855 699.625C435.563 699.734 435.305 699.893 435.081 700.102C434.857 700.31 434.67 700.562 434.519 700.859C434.368 701.151 434.271 701.471 434.23 701.82H439.37ZM450.439 702.367C450.439 702.935 450.351 703.451 450.174 703.914C449.997 704.378 449.747 704.779 449.424 705.117C449.106 705.451 448.721 705.711 448.268 705.898C447.814 706.086 447.307 706.18 446.744 706.18C446.359 706.18 445.984 706.109 445.619 705.969C445.26 705.828 444.924 705.62 444.611 705.344V708.914H443.541V698.719H444.611V699.391C445.273 698.828 445.984 698.547 446.744 698.547C447.307 698.547 447.814 698.641 448.268 698.828C448.721 699.01 449.106 699.273 449.424 699.617C449.747 699.956 449.997 700.362 450.174 700.836C450.351 701.305 450.439 701.815 450.439 702.367ZM449.369 702.367C449.369 701.961 449.312 701.581 449.197 701.227C449.088 700.867 448.921 700.557 448.697 700.297C448.473 700.036 448.197 699.831 447.869 699.68C447.546 699.529 447.171 699.453 446.744 699.453C446.338 699.453 445.958 699.529 445.603 699.68C445.254 699.831 444.924 700.076 444.611 700.414V704.32C444.924 704.659 445.254 704.901 445.603 705.047C445.958 705.193 446.338 705.266 446.744 705.266C447.171 705.266 447.546 705.19 447.869 705.039C448.197 704.888 448.473 704.682 448.697 704.422C448.921 704.161 449.088 703.857 449.197 703.508C449.312 703.154 449.369 702.773 449.369 702.367ZM459.383 698.719H460.454V706H459.383V698.719ZM454.243 701.633H455.493C456.295 701.633 456.904 701.807 457.321 702.156C457.743 702.5 457.954 703.049 457.954 703.805C457.954 704.565 457.743 705.122 457.321 705.477C456.904 705.826 456.3 706 455.508 706H453.173V698.719H454.243V701.633ZM456.883 703.805C456.883 703.404 456.764 703.094 456.524 702.875C456.284 702.656 455.946 702.547 455.508 702.547H454.243V705.086H455.508C455.946 705.086 456.284 704.974 456.524 704.75C456.764 704.526 456.883 704.211 456.883 703.805ZM480.1 706H479.022V699.633H474.654V706H473.584V698.719H480.1V706ZM490.684 702.383C490.684 702.951 490.593 703.466 490.411 703.93C490.234 704.393 489.976 704.792 489.637 705.125C489.304 705.453 488.903 705.711 488.434 705.898C487.966 706.086 487.442 706.18 486.864 706.18C486.296 706.18 485.778 706.086 485.309 705.898C484.841 705.711 484.437 705.453 484.098 705.125C483.765 704.792 483.507 704.393 483.325 703.93C483.148 703.466 483.059 702.951 483.059 702.383C483.059 701.831 483.148 701.318 483.325 700.844C483.507 700.365 483.765 699.958 484.098 699.625C484.437 699.286 484.841 699.023 485.309 698.836C485.778 698.643 486.296 698.547 486.864 698.547C487.442 698.547 487.966 698.643 488.434 698.836C488.903 699.023 489.304 699.286 489.637 699.625C489.976 699.958 490.234 700.365 490.411 700.844C490.593 701.318 490.684 701.831 490.684 702.383ZM489.614 702.383C489.614 701.966 489.552 701.583 489.427 701.234C489.307 700.88 489.127 700.57 488.887 700.305C488.648 700.039 488.356 699.831 488.012 699.68C487.674 699.529 487.291 699.453 486.864 699.453C486.437 699.453 486.052 699.529 485.708 699.68C485.369 699.831 485.083 700.039 484.848 700.305C484.614 700.57 484.434 700.88 484.309 701.234C484.19 701.583 484.13 701.966 484.13 702.383C484.13 702.799 484.19 703.185 484.309 703.539C484.434 703.888 484.614 704.19 484.848 704.445C485.083 704.701 485.369 704.901 485.708 705.047C486.052 705.193 486.437 705.266 486.864 705.266C487.291 705.266 487.674 705.193 488.012 705.047C488.356 704.901 488.648 704.701 488.887 704.445C489.127 704.19 489.307 703.888 489.427 703.539C489.552 703.185 489.614 702.799 489.614 702.383ZM510.526 702.156H509.612V699.633H507.424V705.086H509.065V706H504.697V705.086H506.346V699.633H504.158V702.156H503.244V698.719H510.526V702.156ZM520.767 698.719L516.829 707.844C516.626 708.354 516.339 708.688 515.97 708.844C515.6 709.005 515.191 709.086 514.743 709.086C514.243 709.086 513.743 708.995 513.243 708.812L513.454 707.891C513.699 707.995 513.938 708.068 514.173 708.109C514.407 708.156 514.597 708.18 514.743 708.18C515.097 708.18 515.339 708.094 515.47 707.922C515.605 707.75 515.722 707.547 515.821 707.312L516.267 706.211L513.017 698.719H514.282L516.907 705.086L519.485 698.719H520.767ZM526.375 698.719H527.453V705.086H529.484V698.719H530.554V706H523.273V698.719H524.343V705.086H526.375V698.719ZM534.358 702.734C534.436 703.505 534.717 704.12 535.202 704.578C535.686 705.036 536.316 705.266 537.092 705.266C537.639 705.266 538.126 705.154 538.553 704.93C538.98 704.706 539.301 704.427 539.514 704.094L540.264 704.609C539.899 705.12 539.465 705.51 538.959 705.781C538.454 706.047 537.832 706.18 537.092 706.18C536.53 706.18 536.014 706.086 535.545 705.898C535.077 705.711 534.67 705.451 534.327 705.117C533.988 704.779 533.725 704.378 533.538 703.914C533.35 703.451 533.256 702.935 533.256 702.367C533.256 701.815 533.34 701.307 533.506 700.844C533.678 700.375 533.923 699.971 534.241 699.633C534.564 699.289 534.954 699.023 535.413 698.836C535.871 698.643 536.384 698.547 536.952 698.547C537.571 698.547 538.113 698.651 538.577 698.859C539.04 699.068 539.426 699.357 539.733 699.727C540.045 700.091 540.274 700.529 540.42 701.039C540.571 701.549 540.647 702.115 540.647 702.734H534.358ZM539.514 701.82C539.394 701.023 539.105 700.43 538.647 700.039C538.189 699.648 537.623 699.453 536.952 699.453C536.608 699.453 536.29 699.51 535.998 699.625C535.707 699.734 535.449 699.893 535.225 700.102C535.001 700.31 534.814 700.562 534.663 700.859C534.511 701.151 534.415 701.471 534.373 701.82H539.514ZM550.2 706H549.122V702.734H544.755V706H543.685V698.719H544.755V701.82H549.122V698.719H550.2V706ZM553.699 698.719H554.769V704.594L558.707 698.719H560.215V706H559.137V699.859L555.027 706H553.699V698.719ZM563.713 698.719H564.784V701.906H566.26C566.354 699.667 567.078 698.547 568.432 698.547C569.885 698.547 570.612 699.82 570.612 702.367C570.612 704.909 569.885 706.18 568.432 706.18C567.057 706.18 566.333 705.057 566.26 702.812H564.784V706H563.713V698.719ZM568.432 705.312C569.172 705.312 569.542 704.331 569.542 702.367C569.542 700.414 569.172 699.438 568.432 699.438C567.698 699.438 567.331 700.414 567.331 702.367C567.331 704.331 567.698 705.312 568.432 705.312ZM590.258 706H589.18V699.633H584.812V706H583.742V698.719H590.258V706ZM600.842 702.383C600.842 702.951 600.751 703.466 600.569 703.93C600.392 704.393 600.134 704.792 599.796 705.125C599.462 705.453 599.061 705.711 598.592 705.898C598.124 706.086 597.6 706.18 597.022 706.18C596.454 706.18 595.936 706.086 595.467 705.898C594.999 705.711 594.595 705.453 594.257 705.125C593.923 704.792 593.665 704.393 593.483 703.93C593.306 703.466 593.217 702.951 593.217 702.383C593.217 701.831 593.306 701.318 593.483 700.844C593.665 700.365 593.923 699.958 594.257 699.625C594.595 699.286 594.999 699.023 595.467 698.836C595.936 698.643 596.454 698.547 597.022 698.547C597.6 698.547 598.124 698.643 598.592 698.836C599.061 699.023 599.462 699.286 599.796 699.625C600.134 699.958 600.392 700.365 600.569 700.844C600.751 701.318 600.842 701.831 600.842 702.383ZM599.772 702.383C599.772 701.966 599.71 701.583 599.585 701.234C599.465 700.88 599.285 700.57 599.046 700.305C598.806 700.039 598.514 699.831 598.171 699.68C597.832 699.529 597.449 699.453 597.022 699.453C596.595 699.453 596.21 699.529 595.866 699.68C595.527 699.831 595.241 700.039 595.007 700.305C594.772 700.57 594.592 700.88 594.467 701.234C594.348 701.583 594.288 701.966 594.288 702.383C594.288 702.799 594.348 703.185 594.467 703.539C594.592 703.888 594.772 704.19 595.007 704.445C595.241 704.701 595.527 704.901 595.866 705.047C596.21 705.193 596.595 705.266 597.022 705.266C597.449 705.266 597.832 705.193 598.171 705.047C598.514 704.901 598.806 704.701 599.046 704.445C599.285 704.19 599.465 703.888 599.585 703.539C599.71 703.185 599.772 702.799 599.772 702.383ZM605.497 701.906L603.263 698.719H604.458L606.49 701.789V698.719H607.568V701.789L609.599 698.719H610.794L608.56 701.906L610.794 706H609.646L607.951 702.734L607.568 703.297V706H606.49V703.297L606.107 702.734L604.412 706H603.263L605.497 701.906ZM613.387 704.031C613.387 703.573 613.501 703.19 613.731 702.883C613.96 702.57 614.259 702.326 614.629 702.148C615.004 701.966 615.431 701.836 615.91 701.758C616.395 701.674 616.887 701.633 617.387 701.633C617.58 701.633 617.751 701.635 617.902 701.641C618.059 701.646 618.205 701.654 618.34 701.664C618.481 701.674 618.621 701.688 618.762 701.703C618.902 701.719 619.056 701.737 619.223 701.758V701.234C619.223 700.88 619.145 700.589 618.988 700.359C618.837 700.13 618.65 699.951 618.426 699.82C618.202 699.685 617.968 699.591 617.723 699.539C617.478 699.482 617.27 699.453 617.098 699.453C616.556 699.453 616.056 699.526 615.598 699.672C615.139 699.818 614.712 700.013 614.317 700.258L613.832 699.453C614.27 699.188 614.759 698.971 615.301 698.805C615.848 698.633 616.447 698.547 617.098 698.547C617.494 698.547 617.882 698.599 618.262 698.703C618.647 698.802 618.991 698.958 619.293 699.172C619.6 699.38 619.845 699.656 620.027 700C620.21 700.344 620.301 700.755 620.301 701.234V706H619.223V704.781C619.035 705.016 618.822 705.221 618.582 705.398C618.348 705.576 618.1 705.721 617.84 705.836C617.58 705.945 617.319 706.029 617.059 706.086C616.798 706.148 616.551 706.18 616.317 706.18C615.353 706.18 614.624 705.995 614.129 705.625C613.634 705.255 613.387 704.724 613.387 704.031ZM616.317 705.266C616.764 705.266 617.166 705.201 617.52 705.07C617.879 704.935 618.184 704.768 618.434 704.57C618.684 704.372 618.876 704.161 619.012 703.938C619.152 703.714 619.223 703.51 619.223 703.328V702.641C618.874 702.589 618.538 702.56 618.215 702.555C617.897 702.549 617.621 702.547 617.387 702.547C617.001 702.547 616.629 702.573 616.27 702.625C615.916 702.677 615.606 702.763 615.34 702.883C615.074 702.997 614.861 703.148 614.699 703.336C614.538 703.523 614.457 703.755 614.457 704.031C614.457 704.339 614.606 704.622 614.902 704.883C615.205 705.138 615.676 705.266 616.317 705.266ZM630.698 702.367C630.698 702.935 630.61 703.451 630.432 703.914C630.255 704.378 630.005 704.779 629.682 705.117C629.365 705.451 628.979 705.711 628.526 705.898C628.073 706.086 627.565 706.18 627.003 706.18C626.617 706.18 626.242 706.109 625.878 705.969C625.518 705.828 625.182 705.62 624.87 705.344V708.914H623.8V698.719H624.87V699.391C625.531 698.828 626.242 698.547 627.003 698.547C627.565 698.547 628.073 698.641 628.526 698.828C628.979 699.01 629.365 699.273 629.682 699.617C630.005 699.956 630.255 700.362 630.432 700.836C630.61 701.305 630.698 701.815 630.698 702.367ZM629.628 702.367C629.628 701.961 629.571 701.581 629.456 701.227C629.347 700.867 629.18 700.557 628.956 700.297C628.732 700.036 628.456 699.831 628.128 699.68C627.805 699.529 627.43 699.453 627.003 699.453C626.597 699.453 626.216 699.529 625.862 699.68C625.513 699.831 625.182 700.076 624.87 700.414V704.32C625.182 704.659 625.513 704.901 625.862 705.047C626.216 705.193 626.597 705.266 627.003 705.266C627.43 705.266 627.805 705.19 628.128 705.039C628.456 704.888 628.732 704.682 628.956 704.422C629.18 704.161 629.347 703.857 629.456 703.508C629.571 703.154 629.628 702.773 629.628 702.367ZM633.416 704.031C633.416 703.573 633.53 703.19 633.759 702.883C633.989 702.57 634.288 702.326 634.658 702.148C635.033 701.966 635.46 701.836 635.939 701.758C636.423 701.674 636.916 701.633 637.416 701.633C637.608 701.633 637.78 701.635 637.931 701.641C638.087 701.646 638.233 701.654 638.369 701.664C638.509 701.674 638.65 701.688 638.791 701.703C638.931 701.719 639.085 701.737 639.252 701.758V701.234C639.252 700.88 639.173 700.589 639.017 700.359C638.866 700.13 638.679 699.951 638.455 699.82C638.231 699.685 637.996 699.591 637.752 699.539C637.507 699.482 637.298 699.453 637.127 699.453C636.585 699.453 636.085 699.526 635.627 699.672C635.168 699.818 634.741 700.013 634.345 700.258L633.861 699.453C634.298 699.188 634.788 698.971 635.33 698.805C635.877 698.633 636.476 698.547 637.127 698.547C637.522 698.547 637.91 698.599 638.291 698.703C638.676 698.802 639.02 698.958 639.322 699.172C639.629 699.38 639.874 699.656 640.056 700C640.239 700.344 640.33 700.755 640.33 701.234V706H639.252V704.781C639.064 705.016 638.851 705.221 638.611 705.398C638.377 705.576 638.129 705.721 637.869 705.836C637.608 705.945 637.348 706.029 637.087 706.086C636.827 706.148 636.58 706.18 636.345 706.18C635.382 706.18 634.653 705.995 634.158 705.625C633.663 705.255 633.416 704.724 633.416 704.031ZM636.345 705.266C636.793 705.266 637.194 705.201 637.548 705.07C637.908 704.935 638.212 704.768 638.462 704.57C638.712 704.372 638.905 704.161 639.041 703.938C639.181 703.714 639.252 703.51 639.252 703.328V702.641C638.903 702.589 638.567 702.56 638.244 702.555C637.926 702.549 637.65 702.547 637.416 702.547C637.03 702.547 636.658 702.573 636.298 702.625C635.944 702.677 635.634 702.763 635.369 702.883C635.103 702.997 634.89 703.148 634.728 703.336C634.567 703.523 634.486 703.755 634.486 704.031C634.486 704.339 634.634 704.622 634.931 704.883C635.233 705.138 635.705 705.266 636.345 705.266Z" fill="white"/>
<path d="M-772 558.566V647.356H-683.214V736.147H-325.295V827.713H-144.948V1013.62H-58.9365V1193.97H-144.948V1096.86H-325.295V1193.97V1279.99V1457.57H-502.867V1368.78H-683.214V1457.57H-772V1543.59H-144.948V1368.78H-58.9365V1543.59H121.41V1368.78H226.844V1674H307.306V1640.7V1457.57H487.653V1279.99H668V1013.62H487.653V1107.96H307.306V1013.62H398.867V919.278H121.41V647.356H307.306V736.147H668V647.356H570.89V558.566H487.653V647.356H398.867V467H43.7225V558.566H-58.9365V647.356H-502.867V558.566H-772Z" fill="#85B6FF"/>
<mask id="path-11-outside-3_320_574" maskUnits="userSpaceOnUse" x="799" y="167" width="252" height="160" fill="black">
<rect fill="white" x="799" y="167" width="252" height="160"/>
<path d="M890.43 310.408L879.15 321.98L804.15 246.98L879.15 171.98L890.43 183.699L827.148 246.98L890.43 310.408ZM1046.14 246.98L971.143 321.98L959.717 310.408L1023 246.98L959.717 183.699L971.143 171.98L1046.14 246.98Z"/>
</mask>
<path d="M890.43 310.408L892.578 312.502L894.643 310.384L892.553 308.289L890.43 310.408ZM879.15 321.98L877.029 324.102L879.178 326.25L881.299 324.074L879.15 321.98ZM804.15 246.98L802.029 244.859L799.908 246.98L802.029 249.102L804.15 246.98ZM879.15 171.98L881.312 169.9L879.191 167.697L877.029 169.859L879.15 171.98ZM890.43 183.699L892.551 185.821L894.632 183.739L892.591 181.619L890.43 183.699ZM827.148 246.98L825.027 244.859L822.908 246.978L825.025 249.099L827.148 246.98ZM888.281 308.314L877.002 319.887L881.299 324.074L892.578 312.502L888.281 308.314ZM881.272 319.859L806.272 244.859L802.029 249.102L877.029 324.102L881.272 319.859ZM806.272 249.102L881.272 174.102L877.029 169.859L802.029 244.859L806.272 249.102ZM876.989 174.061L888.268 185.78L892.591 181.619L881.312 169.9L876.989 174.061ZM888.308 181.578L825.027 244.859L829.27 249.102L892.551 185.821L888.308 181.578ZM825.025 249.099L888.306 312.527L892.553 308.289L829.272 244.862L825.025 249.099ZM1046.14 246.98L1048.26 249.102L1050.39 246.98L1048.26 244.859L1046.14 246.98ZM971.143 321.98L969.008 324.088L971.129 326.237L973.264 324.102L971.143 321.98ZM959.717 310.408L957.593 308.289L955.49 310.397L957.582 312.516L959.717 310.408ZM1023 246.98L1025.12 249.099L1027.24 246.978L1025.12 244.859L1023 246.98ZM959.717 183.699L957.569 181.605L955.501 183.726L957.595 185.821L959.717 183.699ZM971.143 171.98L973.264 169.859L971.116 167.711L968.995 169.886L971.143 171.98ZM1044.02 244.859L969.021 319.859L973.264 324.102L1048.26 249.102L1044.02 244.859ZM973.277 319.873L961.852 308.3L957.582 312.516L969.008 324.088L973.277 319.873ZM961.841 312.527L1025.12 249.099L1020.87 244.862L957.593 308.289L961.841 312.527ZM1025.12 244.859L961.838 181.578L957.595 185.821L1020.88 249.102L1025.12 244.859ZM961.865 185.794L973.291 174.075L968.995 169.886L957.569 181.605L961.865 185.794ZM969.021 174.102L1044.02 249.102L1048.26 244.859L973.264 169.859L969.021 174.102Z" fill="#85B6FF" mask="url(#path-11-outside-3_320_574)"/>
<mask id="path-13-outside-4_320_574" maskUnits="userSpaceOnUse" x="1139" y="167" width="252" height="160" fill="black">
<rect fill="white" x="1139" y="167" width="252" height="160"/>
<path d="M1230.43 310.408L1219.15 321.98L1144.15 246.98L1219.15 171.98L1230.43 183.699L1167.15 246.98L1230.43 310.408ZM1386.14 246.98L1311.14 321.98L1299.72 310.408L1363 246.98L1299.72 183.699L1311.14 171.98L1386.14 246.98Z"/>
</mask>
<path d="M1230.43 310.408L1232.58 312.502L1234.64 310.384L1232.55 308.289L1230.43 310.408ZM1219.15 321.98L1217.03 324.102L1219.18 326.25L1221.3 324.074L1219.15 321.98ZM1144.15 246.98L1142.03 244.859L1139.91 246.98L1142.03 249.102L1144.15 246.98ZM1219.15 171.98L1221.31 169.9L1219.19 167.697L1217.03 169.859L1219.15 171.98ZM1230.43 183.699L1232.55 185.821L1234.63 183.739L1232.59 181.619L1230.43 183.699ZM1167.15 246.98L1165.03 244.859L1162.91 246.978L1165.02 249.099L1167.15 246.98ZM1228.28 308.314L1217 319.887L1221.3 324.074L1232.58 312.502L1228.28 308.314ZM1221.27 319.859L1146.27 244.859L1142.03 249.102L1217.03 324.102L1221.27 319.859ZM1146.27 249.102L1221.27 174.102L1217.03 169.859L1142.03 244.859L1146.27 249.102ZM1216.99 174.061L1228.27 185.78L1232.59 181.619L1221.31 169.9L1216.99 174.061ZM1228.31 181.578L1165.03 244.859L1169.27 249.102L1232.55 185.821L1228.31 181.578ZM1165.02 249.099L1228.31 312.527L1232.55 308.289L1169.27 244.862L1165.02 249.099ZM1386.14 246.98L1388.26 249.102L1390.39 246.98L1388.26 244.859L1386.14 246.98ZM1311.14 321.98L1309.01 324.088L1311.13 326.237L1313.26 324.102L1311.14 321.98ZM1299.72 310.408L1297.59 308.289L1295.49 310.397L1297.58 312.516L1299.72 310.408ZM1363 246.98L1365.12 249.099L1367.24 246.978L1365.12 244.859L1363 246.98ZM1299.72 183.699L1297.57 181.605L1295.5 183.726L1297.6 185.821L1299.72 183.699ZM1311.14 171.98L1313.26 169.859L1311.12 167.711L1308.99 169.886L1311.14 171.98ZM1384.02 244.859L1309.02 319.859L1313.26 324.102L1388.26 249.102L1384.02 244.859ZM1313.28 319.873L1301.85 308.3L1297.58 312.516L1309.01 324.088L1313.28 319.873ZM1301.84 312.527L1365.12 249.099L1360.87 244.862L1297.59 308.289L1301.84 312.527ZM1365.12 244.859L1301.84 181.578L1297.6 185.821L1360.88 249.102L1365.12 244.859ZM1301.86 185.794L1313.29 174.075L1308.99 169.886L1297.57 181.605L1301.86 185.794ZM1309.02 174.102L1384.02 249.102L1388.26 244.859L1313.26 169.859L1309.02 174.102Z" fill="#85B6FF" mask="url(#path-13-outside-4_320_574)"/>
<path d="M689 433H973.874L1210.46 576.609L1282.89 464.377L1540 656.258L1298.58 1285H689V875.895M689 791.419V542.462M689 554.887V542.462M689 542.462L950.055 542.462L1247 709M790.396 1189.5H987.152" stroke="#85B6FF" stroke-width="4"/>
<path d="M1124.46 589.946C1125.54 589.69 1126.2 588.612 1125.95 587.538L1121.78 570.025C1121.53 568.951 1120.45 568.286 1119.38 568.542C1118.3 568.797 1117.64 569.875 1117.89 570.95L1121.59 586.517L1106.03 590.216C1104.95 590.471 1104.29 591.549 1104.54 592.624C1104.8 593.698 1105.88 594.363 1106.95 594.107L1124.46 589.946ZM997.951 512.703L1122.95 589.703L1125.05 586.297L1000.05 509.297L997.951 512.703Z" fill="#5DA0FF"/>
</g>
<defs>
<clipPath id="clip0_320_574">
<rect width="1440" height="800" fill="white"/>
</clipPath>
</defs>
</svg>
