<svg width="1440" height="800" viewBox="0 0 1440 800" fill="none" xmlns="http://www.w3.org/2000/svg">
<g clip-path="url(#clip0_320_739)">
<rect width="1440" height="800" fill="#DEDEDE"/>
<path d="M1288.02 781.152V436.183L1063.53 436.183V214.531H970.924V265.034H631.373V150L361.977 150L361.977 683.087H101L101 822.244L101 977.688H390.039L631.373 977.688L631.373 612.944H867.094L867.094 977.688L1288.02 977.688V886.61" stroke="#85B6FF" stroke-width="5.38333"/>
<path d="M499.097 405.037C500.148 406.088 501.852 406.088 502.903 405.037L520.033 387.907C521.084 386.856 521.084 385.152 520.033 384.101C518.982 383.05 517.278 383.05 516.226 384.101L501 399.327L485.774 384.101C484.722 383.05 483.018 383.05 481.967 384.101C480.916 385.152 480.916 386.856 481.967 387.907L499.097 405.037ZM503.692 403.134V317H498.308V403.134H503.692Z" fill="#5DA0FF"/>
<path d="M499.097 593.037C500.148 594.088 501.852 594.088 502.903 593.037L520.033 575.907C521.084 574.856 521.084 573.152 520.033 572.101C518.982 571.05 517.278 571.05 516.226 572.101L501 587.327L485.774 572.101C484.722 571.05 483.018 571.05 481.967 572.101C480.916 573.152 480.916 574.856 481.967 575.907L499.097 593.037ZM503.692 591.134V505H498.308V591.134H503.692Z" fill="#5DA0FF"/>
<path d="M499.097 762.037C500.148 763.088 501.852 763.088 502.903 762.037L520.033 744.907C521.084 743.856 521.084 742.152 520.033 741.101C518.982 740.05 517.278 740.05 516.226 741.101L501 756.327L485.774 741.101C484.722 740.05 483.018 740.05 481.967 741.101C480.916 742.152 480.916 743.856 481.967 744.907L499.097 762.037ZM503.692 760.134V674H498.308V760.134H503.692Z" fill="#5DA0FF"/>
<path d="M355.097 874.037C356.148 875.088 357.852 875.088 358.903 874.037L376.033 856.907C377.084 855.856 377.084 854.152 376.033 853.101C374.982 852.05 373.278 852.05 372.226 853.101L357 868.327L341.774 853.101C340.722 852.05 339.018 852.05 337.967 853.101C336.916 854.152 336.916 855.856 337.967 856.907L355.097 874.037ZM359.692 872.134V786H354.308V872.134H359.692Z" fill="#5DA0FF"/>
<path d="M697.037 450.903C698.088 449.852 698.088 448.148 697.037 447.097L679.907 429.967C678.856 428.916 677.152 428.916 676.1 429.967C675.049 431.018 675.049 432.722 676.1 433.774L691.327 449L676.1 464.226C675.049 465.278 675.049 466.982 676.1 468.033C677.152 469.084 678.856 469.084 679.907 468.033L697.037 450.903ZM609 451.692H695.133V446.308H609V451.692Z" fill="#5DA0FF"/>
<path d="M964.037 450.903C965.088 449.852 965.088 448.148 964.037 447.097L946.907 429.967C945.856 428.916 944.152 428.916 943.1 429.967C942.049 431.018 942.049 432.722 943.1 433.774L958.327 449L943.1 464.226C942.049 465.278 942.049 466.982 943.1 468.033C944.152 469.084 945.856 469.084 946.907 468.033L964.037 450.903ZM876 451.692H962.133V446.308H876V451.692Z" fill="#5DA0FF"/>
<path d="M1068.1 575.037C1069.15 576.088 1070.85 576.088 1071.9 575.037L1089.03 557.907C1090.08 556.856 1090.08 555.152 1089.03 554.101C1087.98 553.05 1086.28 553.05 1085.23 554.101L1070 569.327L1054.77 554.101C1053.72 553.05 1052.02 553.05 1050.97 554.101C1049.92 555.152 1049.92 556.856 1050.97 557.907L1068.1 575.037ZM1072.69 573.134V487H1067.31V573.134H1072.69Z" fill="#5DA0FF"/>
<path d="M1068.1 742.037C1069.15 743.088 1070.85 743.088 1071.9 742.037L1089.03 724.907C1090.08 723.856 1090.08 722.152 1089.03 721.101C1087.98 720.05 1086.28 720.05 1085.23 721.101L1070 736.327L1054.77 721.101C1053.72 720.05 1052.02 720.05 1050.97 721.101C1049.92 722.152 1049.92 723.856 1050.97 724.907L1068.1 742.037ZM1072.69 740.134V654H1067.31V740.134H1072.69Z" fill="#5DA0FF"/>
</g>
<defs>
<clipPath id="clip0_320_739">
<rect width="1440" height="800" fill="white"/>
</clipPath>
</defs>
</svg>
