<svg width="1440" height="800" viewBox="0 0 1440 800" fill="none" xmlns="http://www.w3.org/2000/svg">
<g clip-path="url(#clip0_320_786)">
<rect width="1440" height="800" fill="#DEDEDE"/>
<path d="M1290.02 5.15175V-339.817L1065.53 -339.817V-561.468H972.924V-510.965H633.373V-626L363.977 -626L363.977 -92.9131L103 -92.9131L103 46.2438L103 201.688L392.039 201.688L633.373 201.688L633.373 -163.056H869.094L869.094 201.688L1290.02 201.688V110.61" stroke="#85B6FF" stroke-width="5.38333"/>
<path d="M357.097 98.0372C358.148 99.0884 359.852 99.0884 360.903 98.0372L378.033 80.9075C379.084 79.8564 379.084 78.1521 378.033 77.101C376.982 76.0498 375.278 76.0498 374.226 77.101L359 92.3273L343.774 77.101C342.722 76.0498 341.018 76.0498 339.967 77.101C338.916 78.1521 338.916 79.8564 339.967 80.9075L357.097 98.0372ZM361.692 96.1339V10.0006H356.308V96.1339H361.692Z" fill="#5DA0FF"/>
<path d="M86.1503 1193.63H132.843V1063.76H482.1V869.316H371.906V591L325.214 591H-67V628.358H-20.3078L-24.0432 845.034H86.1503V1193.63Z" fill="#85B6FF"/>
<path d="M1168.15 1010.63H1214.84V880.761H1564.1V686.316H1453.91V408L1407.21 408H1015V445.358H1061.69L1057.96 662.034H1168.15V1010.63Z" fill="#85B6FF"/>
</g>
<defs>
<clipPath id="clip0_320_786">
<rect width="1440" height="800" fill="white"/>
</clipPath>
</defs>
</svg>
