<svg width="1440" height="800" viewBox="0 0 1440 800" fill="none" xmlns="http://www.w3.org/2000/svg">
<g clip-path="url(#clip0_320_134)">
<rect width="1440" height="800" fill="#DEDEDE"/>
<path d="M21.9 51H18.1C17.9409 51 17.7883 50.9368 17.6757 50.8243C17.5632 50.7117 17.5 50.5591 17.5 50.4V48.1C17.5 47.9409 17.4368 47.7883 17.3243 47.6757C17.2117 47.5632 17.0591 47.5 16.9 47.5H14.6C14.4409 47.5 14.2883 47.4368 14.1757 47.3243C14.0632 47.2117 14 47.0591 14 46.9V43.1C14 42.9409 14.0632 42.7883 14.1757 42.6757C14.2883 42.5632 14.4409 42.5 14.6 42.5H16.9C17.0591 42.5 17.2117 42.4368 17.3243 42.3243C17.4368 42.2117 17.5 42.0591 17.5 41.9V39.6C17.5 39.4409 17.5632 39.2883 17.6757 39.1757C17.7883 39.0632 17.9409 39 18.1 39H21.9C22.0591 39 22.2117 39.0632 22.3243 39.1757C22.4368 39.2883 22.5 39.4409 22.5 39.6V41.9C22.5 42.0591 22.5632 42.2117 22.6757 42.3243C22.7883 42.4368 22.9409 42.5 23.1 42.5H25.4C25.5591 42.5 25.7117 42.5632 25.8243 42.6757C25.9368 42.7883 26 42.9409 26 43.1V46.9C26 47.0591 25.9368 47.2117 25.8243 47.3243C25.7117 47.4368 25.5591 47.5 25.4 47.5H23.1C22.9409 47.5 22.7883 47.5632 22.6757 47.6757C22.5632 47.7883 22.5 47.9409 22.5 48.1V50.4C22.5 50.5591 22.4368 50.7117 22.3243 50.8243C22.2117 50.9368 22.0591 51 21.9 51Z" stroke="#85B6FF" stroke-width="1.5"/>
<path d="M20 55C25.523 55 30 50.523 30 45C30 39.477 25.523 35 20 35C14.477 35 10 39.477 10 45C10 50.523 14.477 55 20 55Z" stroke="#85B6FF" stroke-width="1.5" stroke-linecap="round" stroke-linejoin="round"/>
<g clip-path="url(#clip1_320_134)">
<path d="M1.89088 34.0499C1.80696 33.8861 1.67947 33.7486 1.52244 33.6526C1.3654 33.5567 1.18493 33.5059 1.00088 33.5059C0.816834 33.5059 0.636357 33.5567 0.479325 33.6526C0.322294 33.7486 0.194798 33.8861 0.11088 34.0499L-5.38912 45.0499C-5.46583 45.2021 -5.50235 45.3714 -5.49522 45.5418C-5.48808 45.7121 -5.43753 45.8777 -5.34836 46.023C-5.25918 46.1683 -5.13435 46.2884 -4.98572 46.3718C-4.83709 46.4553 -4.66958 46.4994 -4.49912 46.4999H6.50088C6.67134 46.4994 6.83885 46.4553 6.98748 46.3718C7.13611 46.2884 7.26094 46.1683 7.35012 46.023C7.43929 45.8777 7.48984 45.7121 7.49698 45.5418C7.50411 45.3714 7.46759 45.2021 7.39088 45.0499L1.89088 34.0499Z" stroke="#85B6FF" stroke-linecap="round" stroke-linejoin="round"/>
<path d="M0.69625 43.9685L2.71825 41.2015H-0.71875L1.30325 38.4355" stroke="#85B6FF" stroke-linecap="round" stroke-linejoin="round"/>
</g>
<path d="M8 286.435V74H862.115V172.291M862.115 186.559V172.291M862.115 172.291H1048.34L1205.49 266.619L1252.63 192.9L1420 318.935L1264.42 727.952H862.115H594.958V681.977H515.597V623.32H382.805V766H206.796V662.953H37.0729V401.849H8V333.203" stroke="#5DA0FF" stroke-width="4"/>
<path d="M146.707 94.7071C147.098 94.3166 147.098 93.6834 146.707 93.2929L140.343 86.9289C139.953 86.5384 139.319 86.5384 138.929 86.9289C138.538 87.3195 138.538 87.9526 138.929 88.3431L144.586 94L138.929 99.6569C138.538 100.047 138.538 100.681 138.929 101.071C139.319 101.462 139.953 101.462 140.343 101.071L146.707 94.7071ZM55 95H146V93H55V95Z" fill="#5DA0FF"/>
<path d="M600.707 94.7071C601.098 94.3166 601.098 93.6834 600.707 93.2929L594.343 86.9289C593.953 86.5384 593.319 86.5384 592.929 86.9289C592.538 87.3195 592.538 87.9526 592.929 88.3431L598.586 94L592.929 99.6569C592.538 100.047 592.538 100.681 592.929 101.071C593.319 101.462 593.953 101.462 594.343 101.071L600.707 94.7071ZM509 95H600V93H509V95Z" fill="#5DA0FF"/>
<path d="M843.293 185.707C843.683 186.098 844.317 186.098 844.707 185.707L851.071 179.343C851.462 178.953 851.462 178.319 851.071 177.929C850.681 177.538 850.047 177.538 849.657 177.929L844 183.586L838.343 177.929C837.953 177.538 837.319 177.538 836.929 177.929C836.538 178.319 836.538 178.953 836.929 179.343L843.293 185.707ZM845 185V94H843V185H845Z" fill="#5DA0FF"/>
<path d="M945.707 215.707C946.098 215.317 946.098 214.683 945.707 214.293L939.343 207.929C938.953 207.538 938.319 207.538 937.929 207.929C937.538 208.319 937.538 208.953 937.929 209.343L943.586 215L937.929 220.657C937.538 221.047 937.538 221.681 937.929 222.071C938.319 222.462 938.953 222.462 939.343 222.071L945.707 215.707ZM945 214H854V216H945V214Z" fill="#5DA0FF"/>
<path d="M1132.33 267.627C1132.87 267.495 1133.2 266.954 1133.06 266.418L1130.92 257.678C1130.78 257.141 1130.24 256.814 1129.71 256.945C1129.17 257.077 1128.84 257.619 1128.97 258.155L1130.88 265.924L1123.12 267.834C1122.58 267.965 1122.25 268.507 1122.38 269.043C1122.51 269.58 1123.06 269.908 1123.59 269.776L1132.33 267.627ZM1132.61 265.801L1054.86 218.735L1053.83 220.446L1131.58 267.512L1132.61 265.801Z" fill="#5DA0FF"/>
<path d="M1340.26 308.765C1340.8 308.687 1341.18 308.181 1341.11 307.635L1339.85 298.723C1339.77 298.176 1339.27 297.795 1338.72 297.873C1338.17 297.95 1337.79 298.456 1337.87 299.003L1338.99 306.924L1331.07 308.043C1330.52 308.121 1330.14 308.627 1330.22 309.173C1330.29 309.72 1330.8 310.101 1331.35 310.024L1340.26 308.765ZM1340.72 306.975L1268.09 252.332L1266.89 253.93L1339.52 308.573L1340.72 306.975Z" fill="#5DA0FF"/>
<path d="M1266.58 612.596C1266.81 613.1 1267.4 613.325 1267.9 613.099L1276.11 609.412C1276.62 609.186 1276.84 608.594 1276.61 608.09C1276.39 607.586 1275.8 607.361 1275.29 607.588L1267.99 610.865L1264.72 603.567C1264.49 603.063 1263.9 602.838 1263.4 603.064C1262.89 603.29 1262.67 603.882 1262.89 604.386L1266.58 612.596ZM1268.43 612.542L1345.3 410.372L1343.43 409.661L1266.56 611.831L1268.43 612.542Z" fill="#5DA0FF"/>
<path d="M873.293 692.293C872.902 692.683 872.902 693.317 873.293 693.707L879.657 700.071C880.047 700.462 880.681 700.462 881.071 700.071C881.462 699.681 881.462 699.047 881.071 698.657L875.414 693L881.071 687.343C881.462 686.953 881.462 686.319 881.071 685.929C880.681 685.538 880.047 685.538 879.657 685.929L873.293 692.293ZM874 694H1090V692H874V694Z" fill="#5DA0FF"/>
<path d="M735.014 629.749C734.468 629.832 734.092 630.342 734.175 630.888L735.53 639.786C735.614 640.332 736.124 640.707 736.67 640.624C737.216 640.541 737.591 640.031 737.508 639.485L736.303 631.576L744.212 630.371C744.758 630.288 745.133 629.778 745.05 629.232C744.967 628.686 744.457 628.311 743.911 628.394L735.014 629.749ZM734.571 631.543L807.366 685.097L808.551 683.486L735.757 629.932L734.571 631.543Z" fill="#5DA0FF"/>
<path d="M-35.2041 419.777H-0.510208V323.277H259V178.798H177.122V-28L142.429 -28H-149V-0.241806H-114.306L-117.082 160.756H-35.2041V419.777Z" fill="#85B6FF"/>
</g>
<defs>
<clipPath id="clip0_320_134">
<rect width="1440" height="800" fill="white"/>
</clipPath>
<clipPath id="clip1_320_134">
<rect width="14" height="14" fill="white" transform="translate(-6 33)"/>
</clipPath>
</defs>
</svg>
