<svg width="1441" height="801" viewBox="0 0 1441 801" fill="none" xmlns="http://www.w3.org/2000/svg">
<g clip-path="url(#clip0_268_3076)">
<rect width="1440" height="800" transform="translate(0.7146 0.0869141)" fill="#DEDEDE"/>
<g clip-path="url(#clip1_268_3076)">
<rect width="1450.76" height="10980.4" transform="translate(0.7146 -3980.15)" fill="#E0E0E0"/>
<path d="M0.7146 -228.756V-139.301H90.1641V-49.8471H450.758V42.4026H632.452V229.697H719.106V411.401H632.452V313.561H450.758V411.401V498.06V676.969H271.859V587.514H90.1641V676.969H0.7146V763.628H632.452V587.514H719.106V763.628H900.801V587.514H1007.02V895.014H1088.09V861.468V676.969H1269.78V498.06H1451.47V229.697H1269.78V324.743H1088.09V229.697H1180.33V134.652H900.801V-139.301H1088.09V-49.8471H1451.47V-139.301H1353.64V-228.756H1269.78V-139.301H1180.33V-321.005H822.532V-228.756H719.106V-139.301H271.859V-228.756H0.7146Z" fill="#85B6FF"/>
<path d="M268.13 466.631C268.13 453.742 269.507 441.297 272.262 429.294C275.017 417.29 279.297 406.714 285.101 397.564C290.906 388.414 298.482 381.084 307.829 375.575C317.274 369.967 328.637 367.163 341.919 367.163C355.201 367.163 366.516 369.967 375.863 375.575C385.308 381.084 392.982 388.414 398.885 397.564C404.788 406.714 409.068 417.29 411.724 429.294C414.381 441.297 415.709 453.742 415.709 466.631C415.709 479.52 414.381 491.965 411.724 503.968C409.068 515.873 404.837 526.499 399.032 535.845C393.228 545.094 385.603 552.522 376.158 558.13C366.811 563.64 355.398 566.394 341.919 566.394C328.44 566.394 316.979 563.64 307.533 558.13C298.187 552.522 290.562 545.094 284.659 535.845C278.854 526.499 274.673 515.873 272.115 503.968C269.458 491.965 268.13 479.52 268.13 466.631ZM298.679 466.631C298.679 475.682 299.269 484.439 300.45 492.9L376.01 417.044C372.665 410.354 368.238 404.943 362.728 400.811C357.317 396.679 350.381 394.612 341.919 394.612C327.85 394.612 317.126 400.958 309.747 413.65C302.368 426.342 298.679 444.002 298.679 466.631ZM341.919 538.797C350.577 538.797 357.661 536.682 363.171 532.451C368.779 528.221 373.157 522.711 376.305 515.922C379.552 509.035 381.815 501.263 383.094 492.605C384.471 483.947 385.16 475.289 385.16 466.631C385.16 458.367 384.57 450.299 383.389 442.428L308.419 517.693C311.764 524.088 316.044 529.204 321.258 533.041C326.571 536.879 333.458 538.797 341.919 538.797Z" fill="#85B6FF"/>
<path d="M1427.33 134.424C1427.33 145.148 1425.61 154.888 1422.17 163.645C1418.82 172.401 1413.95 179.977 1407.56 186.372C1401.26 192.669 1393.69 197.588 1384.83 201.13C1375.98 204.672 1366.09 206.443 1355.17 206.443C1344.44 206.443 1334.66 204.672 1325.8 201.13C1316.95 197.588 1309.32 192.669 1302.93 186.372C1296.63 179.977 1291.76 172.401 1288.32 163.645C1284.97 154.888 1283.3 145.148 1283.3 134.424C1283.3 123.995 1284.97 114.353 1288.32 105.499C1291.76 96.5456 1296.63 88.8715 1302.93 82.4764C1309.32 75.9829 1316.95 71.0144 1325.8 67.5709C1334.66 64.029 1344.44 62.2581 1355.17 62.2581C1366.09 62.2581 1375.98 64.029 1384.83 67.5709C1393.69 71.0144 1401.26 75.9829 1407.56 82.4764C1413.95 88.8715 1418.82 96.5456 1422.17 105.499C1425.61 114.353 1427.33 123.995 1427.33 134.424ZM1396.93 134.424C1396.93 128.226 1395.95 122.372 1393.98 116.862C1392.11 111.254 1389.36 106.483 1385.72 102.547C1382.08 98.6117 1377.65 95.5125 1372.44 93.2496C1367.32 90.8884 1361.56 89.7077 1355.17 89.7077C1348.68 89.7077 1342.87 90.8884 1337.75 93.2496C1332.64 95.5125 1328.31 98.6117 1324.77 102.547C1321.23 106.483 1318.47 111.254 1316.5 116.862C1314.63 122.372 1313.7 128.226 1313.7 134.424C1313.7 140.918 1314.63 146.821 1316.5 152.134C1318.47 157.446 1321.23 162.12 1324.77 166.154C1328.31 170.187 1332.64 173.336 1337.75 175.599C1342.87 177.763 1348.68 178.845 1355.17 178.845C1361.56 178.845 1367.32 177.763 1372.44 175.599C1377.65 173.336 1382.08 170.187 1385.72 166.154C1389.36 162.12 1392.11 157.446 1393.98 152.134C1395.95 146.821 1396.93 140.918 1396.93 134.424Z" fill="#85B6FF"/>
<mask id="path-4-outside-1_268_3076" maskUnits="userSpaceOnUse" x="1120.02" y="517.434" width="139" height="146" fill="black">
<rect fill="white" x="1120.02" y="517.434" width="139" height="146"/>
<path d="M1253.4 563.212L1202.93 590.367L1253.4 618.259L1245.28 632.131L1196.29 602.173L1198.35 659.286H1181.24L1183.3 602.173L1134.31 632.131L1126.19 618.259L1176.66 590.367L1126.19 563.212L1134.31 549.045L1183.3 579.298L1181.24 521.742H1198.35L1196.29 579.298L1245.28 549.045L1253.4 563.212Z"/>
</mask>
<path d="M1253.4 563.212L1255.31 566.761L1258.96 564.8L1256.9 561.209L1253.4 563.212ZM1202.93 590.367L1201.02 586.818L1194.51 590.319L1200.98 593.894L1202.93 590.367ZM1253.4 618.259L1256.88 620.294L1258.97 616.73L1255.35 614.732L1253.4 618.259ZM1245.28 632.132L1243.18 635.57L1246.69 637.713L1248.76 634.167L1245.28 632.132ZM1196.29 602.173L1198.39 598.735L1191.99 594.821L1192.26 602.319L1196.29 602.173ZM1198.35 659.286V663.316H1202.53L1202.38 659.14L1198.35 659.286ZM1181.24 659.286L1177.21 659.14L1177.06 663.316H1181.24V659.286ZM1183.3 602.173L1187.33 602.319L1187.6 594.821L1181.2 598.735L1183.3 602.173ZM1134.31 632.132L1130.83 634.167L1132.9 637.713L1136.41 635.57L1134.31 632.132ZM1126.19 618.259L1124.24 614.732L1120.62 616.73L1122.71 620.294L1126.19 618.259ZM1176.66 590.367L1178.61 593.894L1185.08 590.319L1178.57 586.818L1176.66 590.367ZM1126.19 563.212L1122.69 561.209L1120.63 564.8L1124.28 566.761L1126.19 563.212ZM1134.31 549.045L1136.42 545.616L1132.88 543.428L1130.81 547.041L1134.31 549.045ZM1183.3 579.298L1181.18 582.727L1187.6 586.688L1187.33 579.154L1183.3 579.298ZM1181.24 521.742V517.713H1177.06L1177.21 521.887L1181.24 521.742ZM1198.35 521.742L1202.38 521.887L1202.53 517.713H1198.35V521.742ZM1196.29 579.298L1192.26 579.154L1191.99 586.688L1198.41 582.727L1196.29 579.298ZM1245.28 549.045L1248.78 547.041L1246.71 543.428L1243.17 545.616L1245.28 549.045ZM1251.49 559.663L1201.02 586.818L1204.84 593.916L1255.31 566.761L1251.49 559.663ZM1200.98 593.894L1251.45 621.786L1255.35 614.732L1204.88 586.84L1200.98 593.894ZM1249.92 616.224L1241.81 630.096L1248.76 634.167L1256.88 620.294L1249.92 616.224ZM1247.39 628.693L1198.39 598.735L1194.19 605.611L1243.18 635.57L1247.39 628.693ZM1192.26 602.319L1194.33 659.432L1202.38 659.14L1200.32 602.027L1192.26 602.319ZM1198.35 655.256H1181.24V663.316H1198.35V655.256ZM1185.26 659.432L1187.33 602.319L1179.27 602.027L1177.21 659.14L1185.26 659.432ZM1181.2 598.735L1132.2 628.693L1136.41 635.57L1185.4 605.611L1181.2 598.735ZM1137.78 630.096L1129.67 616.224L1122.71 620.294L1130.83 634.167L1137.78 630.096ZM1128.14 621.786L1178.61 593.894L1174.71 586.84L1124.24 614.732L1128.14 621.786ZM1178.57 586.818L1128.1 559.663L1124.28 566.761L1174.75 593.916L1178.57 586.818ZM1129.69 565.215L1137.8 551.048L1130.81 547.041L1122.69 561.209L1129.69 565.215ZM1132.19 552.473L1181.18 582.727L1185.42 575.869L1136.42 545.616L1132.19 552.473ZM1187.33 579.154L1185.26 521.598L1177.21 521.887L1179.27 579.443L1187.33 579.154ZM1181.24 525.772H1198.35V517.713H1181.24V525.772ZM1194.33 521.598L1192.26 579.154L1200.32 579.443L1202.38 521.887L1194.33 521.598ZM1198.41 582.727L1247.4 552.473L1243.17 545.616L1194.17 575.869L1198.41 582.727ZM1241.79 551.048L1249.91 565.215L1256.9 561.209L1248.78 547.041L1241.79 551.048Z" fill="#E0E0E0" mask="url(#path-4-outside-1_268_3076)"/>
<path d="M1051.21 670.642C1050.82 670.249 1050.18 670.249 1049.79 670.642L1043.38 677.054C1042.98 677.447 1042.98 678.085 1043.38 678.479C1043.77 678.872 1044.41 678.872 1044.8 678.479L1050.5 672.78L1056.2 678.479C1056.59 678.872 1057.23 678.872 1057.62 678.479C1058.02 678.085 1058.02 677.447 1057.62 677.054L1051.21 670.642ZM1051.51 858.27V671.355H1049.49V858.27H1051.51Z" fill="#E0E0E0"/>
<path d="M785.24 16.7928C784.847 16.3993 784.209 16.3993 783.815 16.7928L777.404 23.2043C777.01 23.5977 777.01 24.2356 777.404 24.629C777.797 25.0225 778.435 25.0225 778.829 24.629L784.528 18.9299L790.227 24.629C790.62 25.0225 791.258 25.0225 791.652 24.629C792.045 24.2356 792.045 23.5977 791.652 23.2043L785.24 16.7928ZM785.535 204.42V17.5051H783.52V204.42H785.535Z" fill="#E0E0E0"/>
</g>
</g>
<defs>
<clipPath id="clip0_268_3076">
<rect width="1440" height="800" fill="white" transform="translate(0.7146 0.0869141)"/>
</clipPath>
<clipPath id="clip1_268_3076">
<rect width="1450.76" height="10980.4" fill="white" transform="translate(0.7146 -3980.15)"/>
</clipPath>
</defs>
</svg>
