<svg width="1440" height="800" viewBox="0 0 1440 800" fill="none" xmlns="http://www.w3.org/2000/svg">
<g clip-path="url(#clip0_320_281)">
<rect width="1440" height="800" fill="#DEDEDE"/>
<path d="M369 181V41H1154V78.5H998.5V181H369Z" fill="#84B3F6"/>
<path d="M783 275V207.5L908.5 207H909.5" stroke="#5DA0FF" stroke-width="4"/>
<path d="M643.426 230H340V573.664H453.279V699H1019.68V573.664H1137V387.681H1011.58V274.474H780.98" stroke="#5DA0FF" stroke-width="4"/>
<path d="M1254.72 1415H1337.85V1331.89H1420.98V996.834H1506.7V828.01H1680.75V747.493H1849.6V828.01H1758.68V996.834H1849.6H1930.13H2096.38V1163.06H2013.25V1331.89H2096.38V1415H2176.91V828.01L2013.25 828.01V747.493L2176.91 747.493V578.669L2013.25 578.669V479.971L2299 479.971V404.649H2267.83L2096.38 404.649V235.825H1930.13V67H1680.75V235.825H1769.07V404.649H1680.75V318.938H1592.43V578.669H1337.85V404.649H1420.98V67H1337.85V157.906H1254.72V235.825H1337.85V318.938H1169V651.393H1254.72V747.493H1337.85V1163.06H1254.72V1415Z" fill="#85B6FF"/>
</g>
<defs>
<clipPath id="clip0_320_281">
<rect width="1440" height="800" fill="white"/>
</clipPath>
</defs>
</svg>
