<svg width="1440" height="800" viewBox="0 0 1440 800" fill="none" xmlns="http://www.w3.org/2000/svg">
<g clip-path="url(#clip0_320_312)">
<rect width="1440" height="800" fill="#DEDEDE"/>
<path d="M316 630V309.47M1215 630V309.47M316 309.47V170H1215V309.47M316 309.47H1215" stroke="#85B6FF" stroke-width="4"/>
<path d="M317 467.22H1215M317 627H1215M752.353 311V627" stroke="#85B6FF" stroke-width="4"/>
<path d="M1300.72 746H1383.85V662.886H1466.98V327.834H1552.7V159.01H1726.75V78.4933H1895.6V159.01H1804.68V327.834H1895.6H1976.13H2142.38V494.062H2059.25V662.886H2142.38V746L2222.91 746V159.01L2059.25 159.01V78.4933L2222.91 78.4933V-90.3314L2059.25 -90.3314V-189.029L2345 -189.029V-264.351H2313.83L2142.38 -264.351V-433.175H1976.13V-602H1726.75V-433.175H1815.07V-264.351H1726.75V-350.062H1638.43V-90.3314H1383.85V-264.351H1466.98V-602H1383.85V-511.094H1300.72V-433.175H1383.85V-350.062H1215V-17.6069H1300.72V78.4933H1383.85V494.062H1300.72V746Z" fill="#85B6FF"/>
</g>
<defs>
<clipPath id="clip0_320_312">
<rect width="1440" height="800" fill="white"/>
</clipPath>
</defs>
</svg>
