<svg width="1440" height="801" viewBox="0 0 1440 801" fill="none" xmlns="http://www.w3.org/2000/svg">
<g clip-path="url(#clip0_268_3842)">
<rect width="1440" height="800" transform="translate(0 0.251587)" fill="#DEDEDE"/>
<g clip-path="url(#clip1_268_3842)">
<rect width="1450.76" height="10980.4" transform="translate(-13.4746 -9070.37)" fill="#E0E0E0"/>
<path d="M1195 578.647V283.146L1002.66 283.146V93.2785H923.319V136.539H632.404V38.0005L401.596 38.0005L401.596 494.645H178V613.847L178 747H425.638L632.404 747V434.56L834.362 434.56V747H1195V668.983" stroke="#85B6FF" stroke-width="5.38333"/>
<path d="M482.446 114.008C482.446 116.374 481.57 118.135 479.817 119.292C478.082 120.431 475.585 121 472.326 121H459.288V96.5021H471.511C472.703 96.5021 473.877 96.5985 475.033 96.7913C476.207 96.9665 477.25 97.2907 478.161 97.7638C479.072 98.2195 479.817 98.8591 480.396 99.6827C480.974 100.506 481.263 101.584 481.263 102.916C481.263 104.178 480.956 105.238 480.343 106.096C479.73 106.955 478.529 107.612 476.742 108.068C478.932 108.576 480.431 109.33 481.237 110.328C482.043 111.31 482.446 112.536 482.446 114.008ZM477.662 103.126C477.662 102.373 477.46 101.768 477.057 101.312C476.654 100.839 476.155 100.48 475.559 100.235C474.981 99.9718 474.332 99.7966 473.614 99.709C472.895 99.6214 472.194 99.5776 471.511 99.5776H462.889V106.622H471.511C472.229 106.622 472.957 106.578 473.693 106.491C474.429 106.403 475.095 106.228 475.69 105.965C476.286 105.685 476.759 105.325 477.11 104.887C477.478 104.432 477.662 103.845 477.662 103.126ZM478.845 113.851C478.845 112.414 478.258 111.362 477.083 110.696C475.909 110.031 474.306 109.698 472.273 109.698H462.889V117.925H472.273C474.306 117.925 475.909 117.583 477.083 116.9C478.258 116.216 478.845 115.2 478.845 113.851ZM508.285 96.5021H511.886V121H508.285V96.5021ZM490.989 106.307H495.194C497.893 106.307 499.943 106.894 501.345 108.068C502.765 109.224 503.474 111.073 503.474 113.614C503.474 116.173 502.765 118.048 501.345 119.239C499.943 120.413 497.911 121 495.247 121H487.388V96.5021H490.989V106.307ZM499.873 113.614C499.873 112.265 499.47 111.222 498.664 110.486C497.858 109.75 496.719 109.382 495.247 109.382H490.989V117.925H495.247C496.719 117.925 497.858 117.548 498.664 116.795C499.47 116.041 499.873 114.981 499.873 113.614ZM541.852 121H531.732V117.82H533.887L529.051 110.723L524.267 117.82H526.238V121H516.249V117.82H520.061L526.79 108.567L520.324 99.7353H516.775V96.5021H526.843V99.7353H524.582L529.051 106.412L533.572 99.7353H531.101V96.5021H541.273V99.7353H537.83L531.364 108.567L538.093 117.82H541.852V121ZM571.292 108.83C571.292 110.74 570.985 112.475 570.372 114.035C569.776 115.594 568.909 116.935 567.77 118.056C566.648 119.16 565.299 120.028 563.722 120.659C562.144 121.29 560.383 121.605 558.438 121.605C556.528 121.605 554.784 121.29 553.207 120.659C551.63 120.028 550.272 119.16 549.133 118.056C548.011 116.935 547.144 115.594 546.531 114.035C545.935 112.475 545.637 110.74 545.637 108.83C545.637 106.973 545.935 105.247 546.531 103.652C547.144 102.04 548.011 100.673 549.133 99.5513C550.272 98.4122 551.63 97.5273 553.207 96.8964C554.784 96.248 556.528 95.9238 558.438 95.9238C560.383 95.9238 562.144 96.248 563.722 96.8964C565.299 97.5273 566.648 98.4122 567.77 99.5513C568.909 100.673 569.776 102.04 570.372 103.652C570.985 105.247 571.292 106.973 571.292 108.83ZM567.691 108.83C567.691 107.428 567.48 106.14 567.06 104.966C566.657 103.775 566.052 102.732 565.246 101.838C564.44 100.944 563.459 100.243 562.302 99.7353C561.163 99.2271 559.875 98.973 558.438 98.973C557.001 98.973 555.704 99.2271 554.548 99.7353C553.409 100.243 552.445 100.944 551.656 101.838C550.868 102.732 550.263 103.775 549.843 104.966C549.44 106.14 549.238 107.428 549.238 108.83C549.238 110.232 549.44 111.529 549.843 112.72C550.263 113.895 550.868 114.911 551.656 115.77C552.445 116.628 553.409 117.303 554.548 117.794C555.704 118.284 557.001 118.53 558.438 118.53C559.875 118.53 561.163 118.284 562.302 117.794C563.459 117.303 564.44 116.628 565.246 115.77C566.052 114.911 566.657 113.895 567.06 112.72C567.48 111.529 567.691 110.232 567.691 108.83ZM575.55 117.925C576.374 117.75 577.162 117.277 577.916 116.506C578.669 115.735 579.327 114.666 579.887 113.299C580.448 111.932 580.895 110.276 581.228 108.331C581.578 106.368 581.754 104.116 581.754 101.575V96.5021H595.133V117.925H600.048V129.386H596.815V121H578.783V129.386H575.55V117.925ZM585.355 101.575C585.355 103.608 585.206 105.518 584.908 107.306C584.627 109.075 584.251 110.661 583.778 112.063C583.322 113.465 582.796 114.674 582.2 115.691C581.605 116.69 581.018 117.434 580.439 117.925H591.532V99.5776H585.355V101.575Z" fill="#5DA0FF"/>
<path d="M694.834 395.101V414H689.972V395.048C689.972 391.824 689.314 389.546 688 388.214C686.703 386.882 684.451 386.216 681.245 386.216H668.995V381.748H681.323C684.548 381.748 687.15 382.203 689.13 383.115C691.111 384.008 692.556 385.437 693.468 387.399C694.379 389.344 694.834 391.912 694.834 395.101ZM674.358 393.051V414H669.521V393.051H674.358ZM717.966 420.073V423.148H715.074V420.073H712.157V417.286H720.778V420.073H717.966ZM708.056 403.407L705.953 414H700.854L703.062 403.512C703.693 400.498 704.271 398.378 704.797 397.151C705.322 395.907 705.98 394.899 706.768 394.128C707.574 393.357 708.652 392.7 710.001 392.157L702.405 381.748H708.372L720.226 398.071C721.541 396.845 722.583 395.364 723.354 393.629C724.143 391.877 724.66 389.87 724.905 387.61L725.51 381.748H730.504L729.9 387.504C729.707 389.432 729.356 391.123 728.848 392.578C728.498 393.576 728.077 394.531 727.587 395.443C727.096 396.336 726.465 397.265 725.694 398.229C724.94 399.193 723.959 400.271 722.75 401.462L732.239 414H726.088L712.209 395.154C710.807 395.837 709.809 397.02 709.213 398.702C709.037 399.14 708.853 399.754 708.661 400.542C708.485 401.331 708.284 402.286 708.056 403.407ZM742.333 381.748V398.702H737.496V381.748H742.333ZM759.524 421.098C759.524 420.519 759.734 420.02 760.155 419.599C760.558 419.196 761.048 418.995 761.627 418.995C762.222 418.995 762.722 419.205 763.125 419.626C763.528 420.046 763.729 420.537 763.729 421.098C763.729 421.658 763.519 422.14 763.099 422.543C762.678 422.946 762.187 423.148 761.627 423.148C761.066 423.148 760.575 422.946 760.155 422.543C759.734 422.14 759.524 421.658 759.524 421.098ZM773.928 409.847V414H749.115V409.532H767.909L747.169 381.748H753.215L763.23 395.364C764.579 394.786 765.561 393.936 766.174 392.814C766.787 391.675 767.199 389.94 767.409 387.61L768.014 381.748H773.008L772.483 387.504C772.255 389.923 771.896 391.78 771.405 393.077C770.914 394.356 770.222 395.416 769.328 396.258C768.435 397.099 767.173 397.843 765.543 398.492L773.928 409.847ZM781.236 417.576C781.236 416.998 781.446 416.499 781.867 416.078C782.27 415.675 782.76 415.474 783.339 415.474C783.935 415.474 784.434 415.684 784.837 416.104C785.24 416.525 785.442 417.016 785.442 417.576C785.442 418.137 785.231 418.619 784.811 419.022C784.39 419.425 783.899 419.627 783.339 419.627C782.778 419.627 782.287 419.425 781.867 419.022C781.446 418.619 781.236 418.137 781.236 417.576ZM781.236 423.018C781.236 422.422 781.446 421.922 781.867 421.519C782.287 421.116 782.778 420.915 783.339 420.915C783.899 420.915 784.39 421.125 784.811 421.546C785.231 421.966 785.442 422.457 785.442 423.018C785.442 423.578 785.231 424.069 784.811 424.49C784.408 424.91 783.917 425.121 783.339 425.121C782.743 425.121 782.243 424.919 781.84 424.516C781.437 424.113 781.236 423.613 781.236 423.018ZM785.652 381.748V398.702H780.815V381.748H785.652Z" fill="#5DA0FF"/>
<path d="M307.315 695.231C307.315 694.127 307.605 693.12 308.183 692.208C308.761 691.28 309.567 690.509 310.601 689.895C311.653 689.264 312.879 688.782 314.281 688.45C315.701 688.099 317.26 687.924 318.96 687.924C321.641 687.924 323.858 688.362 325.61 689.238C327.38 690.114 328.8 691.429 329.869 693.181L327.187 695.021C326.469 693.794 325.435 692.813 324.086 692.077C322.736 691.341 321.028 690.973 318.96 690.973C316.472 690.973 314.509 691.359 313.072 692.13C311.653 692.901 310.943 693.935 310.943 695.231C310.943 695.669 311.074 696.116 311.337 696.572C311.6 697.01 312.012 697.413 312.573 697.781C313.133 698.131 313.843 698.429 314.702 698.675C315.56 698.903 316.568 699.016 317.725 699.016H323.139V702.066H317.725C316.533 702.066 315.499 702.188 314.623 702.434C313.747 702.661 313.011 702.968 312.415 703.354C311.819 703.722 311.363 704.151 311.048 704.642C310.75 705.115 310.601 705.588 310.601 706.061C310.601 707.463 311.398 708.558 312.993 709.347C314.588 710.135 316.682 710.53 319.275 710.53C321.431 710.53 323.227 710.197 324.664 709.531C326.101 708.865 327.231 707.901 328.055 706.639L330.578 708.374C329.474 710.127 328.011 711.441 326.189 712.317C324.384 713.176 322.079 713.605 319.275 713.605C317.523 713.605 315.902 713.43 314.413 713.079C312.923 712.746 311.626 712.256 310.522 711.607C309.436 710.959 308.577 710.17 307.946 709.242C307.315 708.295 307 707.235 307 706.061C307 704.799 307.491 703.652 308.472 702.618C309.471 701.566 310.776 700.883 312.389 700.567C310.654 700.287 309.374 699.63 308.551 698.596C307.727 697.544 307.315 696.423 307.315 695.231ZM322.298 671.39L320.09 683.613H317.435V671.39H322.298ZM343.826 694.916C341.881 694.303 340.4 693.269 339.384 691.814C338.385 690.36 337.886 688.791 337.886 687.109C337.886 685.742 338.184 684.507 338.78 683.403C339.375 682.281 340.164 681.335 341.145 680.564C342.144 679.793 343.283 679.197 344.562 678.776C345.859 678.338 347.209 678.119 348.61 678.119C349.977 678.119 351.379 678.277 352.816 678.592C354.253 678.89 355.524 679.346 356.628 679.959L355.497 682.746C354.271 682.132 353.123 681.72 352.054 681.51C350.985 681.3 349.837 681.195 348.61 681.195C346.56 681.195 344.86 681.747 343.511 682.851C342.179 683.937 341.513 685.357 341.513 687.109C341.513 689.089 342.118 690.64 343.327 691.762C344.554 692.866 346.402 693.418 348.873 693.418H355.34V696.467H348.873C347.541 696.467 346.324 696.642 345.22 696.992C344.133 697.325 343.204 697.807 342.433 698.438C341.662 699.069 341.066 699.796 340.646 700.62C340.243 701.443 340.041 702.337 340.041 703.301C340.041 704.668 340.348 705.754 340.961 706.56C341.575 707.367 342.381 707.989 343.38 708.427C344.396 708.847 345.544 709.145 346.823 709.32C348.12 709.478 349.434 709.61 350.766 709.715C352.01 709.82 353.21 709.969 354.367 710.162C355.524 710.337 356.531 710.652 357.39 711.108C358.249 711.546 358.932 712.151 359.44 712.922C359.966 713.693 360.229 714.727 360.229 716.023C360.229 717.53 359.721 718.95 358.704 720.282C357.688 721.631 356.154 722.665 354.104 723.383L352.527 720.65C354.069 720.071 355.138 719.362 355.734 718.521C356.33 717.679 356.628 716.847 356.628 716.023C356.628 715.375 356.479 714.858 356.181 714.472C355.9 714.104 355.497 713.807 354.972 713.579C354.463 713.368 353.824 713.211 353.053 713.106C352.282 713 351.414 712.913 350.45 712.843C348.4 712.668 346.516 712.431 344.799 712.133C343.099 711.818 341.627 711.309 340.383 710.608C339.156 709.908 338.192 708.979 337.492 707.822C336.791 706.648 336.44 705.106 336.44 703.196C336.44 701.303 337.088 699.63 338.385 698.175C339.682 696.721 341.496 695.634 343.826 694.916ZM390.904 700.83C390.904 702.74 390.598 704.475 389.984 706.035C389.388 707.594 388.521 708.935 387.382 710.056C386.26 711.16 384.911 712.028 383.334 712.659C381.757 713.29 379.996 713.605 378.051 713.605C376.14 713.605 374.397 713.29 372.82 712.659C371.243 712.028 369.884 711.16 368.745 710.056C367.624 708.935 366.756 707.594 366.143 706.035C365.547 704.475 365.249 702.74 365.249 700.83C365.249 698.973 365.547 697.247 366.143 695.652C366.756 694.04 367.624 692.673 368.745 691.551C369.884 690.412 371.243 689.527 372.82 688.896C374.397 688.248 376.14 687.924 378.051 687.924C379.996 687.924 381.757 688.248 383.334 688.896C384.911 689.527 386.26 690.412 387.382 691.551C388.521 692.673 389.388 694.04 389.984 695.652C390.598 697.247 390.904 698.973 390.904 700.83ZM387.303 700.83C387.303 699.428 387.093 698.14 386.672 696.966C386.269 695.775 385.665 694.732 384.859 693.838C384.052 692.944 383.071 692.243 381.915 691.735C380.775 691.227 379.487 690.973 378.051 690.973C376.614 690.973 375.317 691.227 374.16 691.735C373.021 692.243 372.057 692.944 371.269 693.838C370.48 694.732 369.876 695.775 369.455 696.966C369.052 698.14 368.851 699.428 368.851 700.83C368.851 702.232 369.052 703.529 369.455 704.72C369.876 705.895 370.48 706.911 371.269 707.77C372.057 708.628 373.021 709.303 374.16 709.794C375.317 710.284 376.614 710.53 378.051 710.53C379.487 710.53 380.775 710.284 381.915 709.794C383.071 709.303 384.052 708.628 384.859 707.77C385.665 706.911 386.269 705.895 386.672 704.72C387.093 703.529 387.303 702.232 387.303 700.83ZM403.942 684.296C403.942 685.015 404.301 685.707 405.02 686.373C405.738 687.039 406.632 687.731 407.701 688.45C408.787 689.168 409.962 689.957 411.223 690.815C412.502 691.674 413.677 692.664 414.746 693.786C415.832 694.89 416.734 696.143 417.453 697.544C418.171 698.946 418.531 700.541 418.531 702.328C418.531 704.028 418.268 705.562 417.742 706.928C417.216 708.278 416.472 709.461 415.508 710.477C414.544 711.476 413.37 712.247 411.986 712.79C410.601 713.333 409.05 713.605 407.333 713.605C405.651 713.605 404.117 713.333 402.733 712.79C401.349 712.247 400.166 711.476 399.184 710.477C398.221 709.461 397.476 708.278 396.95 706.928C396.442 705.562 396.188 704.028 396.188 702.328C396.188 700.261 396.915 698.184 398.369 696.099C399.824 694.013 402.023 692.165 404.967 690.552C404.319 690.114 403.714 689.676 403.153 689.238C402.593 688.782 402.102 688.318 401.681 687.845C401.278 687.354 400.954 686.82 400.709 686.242C400.464 685.663 400.341 685.015 400.341 684.296C400.341 683.543 400.507 682.798 400.84 682.062C401.191 681.326 401.69 680.669 402.339 680.091C403.005 679.495 403.811 679.022 404.757 678.671C405.721 678.303 406.807 678.119 408.016 678.119C409.488 678.119 410.803 678.268 411.959 678.566C413.116 678.846 414.229 679.346 415.298 680.064L413.694 682.64C412.853 682.062 411.968 681.677 411.039 681.484C410.11 681.291 409.103 681.195 408.016 681.195C406.842 681.195 405.87 681.458 405.099 681.983C404.328 682.491 403.942 683.262 403.942 684.296ZM414.93 702.328C414.93 700.331 414.281 698.508 412.984 696.861C411.688 695.196 409.874 693.742 407.543 692.498C405.213 693.742 403.337 695.196 401.918 696.861C400.499 698.508 399.789 700.357 399.789 702.407C399.789 703.406 399.92 704.388 400.183 705.351C400.464 706.315 400.893 707.191 401.471 707.98C402.067 708.751 402.847 709.373 403.811 709.846C404.792 710.302 405.966 710.53 407.333 710.53C408.7 710.53 409.865 710.284 410.829 709.794C411.793 709.303 412.581 708.672 413.195 707.901C413.808 707.13 414.246 706.263 414.509 705.299C414.789 704.335 414.93 703.345 414.93 702.328ZM449.679 700.83C449.679 702.74 449.373 704.475 448.759 706.035C448.164 707.594 447.296 708.935 446.157 710.056C445.036 711.16 443.686 712.028 442.109 712.659C440.532 713.29 438.771 713.605 436.826 713.605C434.915 713.605 433.172 713.29 431.595 712.659C430.018 712.028 428.659 711.16 427.52 710.056C426.399 708.935 425.531 707.594 424.918 706.035C424.322 704.475 424.024 702.74 424.024 700.83C424.024 698.973 424.322 697.247 424.918 695.652C425.531 694.04 426.399 692.673 427.52 691.551C428.659 690.412 430.018 689.527 431.595 688.896C433.172 688.248 434.915 687.924 436.826 687.924C438.771 687.924 440.532 688.248 442.109 688.896C443.686 689.527 445.036 690.412 446.157 691.551C447.296 692.673 448.164 694.04 448.759 695.652C449.373 697.247 449.679 698.973 449.679 700.83ZM446.078 700.83C446.078 699.428 445.868 698.14 445.447 696.966C445.044 695.775 444.44 694.732 443.634 693.838C442.828 692.944 441.846 692.243 440.69 691.735C439.551 691.227 438.263 690.973 436.826 690.973C435.389 690.973 434.092 691.227 432.935 691.735C431.796 692.243 430.832 692.944 430.044 693.838C429.255 694.732 428.651 695.775 428.23 696.966C427.827 698.14 427.626 699.428 427.626 700.83C427.626 702.232 427.827 703.529 428.23 704.72C428.651 705.895 429.255 706.911 430.044 707.77C430.832 708.628 431.796 709.303 432.935 709.794C434.092 710.284 435.389 710.53 436.826 710.53C438.263 710.53 439.551 710.284 440.69 709.794C441.846 709.303 442.828 708.628 443.634 707.77C444.44 706.911 445.044 705.895 445.447 704.72C445.868 703.529 446.078 702.232 446.078 700.83ZM453.99 700.778C453.99 698.885 454.306 697.15 454.937 695.573C455.567 693.978 456.444 692.62 457.565 691.499C458.704 690.36 460.062 689.483 461.639 688.87C463.217 688.239 464.96 687.924 466.87 687.924C469.341 687.924 471.47 688.397 473.258 689.343C475.063 690.29 476.482 691.569 477.516 693.181L474.993 694.916C474.239 693.724 473.153 692.769 471.733 692.051C470.314 691.332 468.693 690.973 466.87 690.973C465.433 690.973 464.137 691.227 462.98 691.735C461.841 692.243 460.868 692.936 460.062 693.812C459.274 694.688 458.66 695.722 458.222 696.914C457.802 698.088 457.591 699.376 457.591 700.778C457.591 702.425 457.907 703.8 458.538 704.904C459.169 705.991 459.983 706.876 460.982 707.559C461.999 708.243 463.146 708.751 464.426 709.084C465.722 709.399 467.019 709.61 468.316 709.715C469.56 709.82 470.761 709.969 471.917 710.162C473.074 710.337 474.081 710.652 474.94 711.108C475.799 711.546 476.482 712.151 476.99 712.922C477.516 713.693 477.779 714.727 477.779 716.023C477.779 717.53 477.271 718.95 476.254 720.282C475.238 721.631 473.705 722.665 471.654 723.383L470.077 720.65C471.619 720.071 472.688 719.362 473.284 718.521C473.88 717.679 474.178 716.847 474.178 716.023C474.178 715.375 474.029 714.858 473.731 714.472C473.45 714.104 473.047 713.807 472.522 713.579C472.014 713.368 471.374 713.211 470.603 713.106C469.832 713 468.964 712.913 468.001 712.843C466.055 712.703 464.233 712.387 462.533 711.896C460.851 711.406 459.37 710.696 458.091 709.767C456.829 708.839 455.83 707.647 455.094 706.192C454.358 704.738 453.99 702.933 453.99 700.778Z" fill="#5DA0FF"/>
<path d="M1046.32 614.816C1046.64 617.928 1047.77 620.409 1049.73 622.26C1051.68 624.11 1054.23 625.035 1057.36 625.035C1059.57 625.035 1061.54 624.583 1063.26 623.679C1064.98 622.775 1066.28 621.65 1067.14 620.304L1070.17 622.386C1068.7 624.447 1066.94 626.024 1064.9 627.117C1062.86 628.19 1060.35 628.726 1057.36 628.726C1055.09 628.726 1053.01 628.347 1051.12 627.59C1049.22 626.833 1047.58 625.782 1046.2 624.436C1044.83 623.069 1043.77 621.45 1043.01 619.579C1042.25 617.707 1041.87 615.625 1041.87 613.333C1041.87 611.104 1042.21 609.054 1042.88 607.182C1043.58 605.29 1044.57 603.66 1045.85 602.293C1047.15 600.905 1048.73 599.833 1050.58 599.076C1052.43 598.298 1054.5 597.908 1056.79 597.908C1059.3 597.908 1061.48 598.329 1063.35 599.17C1065.23 600.011 1066.78 601.178 1068.02 602.671C1069.28 604.143 1070.21 605.91 1070.8 607.971C1071.41 610.032 1071.71 612.313 1071.71 614.816H1046.32ZM1067.14 611.125C1066.66 607.908 1065.49 605.51 1063.64 603.933C1061.79 602.356 1059.51 601.567 1056.79 601.567C1055.41 601.567 1054.12 601.799 1052.95 602.261C1051.77 602.703 1050.73 603.344 1049.82 604.186C1048.92 605.027 1048.16 606.047 1047.55 607.245C1046.94 608.423 1046.55 609.716 1046.38 611.125H1067.14ZM1107.36 628H1095.21V624.184H1097.8L1092 615.667L1086.25 624.184H1088.62V628H1076.63V624.184H1081.21L1089.28 613.081L1081.52 602.482H1077.27V598.602H1089.35V602.482H1086.63L1092 610.494L1097.42 602.482H1094.46V598.602H1106.66V602.482H1102.53L1094.77 613.081L1102.85 624.184H1107.36V628ZM1130.16 592.735H1124.3V586.837H1130.16V592.735ZM1136.03 628H1118.4V624.31H1125.05V602.293H1118.4V598.602H1129.41V624.31H1136.03V628ZM1177.51 618.632C1177.17 621.723 1175.95 624.184 1173.85 626.013C1171.77 627.822 1169.16 628.726 1166.03 628.726C1164.3 628.726 1162.73 628.442 1161.3 627.874C1159.87 627.307 1158.65 626.518 1157.64 625.509C1156.63 624.499 1155.84 623.29 1155.27 621.881C1154.72 620.451 1154.45 618.895 1154.45 617.213V602.293H1147.8V598.602H1154.45V586.837H1158.77V598.602H1171.29V602.293H1158.77V617.213C1158.77 618.285 1158.94 619.295 1159.28 620.241C1159.63 621.187 1160.12 622.018 1160.73 622.733C1161.36 623.448 1162.12 624.016 1163 624.436C1163.88 624.836 1164.89 625.035 1166.03 625.035C1168.17 625.035 1169.96 624.373 1171.39 623.048C1172.84 621.702 1173.67 619.968 1173.88 617.844L1177.51 618.632Z" fill="#5DA0FF"/>
<path d="M519.097 256.904C520.148 257.955 521.852 257.955 522.903 256.904L540.033 239.774C541.084 238.723 541.084 237.019 540.033 235.968C538.982 234.916 537.278 234.916 536.226 235.968L521 251.194L505.774 235.968C504.722 234.916 503.018 234.916 501.967 235.968C500.916 237.019 500.916 238.723 501.967 239.774L519.097 256.904ZM523.692 255V181H518.308V255H523.692Z" fill="#5DA0FF"/>
<path d="M519.097 417.904C520.148 418.955 521.852 418.955 522.903 417.904L540.033 400.774C541.084 399.723 541.084 398.019 540.033 396.968C538.982 395.916 537.278 395.916 536.226 396.968L521 412.194L505.774 396.968C504.722 395.916 503.018 395.916 501.967 396.968C500.916 398.019 500.916 399.723 501.967 400.774L519.097 417.904ZM523.692 416V342H518.308V416H523.692Z" fill="#5DA0FF"/>
<path d="M519.097 562.904C520.148 563.955 521.852 563.955 522.903 562.904L540.033 545.774C541.084 544.723 541.084 543.019 540.033 541.968C538.982 540.916 537.278 540.916 536.226 541.968L521 557.194L505.774 541.968C504.722 540.916 503.018 540.916 501.967 541.968C500.916 543.019 500.916 544.723 501.967 545.774L519.097 562.904ZM523.692 561V487H518.308V561H523.692Z" fill="#5DA0FF"/>
<path d="M395.097 658.904C396.148 659.955 397.852 659.955 398.903 658.904L416.033 641.774C417.084 640.723 417.084 639.019 416.033 637.968C414.982 636.916 413.278 636.916 412.226 637.968L397 653.194L381.774 637.968C380.722 636.916 379.018 636.916 377.967 637.968C376.916 639.019 376.916 640.723 377.967 641.774L395.097 658.904ZM399.692 657V583H394.308V657H399.692Z" fill="#5DA0FF"/>
<path d="M688.903 295.904C689.954 294.853 689.954 293.148 688.903 292.097L671.774 274.968C670.722 273.916 669.018 273.916 667.967 274.968C666.916 276.019 666.916 277.723 667.967 278.774L683.193 294L667.967 309.227C666.916 310.278 666.916 311.982 667.967 313.033C669.018 314.085 670.722 314.085 671.774 313.033L688.903 295.904ZM613 296.692H687V291.309H613V296.692Z" fill="#5DA0FF"/>
<path d="M917.903 295.904C918.954 294.853 918.954 293.148 917.903 292.097L900.774 274.968C899.722 273.916 898.018 273.916 896.967 274.968C895.916 276.019 895.916 277.723 896.967 278.774L912.193 294L896.967 309.227C895.916 310.278 895.916 311.982 896.967 313.033C898.018 314.085 899.722 314.085 900.774 313.033L917.903 295.904ZM842 296.692H916V291.309H842V296.692Z" fill="#5DA0FF"/>
<path d="M1006.1 402.904C1007.15 403.955 1008.85 403.955 1009.9 402.904L1027.03 385.774C1028.08 384.723 1028.08 383.019 1027.03 381.968C1025.98 380.916 1024.28 380.916 1023.23 381.968L1008 397.194L992.774 381.968C991.722 380.916 990.018 380.916 988.967 381.968C987.916 383.019 987.916 384.723 988.967 385.774L1006.1 402.904ZM1010.69 401V327H1005.31V401H1010.69Z" fill="#5DA0FF"/>
<path d="M1006.1 545.904C1007.15 546.955 1008.85 546.955 1009.9 545.904L1027.03 528.774C1028.08 527.723 1028.08 526.019 1027.03 524.968C1025.98 523.916 1024.28 523.916 1023.23 524.968L1008 540.194L992.774 524.968C991.722 523.916 990.018 523.916 988.967 524.968C987.916 526.019 987.916 527.723 988.967 528.774L1006.1 545.904ZM1010.69 544V470H1005.31V544H1010.69Z" fill="#5DA0FF"/>
</g>
</g>
<defs>
<clipPath id="clip0_268_3842">
<rect width="1440" height="800" fill="white" transform="translate(0 0.251587)"/>
</clipPath>
<clipPath id="clip1_268_3842">
<rect width="1450.76" height="10980.4" fill="white" transform="translate(-13.4746 -9070.37)"/>
</clipPath>
</defs>
</svg>
