<svg width="1440" height="801" viewBox="0 0 1440 801" fill="none" xmlns="http://www.w3.org/2000/svg">
<g clip-path="url(#clip0_268_3842)">
<rect width="1440" height="800" transform="translate(0 0.251587)" fill="#DEDEDE"/>
<g clip-path="url(#clip1_268_3842)">
<rect width="1450.76" height="10980.4" transform="translate(-25 -9080)" fill="#E0E0E0"/>
<path d="M1183.47 569.013V273.512L991.134 273.512V83.6447H911.794V126.906H620.879V28.3667L390.07 28.3667L390.07 485.011H166.475V604.213L166.475 737.367H414.113L620.879 737.367V424.926L822.836 424.926V737.367H1183.47V659.349" stroke="#85B6FF" stroke-width="5.38333"/>
<path d="M470.92 104.375C470.92 106.74 470.044 108.502 468.292 109.658C466.557 110.797 464.06 111.367 460.8 111.367H447.763V86.8683H459.986C461.177 86.8683 462.351 86.9647 463.508 87.1575C464.682 87.3327 465.725 87.6569 466.636 88.13C467.547 88.5857 468.292 89.2253 468.87 90.0489C469.448 90.8725 469.738 91.9503 469.738 93.2821C469.738 94.5438 469.431 95.604 468.818 96.4626C468.204 97.3213 467.004 97.9785 465.216 98.4341C467.407 98.9423 468.905 99.6958 469.711 100.695C470.517 101.676 470.92 102.903 470.92 104.375ZM466.136 93.4924C466.136 92.7388 465.935 92.1343 465.532 91.6786C465.129 91.2055 464.629 90.8462 464.034 90.6009C463.455 90.3381 462.807 90.1628 462.088 90.0752C461.37 89.9876 460.669 89.9438 459.986 89.9438H451.364V96.9884H459.986C460.704 96.9884 461.431 96.9446 462.167 96.8569C462.903 96.7693 463.569 96.5941 464.165 96.3312C464.761 96.0508 465.234 95.6916 465.584 95.2535C465.952 94.7979 466.136 94.2108 466.136 93.4924ZM467.319 104.217C467.319 102.78 466.732 101.729 465.558 101.063C464.384 100.397 462.781 100.064 460.748 100.064H451.364V108.291H460.748C462.781 108.291 464.384 107.95 465.558 107.266C466.732 106.583 467.319 105.566 467.319 104.217ZM496.759 86.8683H500.361V111.367H496.759V86.8683ZM479.463 96.6729H483.669C486.368 96.6729 488.418 97.26 489.82 98.4341C491.239 99.5907 491.949 101.439 491.949 103.98C491.949 106.539 491.239 108.414 489.82 109.606C488.418 110.78 486.385 111.367 483.722 111.367H475.862V86.8683H479.463V96.6729ZM488.348 103.98C488.348 102.631 487.945 101.588 487.139 100.852C486.333 100.116 485.194 99.7484 483.722 99.7484H479.463V108.291H483.722C485.194 108.291 486.333 107.914 487.139 107.161C487.945 106.407 488.348 105.347 488.348 103.98ZM530.326 111.367H520.206V108.186H522.362L517.525 101.089L512.741 108.186H514.713V111.367H504.724V108.186H508.535L515.265 98.9335L508.798 90.1015H505.25V86.8683H515.317V90.1015H513.057L517.525 96.7781L522.046 90.1015H519.575V86.8683H529.748V90.1015H526.305L519.838 98.9335L526.567 108.186H530.326V111.367ZM559.766 99.1964C559.766 101.106 559.46 102.841 558.846 104.401C558.251 105.961 557.383 107.301 556.244 108.423C555.123 109.527 553.773 110.394 552.196 111.025C550.619 111.656 548.858 111.971 546.913 111.971C545.003 111.971 543.259 111.656 541.682 111.025C540.105 110.394 538.747 109.527 537.608 108.423C536.486 107.301 535.619 105.961 535.005 104.401C534.409 102.841 534.111 101.106 534.111 99.1964C534.111 97.3388 534.409 95.6127 535.005 94.0181C535.619 92.4059 536.486 91.039 537.608 89.9175C538.747 88.7784 540.105 87.8935 541.682 87.2626C543.259 86.6142 545.003 86.29 546.913 86.29C548.858 86.29 550.619 86.6142 552.196 87.2626C553.773 87.8935 555.123 88.7784 556.244 89.9175C557.383 91.039 558.251 92.4059 558.846 94.0181C559.46 95.6127 559.766 97.3388 559.766 99.1964ZM556.165 99.1964C556.165 97.7945 555.955 96.5065 555.534 95.3324C555.131 94.1407 554.527 93.0981 553.721 92.2043C552.915 91.3106 551.933 90.6097 550.777 90.1015C549.638 89.5933 548.35 89.3392 546.913 89.3392C545.476 89.3392 544.179 89.5933 543.022 90.1015C541.883 90.6097 540.92 91.3106 540.131 92.2043C539.342 93.0981 538.738 94.1407 538.317 95.3324C537.914 96.5065 537.713 97.7945 537.713 99.1964C537.713 100.598 537.914 101.895 538.317 103.087C538.738 104.261 539.342 105.277 540.131 106.136C540.92 106.994 541.883 107.669 543.022 108.16C544.179 108.65 545.476 108.896 546.913 108.896C548.35 108.896 549.638 108.65 550.777 108.16C551.933 107.669 552.915 106.994 553.721 106.136C554.527 105.277 555.131 104.261 555.534 103.087C555.955 101.895 556.165 100.598 556.165 99.1964ZM564.025 108.291C564.848 108.116 565.637 107.643 566.39 106.872C567.144 106.101 567.801 105.032 568.362 103.665C568.923 102.298 569.37 100.642 569.702 98.6969C570.053 96.7343 570.228 94.4824 570.228 91.9415V86.8683H583.608V108.291H588.523V119.752H585.29V111.367H567.258V119.752H564.025V108.291ZM573.829 91.9415C573.829 93.9743 573.68 95.8844 573.382 97.6718C573.102 99.4417 572.725 101.028 572.252 102.43C571.797 103.831 571.271 105.041 570.675 106.057C570.079 107.056 569.492 107.801 568.914 108.291H580.007V89.9438H573.829V91.9415Z" fill="#5DA0FF"/>
<path d="M441.834 341.1V360H436.972V341.047C436.972 337.823 436.314 335.545 435 334.213C433.703 332.881 431.451 332.215 428.245 332.215H415.995V327.747H428.323C431.548 327.747 434.15 328.202 436.13 329.114C438.111 330.007 439.556 331.436 440.468 333.398C441.379 335.343 441.834 337.911 441.834 341.1ZM421.358 339.05V360H416.521V339.05H421.358ZM464.966 366.072V369.147H462.074V366.072H459.157V363.285H467.778V366.072H464.966ZM455.056 349.406L452.953 360H447.854L450.062 349.511C450.693 346.497 451.271 344.377 451.797 343.15C452.322 341.906 452.98 340.898 453.768 340.127C454.574 339.356 455.652 338.699 457.001 338.156L449.405 327.747H455.372L467.226 344.07C468.541 342.844 469.583 341.363 470.354 339.628C471.143 337.876 471.66 335.869 471.905 333.609L472.51 327.747H477.504L476.9 333.503C476.707 335.431 476.356 337.122 475.848 338.577C475.498 339.575 475.077 340.53 474.587 341.442C474.096 342.335 473.465 343.264 472.694 344.228C471.94 345.192 470.959 346.27 469.75 347.461L479.239 360H473.088L459.209 341.153C457.807 341.836 456.809 343.019 456.213 344.701C456.037 345.139 455.853 345.753 455.661 346.541C455.485 347.33 455.284 348.285 455.056 349.406ZM489.333 327.747V344.701H484.496V327.747H489.333ZM506.524 367.097C506.524 366.518 506.734 366.019 507.155 365.598C507.558 365.195 508.048 364.994 508.627 364.994C509.222 364.994 509.722 365.204 510.125 365.625C510.528 366.045 510.729 366.536 510.729 367.097C510.729 367.657 510.519 368.139 510.099 368.542C509.678 368.945 509.187 369.147 508.627 369.147C508.066 369.147 507.575 368.945 507.155 368.542C506.734 368.139 506.524 367.657 506.524 367.097ZM520.928 355.846V360H496.115V355.531H514.909L494.169 327.747H500.215L510.23 341.363C511.579 340.785 512.561 339.935 513.174 338.813C513.787 337.674 514.199 335.939 514.409 333.609L515.014 327.747H520.008L519.483 333.503C519.255 335.922 518.896 337.779 518.405 339.076C517.914 340.355 517.222 341.415 516.328 342.257C515.435 343.098 514.173 343.843 512.543 344.491L520.928 355.846ZM528.236 363.576C528.236 362.997 528.446 362.498 528.867 362.077C529.27 361.674 529.76 361.473 530.339 361.473C530.935 361.473 531.434 361.683 531.837 362.104C532.24 362.524 532.442 363.015 532.442 363.576C532.442 364.136 532.231 364.618 531.811 365.021C531.39 365.424 530.899 365.626 530.339 365.626C529.778 365.626 529.287 365.424 528.867 365.021C528.446 364.618 528.236 364.136 528.236 363.576ZM528.236 369.017C528.236 368.421 528.446 367.921 528.867 367.518C529.287 367.115 529.778 366.914 530.339 366.914C530.899 366.914 531.39 367.124 531.811 367.545C532.231 367.965 532.442 368.456 532.442 369.017C532.442 369.577 532.231 370.068 531.811 370.489C531.408 370.909 530.917 371.12 530.339 371.12C529.743 371.12 529.243 370.918 528.84 370.515C528.437 370.112 528.236 369.612 528.236 369.017ZM532.652 327.747V344.701H527.815V327.747H532.652Z" fill="#5DA0FF"/>
<path d="M544.315 261.23C544.315 260.126 544.605 259.119 545.183 258.207C545.761 257.279 546.567 256.508 547.601 255.894C548.653 255.263 549.879 254.782 551.281 254.449C552.701 254.098 554.26 253.923 555.96 253.923C558.641 253.923 560.858 254.361 562.61 255.237C564.38 256.113 565.8 257.428 566.869 259.18L564.187 261.02C563.469 259.793 562.435 258.812 561.086 258.076C559.736 257.34 558.028 256.972 555.96 256.972C553.472 256.972 551.509 257.358 550.072 258.129C548.653 258.9 547.943 259.934 547.943 261.23C547.943 261.668 548.074 262.115 548.337 262.571C548.6 263.009 549.012 263.412 549.573 263.78C550.133 264.131 550.843 264.428 551.702 264.674C552.56 264.902 553.568 265.015 554.725 265.015H560.139V268.065H554.725C553.533 268.065 552.499 268.187 551.623 268.433C550.747 268.66 550.011 268.967 549.415 269.353C548.819 269.721 548.363 270.15 548.048 270.641C547.75 271.114 547.601 271.587 547.601 272.06C547.601 273.462 548.398 274.557 549.993 275.346C551.588 276.134 553.682 276.529 556.275 276.529C558.431 276.529 560.227 276.196 561.664 275.53C563.101 274.864 564.231 273.9 565.055 272.638L567.578 274.373C566.474 276.126 565.011 277.44 563.189 278.316C561.384 279.175 559.079 279.604 556.275 279.604C554.523 279.604 552.902 279.429 551.413 279.078C549.923 278.745 548.626 278.255 547.522 277.606C546.436 276.958 545.577 276.169 544.946 275.241C544.315 274.294 544 273.234 544 272.06C544 270.798 544.491 269.651 545.472 268.617C546.471 267.565 547.776 266.882 549.389 266.566C547.654 266.286 546.374 265.629 545.551 264.595C544.727 263.543 544.315 262.422 544.315 261.23ZM559.298 237.389L557.09 249.612H554.435V237.389H559.298ZM580.826 260.915C578.881 260.302 577.4 259.268 576.384 257.813C575.385 256.359 574.886 254.79 574.886 253.108C574.886 251.741 575.184 250.506 575.78 249.402C576.375 248.28 577.164 247.334 578.145 246.563C579.144 245.792 580.283 245.196 581.562 244.775C582.859 244.337 584.209 244.118 585.61 244.118C586.977 244.118 588.379 244.276 589.816 244.591C591.253 244.889 592.524 245.345 593.628 245.958L592.497 248.745C591.271 248.131 590.123 247.719 589.054 247.509C587.985 247.299 586.837 247.194 585.61 247.194C583.56 247.194 581.86 247.746 580.511 248.85C579.179 249.936 578.513 251.356 578.513 253.108C578.513 255.088 579.118 256.639 580.327 257.761C581.554 258.865 583.402 259.417 585.873 259.417H592.34V262.466H585.873C584.541 262.466 583.324 262.641 582.22 262.991C581.133 263.324 580.204 263.806 579.433 264.437C578.662 265.068 578.066 265.795 577.646 266.619C577.243 267.443 577.041 268.336 577.041 269.3C577.041 270.667 577.348 271.753 577.961 272.559C578.575 273.366 579.381 273.988 580.38 274.426C581.396 274.846 582.544 275.144 583.823 275.319C585.12 275.477 586.434 275.609 587.766 275.714C589.01 275.819 590.21 275.968 591.367 276.161C592.524 276.336 593.531 276.651 594.39 277.107C595.249 277.545 595.932 278.15 596.44 278.921C596.966 279.692 597.229 280.726 597.229 282.022C597.229 283.529 596.721 284.949 595.704 286.281C594.688 287.63 593.154 288.664 591.104 289.382L589.527 286.649C591.069 286.07 592.138 285.361 592.734 284.52C593.33 283.678 593.628 282.846 593.628 282.022C593.628 281.374 593.479 280.857 593.181 280.472C592.9 280.104 592.497 279.806 591.972 279.578C591.463 279.368 590.824 279.21 590.053 279.105C589.282 279 588.414 278.912 587.45 278.842C585.4 278.667 583.516 278.43 581.799 278.132C580.099 277.817 578.627 277.308 577.383 276.608C576.156 275.907 575.192 274.978 574.492 273.821C573.791 272.647 573.44 271.105 573.44 269.195C573.44 267.302 574.088 265.629 575.385 264.174C576.682 262.72 578.496 261.633 580.826 260.915ZM627.904 266.829C627.904 268.739 627.598 270.474 626.984 272.034C626.388 273.593 625.521 274.934 624.382 276.056C623.26 277.16 621.911 278.027 620.334 278.658C618.757 279.289 616.996 279.604 615.051 279.604C613.14 279.604 611.397 279.289 609.82 278.658C608.243 278.027 606.884 277.16 605.745 276.056C604.624 274.934 603.756 273.593 603.143 272.034C602.547 270.474 602.249 268.739 602.249 266.829C602.249 264.972 602.547 263.246 603.143 261.651C603.756 260.039 604.624 258.672 605.745 257.55C606.884 256.411 608.243 255.526 609.82 254.895C611.397 254.247 613.14 253.923 615.051 253.923C616.996 253.923 618.757 254.247 620.334 254.895C621.911 255.526 623.26 256.411 624.382 257.55C625.521 258.672 626.388 260.039 626.984 261.651C627.598 263.246 627.904 264.972 627.904 266.829ZM624.303 266.829C624.303 265.427 624.093 264.139 623.672 262.965C623.269 261.774 622.665 260.731 621.859 259.837C621.052 258.943 620.071 258.242 618.915 257.734C617.775 257.226 616.487 256.972 615.051 256.972C613.614 256.972 612.317 257.226 611.16 257.734C610.021 258.242 609.057 258.943 608.269 259.837C607.48 260.731 606.876 261.774 606.455 262.965C606.052 264.139 605.851 265.427 605.851 266.829C605.851 268.231 606.052 269.528 606.455 270.719C606.876 271.894 607.48 272.91 608.269 273.769C609.057 274.627 610.021 275.302 611.16 275.793C612.317 276.283 613.614 276.529 615.051 276.529C616.487 276.529 617.775 276.283 618.915 275.793C620.071 275.302 621.052 274.627 621.859 273.769C622.665 272.91 623.269 271.894 623.672 270.719C624.093 269.528 624.303 268.231 624.303 266.829ZM640.942 250.295C640.942 251.014 641.301 251.706 642.02 252.372C642.738 253.038 643.632 253.73 644.701 254.449C645.787 255.167 646.962 255.956 648.223 256.814C649.502 257.673 650.677 258.663 651.746 259.785C652.832 260.889 653.734 262.142 654.453 263.543C655.171 264.945 655.531 266.54 655.531 268.327C655.531 270.027 655.268 271.561 654.742 272.927C654.216 274.277 653.472 275.46 652.508 276.476C651.544 277.475 650.37 278.246 648.986 278.789C647.601 279.332 646.05 279.604 644.333 279.604C642.651 279.604 641.117 279.332 639.733 278.789C638.349 278.246 637.166 277.475 636.184 276.476C635.221 275.46 634.476 274.277 633.95 272.927C633.442 271.561 633.188 270.027 633.188 268.327C633.188 266.26 633.915 264.183 635.369 262.098C636.824 260.012 639.023 258.164 641.967 256.551C641.319 256.113 640.714 255.675 640.153 255.237C639.593 254.782 639.102 254.317 638.681 253.844C638.278 253.353 637.954 252.819 637.709 252.241C637.464 251.662 637.341 251.014 637.341 250.295C637.341 249.542 637.507 248.797 637.84 248.061C638.191 247.325 638.69 246.668 639.339 246.09C640.005 245.494 640.811 245.021 641.757 244.67C642.721 244.302 643.807 244.118 645.016 244.118C646.488 244.118 647.803 244.267 648.959 244.565C650.116 244.845 651.229 245.345 652.298 246.063L650.694 248.639C649.853 248.061 648.968 247.676 648.039 247.483C647.11 247.29 646.103 247.194 645.016 247.194C643.842 247.194 642.87 247.457 642.099 247.982C641.328 248.49 640.942 249.262 640.942 250.295ZM651.93 268.327C651.93 266.33 651.281 264.507 649.984 262.86C648.688 261.195 646.874 259.741 644.543 258.497C642.213 259.741 640.337 261.195 638.918 262.86C637.499 264.507 636.789 266.356 636.789 268.406C636.789 269.405 636.92 270.387 637.183 271.35C637.464 272.314 637.893 273.19 638.471 273.979C639.067 274.75 639.847 275.372 640.811 275.845C641.792 276.301 642.966 276.529 644.333 276.529C645.7 276.529 646.865 276.283 647.829 275.793C648.793 275.302 649.581 274.671 650.195 273.9C650.808 273.129 651.246 272.262 651.509 271.298C651.789 270.334 651.93 269.344 651.93 268.327ZM686.679 266.829C686.679 268.739 686.373 270.474 685.759 272.034C685.164 273.593 684.296 274.934 683.157 276.056C682.036 277.16 680.686 278.027 679.109 278.658C677.532 279.289 675.771 279.604 673.826 279.604C671.915 279.604 670.172 279.289 668.595 278.658C667.018 278.027 665.659 277.16 664.52 276.056C663.399 274.934 662.531 273.593 661.918 272.034C661.322 270.474 661.024 268.739 661.024 266.829C661.024 264.972 661.322 263.246 661.918 261.651C662.531 260.039 663.399 258.672 664.52 257.55C665.659 256.411 667.018 255.526 668.595 254.895C670.172 254.247 671.915 253.923 673.826 253.923C675.771 253.923 677.532 254.247 679.109 254.895C680.686 255.526 682.036 256.411 683.157 257.55C684.296 258.672 685.164 260.039 685.759 261.651C686.373 263.246 686.679 264.972 686.679 266.829ZM683.078 266.829C683.078 265.427 682.868 264.139 682.447 262.965C682.044 261.774 681.44 260.731 680.634 259.837C679.828 258.943 678.846 258.242 677.69 257.734C676.551 257.226 675.263 256.972 673.826 256.972C672.389 256.972 671.092 257.226 669.935 257.734C668.796 258.242 667.832 258.943 667.044 259.837C666.255 260.731 665.651 261.774 665.23 262.965C664.827 264.139 664.626 265.427 664.626 266.829C664.626 268.231 664.827 269.528 665.23 270.719C665.651 271.894 666.255 272.91 667.044 273.769C667.832 274.627 668.796 275.302 669.935 275.793C671.092 276.283 672.389 276.529 673.826 276.529C675.263 276.529 676.551 276.283 677.69 275.793C678.846 275.302 679.828 274.627 680.634 273.769C681.44 272.91 682.044 271.894 682.447 270.719C682.868 269.528 683.078 268.231 683.078 266.829ZM690.99 266.777C690.99 264.884 691.306 263.149 691.937 261.572C692.567 259.977 693.444 258.619 694.565 257.498C695.704 256.359 697.062 255.482 698.639 254.869C700.217 254.238 701.96 253.923 703.87 253.923C706.341 253.923 708.47 254.396 710.258 255.342C712.063 256.289 713.482 257.568 714.516 259.18L711.993 260.915C711.239 259.723 710.153 258.768 708.733 258.05C707.314 257.331 705.693 256.972 703.87 256.972C702.433 256.972 701.137 257.226 699.98 257.734C698.841 258.242 697.868 258.935 697.062 259.811C696.274 260.687 695.66 261.721 695.222 262.913C694.802 264.087 694.591 265.375 694.591 266.777C694.591 268.424 694.907 269.799 695.538 270.903C696.169 271.99 696.983 272.875 697.982 273.558C698.999 274.242 700.146 274.75 701.426 275.083C702.722 275.398 704.019 275.609 705.316 275.714C706.56 275.819 707.761 275.968 708.917 276.161C710.074 276.336 711.081 276.651 711.94 277.107C712.799 277.545 713.482 278.15 713.99 278.921C714.516 279.692 714.779 280.726 714.779 282.022C714.779 283.529 714.271 284.949 713.254 286.281C712.238 287.63 710.705 288.664 708.654 289.382L707.077 286.649C708.619 286.07 709.688 285.361 710.284 284.52C710.88 283.678 711.178 282.846 711.178 282.022C711.178 281.374 711.029 280.857 710.731 280.472C710.45 280.104 710.047 279.806 709.522 279.578C709.014 279.368 708.374 279.21 707.603 279.105C706.832 279 705.964 278.912 705.001 278.842C703.055 278.702 701.233 278.386 699.533 277.896C697.851 277.405 696.37 276.695 695.091 275.766C693.829 274.838 692.83 273.646 692.094 272.191C691.358 270.737 690.99 268.932 690.99 266.777Z" fill="#5DA0FF"/>
<path d="M1034.8 605.182C1035.11 608.294 1036.25 610.775 1038.2 612.626C1040.16 614.476 1042.7 615.402 1045.84 615.402C1048.04 615.402 1050.01 614.95 1051.73 614.045C1053.46 613.141 1054.75 612.016 1055.61 610.67L1058.64 612.752C1057.17 614.813 1055.41 616.39 1053.37 617.483C1051.34 618.556 1048.82 619.092 1045.84 619.092C1043.56 619.092 1041.48 618.714 1039.59 617.957C1037.7 617.2 1036.06 616.148 1034.67 614.802C1033.3 613.435 1032.24 611.816 1031.48 609.945C1030.73 608.073 1030.35 605.991 1030.35 603.699C1030.35 601.47 1030.68 599.42 1031.36 597.548C1032.05 595.656 1033.04 594.026 1034.32 592.659C1035.63 591.271 1037.2 590.199 1039.05 589.442C1040.9 588.664 1042.98 588.275 1045.27 588.275C1047.77 588.275 1049.96 588.695 1051.83 589.536C1053.7 590.378 1055.26 591.545 1056.5 593.038C1057.76 594.51 1058.68 596.276 1059.27 598.337C1059.88 600.398 1060.19 602.679 1060.19 605.182H1034.8ZM1055.61 601.491C1055.13 598.274 1053.96 595.877 1052.11 594.299C1050.26 592.722 1047.98 591.934 1045.27 591.934C1043.88 591.934 1042.6 592.165 1041.42 592.628C1040.24 593.069 1039.2 593.711 1038.3 594.552C1037.39 595.393 1036.64 596.413 1036.03 597.611C1035.42 598.789 1035.03 600.082 1034.86 601.491H1055.61ZM1095.83 618.367H1083.69V614.55H1086.27L1080.47 606.033L1074.73 614.55H1077.1V618.367H1065.11V614.55H1069.68L1077.76 603.447L1070 592.848H1065.74V588.969H1077.82V592.848H1075.11L1080.47 600.86L1085.9 592.848H1082.93V588.969H1095.14V592.848H1091.01L1083.25 603.447L1091.32 614.55H1095.83V618.367ZM1118.64 583.102H1112.77V577.203H1118.64V583.102ZM1124.5 618.367H1106.87V614.676H1113.53V592.659H1106.87V588.969H1117.88V614.676H1124.5V618.367ZM1165.98 608.998C1165.65 612.09 1164.43 614.55 1162.32 616.379C1160.24 618.188 1157.63 619.092 1154.5 619.092C1152.78 619.092 1151.2 618.808 1149.77 618.241C1148.34 617.673 1147.12 616.884 1146.11 615.875C1145.1 614.865 1144.31 613.656 1143.75 612.247C1143.2 610.817 1142.93 609.261 1142.93 607.579V592.659H1136.27V588.969H1142.93V577.203H1147.25V588.969H1159.77V592.659H1147.25V607.579C1147.25 608.651 1147.41 609.661 1147.75 610.607C1148.11 611.553 1148.59 612.384 1149.2 613.099C1149.83 613.814 1150.59 614.382 1151.47 614.802C1152.36 615.202 1153.37 615.402 1154.5 615.402C1156.65 615.402 1158.43 614.739 1159.86 613.414C1161.31 612.069 1162.15 610.334 1162.36 608.21L1165.98 608.998Z" fill="#5DA0FF"/>
<path d="M-71.3751 551H-24.6829V421.127H324.575V226.683H214.381V-51.6333L167.689 -51.6333H-224.525V-14.2754H-177.833L-181.569 202.4H-71.3751V551Z" fill="#85B6FF"/>
<path d="M1243.62 558H1290.32V428.127H1639.57V233.683H1529.38V-44.6333L1482.69 -44.6333H1090.47V-7.27539H1137.17L1133.43 209.4H1243.62V558Z" fill="#85B6FF"/>
<rect x="38" y="131" width="74" height="252" fill="#E0E0E0"/>
<rect x="1234" y="89.9995" width="143" height="81" fill="#E0E0E0"/>
<path d="M431.123 199.53C429.745 199.53 428.402 199.388 427.095 199.106C425.823 198.823 424.463 198.293 423.014 197.516L424.498 193.912C425.275 194.371 426.159 194.777 427.148 195.131C428.137 195.449 429.286 195.608 430.593 195.608C433.208 195.608 435.239 194.654 436.688 192.746C438.172 190.802 438.914 188.011 438.914 184.372C438.914 180.803 438.154 178.082 436.635 176.21C435.151 174.302 432.854 173.348 429.745 173.348C428.614 173.348 427.466 173.471 426.3 173.719C425.134 173.966 424.109 174.337 423.226 174.832V170.857C424.251 170.327 425.364 169.956 426.565 169.744C427.802 169.532 429.038 169.426 430.275 169.426C433.455 169.426 436.034 170.062 438.013 171.334C439.992 172.57 441.44 174.302 442.359 176.528C443.278 178.754 443.737 181.368 443.737 184.372C443.737 189.036 442.677 192.728 440.557 195.449C438.472 198.169 435.328 199.53 431.123 199.53ZM422.482 165.345V163.278L426.351 161.582H445.007V165.345H422.482ZM465.53 199.53C462.703 199.53 460.477 198.876 458.852 197.569C457.262 196.226 456.131 194.424 455.46 192.163C454.824 189.901 454.506 187.41 454.506 184.69C454.506 181.686 454.806 179.213 455.407 177.27C456.043 175.291 456.926 173.736 458.057 172.606C459.223 171.44 460.601 170.627 462.191 170.168C463.816 169.673 465.601 169.426 467.544 169.426C470.371 169.426 472.667 169.85 474.434 170.698C476.236 171.51 477.561 172.676 478.409 174.196C479.257 175.715 479.681 177.535 479.681 179.655V199H475.017V180.079C475.017 177.888 474.469 176.227 473.374 175.097C472.279 173.931 470.388 173.348 467.703 173.348C466.078 173.348 464.611 173.648 463.304 174.249C462.032 174.849 461.025 175.962 460.283 177.588C459.576 179.213 459.223 181.598 459.223 184.743C459.223 186.792 459.417 188.647 459.806 190.308C460.23 191.933 460.954 193.223 461.979 194.177C463.004 195.131 464.435 195.608 466.272 195.608C466.802 195.608 467.297 195.572 467.756 195.502C468.215 195.431 468.657 195.325 469.081 195.184L469.558 198.841C468.993 199.088 468.339 199.265 467.597 199.371C466.89 199.477 466.201 199.53 465.53 199.53ZM458.863 165.345V163.278L462.732 161.582H481.388V165.345H458.863ZM476.989 163.278V157.289H481.441V163.278H476.989ZM494.055 175.256V164.868C494.055 162.748 493.543 161.228 492.518 160.31C491.529 159.391 490.257 158.932 488.702 158.932V156.918L492.624 155.222H506.775V158.932H496.016L495.963 159.144C496.74 159.674 497.394 160.486 497.924 161.582C498.489 162.642 498.772 164.037 498.772 165.769V175.256H494.055ZM499.832 199.53C498.878 199.53 497.959 199.371 497.076 199.053C496.193 198.735 495.468 198.169 494.903 197.357C494.338 196.544 494.055 195.413 494.055 193.965V169.956H498.772V193.382C498.772 194.194 498.949 194.777 499.302 195.131C499.655 195.484 500.221 195.661 500.998 195.661C501.316 195.661 501.652 195.625 502.005 195.555C502.358 195.484 502.694 195.396 503.012 195.29L503.648 198.735C502.977 199.053 502.323 199.265 501.687 199.371C501.051 199.477 500.433 199.53 499.832 199.53ZM520.706 199.53C516.89 199.53 514.028 198.54 512.12 196.562C510.248 194.548 509.311 191.403 509.311 187.128C509.311 186.421 509.329 185.661 509.364 184.849C509.435 184.001 509.506 183.17 509.576 182.358H520.706V186.068H514.028V187.128C514.028 189.354 514.276 191.103 514.77 192.375C515.265 193.611 515.989 194.477 516.943 194.972C517.933 195.466 519.152 195.714 520.6 195.714C522.19 195.714 523.568 195.413 524.734 194.813C525.9 194.212 526.801 193.117 527.437 191.527C528.073 189.937 528.391 187.658 528.391 184.69C528.391 182.075 528.109 179.937 527.543 178.277C526.978 176.616 526.042 175.379 524.734 174.567C523.462 173.754 521.731 173.348 519.54 173.348C518.41 173.348 517.314 173.454 516.254 173.666C515.194 173.842 514.17 174.125 513.18 174.514C512.191 174.867 511.219 175.326 510.265 175.892V171.493C510.972 171.104 511.838 170.768 512.862 170.486C513.887 170.168 515.018 169.92 516.254 169.744C517.491 169.532 518.781 169.426 520.123 169.426C523.233 169.426 525.741 170.062 527.649 171.334C529.593 172.57 531.006 174.337 531.889 176.634C532.773 178.895 533.214 181.58 533.214 184.69C533.214 187.799 532.808 190.467 531.995 192.693C531.183 194.919 529.858 196.615 528.02 197.781C526.218 198.947 523.78 199.53 520.706 199.53Z" fill="#5DA0FF"/>
<path d="M651.21 185H647.583V169.885C647.583 167.695 647.11 165.995 646.163 164.786C645.217 163.577 643.684 162.972 641.563 162.972C640.232 162.972 639.023 163.279 637.936 163.892C636.867 164.505 635.956 165.329 635.202 166.363C634.449 167.379 633.87 168.553 633.467 169.885C633.082 171.199 632.889 172.575 632.889 174.012V185H629.288V160.501H632.889V166.652C634.624 162.166 637.717 159.923 642.168 159.923C648.196 159.923 651.21 163.244 651.21 169.885V185ZM660.989 174.012C661.252 176.606 662.198 178.673 663.828 180.215C665.457 181.758 667.578 182.529 670.189 182.529C672.029 182.529 673.667 182.152 675.104 181.398C676.541 180.645 677.619 179.707 678.337 178.586L680.861 180.321C679.634 182.038 678.171 183.352 676.471 184.264C674.771 185.157 672.677 185.604 670.189 185.604C668.296 185.604 666.561 185.289 664.984 184.658C663.407 184.027 662.04 183.151 660.884 182.029C659.744 180.89 658.86 179.541 658.229 177.981C657.598 176.422 657.282 174.687 657.282 172.777C657.282 170.919 657.563 169.211 658.124 167.651C658.702 166.074 659.525 164.716 660.594 163.577C661.681 162.42 662.995 161.526 664.537 160.895C666.079 160.247 667.805 159.923 669.716 159.923C671.801 159.923 673.623 160.273 675.183 160.974C676.743 161.675 678.039 162.648 679.073 163.892C680.125 165.119 680.896 166.591 681.386 168.308C681.895 170.025 682.149 171.927 682.149 174.012H660.989ZM678.337 170.937C677.934 168.255 676.962 166.258 675.42 164.943C673.877 163.629 671.976 162.972 669.716 162.972C668.559 162.972 667.49 163.165 666.509 163.55C665.527 163.918 664.66 164.453 663.906 165.154C663.153 165.855 662.522 166.705 662.014 167.703C661.506 168.685 661.181 169.763 661.041 170.937H678.337ZM709.985 185H706.358V169.885C706.358 167.695 705.885 165.995 704.939 164.786C703.992 163.577 702.459 162.972 700.339 162.972C699.007 162.972 697.798 163.279 696.711 163.892C695.642 164.505 694.731 165.329 693.977 166.363C693.224 167.379 692.646 168.553 692.243 169.885C691.857 171.199 691.664 172.575 691.664 174.012V185H688.063V160.501H691.664V166.652C693.399 162.166 696.492 159.923 700.943 159.923C706.971 159.923 709.985 163.244 709.985 169.885V185ZM730.856 155.612H725.967V150.697H730.856V155.612ZM735.746 185H721.052V181.924H726.598V163.577H721.052V160.501H730.226V181.924H735.746V185ZM749.151 174.012C749.414 176.606 750.36 178.673 751.99 180.215C753.62 181.758 755.74 182.529 758.351 182.529C760.191 182.529 761.83 182.152 763.267 181.398C764.704 180.645 765.781 179.707 766.5 178.586L769.023 180.321C767.797 182.038 766.333 183.352 764.634 184.264C762.934 185.157 760.84 185.604 758.351 185.604C756.459 185.604 754.724 185.289 753.147 184.658C751.57 184.027 750.203 183.151 749.046 182.029C747.907 180.89 747.022 179.541 746.391 177.981C745.76 176.422 745.445 174.687 745.445 172.777C745.445 170.919 745.725 169.211 746.286 167.651C746.864 166.074 747.688 164.716 748.757 163.577C749.843 162.42 751.158 161.526 752.7 160.895C754.242 160.247 755.968 159.923 757.878 159.923C759.964 159.923 761.786 160.273 763.346 160.974C764.905 161.675 766.202 162.648 767.236 163.892C768.287 165.119 769.058 166.591 769.549 168.308C770.057 170.025 770.311 171.927 770.311 174.012H749.151ZM766.5 170.937C766.097 168.255 765.124 166.258 763.582 164.943C762.04 163.629 760.139 162.972 757.878 162.972C756.722 162.972 755.653 163.165 754.671 163.55C753.69 163.918 752.823 164.453 752.069 165.154C751.315 165.855 750.685 166.705 750.176 167.703C749.668 168.685 749.344 169.763 749.204 170.937H766.5ZM798.148 185H794.521V169.885C794.521 167.695 794.047 165.995 793.101 164.786C792.155 163.577 790.622 162.972 788.501 162.972C787.169 162.972 785.96 163.279 784.874 163.892C783.805 164.505 782.893 165.329 782.14 166.363C781.386 167.379 780.808 168.553 780.405 169.885C780.02 171.199 779.827 172.575 779.827 174.012V185H776.226V160.501H779.827V166.652C781.562 162.166 784.655 159.923 789.106 159.923C795.134 159.923 798.148 163.244 798.148 169.885V185ZM858.474 177.193C858.194 179.769 857.177 181.819 855.425 183.344C853.69 184.851 851.517 185.604 848.906 185.604C847.469 185.604 846.155 185.368 844.963 184.894C843.771 184.421 842.755 183.764 841.914 182.923C841.073 182.082 840.416 181.074 839.942 179.9C839.487 178.708 839.259 177.412 839.259 176.01V163.577H833.713V160.501H839.259V150.697H842.86V160.501H853.296V163.577H842.86V176.01C842.86 176.903 843 177.745 843.281 178.533C843.579 179.322 843.982 180.014 844.49 180.61C845.016 181.206 845.646 181.679 846.382 182.029C847.118 182.362 847.96 182.529 848.906 182.529C850.693 182.529 852.183 181.977 853.375 180.873C854.584 179.751 855.276 178.305 855.451 176.535L858.474 177.193ZM888.229 172.829C888.229 174.739 887.923 176.474 887.309 178.034C886.714 179.593 885.846 180.934 884.707 182.056C883.586 183.16 882.236 184.027 880.659 184.658C879.082 185.289 877.321 185.604 875.376 185.604C873.466 185.604 871.722 185.289 870.145 184.658C868.568 184.027 867.21 183.16 866.071 182.056C864.949 180.934 864.082 179.593 863.468 178.034C862.872 176.474 862.575 174.739 862.575 172.829C862.575 170.972 862.872 169.246 863.468 167.651C864.082 166.039 864.949 164.672 866.071 163.55C867.21 162.411 868.568 161.526 870.145 160.895C871.722 160.247 873.466 159.923 875.376 159.923C877.321 159.923 879.082 160.247 880.659 160.895C882.236 161.526 883.586 162.411 884.707 163.55C885.846 164.672 886.714 166.039 887.309 167.651C887.923 169.246 888.229 170.972 888.229 172.829ZM884.628 172.829C884.628 171.427 884.418 170.139 883.997 168.965C883.594 167.774 882.99 166.731 882.184 165.837C881.378 164.943 880.396 164.242 879.24 163.734C878.101 163.226 876.813 162.972 875.376 162.972C873.939 162.972 872.642 163.226 871.485 163.734C870.346 164.242 869.383 164.943 868.594 165.837C867.805 166.731 867.201 167.774 866.78 168.965C866.377 170.139 866.176 171.427 866.176 172.829C866.176 174.231 866.377 175.528 866.78 176.719C867.201 177.894 867.805 178.91 868.594 179.769C869.383 180.627 870.346 181.302 871.485 181.793C872.642 182.283 873.939 182.529 875.376 182.529C876.813 182.529 878.101 182.283 879.24 181.793C880.396 181.302 881.378 180.627 882.184 179.769C882.99 178.91 883.594 177.894 883.997 176.719C884.418 175.528 884.628 174.231 884.628 172.829ZM893.776 160.501H897.377V175.642C897.377 177.832 897.85 179.532 898.796 180.741C899.76 181.933 901.302 182.529 903.423 182.529C904.755 182.529 905.955 182.222 907.024 181.609C908.093 180.995 909.004 180.18 909.758 179.164C910.511 178.13 911.081 176.956 911.466 175.642C911.869 174.31 912.071 172.926 912.071 171.489V160.501H915.698V185H912.071V178.875C910.353 183.361 907.269 185.604 902.818 185.604C896.79 185.604 893.776 182.283 893.776 175.642V160.501Z" fill="#5DA0FF"/>
<path d="M782.498 261.777C782.498 263.687 782.2 265.422 781.605 266.981C781.009 268.541 780.168 269.89 779.081 271.029C778.012 272.151 776.715 273.027 775.191 273.658C773.666 274.289 771.958 274.604 770.065 274.604C768.768 274.604 767.507 274.368 766.28 273.894C765.071 273.421 763.941 272.72 762.889 271.792V283.804H759.288V249.501H762.889V251.762C765.115 249.869 767.507 248.923 770.065 248.923C771.958 248.923 773.666 249.238 775.191 249.869C776.715 250.482 778.012 251.367 779.081 252.524C780.168 253.663 781.009 255.03 781.605 256.625C782.2 258.202 782.498 259.919 782.498 261.777ZM778.897 261.777C778.897 260.41 778.704 259.131 778.319 257.939C777.951 256.73 777.39 255.687 776.637 254.811C775.883 253.935 774.954 253.242 773.85 252.734C772.764 252.226 771.502 251.972 770.065 251.972C768.698 251.972 767.419 252.226 766.227 252.734C765.053 253.242 763.941 254.066 762.889 255.205V268.348C763.941 269.487 765.053 270.302 766.227 270.793C767.419 271.283 768.698 271.529 770.065 271.529C771.502 271.529 772.764 271.275 773.85 270.766C774.954 270.258 775.883 269.566 776.637 268.69C777.39 267.814 777.951 266.788 778.319 265.614C778.704 264.423 778.897 263.143 778.897 261.777ZM787.335 267.375C787.335 265.833 787.72 264.545 788.492 263.511C789.263 262.46 790.27 261.636 791.514 261.041C792.776 260.427 794.213 259.989 795.825 259.726C797.455 259.446 799.111 259.306 800.793 259.306C801.442 259.306 802.02 259.315 802.528 259.332C803.054 259.35 803.545 259.376 804 259.411C804.473 259.446 804.946 259.49 805.42 259.542C805.893 259.595 806.41 259.656 806.97 259.726V257.965C806.97 256.774 806.708 255.792 806.182 255.021C805.674 254.25 805.043 253.646 804.289 253.207C803.536 252.752 802.747 252.436 801.924 252.261C801.1 252.068 800.399 251.972 799.821 251.972C797.998 251.972 796.316 252.217 794.774 252.708C793.232 253.199 791.795 253.856 790.463 254.679L788.833 251.972C790.305 251.078 791.952 250.351 793.775 249.79C795.615 249.212 797.63 248.923 799.821 248.923C801.153 248.923 802.458 249.098 803.737 249.449C805.034 249.782 806.191 250.307 807.207 251.026C808.241 251.727 809.065 252.655 809.678 253.812C810.291 254.969 810.598 256.353 810.598 257.965V274H806.97V269.899C806.34 270.688 805.621 271.38 804.815 271.976C804.026 272.571 803.194 273.062 802.318 273.448C801.442 273.816 800.565 274.096 799.689 274.289C798.813 274.499 797.981 274.604 797.192 274.604C793.95 274.604 791.497 273.982 789.832 272.738C788.167 271.494 787.335 269.706 787.335 267.375ZM797.192 271.529C798.699 271.529 800.049 271.31 801.24 270.872C802.449 270.416 803.474 269.855 804.316 269.189C805.157 268.523 805.805 267.814 806.261 267.06C806.734 266.307 806.97 265.623 806.97 265.01V262.697C805.796 262.521 804.666 262.425 803.58 262.407C802.511 262.39 801.582 262.381 800.793 262.381C799.497 262.381 798.244 262.469 797.034 262.644C795.843 262.819 794.8 263.108 793.906 263.511C793.013 263.897 792.294 264.405 791.751 265.036C791.208 265.667 790.936 266.447 790.936 267.375C790.936 268.409 791.436 269.364 792.434 270.241C793.451 271.099 795.037 271.529 797.192 271.529ZM839.985 274H836.358V258.885C836.358 256.695 835.885 254.995 834.939 253.786C833.992 252.577 832.459 251.972 830.339 251.972C829.007 251.972 827.798 252.279 826.711 252.892C825.642 253.505 824.731 254.329 823.977 255.363C823.224 256.379 822.646 257.553 822.243 258.885C821.857 260.199 821.664 261.575 821.664 263.012V274H818.063V249.501H821.664V255.652C823.399 251.166 826.492 248.923 830.943 248.923C836.971 248.923 839.985 252.244 839.985 258.885V274ZM870.004 267.218C870.004 268.655 869.645 269.846 868.926 270.793C868.208 271.739 867.279 272.492 866.14 273.053C865.018 273.614 863.757 274.008 862.355 274.236C860.97 274.481 859.612 274.604 858.28 274.604C856.055 274.604 853.838 274.28 851.63 273.632C849.422 272.983 847.512 272.133 845.9 271.082L847.503 267.98C849.308 269.119 851.087 269.995 852.839 270.609C854.592 271.222 856.405 271.529 858.28 271.529C863.695 271.529 866.403 270.127 866.403 267.323C866.403 266.639 866.175 266.087 865.719 265.667C865.281 265.229 864.685 264.878 863.932 264.615C863.178 264.335 862.311 264.116 861.33 263.958C860.366 263.801 859.349 263.652 858.28 263.511C856.913 263.319 855.555 263.091 854.206 262.828C852.857 262.565 851.621 262.171 850.5 261.645C849.396 261.119 848.502 260.419 847.819 259.542C847.153 258.666 846.82 257.51 846.82 256.073C846.82 254.846 847.126 253.786 847.74 252.892C848.371 251.998 849.203 251.254 850.237 250.658C851.288 250.062 852.515 249.624 853.917 249.343C855.319 249.063 856.773 248.923 858.28 248.923C860.436 248.923 862.363 249.177 864.063 249.685C865.763 250.176 867.296 250.886 868.663 251.814L867.218 254.627C865.816 253.646 864.396 252.962 862.959 252.577C861.522 252.174 859.963 251.972 858.28 251.972C857.527 251.972 856.686 252.042 855.757 252.182C854.846 252.305 853.996 252.533 853.207 252.866C852.419 253.181 851.753 253.602 851.209 254.127C850.684 254.636 850.421 255.284 850.421 256.073C850.421 256.756 850.64 257.308 851.078 257.729C851.534 258.132 852.138 258.473 852.892 258.754C853.645 259.017 854.504 259.227 855.468 259.385C856.449 259.542 857.474 259.691 858.543 259.831C859.875 260.024 861.216 260.252 862.565 260.515C863.932 260.778 865.167 261.163 866.271 261.671C867.393 262.18 868.295 262.872 868.979 263.748C869.662 264.624 870.004 265.781 870.004 267.218ZM876.838 249.501H880.439V264.642C880.439 266.832 880.912 268.532 881.859 269.741C882.823 270.933 884.365 271.529 886.485 271.529C887.817 271.529 889.017 271.222 890.086 270.609C891.155 269.995 892.066 269.18 892.82 268.164C893.573 267.13 894.143 265.956 894.528 264.642C894.932 263.31 895.133 261.926 895.133 260.489V249.501H898.76V274H895.133V267.875C893.416 272.361 890.332 274.604 885.88 274.604C879.852 274.604 876.838 271.283 876.838 264.642V249.501ZM929.699 266.193C929.419 268.769 928.402 270.819 926.65 272.344C924.915 273.851 922.742 274.604 920.131 274.604C918.694 274.604 917.38 274.368 916.188 273.894C914.996 273.421 913.98 272.764 913.139 271.923C912.298 271.082 911.641 270.074 911.167 268.9C910.712 267.708 910.484 266.412 910.484 265.01V252.577H904.938V249.501H910.484V239.697H914.085V249.501H924.521V252.577H914.085V265.01C914.085 265.903 914.225 266.745 914.506 267.533C914.804 268.322 915.207 269.014 915.715 269.61C916.241 270.206 916.871 270.679 917.607 271.029C918.343 271.362 919.185 271.529 920.131 271.529C921.918 271.529 923.408 270.977 924.599 269.873C925.809 268.751 926.501 267.305 926.676 265.535L929.699 266.193Z" fill="#5DA0FF"/>
<path d="M440.446 510H435.32L425.305 499.012L420.889 503.06V510H417.288V475.697H420.889V498.697L434.847 485.501H439.999L427.723 496.751L440.446 510ZM446.676 485.501H450.277V500.642C450.277 502.832 450.75 504.532 451.696 505.741C452.66 506.933 454.202 507.529 456.322 507.529C457.654 507.529 458.855 507.222 459.924 506.609C460.993 505.995 461.904 505.18 462.657 504.164C463.411 503.13 463.98 501.956 464.366 500.642C464.769 499.31 464.97 497.926 464.97 496.489V485.501H468.598V510H464.97V503.875C463.253 508.361 460.169 510.604 455.718 510.604C449.69 510.604 446.676 507.283 446.676 500.642V485.501ZM499.273 497.777C499.273 499.652 498.984 501.378 498.406 502.955C497.828 504.532 496.995 505.89 495.909 507.029C494.84 508.151 493.543 509.027 492.019 509.658C490.494 510.289 488.785 510.604 486.893 510.604C485.561 510.604 484.282 510.368 483.055 509.894C481.846 509.421 480.716 508.72 479.664 507.792V510H476.063V475.697H479.664V487.762C480.716 486.868 481.846 486.176 483.055 485.685C484.282 485.177 485.561 484.923 486.893 484.923C488.785 484.923 490.494 485.247 492.019 485.895C493.543 486.526 494.84 487.411 495.909 488.55C496.995 489.672 497.828 491.03 498.406 492.625C498.984 494.202 499.273 495.919 499.273 497.777ZM495.62 497.777C495.62 496.375 495.436 495.087 495.068 493.913C494.717 492.721 494.174 491.687 493.438 490.811C492.702 489.935 491.782 489.242 490.678 488.734C489.591 488.226 488.33 487.972 486.893 487.972C484.124 487.972 481.715 489.067 479.664 491.258V504.348C480.716 505.487 481.837 506.302 483.029 506.793C484.238 507.283 485.526 507.529 486.893 507.529C488.33 507.529 489.583 507.275 490.652 506.766C491.738 506.258 492.649 505.566 493.385 504.69C494.121 503.814 494.673 502.788 495.041 501.614C495.427 500.423 495.62 499.143 495.62 497.777ZM505.451 485.501H509.052V500.642C509.052 502.832 509.525 504.532 510.471 505.741C511.435 506.933 512.977 507.529 515.097 507.529C516.429 507.529 517.63 507.222 518.699 506.609C519.768 505.995 520.679 505.18 521.432 504.164C522.186 503.13 522.755 501.956 523.141 500.642C523.544 499.31 523.746 497.926 523.746 496.489V485.501H527.373V510H523.746V503.875C522.028 508.361 518.944 510.604 514.493 510.604C508.465 510.604 505.451 507.283 505.451 500.642V485.501ZM556.76 510H553.133V507.739C552.099 508.668 550.96 509.377 549.716 509.868C548.489 510.359 547.228 510.604 545.931 510.604C543.986 510.604 542.242 510.289 540.7 509.658C539.158 509.027 537.852 508.151 536.783 507.029C535.732 505.89 534.917 504.532 534.339 502.955C533.778 501.378 533.498 499.652 533.498 497.777C533.498 495.919 533.778 494.202 534.339 492.625C534.917 491.03 535.732 489.672 536.783 488.55C537.852 487.411 539.158 486.526 540.7 485.895C542.242 485.247 543.986 484.923 545.931 484.923C547.228 484.923 548.489 485.159 549.716 485.633C550.96 486.088 552.099 486.78 553.133 487.709V478.772H548.244V475.697H556.76V510ZM553.133 491.205C552.099 490.066 550.969 489.242 549.742 488.734C548.533 488.226 547.245 487.972 545.878 487.972C544.441 487.972 543.171 488.226 542.067 488.734C540.98 489.242 540.069 489.935 539.333 490.811C538.597 491.687 538.036 492.721 537.651 493.913C537.283 495.087 537.099 496.375 537.099 497.777C537.099 499.179 537.283 500.475 537.651 501.667C538.036 502.841 538.597 503.866 539.333 504.742C540.069 505.619 540.98 506.311 542.067 506.819C543.171 507.327 544.441 507.581 545.878 507.581C548.647 507.581 551.065 506.486 553.133 504.295V491.205ZM562.885 503.375C562.885 501.833 563.271 500.545 564.042 499.511C564.813 498.46 565.82 497.636 567.065 497.041C568.326 496.427 569.763 495.989 571.375 495.726C573.005 495.446 574.661 495.306 576.343 495.306C576.992 495.306 577.57 495.315 578.078 495.332C578.604 495.35 579.095 495.376 579.55 495.411C580.023 495.446 580.497 495.49 580.97 495.542C581.443 495.595 581.96 495.656 582.521 495.726V493.965C582.521 492.774 582.258 491.792 581.732 491.021C581.224 490.25 580.593 489.646 579.839 489.207C579.086 488.752 578.297 488.436 577.474 488.261C576.65 488.068 575.949 487.972 575.371 487.972C573.548 487.972 571.866 488.217 570.324 488.708C568.782 489.199 567.345 489.856 566.013 490.679L564.383 487.972C565.855 487.078 567.503 486.351 569.325 485.79C571.165 485.212 573.18 484.923 575.371 484.923C576.703 484.923 578.008 485.098 579.287 485.449C580.584 485.782 581.741 486.307 582.757 487.026C583.791 487.727 584.615 488.655 585.228 489.812C585.841 490.969 586.148 492.353 586.148 493.965V510H582.521V505.899C581.89 506.688 581.171 507.38 580.365 507.976C579.577 508.571 578.744 509.062 577.868 509.448C576.992 509.816 576.116 510.096 575.239 510.289C574.363 510.499 573.531 510.604 572.742 510.604C569.5 510.604 567.047 509.982 565.382 508.738C563.717 507.494 562.885 505.706 562.885 503.375ZM572.742 507.529C574.249 507.529 575.599 507.31 576.79 506.872C577.999 506.416 579.025 505.855 579.866 505.189C580.707 504.523 581.355 503.814 581.811 503.06C582.284 502.307 582.521 501.623 582.521 501.01V498.697C581.346 498.521 580.216 498.425 579.13 498.407C578.061 498.39 577.132 498.381 576.343 498.381C575.047 498.381 573.794 498.469 572.585 498.644C571.393 498.819 570.35 499.108 569.457 499.511C568.563 499.897 567.844 500.405 567.301 501.036C566.758 501.667 566.486 502.447 566.486 503.375C566.486 504.409 566.986 505.364 567.985 506.241C569.001 507.099 570.587 507.529 572.742 507.529Z" fill="#5DA0FF"/>
<path d="M461.841 666.218C461.841 667.655 461.482 668.846 460.764 669.793C460.045 670.739 459.116 671.492 457.977 672.053C456.856 672.614 455.594 673.008 454.192 673.236C452.808 673.481 451.45 673.604 450.118 673.604C447.892 673.604 445.675 673.28 443.467 672.632C441.259 671.983 439.349 671.133 437.737 670.082L439.341 666.98C441.146 668.119 442.924 668.995 444.677 669.609C446.429 670.222 448.243 670.529 450.118 670.529C455.533 670.529 458.24 669.127 458.24 666.323C458.24 665.639 458.012 665.087 457.557 664.667C457.119 664.229 456.523 663.878 455.769 663.615C455.016 663.335 454.148 663.116 453.167 662.958C452.203 662.801 451.187 662.652 450.118 662.511C448.751 662.319 447.393 662.091 446.043 661.828C444.694 661.565 443.459 661.171 442.337 660.645C441.233 660.119 440.339 659.419 439.656 658.542C438.99 657.666 438.657 656.51 438.657 655.073C438.657 653.846 438.964 652.786 439.577 651.892C440.208 650.998 441.04 650.254 442.074 649.658C443.126 649.062 444.352 648.624 445.754 648.343C447.156 648.063 448.611 647.923 450.118 647.923C452.273 647.923 454.201 648.177 455.901 648.685C457.6 649.176 459.134 649.886 460.501 650.814L459.055 653.627C457.653 652.646 456.234 651.962 454.797 651.577C453.36 651.174 451.8 650.972 450.118 650.972C449.364 650.972 448.523 651.042 447.594 651.182C446.683 651.305 445.833 651.533 445.045 651.866C444.256 652.181 443.59 652.602 443.047 653.127C442.521 653.636 442.258 654.284 442.258 655.073C442.258 655.756 442.477 656.308 442.915 656.729C443.371 657.132 443.976 657.473 444.729 657.754C445.483 658.017 446.341 658.227 447.305 658.385C448.287 658.542 449.312 658.691 450.381 658.831C451.712 659.024 453.053 659.252 454.402 659.515C455.769 659.778 457.005 660.163 458.109 660.671C459.23 661.18 460.133 661.872 460.816 662.748C461.5 663.624 461.841 664.781 461.841 666.218ZM467.335 666.375C467.335 664.833 467.72 663.545 468.492 662.511C469.263 661.46 470.27 660.636 471.514 660.041C472.776 659.427 474.213 658.989 475.825 658.726C477.455 658.446 479.111 658.306 480.793 658.306C481.442 658.306 482.02 658.315 482.528 658.332C483.054 658.35 483.545 658.376 484 658.411C484.473 658.446 484.946 658.49 485.42 658.542C485.893 658.595 486.41 658.656 486.97 658.726V656.965C486.97 655.774 486.708 654.792 486.182 654.021C485.674 653.25 485.043 652.646 484.289 652.207C483.536 651.752 482.747 651.436 481.924 651.261C481.1 651.068 480.399 650.972 479.821 650.972C477.998 650.972 476.316 651.217 474.774 651.708C473.232 652.199 471.795 652.856 470.463 653.679L468.833 650.972C470.305 650.078 471.952 649.351 473.775 648.79C475.615 648.212 477.63 647.923 479.821 647.923C481.153 647.923 482.458 648.098 483.737 648.449C485.034 648.782 486.191 649.307 487.207 650.026C488.241 650.727 489.065 651.655 489.678 652.812C490.291 653.969 490.598 655.353 490.598 656.965V673H486.97V668.899C486.34 669.688 485.621 670.38 484.815 670.976C484.026 671.571 483.194 672.062 482.318 672.448C481.442 672.816 480.565 673.096 479.689 673.289C478.813 673.499 477.981 673.604 477.192 673.604C473.95 673.604 471.497 672.982 469.832 671.738C468.167 670.494 467.335 668.706 467.335 666.375ZM477.192 670.529C478.699 670.529 480.049 670.31 481.24 669.872C482.449 669.416 483.474 668.855 484.316 668.189C485.157 667.523 485.805 666.814 486.261 666.06C486.734 665.307 486.97 664.623 486.97 664.01V661.697C485.796 661.521 484.666 661.425 483.58 661.407C482.511 661.39 481.582 661.381 480.793 661.381C479.497 661.381 478.244 661.469 477.034 661.644C475.843 661.819 474.8 662.108 473.906 662.511C473.013 662.897 472.294 663.405 471.751 664.036C471.208 664.667 470.936 665.447 470.936 666.375C470.936 667.409 471.436 668.364 472.434 669.241C473.451 670.099 475.037 670.529 477.192 670.529ZM516.358 673H501.664V669.924H507.211V651.682H501.664V648.501H510.838V669.924H516.358V673ZM515.464 640.037L504.109 646.425L503.136 644.716L513.729 637.172L515.464 640.037ZM549.373 673H545.746V670.739C544.712 671.668 543.573 672.377 542.328 672.868C541.102 673.359 539.84 673.604 538.543 673.604C536.598 673.604 534.854 673.289 533.312 672.658C531.77 672.027 530.465 671.151 529.396 670.029C528.344 668.89 527.529 667.532 526.951 665.955C526.39 664.378 526.11 662.652 526.11 660.777C526.11 658.919 526.39 657.202 526.951 655.625C527.529 654.03 528.344 652.672 529.396 651.55C530.465 650.411 531.77 649.526 533.312 648.895C534.854 648.247 536.598 647.923 538.543 647.923C539.84 647.923 541.102 648.159 542.328 648.633C543.573 649.088 544.712 649.78 545.746 650.709V641.772H540.856V638.697H549.373V673ZM545.746 654.205C544.712 653.066 543.581 652.242 542.355 651.734C541.146 651.226 539.858 650.972 538.491 650.972C537.054 650.972 535.783 651.226 534.679 651.734C533.593 652.242 532.681 652.935 531.945 653.811C531.209 654.687 530.649 655.721 530.263 656.913C529.895 658.087 529.711 659.375 529.711 660.777C529.711 662.179 529.895 663.475 530.263 664.667C530.649 665.841 531.209 666.866 531.945 667.742C532.681 668.619 533.593 669.311 534.679 669.819C535.783 670.327 537.054 670.581 538.491 670.581C541.259 670.581 543.678 669.486 545.746 667.295V654.205ZM555.498 666.375C555.498 664.833 555.883 663.545 556.654 662.511C557.425 661.46 558.433 660.636 559.677 660.041C560.939 659.427 562.376 658.989 563.988 658.726C565.618 658.446 567.274 658.306 568.956 658.306C569.604 658.306 570.183 658.315 570.691 658.332C571.216 658.35 571.707 658.376 572.163 658.411C572.636 658.446 573.109 658.49 573.582 658.542C574.055 658.595 574.572 658.656 575.133 658.726V656.965C575.133 655.774 574.87 654.792 574.344 654.021C573.836 653.25 573.205 652.646 572.452 652.207C571.698 651.752 570.91 651.436 570.086 651.261C569.263 651.068 568.562 650.972 567.983 650.972C566.161 650.972 564.479 651.217 562.936 651.708C561.394 652.199 559.957 652.856 558.626 653.679L556.996 650.972C558.468 650.078 560.115 649.351 561.938 648.79C563.778 648.212 565.793 647.923 567.983 647.923C569.315 647.923 570.621 648.098 571.9 648.449C573.197 648.782 574.353 649.307 575.37 650.026C576.404 650.727 577.227 651.655 577.84 652.812C578.454 653.969 578.76 655.353 578.76 656.965V673H575.133V668.899C574.502 669.688 573.784 670.38 572.978 670.976C572.189 671.571 571.357 672.062 570.48 672.448C569.604 672.816 568.728 673.096 567.852 673.289C566.976 673.499 566.143 673.604 565.355 673.604C562.113 673.604 559.659 672.982 557.995 671.738C556.33 670.494 555.498 668.706 555.498 666.375ZM565.355 670.529C566.862 670.529 568.211 670.31 569.403 669.872C570.612 669.416 571.637 668.855 572.478 668.189C573.319 667.523 573.968 666.814 574.423 666.06C574.896 665.307 575.133 664.623 575.133 664.01V661.697C573.959 661.521 572.829 661.425 571.742 661.407C570.673 661.39 569.744 661.381 568.956 661.381C567.659 661.381 566.406 661.469 565.197 661.644C564.005 661.819 562.963 662.108 562.069 662.511C561.175 662.897 560.457 663.405 559.914 664.036C559.37 664.667 559.099 665.447 559.099 666.375C559.099 667.409 559.598 668.364 560.597 669.241C561.613 670.099 563.199 670.529 565.355 670.529Z" fill="#5DA0FF"/>
<path d="M879.841 697.218C879.841 698.655 879.482 699.846 878.764 700.793C878.045 701.739 877.116 702.492 875.977 703.053C874.856 703.614 873.594 704.008 872.192 704.236C870.808 704.481 869.45 704.604 868.118 704.604C865.892 704.604 863.675 704.28 861.467 703.632C859.259 702.983 857.349 702.133 855.737 701.082L857.341 697.98C859.146 699.119 860.924 699.995 862.677 700.609C864.429 701.222 866.243 701.529 868.118 701.529C873.533 701.529 876.24 700.127 876.24 697.323C876.24 696.639 876.012 696.087 875.557 695.667C875.119 695.229 874.523 694.878 873.769 694.615C873.016 694.335 872.148 694.116 871.167 693.958C870.203 693.801 869.187 693.652 868.118 693.511C866.751 693.319 865.393 693.091 864.043 692.828C862.694 692.565 861.459 692.171 860.337 691.645C859.233 691.119 858.339 690.419 857.656 689.542C856.99 688.666 856.657 687.51 856.657 686.073C856.657 684.846 856.964 683.786 857.577 682.892C858.208 681.998 859.04 681.254 860.074 680.658C861.126 680.062 862.352 679.624 863.754 679.343C865.156 679.063 866.611 678.923 868.118 678.923C870.273 678.923 872.201 679.177 873.901 679.685C875.6 680.176 877.134 680.886 878.501 681.814L877.055 684.627C875.653 683.646 874.234 682.962 872.797 682.577C871.36 682.174 869.8 681.972 868.118 681.972C867.364 681.972 866.523 682.042 865.594 682.182C864.683 682.305 863.833 682.533 863.045 682.866C862.256 683.181 861.59 683.602 861.047 684.127C860.521 684.636 860.258 685.284 860.258 686.073C860.258 686.756 860.477 687.308 860.915 687.729C861.371 688.132 861.976 688.473 862.729 688.754C863.483 689.017 864.341 689.227 865.305 689.385C866.287 689.542 867.312 689.691 868.381 689.831C869.712 690.024 871.053 690.252 872.402 690.515C873.769 690.778 875.005 691.163 876.109 691.671C877.23 692.18 878.133 692.872 878.816 693.748C879.5 694.624 879.841 695.781 879.841 697.218ZM908.966 699.321C907.932 700.933 906.513 702.221 904.708 703.185C902.92 704.131 900.791 704.604 898.32 704.604C896.41 704.604 894.658 704.289 893.063 703.658C891.468 703.027 890.101 702.151 888.962 701.029C887.841 699.89 886.965 698.541 886.334 696.981C885.703 695.422 885.388 693.687 885.388 691.777C885.388 689.919 885.677 688.202 886.255 686.625C886.833 685.03 887.657 683.672 888.726 682.55C889.795 681.411 891.1 680.526 892.642 679.895C894.202 679.247 895.928 678.923 897.821 678.923C898.574 678.923 899.345 679.01 900.134 679.186C900.922 679.361 901.667 679.633 902.368 680.001C903.069 680.351 903.7 680.78 904.261 681.289C904.822 681.779 905.242 682.366 905.522 683.05V679.501H908.756V689.306H905.522C905.522 688.219 905.321 687.229 904.918 686.335C904.532 685.442 903.998 684.671 903.314 684.022C902.631 683.374 901.816 682.874 900.87 682.524C899.924 682.156 898.907 681.972 897.821 681.972C896.349 681.972 895.061 682.226 893.957 682.734C892.87 683.242 891.959 683.935 891.223 684.811C890.487 685.687 889.926 686.721 889.541 687.913C889.173 689.087 888.989 690.375 888.989 691.777C888.989 693.179 889.199 694.475 889.62 695.667C890.058 696.841 890.68 697.857 891.486 698.716C892.309 699.575 893.291 700.258 894.43 700.766C895.586 701.275 896.883 701.529 898.32 701.529C900.143 701.529 901.764 701.169 903.183 700.451C904.602 699.732 905.689 698.777 906.442 697.586L908.966 699.321ZM939.904 691.829C939.904 693.739 939.598 695.474 938.984 697.034C938.388 698.593 937.521 699.934 936.382 701.056C935.26 702.16 933.911 703.027 932.334 703.658C930.757 704.289 928.996 704.604 927.051 704.604C925.14 704.604 923.397 704.289 921.82 703.658C920.243 703.027 918.884 702.16 917.745 701.056C916.624 699.934 915.756 698.593 915.143 697.034C914.547 695.474 914.249 693.739 914.249 691.829C914.249 689.972 914.547 688.246 915.143 686.651C915.756 685.039 916.624 683.672 917.745 682.55C918.884 681.411 920.243 680.526 921.82 679.895C923.397 679.247 925.14 678.923 927.051 678.923C928.996 678.923 930.757 679.247 932.334 679.895C933.911 680.526 935.26 681.411 936.382 682.55C937.521 683.672 938.388 685.039 938.984 686.651C939.598 688.246 939.904 689.972 939.904 691.829ZM936.303 691.829C936.303 690.427 936.093 689.139 935.672 687.965C935.269 686.774 934.665 685.731 933.859 684.837C933.052 683.943 932.071 683.242 930.915 682.734C929.775 682.226 928.487 681.972 927.051 681.972C925.614 681.972 924.317 682.226 923.16 682.734C922.021 683.242 921.057 683.943 920.269 684.837C919.48 685.731 918.876 686.774 918.455 687.965C918.052 689.139 917.851 690.427 917.851 691.829C917.851 693.231 918.052 694.528 918.455 695.719C918.876 696.894 919.48 697.91 920.269 698.769C921.057 699.627 922.021 700.302 923.16 700.793C924.317 701.283 925.614 701.529 927.051 701.529C928.487 701.529 929.775 701.283 930.915 700.793C932.071 700.302 933.052 699.627 933.859 698.769C934.665 697.91 935.269 696.894 935.672 695.719C936.093 694.528 936.303 693.231 936.303 691.829ZM958.856 674.612H953.967V669.697H958.856V674.612ZM963.746 704H949.052V700.924H954.598V682.577H949.052V679.501H958.226V700.924H963.746V704ZM996.708 682.945C995.411 682.296 993.869 681.972 992.082 681.972C990.61 681.972 989.295 682.287 988.139 682.918C986.982 683.549 986.001 684.382 985.195 685.415C984.389 686.432 983.767 687.606 983.328 688.938C982.908 690.252 982.698 691.61 982.698 693.012V700.924H988.244V704H973.55V700.924H979.096V682.577H973.55V679.501H982.698V685.652C984.345 681.166 987.473 678.923 992.082 678.923C993.326 678.923 994.404 679.002 995.315 679.159C996.244 679.317 997.102 679.598 997.891 680.001L996.708 682.945Z" fill="#5DA0FF"/>
<path d="M666.154 390H662.29L659.057 380.195H645.494L642.313 390H638.449L649.857 355.697H654.746L666.154 390ZM658.032 377.014L652.275 359.324L646.519 377.014H658.032ZM670.676 365.501H674.277V380.642C674.277 382.832 674.75 384.532 675.696 385.741C676.66 386.933 678.202 387.529 680.322 387.529C681.654 387.529 682.855 387.222 683.924 386.609C684.993 385.995 685.904 385.18 686.657 384.164C687.411 383.13 687.98 381.956 688.366 380.642C688.769 379.31 688.97 377.926 688.97 376.489V365.501H692.598V390H688.97V383.875C687.253 388.361 684.169 390.604 679.718 390.604C673.69 390.604 670.676 387.283 670.676 380.642V365.501ZM722.616 383.218C722.616 384.655 722.257 385.846 721.539 386.793C720.82 387.739 719.891 388.492 718.752 389.053C717.631 389.614 716.369 390.008 714.967 390.236C713.583 390.481 712.225 390.604 710.893 390.604C708.667 390.604 706.451 390.28 704.243 389.632C702.035 388.983 700.124 388.133 698.512 387.082L700.116 383.98C701.921 385.119 703.699 385.995 705.452 386.609C707.204 387.222 709.018 387.529 710.893 387.529C716.308 387.529 719.015 386.127 719.015 383.323C719.015 382.639 718.787 382.087 718.332 381.667C717.894 381.229 717.298 380.878 716.544 380.615C715.791 380.335 714.923 380.116 713.942 379.958C712.978 379.801 711.962 379.652 710.893 379.511C709.526 379.319 708.168 379.091 706.819 378.828C705.469 378.565 704.234 378.171 703.112 377.645C702.008 377.119 701.114 376.419 700.431 375.542C699.765 374.666 699.432 373.51 699.432 372.073C699.432 370.846 699.739 369.786 700.352 368.892C700.983 367.998 701.815 367.254 702.849 366.658C703.901 366.062 705.127 365.624 706.529 365.343C707.931 365.063 709.386 364.923 710.893 364.923C713.048 364.923 714.976 365.177 716.676 365.685C718.376 366.176 719.909 366.886 721.276 367.814L719.83 370.627C718.428 369.646 717.009 368.962 715.572 368.577C714.135 368.174 712.575 367.972 710.893 367.972C710.139 367.972 709.298 368.042 708.369 368.182C707.458 368.305 706.608 368.533 705.82 368.866C705.031 369.181 704.365 369.602 703.822 370.127C703.296 370.636 703.033 371.284 703.033 372.073C703.033 372.756 703.252 373.308 703.691 373.729C704.146 374.132 704.751 374.473 705.504 374.754C706.258 375.017 707.116 375.227 708.08 375.385C709.062 375.542 710.087 375.691 711.156 375.831C712.487 376.024 713.828 376.252 715.177 376.515C716.544 376.778 717.78 377.163 718.884 377.671C720.005 378.18 720.908 378.872 721.591 379.748C722.275 380.624 722.616 381.781 722.616 383.218ZM752.661 368.577H742.226V386.924H747.746V390H733.052V386.924H738.598V368.577H733.052V365.501H738.598C738.598 362.137 739.465 359.569 741.2 357.799C742.953 356.012 745.59 355.118 749.112 355.118C749.936 355.118 750.628 355.145 751.189 355.197C751.767 355.25 752.258 355.311 752.661 355.381V358.457C752.153 358.386 751.618 358.325 751.058 358.273C750.514 358.22 749.866 358.194 749.112 358.194C746.817 358.194 745.091 358.781 743.934 359.955C742.795 361.111 742.226 362.96 742.226 365.501H752.661V368.577ZM757.498 383.375C757.498 381.833 757.883 380.545 758.654 379.511C759.425 378.46 760.433 377.636 761.677 377.041C762.939 376.427 764.376 375.989 765.988 375.726C767.618 375.446 769.274 375.306 770.956 375.306C771.604 375.306 772.183 375.315 772.691 375.332C773.216 375.35 773.707 375.376 774.163 375.411C774.636 375.446 775.109 375.49 775.582 375.542C776.055 375.595 776.572 375.656 777.133 375.726V373.965C777.133 372.774 776.87 371.792 776.344 371.021C775.836 370.25 775.205 369.646 774.452 369.207C773.698 368.752 772.91 368.436 772.086 368.261C771.263 368.068 770.562 367.972 769.983 367.972C768.161 367.972 766.479 368.217 764.936 368.708C763.394 369.199 761.957 369.856 760.626 370.679L758.996 367.972C760.468 367.078 762.115 366.351 763.938 365.79C765.778 365.212 767.793 364.923 769.983 364.923C771.315 364.923 772.621 365.098 773.9 365.449C775.197 365.782 776.353 366.307 777.37 367.026C778.404 367.727 779.227 368.655 779.84 369.812C780.454 370.969 780.76 372.353 780.76 373.965V390H777.133V385.899C776.502 386.688 775.784 387.38 774.978 387.976C774.189 388.571 773.357 389.062 772.48 389.448C771.604 389.816 770.728 390.096 769.852 390.289C768.976 390.499 768.143 390.604 767.355 390.604C764.113 390.604 761.659 389.982 759.995 388.738C758.33 387.494 757.498 385.706 757.498 383.375ZM767.355 387.529C768.862 387.529 770.211 387.31 771.403 386.872C772.612 386.416 773.637 385.855 774.478 385.189C775.319 384.523 775.968 383.814 776.423 383.06C776.896 382.307 777.133 381.623 777.133 381.01V378.697C775.959 378.521 774.829 378.425 773.742 378.407C772.673 378.39 771.744 378.381 770.956 378.381C769.659 378.381 768.406 378.469 767.197 378.644C766.005 378.819 764.963 379.108 764.069 379.511C763.175 379.897 762.457 380.405 761.914 381.036C761.37 381.667 761.099 382.447 761.099 383.375C761.099 384.409 761.598 385.364 762.597 386.241C763.613 387.099 765.199 387.529 767.355 387.529ZM810.148 390H806.521V374.885C806.521 372.695 806.047 370.995 805.101 369.786C804.155 368.577 802.622 367.972 800.501 367.972C799.169 367.972 797.96 368.279 796.874 368.892C795.805 369.505 794.893 370.329 794.14 371.363C793.386 372.379 792.808 373.553 792.405 374.885C792.02 376.199 791.827 377.575 791.827 379.012V390H788.226V355.697H791.827V371.652C793.562 367.166 796.655 364.923 801.106 364.923C807.134 364.923 810.148 368.244 810.148 374.885V390ZM839.483 368.945C838.186 368.296 836.644 367.972 834.857 367.972C833.385 367.972 832.07 368.287 830.914 368.918C829.757 369.549 828.776 370.382 827.97 371.415C827.164 372.432 826.542 373.606 826.104 374.938C825.683 376.252 825.473 377.61 825.473 379.012V386.924H831.019V390H816.325V386.924H821.872V368.577H816.325V365.501H825.473V371.652C827.12 367.166 830.248 364.923 834.857 364.923C836.101 364.923 837.179 365.002 838.09 365.159C839.019 365.317 839.877 365.598 840.666 366.001L839.483 368.945ZM870.474 382.193C870.194 384.769 869.177 386.819 867.425 388.344C865.69 389.851 863.517 390.604 860.906 390.604C859.469 390.604 858.155 390.368 856.963 389.894C855.771 389.421 854.755 388.764 853.914 387.923C853.073 387.082 852.416 386.074 851.942 384.9C851.487 383.708 851.259 382.412 851.259 381.01V368.577H845.713V365.501H851.259V355.697H854.86V365.501H865.296V368.577H854.86V381.01C854.86 381.903 855 382.745 855.281 383.533C855.579 384.322 855.982 385.014 856.49 385.61C857.016 386.206 857.646 386.679 858.382 387.029C859.118 387.362 859.96 387.529 860.906 387.529C862.693 387.529 864.183 386.977 865.375 385.873C866.584 384.751 867.276 383.305 867.451 381.535L870.474 382.193Z" fill="#5DA0FF"/>
<path d="M202.841 702.218C202.841 703.655 202.482 704.846 201.764 705.793C201.045 706.739 200.116 707.492 198.977 708.053C197.856 708.614 196.594 709.008 195.192 709.236C193.808 709.481 192.45 709.604 191.118 709.604C188.892 709.604 186.675 709.28 184.467 708.632C182.259 707.983 180.349 707.133 178.737 706.082L180.341 702.98C182.146 704.119 183.924 704.995 185.677 705.609C187.429 706.222 189.243 706.529 191.118 706.529C196.533 706.529 199.24 705.127 199.24 702.323C199.24 701.639 199.012 701.087 198.557 700.667C198.119 700.229 197.523 699.878 196.769 699.615C196.016 699.335 195.148 699.116 194.167 698.958C193.203 698.801 192.187 698.652 191.118 698.511C189.751 698.319 188.393 698.091 187.043 697.828C185.694 697.565 184.459 697.171 183.337 696.645C182.233 696.119 181.339 695.419 180.656 694.542C179.99 693.666 179.657 692.51 179.657 691.073C179.657 689.846 179.964 688.786 180.577 687.892C181.208 686.998 182.04 686.254 183.074 685.658C184.126 685.062 185.352 684.624 186.754 684.343C188.156 684.063 189.611 683.923 191.118 683.923C193.273 683.923 195.201 684.177 196.901 684.685C198.6 685.176 200.134 685.886 201.501 686.814L200.055 689.627C198.653 688.646 197.234 687.962 195.797 687.577C194.36 687.174 192.8 686.972 191.118 686.972C190.364 686.972 189.523 687.042 188.594 687.182C187.683 687.305 186.833 687.533 186.045 687.866C185.256 688.181 184.59 688.602 184.047 689.127C183.521 689.636 183.258 690.284 183.258 691.073C183.258 691.756 183.477 692.308 183.915 692.729C184.371 693.132 184.976 693.473 185.729 693.754C186.483 694.017 187.341 694.227 188.305 694.385C189.287 694.542 190.312 694.691 191.381 694.831C192.712 695.024 194.053 695.252 195.402 695.515C196.769 695.778 198.005 696.163 199.109 696.671C200.23 697.18 201.133 697.872 201.816 698.748C202.5 699.624 202.841 700.781 202.841 702.218ZM208.335 702.375C208.335 700.833 208.72 699.545 209.492 698.511C210.263 697.46 211.27 696.636 212.514 696.041C213.776 695.427 215.213 694.989 216.825 694.726C218.455 694.446 220.111 694.306 221.793 694.306C222.442 694.306 223.02 694.315 223.528 694.332C224.054 694.35 224.545 694.376 225 694.411C225.473 694.446 225.946 694.49 226.42 694.542C226.893 694.595 227.41 694.656 227.97 694.726V692.965C227.97 691.774 227.708 690.792 227.182 690.021C226.674 689.25 226.043 688.646 225.289 688.207C224.536 687.752 223.747 687.436 222.924 687.261C222.1 687.068 221.399 686.972 220.821 686.972C218.998 686.972 217.316 687.217 215.774 687.708C214.232 688.199 212.795 688.856 211.463 689.679L209.833 686.972C211.305 686.078 212.952 685.351 214.775 684.79C216.615 684.212 218.63 683.923 220.821 683.923C222.153 683.923 223.458 684.098 224.737 684.449C226.034 684.782 227.191 685.307 228.207 686.026C229.241 686.727 230.065 687.655 230.678 688.812C231.291 689.969 231.598 691.353 231.598 692.965V709H227.97V704.899C227.34 705.688 226.621 706.38 225.815 706.976C225.026 707.571 224.194 708.062 223.318 708.448C222.442 708.816 221.565 709.096 220.689 709.289C219.813 709.499 218.981 709.604 218.192 709.604C214.95 709.604 212.497 708.982 210.832 707.738C209.167 706.494 208.335 704.706 208.335 702.375ZM218.192 706.529C219.699 706.529 221.049 706.31 222.24 705.872C223.449 705.416 224.474 704.855 225.316 704.189C226.157 703.523 226.805 702.814 227.261 702.06C227.734 701.307 227.97 700.623 227.97 700.01V697.697C226.796 697.521 225.666 697.425 224.58 697.407C223.511 697.39 222.582 697.381 221.793 697.381C220.497 697.381 219.244 697.469 218.034 697.644C216.843 697.819 215.8 698.108 214.906 698.511C214.013 698.897 213.294 699.405 212.751 700.036C212.208 700.667 211.936 701.447 211.936 702.375C211.936 703.409 212.436 704.364 213.434 705.241C214.451 706.099 216.037 706.529 218.192 706.529ZM257.358 709H242.664V705.924H248.211V677.772H242.664V674.697H251.838V705.924H257.358V709ZM281.856 679.612H276.967V674.697H281.856V679.612ZM286.746 709H272.052V705.924H277.598V687.577H272.052V684.501H281.226V705.924H286.746V709ZM319.76 709H316.133V706.739C315.099 707.668 313.96 708.377 312.716 708.868C311.489 709.359 310.228 709.604 308.931 709.604C306.986 709.604 305.242 709.289 303.7 708.658C302.158 708.027 300.852 707.151 299.783 706.029C298.732 704.89 297.917 703.532 297.339 701.955C296.778 700.378 296.498 698.652 296.498 696.777C296.498 694.919 296.778 693.202 297.339 691.625C297.917 690.03 298.732 688.672 299.783 687.55C300.852 686.411 302.158 685.526 303.7 684.895C305.242 684.247 306.986 683.923 308.931 683.923C310.228 683.923 311.489 684.159 312.716 684.633C313.96 685.088 315.099 685.78 316.133 686.709V677.772H311.244V674.697H319.76V709ZM316.133 690.205C315.099 689.066 313.969 688.242 312.742 687.734C311.533 687.226 310.245 686.972 308.878 686.972C307.441 686.972 306.171 687.226 305.067 687.734C303.98 688.242 303.069 688.935 302.333 689.811C301.597 690.687 301.036 691.721 300.651 692.913C300.283 694.087 300.099 695.375 300.099 696.777C300.099 698.179 300.283 699.475 300.651 700.667C301.036 701.841 301.597 702.866 302.333 703.742C303.069 704.619 303.98 705.311 305.067 705.819C306.171 706.327 307.441 706.581 308.878 706.581C311.647 706.581 314.065 705.486 316.133 703.295V690.205ZM325.885 702.375C325.885 700.833 326.271 699.545 327.042 698.511C327.813 697.46 328.82 696.636 330.065 696.041C331.326 695.427 332.763 694.989 334.375 694.726C336.005 694.446 337.661 694.306 339.343 694.306C339.992 694.306 340.57 694.315 341.078 694.332C341.604 694.35 342.095 694.376 342.55 694.411C343.023 694.446 343.497 694.49 343.97 694.542C344.443 694.595 344.96 694.656 345.521 694.726V692.965C345.521 691.774 345.258 690.792 344.732 690.021C344.224 689.25 343.593 688.646 342.839 688.207C342.086 687.752 341.297 687.436 340.474 687.261C339.65 687.068 338.949 686.972 338.371 686.972C336.548 686.972 334.866 687.217 333.324 687.708C331.782 688.199 330.345 688.856 329.013 689.679L327.383 686.972C328.855 686.078 330.503 685.351 332.325 684.79C334.165 684.212 336.18 683.923 338.371 683.923C339.703 683.923 341.008 684.098 342.287 684.449C343.584 684.782 344.741 685.307 345.757 686.026C346.791 686.727 347.615 687.655 348.228 688.812C348.841 689.969 349.148 691.353 349.148 692.965V709H345.521V704.899C344.89 705.688 344.171 706.38 343.365 706.976C342.577 707.571 341.744 708.062 340.868 708.448C339.992 708.816 339.116 709.096 338.239 709.289C337.363 709.499 336.531 709.604 335.742 709.604C332.5 709.604 330.047 708.982 328.382 707.738C326.717 706.494 325.885 704.706 325.885 702.375ZM335.742 706.529C337.249 706.529 338.599 706.31 339.79 705.872C340.999 705.416 342.025 704.855 342.866 704.189C343.707 703.523 344.355 702.814 344.811 702.06C345.284 701.307 345.521 700.623 345.521 700.01V697.697C344.346 697.521 343.216 697.425 342.13 697.407C341.061 697.39 340.132 697.381 339.343 697.381C338.047 697.381 336.794 697.469 335.585 697.644C334.393 697.819 333.35 698.108 332.457 698.511C331.563 698.897 330.844 699.405 330.301 700.036C329.758 700.667 329.486 701.447 329.486 702.375C329.486 703.409 329.986 704.364 330.985 705.241C332.001 706.099 333.587 706.529 335.742 706.529Z" fill="#5DA0FF"/>
<path d="M198.288 521.501H201.889V536.642C201.889 538.832 202.362 540.532 203.309 541.741C204.272 542.933 205.815 543.529 207.935 543.529C209.267 543.529 210.467 543.222 211.536 542.609C212.605 541.995 213.516 541.18 214.27 540.164C215.023 539.13 215.593 537.956 215.978 536.642C216.381 535.31 216.583 533.926 216.583 532.489V521.501H220.21V546H216.583V539.875C214.866 544.361 211.781 546.604 207.33 546.604C201.302 546.604 198.288 543.283 198.288 536.642V521.501ZM251.149 538.193C250.868 540.769 249.852 542.819 248.1 544.344C246.365 545.851 244.192 546.604 241.581 546.604C240.144 546.604 238.829 546.368 237.638 545.894C236.446 545.421 235.43 544.764 234.589 543.923C233.748 543.082 233.09 542.074 232.617 540.9C232.162 539.708 231.934 538.412 231.934 537.01V524.577H226.388V521.501H231.934V511.697H235.535V521.501H245.97V524.577H235.535V537.01C235.535 537.903 235.675 538.745 235.956 539.533C236.253 540.322 236.657 541.014 237.165 541.61C237.69 542.206 238.321 542.679 239.057 543.029C239.793 543.362 240.634 543.529 241.581 543.529C243.368 543.529 244.858 542.977 246.049 541.873C247.258 540.751 247.951 539.305 248.126 537.535L251.149 538.193ZM278.985 545.737C278.985 547.419 278.696 548.917 278.118 550.232C277.54 551.546 276.725 552.659 275.673 553.57C274.64 554.481 273.413 555.173 271.993 555.646C270.591 556.137 269.023 556.382 267.288 556.382C264.852 556.382 262.776 555.927 261.059 555.016C259.359 554.104 257.887 552.79 256.642 551.073L259.166 549.128C259.919 550.267 261.006 551.222 262.425 551.993C263.845 552.764 265.466 553.149 267.288 553.149C269.777 553.149 271.739 552.518 273.176 551.257C274.631 550.012 275.358 548.208 275.358 545.842V543.213C273.22 545.106 270.784 546.052 268.051 546.052C264.213 546.052 261.199 544.957 259.008 542.766C256.818 540.576 255.722 537.579 255.722 533.777C255.722 531.919 256.003 530.211 256.564 528.651C257.142 527.074 257.957 525.716 259.008 524.577C260.077 523.42 261.374 522.526 262.899 521.895C264.423 521.247 266.14 520.923 268.051 520.923C269.382 520.923 270.67 521.159 271.915 521.633C273.176 522.088 274.324 522.78 275.358 523.709V521.501H278.985V545.737ZM275.358 527.205C274.324 526.066 273.185 525.242 271.941 524.734C270.714 524.226 269.417 523.972 268.051 523.972C266.614 523.972 265.343 524.226 264.239 524.734C263.153 525.242 262.25 525.935 261.532 526.811C260.813 527.687 260.261 528.73 259.876 529.939C259.508 531.131 259.324 532.41 259.324 533.777C259.324 536.58 260.051 538.815 261.505 540.479C262.96 542.144 265.142 542.977 268.051 542.977C269.417 542.977 270.714 542.723 271.941 542.214C273.185 541.689 274.324 540.847 275.358 539.691V527.205ZM285.163 539.375C285.163 537.833 285.548 536.545 286.319 535.511C287.09 534.46 288.098 533.636 289.342 533.041C290.604 532.427 292.041 531.989 293.653 531.726C295.283 531.446 296.939 531.306 298.621 531.306C299.269 531.306 299.848 531.315 300.356 531.332C300.882 531.35 301.372 531.376 301.828 531.411C302.301 531.446 302.774 531.49 303.247 531.542C303.72 531.595 304.237 531.656 304.798 531.726V529.965C304.798 528.774 304.535 527.792 304.01 527.021C303.501 526.25 302.87 525.646 302.117 525.207C301.363 524.752 300.575 524.436 299.751 524.261C298.928 524.068 298.227 523.972 297.648 523.972C295.826 523.972 294.144 524.217 292.601 524.708C291.059 525.199 289.622 525.856 288.291 526.679L286.661 523.972C288.133 523.078 289.78 522.351 291.603 521.79C293.443 521.212 295.458 520.923 297.648 520.923C298.98 520.923 300.286 521.098 301.565 521.449C302.862 521.782 304.018 522.307 305.035 523.026C306.069 523.727 306.892 524.655 307.506 525.812C308.119 526.969 308.426 528.353 308.426 529.965V546H304.798V541.899C304.167 542.688 303.449 543.38 302.643 543.976C301.854 544.571 301.022 545.062 300.146 545.448C299.269 545.816 298.393 546.096 297.517 546.289C296.641 546.499 295.808 546.604 295.02 546.604C291.778 546.604 289.325 545.982 287.66 544.738C285.995 543.494 285.163 541.706 285.163 539.375ZM295.02 543.529C296.527 543.529 297.876 543.31 299.068 542.872C300.277 542.416 301.302 541.855 302.143 541.189C302.984 540.523 303.633 539.814 304.088 539.06C304.562 538.307 304.798 537.623 304.798 537.01V534.697C303.624 534.521 302.494 534.425 301.407 534.407C300.338 534.39 299.41 534.381 298.621 534.381C297.324 534.381 296.071 534.469 294.862 534.644C293.67 534.819 292.628 535.108 291.734 535.511C290.84 535.897 290.122 536.405 289.579 537.036C289.035 537.667 288.764 538.447 288.764 539.375C288.764 540.409 289.263 541.364 290.262 542.241C291.278 543.099 292.864 543.529 295.02 543.529ZM291.524 512.985C291.524 512.143 291.673 511.372 291.971 510.671C292.269 509.953 292.689 509.322 293.232 508.779C293.776 508.236 294.406 507.815 295.125 507.517C295.843 507.202 296.614 507.044 297.438 507.044C298.262 507.044 299.033 507.202 299.751 507.517C300.47 507.815 301.092 508.236 301.618 508.779C302.161 509.322 302.581 509.953 302.879 510.671C303.195 511.372 303.352 512.143 303.352 512.985C303.352 513.808 303.195 514.579 302.879 515.298C302.581 516.016 302.161 516.647 301.618 517.19C301.092 517.716 300.47 518.137 299.751 518.452C299.033 518.75 298.262 518.899 297.438 518.899C296.614 518.899 295.843 518.75 295.125 518.452C294.406 518.137 293.776 517.716 293.232 517.19C292.689 516.647 292.269 516.016 291.971 515.298C291.673 514.579 291.524 513.808 291.524 512.985ZM293.889 512.985C293.889 513.948 294.24 514.781 294.941 515.482C295.642 516.183 296.474 516.533 297.438 516.533C298.402 516.533 299.234 516.183 299.935 515.482C300.636 514.781 300.987 513.948 300.987 512.985C300.987 512.003 300.636 511.162 299.935 510.461C299.234 509.76 298.402 509.41 297.438 509.41C296.474 509.41 295.642 509.76 294.941 510.461C294.24 511.162 293.889 512.003 293.889 512.985ZM337.76 546H334.133V530.885C334.133 528.695 333.66 526.995 332.714 525.786C331.767 524.577 330.234 523.972 328.114 523.972C326.782 523.972 325.573 524.279 324.486 524.892C323.417 525.505 322.506 526.329 321.752 527.363C320.999 528.379 320.421 529.553 320.018 530.885C319.632 532.199 319.439 533.575 319.439 535.012V546H315.838V521.501H319.439V527.652C321.174 523.166 324.267 520.923 328.718 520.923C334.746 520.923 337.76 524.244 337.76 530.885V546ZM367.148 545.737C367.148 547.419 366.859 548.917 366.281 550.232C365.702 551.546 364.887 552.659 363.836 553.57C362.802 554.481 361.575 555.173 360.156 555.646C358.754 556.137 357.186 556.382 355.451 556.382C353.015 556.382 350.938 555.927 349.221 555.016C347.521 554.104 346.049 552.79 344.805 551.073L347.329 549.128C348.082 550.267 349.169 551.222 350.588 551.993C352.007 552.764 353.628 553.149 355.451 553.149C357.939 553.149 359.902 552.518 361.339 551.257C362.793 550.012 363.521 548.208 363.521 545.842V543.213C361.383 545.106 358.947 546.052 356.213 546.052C352.375 546.052 349.361 544.957 347.171 542.766C344.98 540.576 343.885 537.579 343.885 533.777C343.885 531.919 344.165 530.211 344.726 528.651C345.305 527.074 346.119 525.716 347.171 524.577C348.24 523.42 349.537 522.526 351.061 521.895C352.586 521.247 354.303 520.923 356.213 520.923C357.545 520.923 358.833 521.159 360.077 521.633C361.339 522.088 362.487 522.78 363.521 523.709V521.501H367.148V545.737ZM363.521 527.205C362.487 526.066 361.348 525.242 360.103 524.734C358.877 524.226 357.58 523.972 356.213 523.972C354.776 523.972 353.506 524.226 352.402 524.734C351.315 525.242 350.413 525.935 349.694 526.811C348.976 527.687 348.424 528.73 348.038 529.939C347.67 531.131 347.486 532.41 347.486 533.777C347.486 536.58 348.213 538.815 349.668 540.479C351.122 542.144 353.304 542.977 356.213 542.977C357.58 542.977 358.877 542.723 360.103 542.214C361.348 541.689 362.487 540.847 363.521 539.691V527.205Z" fill="#5DA0FF"/>
<path d="M885.313 409.501L874.694 434H869.857L859.185 409.501H863.496L872.275 430.977L881.002 409.501H885.313ZM914.648 409.501L901.4 440.203C900.717 441.92 899.753 443.042 898.509 443.568C897.265 444.111 895.889 444.382 894.382 444.382C892.7 444.382 891.017 444.076 889.335 443.462L890.045 440.361C890.868 440.711 891.674 440.956 892.463 441.097C893.252 441.254 893.891 441.333 894.382 441.333C895.573 441.333 896.388 441.044 896.826 440.466C897.282 439.888 897.676 439.204 898.009 438.416L899.508 434.709L888.573 409.501H892.831L901.663 430.924L910.337 409.501H914.648ZM908.077 401.011L896.721 407.398L895.749 405.69L906.342 398.146L908.077 401.011ZM942.616 427.218C942.616 428.655 942.257 429.846 941.539 430.793C940.82 431.739 939.891 432.492 938.752 433.053C937.631 433.614 936.369 434.008 934.967 434.236C933.583 434.481 932.225 434.604 930.893 434.604C928.667 434.604 926.451 434.28 924.243 433.632C922.035 432.983 920.124 432.133 918.512 431.082L920.116 427.98C921.921 429.119 923.699 429.995 925.452 430.609C927.204 431.222 929.018 431.529 930.893 431.529C936.308 431.529 939.015 430.127 939.015 427.323C939.015 426.639 938.787 426.087 938.332 425.667C937.894 425.229 937.298 424.878 936.544 424.615C935.791 424.335 934.923 424.116 933.942 423.958C932.978 423.801 931.962 423.652 930.893 423.511C929.526 423.319 928.168 423.091 926.819 422.828C925.469 422.565 924.234 422.171 923.112 421.645C922.008 421.119 921.114 420.419 920.431 419.542C919.765 418.666 919.432 417.51 919.432 416.073C919.432 414.846 919.739 413.786 920.352 412.892C920.983 411.998 921.815 411.254 922.849 410.658C923.901 410.062 925.127 409.624 926.529 409.343C927.931 409.063 929.386 408.923 930.893 408.923C933.048 408.923 934.976 409.177 936.676 409.685C938.376 410.176 939.909 410.886 941.276 411.814L939.83 414.627C938.428 413.646 937.009 412.962 935.572 412.577C934.135 412.174 932.575 411.972 930.893 411.972C930.139 411.972 929.298 412.042 928.369 412.182C927.458 412.305 926.608 412.533 925.82 412.866C925.031 413.181 924.365 413.602 923.822 414.127C923.296 414.636 923.033 415.284 923.033 416.073C923.033 416.756 923.252 417.308 923.691 417.729C924.146 418.132 924.751 418.473 925.504 418.754C926.258 419.017 927.116 419.227 928.08 419.385C929.062 419.542 930.087 419.691 931.156 419.831C932.487 420.024 933.828 420.252 935.177 420.515C936.544 420.778 937.78 421.163 938.884 421.671C940.005 422.18 940.908 422.872 941.591 423.748C942.275 424.624 942.616 425.781 942.616 427.218ZM972.924 426.193C972.643 428.769 971.627 430.819 969.875 432.344C968.14 433.851 965.967 434.604 963.356 434.604C961.919 434.604 960.605 434.368 959.413 433.894C958.221 433.421 957.205 432.764 956.364 431.923C955.523 431.082 954.865 430.074 954.392 428.9C953.937 427.708 953.709 426.412 953.709 425.01V412.577H948.163V409.501H953.709V399.697H957.31V409.501H967.746V412.577H957.31V425.01C957.31 425.903 957.45 426.745 957.731 427.533C958.029 428.322 958.432 429.014 958.94 429.61C959.465 430.206 960.096 430.679 960.832 431.029C961.568 431.362 962.41 431.529 963.356 431.529C965.143 431.529 966.633 430.977 967.824 429.873C969.034 428.751 969.726 427.305 969.901 425.535L972.924 426.193ZM978.838 409.501H982.439V424.642C982.439 426.832 982.912 428.532 983.859 429.741C984.823 430.933 986.365 431.529 988.485 431.529C989.817 431.529 991.017 431.222 992.086 430.609C993.155 429.995 994.066 429.18 994.82 428.164C995.573 427.13 996.143 425.956 996.528 424.642C996.932 423.31 997.133 421.926 997.133 420.489V409.501H1000.76V434H997.133V427.875C995.416 432.361 992.332 434.604 987.88 434.604C981.852 434.604 978.838 431.283 978.838 424.642V409.501ZM1031.44 421.777C1031.44 423.687 1031.14 425.422 1030.54 426.981C1029.95 428.541 1029.11 429.89 1028.02 431.029C1026.95 432.151 1025.65 433.027 1024.13 433.658C1022.6 434.289 1020.9 434.604 1019 434.604C1017.71 434.604 1016.44 434.368 1015.22 433.894C1014.01 433.421 1012.88 432.72 1011.83 431.792V443.804H1008.23V409.501H1011.83V411.762C1014.05 409.869 1016.44 408.923 1019 408.923C1020.9 408.923 1022.6 409.238 1024.13 409.869C1025.65 410.482 1026.95 411.367 1028.02 412.524C1029.11 413.663 1029.95 415.03 1030.54 416.625C1031.14 418.202 1031.44 419.919 1031.44 421.777ZM1027.83 421.777C1027.83 420.41 1027.64 419.131 1027.26 417.939C1026.89 416.73 1026.33 415.687 1025.57 414.811C1024.82 413.935 1023.89 413.242 1022.79 412.734C1021.7 412.226 1020.44 411.972 1019 411.972C1017.64 411.972 1016.36 412.226 1015.17 412.734C1013.99 413.242 1012.88 414.066 1011.83 415.205V428.348C1012.88 429.487 1013.99 430.302 1015.17 430.793C1016.36 431.283 1017.64 431.529 1019 431.529C1020.44 431.529 1021.7 431.275 1022.79 430.766C1023.89 430.258 1024.82 429.566 1025.57 428.69C1026.33 427.814 1026.89 426.788 1027.26 425.614C1027.64 424.423 1027.83 423.143 1027.83 421.777Z" fill="#5DA0FF"/>
<path d="M879.21 586.737C879.21 588.419 878.921 589.917 878.343 591.232C877.765 592.546 876.95 593.659 875.898 594.57C874.864 595.481 873.638 596.173 872.218 596.646C870.816 597.137 869.248 597.382 867.513 597.382C865.077 597.382 863.001 596.927 861.283 596.016C859.584 595.104 858.112 593.79 856.867 592.073L859.391 590.128C860.144 591.267 861.231 592.222 862.65 592.993C864.07 593.764 865.691 594.149 867.513 594.149C870.002 594.149 871.964 593.518 873.401 592.257C874.856 591.012 875.583 589.208 875.583 586.842V584.213C873.445 586.106 871.009 587.052 868.275 587.052C864.438 587.052 861.424 585.957 859.233 583.766C857.043 581.576 855.947 578.579 855.947 574.777C855.947 572.919 856.228 571.211 856.789 569.651C857.367 568.074 858.182 566.716 859.233 565.577C860.302 564.42 861.599 563.526 863.123 562.895C864.648 562.247 866.365 561.923 868.275 561.923C869.607 561.923 870.895 562.159 872.139 562.633C873.401 563.088 874.549 563.78 875.583 564.709V562.501H879.21V586.737ZM875.583 568.205C874.549 567.066 873.41 566.242 872.166 565.734C870.939 565.226 869.642 564.972 868.275 564.972C866.839 564.972 865.568 565.226 864.464 565.734C863.378 566.242 862.475 566.935 861.757 567.811C861.038 568.687 860.486 569.73 860.101 570.939C859.733 572.131 859.549 573.41 859.549 574.777C859.549 577.58 860.276 579.815 861.73 581.479C863.185 583.144 865.367 583.977 868.275 583.977C869.642 583.977 870.939 583.723 872.166 583.214C873.41 582.689 874.549 581.847 875.583 580.691V568.205ZM885.388 580.375C885.388 578.833 885.773 577.545 886.544 576.511C887.315 575.46 888.323 574.636 889.567 574.041C890.829 573.427 892.266 572.989 893.878 572.726C895.508 572.446 897.164 572.306 898.846 572.306C899.494 572.306 900.073 572.315 900.581 572.332C901.106 572.35 901.597 572.376 902.053 572.411C902.526 572.446 902.999 572.49 903.472 572.542C903.945 572.595 904.462 572.656 905.023 572.726V570.965C905.023 569.774 904.76 568.792 904.234 568.021C903.726 567.25 903.095 566.646 902.342 566.207C901.588 565.752 900.8 565.436 899.976 565.261C899.153 565.068 898.452 564.972 897.873 564.972C896.051 564.972 894.369 565.217 892.826 565.708C891.284 566.199 889.847 566.856 888.516 567.679L886.886 564.972C888.358 564.078 890.005 563.351 891.828 562.79C893.668 562.212 895.683 561.923 897.873 561.923C899.205 561.923 900.511 562.098 901.79 562.449C903.087 562.782 904.243 563.307 905.26 564.026C906.294 564.727 907.117 565.655 907.73 566.812C908.344 567.969 908.65 569.353 908.65 570.965V587H905.023V582.899C904.392 583.688 903.674 584.38 902.868 584.976C902.079 585.571 901.247 586.062 900.37 586.448C899.494 586.816 898.618 587.096 897.742 587.289C896.866 587.499 896.033 587.604 895.245 587.604C892.003 587.604 889.549 586.982 887.885 585.738C886.22 584.494 885.388 582.706 885.388 580.375ZM895.245 584.529C896.752 584.529 898.101 584.31 899.293 583.872C900.502 583.416 901.527 582.855 902.368 582.189C903.209 581.523 903.858 580.814 904.313 580.06C904.786 579.307 905.023 578.623 905.023 578.01V575.697C903.849 575.521 902.719 575.425 901.632 575.407C900.563 575.39 899.634 575.381 898.846 575.381C897.549 575.381 896.296 575.469 895.087 575.644C893.895 575.819 892.853 576.108 891.959 576.511C891.065 576.897 890.347 577.405 889.804 578.036C889.26 578.667 888.989 579.447 888.989 580.375C888.989 581.409 889.488 582.364 890.487 583.241C891.503 584.099 893.089 584.529 895.245 584.529ZM891.749 553.985C891.749 553.143 891.898 552.372 892.196 551.671C892.493 550.953 892.914 550.322 893.457 549.779C894.001 549.236 894.631 548.815 895.35 548.517C896.068 548.202 896.839 548.044 897.663 548.044C898.487 548.044 899.258 548.202 899.976 548.517C900.695 548.815 901.317 549.236 901.842 549.779C902.386 550.322 902.806 550.953 903.104 551.671C903.42 552.372 903.577 553.143 903.577 553.985C903.577 554.808 903.42 555.579 903.104 556.298C902.806 557.016 902.386 557.647 901.842 558.19C901.317 558.716 900.695 559.137 899.976 559.452C899.258 559.75 898.487 559.899 897.663 559.899C896.839 559.899 896.068 559.75 895.35 559.452C894.631 559.137 894.001 558.716 893.457 558.19C892.914 557.647 892.493 557.016 892.196 556.298C891.898 555.579 891.749 554.808 891.749 553.985ZM894.114 553.985C894.114 554.948 894.465 555.781 895.166 556.482C895.867 557.183 896.699 557.533 897.663 557.533C898.627 557.533 899.459 557.183 900.16 556.482C900.861 555.781 901.212 554.948 901.212 553.985C901.212 553.003 900.861 552.162 900.16 551.461C899.459 550.76 898.627 550.41 897.663 550.41C896.699 550.41 895.867 550.76 895.166 551.461C894.465 552.162 894.114 553.003 894.114 553.985Z" fill="#5DA0FF"/>
<path d="M962.21 507.777C962.21 509.722 961.991 511.483 961.553 513.06C961.133 514.637 960.467 515.987 959.556 517.108C958.662 518.212 957.523 519.071 956.138 519.684C954.754 520.297 953.115 520.604 951.223 520.604C949.313 520.604 947.666 520.297 946.281 519.684C944.914 519.071 943.784 518.212 942.89 517.108C942.014 515.987 941.357 514.628 940.919 513.034C940.498 511.439 940.288 509.669 940.288 507.724V485.697H943.889V507.777C943.889 508.811 943.977 509.906 944.152 511.062C944.345 512.219 944.704 513.27 945.23 514.217C945.773 515.163 946.518 515.951 947.464 516.582C948.428 517.213 949.681 517.529 951.223 517.529C952.765 517.529 954.018 517.213 954.982 516.582C955.963 515.951 956.717 515.163 957.242 514.217C957.786 513.27 958.145 512.219 958.32 511.062C958.495 509.906 958.583 508.811 958.583 507.777V485.697H962.21V507.777ZM983.081 490.612H978.192V485.697H983.081V490.612ZM987.97 520H973.277V516.924H978.823V498.577H973.277V495.501H982.45V516.924H987.97V520ZM1022.54 512.193C1022.26 514.769 1021.24 516.819 1019.49 518.344C1017.75 519.851 1015.58 520.604 1012.97 520.604C1011.53 520.604 1010.22 520.368 1009.03 519.894C1007.83 519.421 1006.82 518.764 1005.98 517.923C1005.14 517.082 1004.48 516.074 1004 514.9C1003.55 513.708 1003.32 512.412 1003.32 511.01V498.577H997.775V495.501H1003.32V485.697H1006.92V495.501H1017.36V498.577H1006.92V511.01C1006.92 511.903 1007.06 512.745 1007.34 513.533C1007.64 514.322 1008.04 515.014 1008.55 515.61C1009.08 516.206 1009.71 516.679 1010.44 517.029C1011.18 517.362 1012.02 517.529 1012.97 517.529C1014.76 517.529 1016.25 516.977 1017.44 515.873C1018.65 514.751 1019.34 513.305 1019.51 511.535L1022.54 512.193ZM1050.37 519.737C1050.37 521.419 1050.08 522.917 1049.51 524.232C1048.93 525.546 1048.11 526.659 1047.06 527.57C1046.03 528.481 1044.8 529.173 1043.38 529.646C1041.98 530.137 1040.41 530.382 1038.68 530.382C1036.24 530.382 1034.16 529.927 1032.45 529.016C1030.75 528.104 1029.27 526.79 1028.03 525.073L1030.55 523.128C1031.31 524.267 1032.39 525.222 1033.81 525.993C1035.23 526.764 1036.85 527.149 1038.68 527.149C1041.16 527.149 1043.13 526.518 1044.56 525.257C1046.02 524.012 1046.75 522.208 1046.75 519.842V517.213C1044.61 519.106 1042.17 520.052 1039.44 520.052C1035.6 520.052 1032.59 518.957 1030.4 516.766C1028.21 514.576 1027.11 511.579 1027.11 507.777C1027.11 505.919 1027.39 504.211 1027.95 502.651C1028.53 501.074 1029.34 499.716 1030.4 498.577C1031.46 497.42 1032.76 496.526 1034.29 495.895C1035.81 495.247 1037.53 494.923 1039.44 494.923C1040.77 494.923 1042.06 495.159 1043.3 495.633C1044.56 496.088 1045.71 496.78 1046.75 497.709V495.501H1050.37V519.737ZM1046.75 501.205C1045.71 500.066 1044.57 499.242 1043.33 498.734C1042.1 498.226 1040.8 497.972 1039.44 497.972C1038 497.972 1036.73 498.226 1035.63 498.734C1034.54 499.242 1033.64 499.935 1032.92 500.811C1032.2 501.687 1031.65 502.73 1031.26 503.939C1030.9 505.131 1030.71 506.41 1030.71 507.777C1030.71 510.58 1031.44 512.815 1032.89 514.479C1034.35 516.144 1036.53 516.977 1039.44 516.977C1040.8 516.977 1042.1 516.723 1043.33 516.214C1044.57 515.689 1045.71 514.847 1046.75 513.691V501.205ZM1056.5 513.375C1056.5 511.833 1056.88 510.545 1057.65 509.511C1058.43 508.46 1059.43 507.636 1060.68 507.041C1061.94 506.427 1063.38 505.989 1064.99 505.726C1066.62 505.446 1068.27 505.306 1069.96 505.306C1070.6 505.306 1071.18 505.315 1071.69 505.332C1072.22 505.35 1072.71 505.376 1073.16 505.411C1073.64 505.446 1074.11 505.49 1074.58 505.542C1075.06 505.595 1075.57 505.656 1076.13 505.726V503.965C1076.13 502.774 1075.87 501.792 1075.34 501.021C1074.84 500.25 1074.21 499.646 1073.45 499.207C1072.7 498.752 1071.91 498.436 1071.09 498.261C1070.26 498.068 1069.56 497.972 1068.98 497.972C1067.16 497.972 1065.48 498.217 1063.94 498.708C1062.39 499.199 1060.96 499.856 1059.63 500.679L1058 497.972C1059.47 497.078 1061.12 496.351 1062.94 495.79C1064.78 495.212 1066.79 494.923 1068.98 494.923C1070.32 494.923 1071.62 495.098 1072.9 495.449C1074.2 495.782 1075.35 496.307 1076.37 497.026C1077.4 497.727 1078.23 498.655 1078.84 499.812C1079.45 500.969 1079.76 502.353 1079.76 503.965V520H1076.13V515.899C1075.5 516.688 1074.78 517.38 1073.98 517.976C1073.19 518.571 1072.36 519.062 1071.48 519.448C1070.6 519.816 1069.73 520.096 1068.85 520.289C1067.98 520.499 1067.14 520.604 1066.35 520.604C1063.11 520.604 1060.66 519.982 1058.99 518.738C1057.33 517.494 1056.5 515.706 1056.5 513.375ZM1066.35 517.529C1067.86 517.529 1069.21 517.31 1070.4 516.872C1071.61 516.416 1072.64 515.855 1073.48 515.189C1074.32 514.523 1074.97 513.814 1075.42 513.06C1075.9 512.307 1076.13 511.623 1076.13 511.01V508.697C1074.96 508.521 1073.83 508.425 1072.74 508.407C1071.67 508.39 1070.74 508.381 1069.96 508.381C1068.66 508.381 1067.41 508.469 1066.2 508.644C1065.01 508.819 1063.96 509.108 1063.07 509.511C1062.18 509.897 1061.46 510.405 1060.91 511.036C1060.37 511.667 1060.1 512.447 1060.1 513.375C1060.1 514.409 1060.6 515.364 1061.6 516.241C1062.61 517.099 1064.2 517.529 1066.35 517.529ZM1109.15 520H1105.52V504.885C1105.52 502.695 1105.05 500.995 1104.1 499.786C1103.15 498.577 1101.62 497.972 1099.5 497.972C1098.17 497.972 1096.96 498.279 1095.87 498.892C1094.8 499.505 1093.89 500.329 1093.14 501.363C1092.39 502.379 1091.81 503.553 1091.41 504.885C1091.02 506.199 1090.83 507.575 1090.83 509.012V520H1087.23V495.501H1090.83V501.652C1092.56 497.166 1095.65 494.923 1100.11 494.923C1106.13 494.923 1109.15 498.244 1109.15 504.885V520ZM1138.54 519.737C1138.54 521.419 1138.25 522.917 1137.67 524.232C1137.09 525.546 1136.27 526.659 1135.22 527.57C1134.19 528.481 1132.96 529.173 1131.54 529.646C1130.14 530.137 1128.57 530.382 1126.84 530.382C1124.4 530.382 1122.33 529.927 1120.61 529.016C1118.91 528.104 1117.44 526.79 1116.19 525.073L1118.72 523.128C1119.47 524.267 1120.56 525.222 1121.98 525.993C1123.39 526.764 1125.02 527.149 1126.84 527.149C1129.33 527.149 1131.29 526.518 1132.73 525.257C1134.18 524.012 1134.91 522.208 1134.91 519.842V517.213C1132.77 519.106 1130.33 520.052 1127.6 520.052C1123.76 520.052 1120.75 518.957 1118.56 516.766C1116.37 514.576 1115.27 511.579 1115.27 507.777C1115.27 505.919 1115.55 504.211 1116.11 502.651C1116.69 501.074 1117.51 499.716 1118.56 498.577C1119.63 497.42 1120.92 496.526 1122.45 495.895C1123.97 495.247 1125.69 494.923 1127.6 494.923C1128.93 494.923 1130.22 495.159 1131.46 495.633C1132.73 496.088 1133.87 496.78 1134.91 497.709V495.501H1138.54V519.737ZM1134.91 501.205C1133.87 500.066 1132.74 499.242 1131.49 498.734C1130.26 498.226 1128.97 497.972 1127.6 497.972C1126.16 497.972 1124.89 498.226 1123.79 498.734C1122.7 499.242 1121.8 499.935 1121.08 500.811C1120.36 501.687 1119.81 502.73 1119.43 503.939C1119.06 505.131 1118.87 506.41 1118.87 507.777C1118.87 510.58 1119.6 512.815 1121.06 514.479C1122.51 516.144 1124.69 516.977 1127.6 516.977C1128.97 516.977 1130.26 516.723 1131.49 516.214C1132.74 515.689 1133.87 514.847 1134.91 513.691V501.205Z" fill="#5DA0FF"/>
<path d="M1054.5 350.777C1054.5 352.687 1054.2 354.422 1053.6 355.981C1053.01 357.541 1052.17 358.89 1051.08 360.029C1050.01 361.151 1048.72 362.027 1047.19 362.658C1045.67 363.289 1043.96 363.604 1042.07 363.604C1040.77 363.604 1039.51 363.368 1038.28 362.894C1037.07 362.421 1035.94 361.72 1034.89 360.792V372.804H1031.29V338.501H1034.89V340.762C1037.11 338.869 1039.51 337.923 1042.07 337.923C1043.96 337.923 1045.67 338.238 1047.19 338.869C1048.72 339.482 1050.01 340.367 1051.08 341.524C1052.17 342.663 1053.01 344.03 1053.6 345.625C1054.2 347.202 1054.5 348.919 1054.5 350.777ZM1050.9 350.777C1050.9 349.41 1050.7 348.131 1050.32 346.939C1049.95 345.73 1049.39 344.687 1048.64 343.811C1047.88 342.935 1046.95 342.242 1045.85 341.734C1044.76 341.226 1043.5 340.972 1042.07 340.972C1040.7 340.972 1039.42 341.226 1038.23 341.734C1037.05 342.242 1035.94 343.066 1034.89 344.205V357.348C1035.94 358.487 1037.05 359.302 1038.23 359.793C1039.42 360.283 1040.7 360.529 1042.07 360.529C1043.5 360.529 1044.76 360.275 1045.85 359.766C1046.95 359.258 1047.88 358.566 1048.64 357.69C1049.39 356.814 1049.95 355.788 1050.32 354.614C1050.7 353.423 1050.9 352.143 1050.9 350.777ZM1060.68 338.501H1064.28V353.642C1064.28 355.832 1064.75 357.532 1065.7 358.741C1066.66 359.933 1068.2 360.529 1070.32 360.529C1071.65 360.529 1072.85 360.222 1073.92 359.609C1074.99 358.995 1075.9 358.18 1076.66 357.164C1077.41 356.13 1077.98 354.956 1078.37 353.642C1078.77 352.31 1078.97 350.926 1078.97 349.489V338.501H1082.6V363H1078.97V356.875C1077.25 361.361 1074.17 363.604 1069.72 363.604C1063.69 363.604 1060.68 360.283 1060.68 353.642V338.501ZM1113.22 363H1108.1L1098.08 352.012L1093.66 356.06V363H1090.06V328.697H1093.66V351.697L1107.62 338.501H1112.77L1100.5 349.751L1113.22 363ZM1118.11 356.375C1118.11 354.833 1118.5 353.545 1119.27 352.511C1120.04 351.46 1121.05 350.636 1122.29 350.041C1123.55 349.427 1124.99 348.989 1126.6 348.726C1128.23 348.446 1129.89 348.306 1131.57 348.306C1132.22 348.306 1132.8 348.315 1133.3 348.332C1133.83 348.35 1134.32 348.376 1134.78 348.411C1135.25 348.446 1135.72 348.49 1136.19 348.542C1136.67 348.595 1137.18 348.656 1137.75 348.726V346.965C1137.75 345.774 1137.48 344.792 1136.96 344.021C1136.45 343.25 1135.82 342.646 1135.06 342.207C1134.31 341.752 1133.52 341.436 1132.7 341.261C1131.88 341.068 1131.17 340.972 1130.6 340.972C1128.77 340.972 1127.09 341.217 1125.55 341.708C1124.01 342.199 1122.57 342.856 1121.24 343.679L1119.61 340.972C1121.08 340.078 1122.73 339.351 1124.55 338.79C1126.39 338.212 1128.41 337.923 1130.6 337.923C1131.93 337.923 1133.23 338.098 1134.51 338.449C1135.81 338.782 1136.97 339.307 1137.98 340.026C1139.02 340.727 1139.84 341.655 1140.45 342.812C1141.07 343.969 1141.37 345.353 1141.37 346.965V363H1137.75V358.899C1137.11 359.688 1136.4 360.38 1135.59 360.976C1134.8 361.571 1133.97 362.062 1133.09 362.448C1132.22 362.816 1131.34 363.096 1130.46 363.289C1129.59 363.499 1128.76 363.604 1127.97 363.604C1124.73 363.604 1122.27 362.982 1120.61 361.738C1118.94 360.494 1118.11 358.706 1118.11 356.375ZM1127.97 360.529C1129.47 360.529 1130.82 360.31 1132.02 359.872C1133.22 359.416 1134.25 358.855 1135.09 358.189C1135.93 357.523 1136.58 356.814 1137.04 356.06C1137.51 355.307 1137.75 354.623 1137.75 354.01V351.697C1136.57 351.521 1135.44 351.425 1134.35 351.407C1133.29 351.39 1132.36 351.381 1131.57 351.381C1130.27 351.381 1129.02 351.469 1127.81 351.644C1126.62 351.819 1125.58 352.108 1124.68 352.511C1123.79 352.897 1123.07 353.405 1122.53 354.036C1121.98 354.667 1121.71 355.447 1121.71 356.375C1121.71 357.409 1122.21 358.364 1123.21 359.241C1124.23 360.099 1125.81 360.529 1127.97 360.529Z" fill="#5DA0FF"/>
</g>
</g>
<defs>
<clipPath id="clip0_268_3842">
<rect width="1440" height="800" fill="white" transform="translate(0 0.251587)"/>
</clipPath>
<clipPath id="clip1_268_3842">
<rect width="1450.76" height="10980.4" fill="white" transform="translate(-25 -9080)"/>
</clipPath>
</defs>
</svg>
