<svg width="1440" height="800" viewBox="0 0 1440 800" fill="none" xmlns="http://www.w3.org/2000/svg">
<g clip-path="url(#clip0_320_399)">
<rect width="1440" height="800" fill="#DEDEDE"/>
<path d="M0 -154.434V-65.6437H88.7861V23.1471H446.705V114.713H627.052V300.618H713.064V480.975H627.052V383.86H446.705V480.975V566.991V744.572H269.133V655.782H88.7861V744.572H0V830.589H627.052V655.782H713.064V830.589H893.41V655.782H998.844V961H1079.31V927.703V744.572H1259.65V566.991H1440V300.618H1259.65V394.959H1079.31V300.618H1170.87V206.278H893.41V-65.6437H1079.31V23.1471H1440V-65.6437H1342.89V-154.434H1259.65V-65.6437H1170.87V-246H815.723V-154.434H713.064V-65.6437H269.133V-154.434H0Z" fill="#85B6FF"/>
<mask id="path-2-outside-1_320_399" maskUnits="userSpaceOnUse" x="1111" y="586" width="138" height="145" fill="black">
<rect fill="white" x="1111" y="586" width="138" height="145"/>
<path d="M1243.4 631.492L1193.3 658.445L1243.4 686.131L1235.34 699.9L1186.71 670.164L1188.76 726.854H1171.77L1173.82 670.164L1125.18 699.9L1117.13 686.131L1167.22 658.445L1117.13 631.492L1125.18 617.43L1173.82 647.459L1171.77 590.33H1188.76L1186.71 647.459L1235.34 617.43L1243.4 631.492Z"/>
</mask>
<path d="M1243.4 631.492L1245.29 635.015L1248.91 633.068L1246.87 629.504L1243.4 631.492ZM1193.3 658.445L1191.4 654.923L1184.94 658.398L1191.36 661.946L1193.3 658.445ZM1243.4 686.131L1246.85 688.151L1248.92 684.613L1245.33 682.63L1243.4 686.131ZM1235.34 699.9L1233.25 703.313L1236.73 705.441L1238.79 701.92L1235.34 699.9ZM1186.71 670.164L1188.79 666.751L1182.44 662.867L1182.71 670.309L1186.71 670.164ZM1188.76 726.854V730.854H1192.91L1192.76 726.709L1188.76 726.854ZM1171.77 726.854L1167.77 726.709L1167.62 730.854H1171.77V726.854ZM1173.82 670.164L1177.81 670.309L1178.08 662.867L1171.73 666.751L1173.82 670.164ZM1125.18 699.9L1121.73 701.92L1123.79 705.441L1127.27 703.313L1125.18 699.9ZM1117.13 686.131L1115.19 682.63L1111.6 684.613L1113.67 688.151L1117.13 686.131ZM1167.22 658.445L1169.16 661.946L1175.58 658.398L1169.12 654.923L1167.22 658.445ZM1117.13 631.492L1113.66 629.504L1111.61 633.068L1115.23 635.015L1117.13 631.492ZM1125.18 617.43L1127.29 614.026L1123.77 611.854L1121.71 615.441L1125.18 617.43ZM1173.82 647.459L1171.71 650.862L1178.08 654.794L1177.81 647.315L1173.82 647.459ZM1171.77 590.33V586.33H1167.62L1167.77 590.474L1171.77 590.33ZM1188.76 590.33L1192.76 590.474L1192.9 586.33H1188.76V590.33ZM1186.71 647.459L1182.71 647.315L1182.44 654.794L1188.81 650.862L1186.71 647.459ZM1235.34 617.43L1238.81 615.441L1236.76 611.854L1233.24 614.026L1235.34 617.43ZM1241.5 627.97L1191.4 654.923L1195.19 661.968L1245.29 635.015L1241.5 627.97ZM1191.36 661.946L1241.46 689.632L1245.33 682.63L1195.23 654.944L1191.36 661.946ZM1239.94 684.111L1231.89 697.88L1238.79 701.92L1246.85 688.151L1239.94 684.111ZM1237.43 696.488L1188.79 666.751L1184.62 673.577L1233.25 703.313L1237.43 696.488ZM1182.71 670.309L1184.76 726.998L1192.76 726.709L1190.7 670.019L1182.71 670.309ZM1188.76 722.854H1171.77V730.854H1188.76V722.854ZM1175.76 726.998L1177.81 670.309L1169.82 670.019L1167.77 726.709L1175.76 726.998ZM1171.73 666.751L1123.1 696.488L1127.27 703.313L1175.9 673.577L1171.73 666.751ZM1128.64 697.88L1120.58 684.111L1113.67 688.151L1121.73 701.92L1128.64 697.88ZM1119.06 689.632L1169.16 661.946L1165.29 654.944L1115.19 682.63L1119.06 689.632ZM1169.12 654.923L1119.02 627.97L1115.23 635.015L1165.33 661.968L1169.12 654.923ZM1120.6 633.481L1128.65 619.418L1121.71 615.441L1113.66 629.504L1120.6 633.481ZM1123.08 620.833L1171.71 650.862L1175.92 644.056L1127.29 614.026L1123.08 620.833ZM1177.81 647.315L1175.76 590.187L1167.77 590.474L1169.82 647.602L1177.81 647.315ZM1171.77 594.33H1188.76V586.33H1171.77V594.33ZM1184.76 590.187L1182.71 647.315L1190.7 647.602L1192.76 590.474L1184.76 590.187ZM1188.81 650.862L1237.44 620.833L1233.24 614.026L1184.61 644.056L1188.81 650.862ZM1231.87 619.418L1239.93 633.481L1246.87 629.504L1238.81 615.441L1231.87 619.418Z" fill="#E0E0E0" mask="url(#path-2-outside-1_320_399)"/>
<path d="M1042.71 738.293C1042.32 737.902 1041.68 737.902 1041.29 738.293L1034.93 744.657C1034.54 745.047 1034.54 745.68 1034.93 746.071C1035.32 746.461 1035.95 746.461 1036.34 746.071L1042 740.414L1047.66 746.071C1048.05 746.461 1048.68 746.461 1049.07 746.071C1049.46 745.68 1049.46 745.047 1049.07 744.657L1042.71 738.293ZM1043 924.529V739H1041V924.529H1043Z" fill="#E0E0E0"/>
<path d="M778.707 89.2927C778.317 88.9022 777.683 88.9022 777.293 89.2927L770.929 95.6567C770.538 96.0472 770.538 96.6804 770.929 97.0709C771.319 97.4614 771.953 97.4614 772.343 97.0709L778 91.414L783.657 97.0709C784.047 97.4614 784.681 97.4614 785.071 97.0709C785.462 96.6804 785.462 96.0472 785.071 95.6567L778.707 89.2927ZM779 275.529V89.9998H777V275.529H779Z" fill="#E0E0E0"/>
</g>
<defs>
<clipPath id="clip0_320_399">
<rect width="1440" height="800" fill="white"/>
</clipPath>
</defs>
</svg>
