<svg width="1441" height="801" viewBox="0 0 1441 801" fill="none" xmlns="http://www.w3.org/2000/svg">
<g clip-path="url(#clip0_268_3203)">
<rect width="1440" height="800" transform="translate(0.7146 0.943848)" fill="#DEDEDE"/>
<g clip-path="url(#clip1_268_3203)">
<rect width="1450.76" height="10980.4" transform="translate(0.7146 -4828.93)" fill="#E0E0E0"/>
<path d="M1260.6 46.4818C1259.8 45.0127 1258.58 43.7799 1257.08 42.919C1255.58 42.0581 1253.86 41.6025 1252.11 41.6025C1250.35 41.6025 1248.63 42.0581 1247.13 42.919C1245.63 43.7799 1244.42 45.0127 1243.62 46.4818L1191.16 145.136C1190.43 146.501 1190.08 148.02 1190.15 149.547C1190.22 151.075 1190.7 152.56 1191.55 153.863C1192.4 155.166 1193.59 156.243 1195.01 156.992C1196.42 157.74 1198.02 158.136 1199.65 158.14H1304.57C1306.19 158.136 1307.79 157.74 1309.21 156.992C1310.63 156.243 1311.82 155.166 1312.67 153.863C1313.52 152.56 1314 151.075 1314.07 149.547C1314.14 148.02 1313.79 146.501 1313.06 145.136L1260.6 46.4818Z" stroke="#85B6FF" stroke-width="8.38401" stroke-linecap="round" stroke-linejoin="round"/>
<path d="M1249.2 135.439L1268.49 110.623H1235.7L1254.99 85.8162" stroke="#85B6FF" stroke-width="8.38401" stroke-linecap="round" stroke-linejoin="round"/>
<path d="M0.7146 -1077.54V-988.089H90.1641V-898.635H450.758V-806.385H632.452V-619.091H719.106V-437.387H632.452V-535.227H450.758V-437.387V-350.728V-171.819H271.859V-261.274H90.1641V-171.819H0.7146V-85.1605H632.452V-261.274H719.106V-85.1605H900.801V-261.274H1007.02V46.2255H1088.09V12.6801V-171.819H1269.78V-350.728H1451.47V-619.091H1269.78V-524.045H1088.09V-619.091H1180.33V-714.136H900.801V-988.089H1088.09V-898.635H1451.47V-988.089H1353.64V-1077.54H1269.78V-988.089H1180.33V-1169.79H822.532V-1077.54H719.106V-988.089H271.859V-1077.54H0.7146Z" fill="#85B6FF"/>
<path d="M1051.21 -178.146C1050.82 -178.54 1050.18 -178.54 1049.79 -178.146L1043.38 -171.735C1042.98 -171.341 1042.98 -170.703 1043.38 -170.31C1043.77 -169.916 1044.41 -169.916 1044.8 -170.31L1050.5 -176.009L1056.2 -170.31C1056.59 -169.916 1057.23 -169.916 1057.62 -170.31C1058.02 -170.703 1058.02 -171.341 1057.62 -171.735L1051.21 -178.146ZM1051.51 9.48145V-177.434H1049.49V9.48145H1051.51Z" fill="#E0E0E0"/>
<path d="M1391.03 931.76V673.521L1222.97 673.521V507.596H1153.65V545.402H899.465V459.288L697.799 459.288L697.799 858.35H502.435L502.435 962.521V1078.88H718.806H899.465V805.842L1075.92 805.842V1078.88L1391.03 1078.88V1010.7" stroke="#85B6FF" stroke-width="4.02989"/>
<mask id="path-6-outside-1_268_3203" maskUnits="userSpaceOnUse" x="863.931" y="595.587" width="253" height="161" fill="black">
<rect fill="white" x="863.931" y="595.587" width="253" height="161"/>
<path d="M955.223 739.946L943.86 751.605L868.299 676.045L943.86 600.484L955.223 612.291L891.469 676.045L955.223 739.946ZM1112.1 676.045L1036.54 751.605L1025.03 739.946L1088.78 676.045L1025.03 612.291L1036.54 600.484L1112.1 676.045Z"/>
</mask>
<path d="M955.223 739.946L957.387 742.056L959.468 739.922L957.363 737.812L955.223 739.946ZM943.86 751.605L941.722 753.742L943.887 755.907L946.024 753.715L943.86 751.605ZM868.299 676.045L866.162 673.908L864.025 676.045L866.162 678.182L868.299 676.045ZM943.86 600.484L946.037 598.388L943.901 596.169L941.722 598.347L943.86 600.484ZM955.223 612.291L957.36 614.428L959.457 612.331L957.401 610.195L955.223 612.291ZM891.469 676.045L889.332 673.908L887.197 676.042L889.329 678.179L891.469 676.045ZM953.059 737.837L941.695 749.495L946.024 753.715L957.387 742.056L953.059 737.837ZM945.997 749.468L870.436 673.908L866.162 678.182L941.722 753.742L945.997 749.468ZM870.436 678.182L945.997 602.621L941.722 598.347L866.162 673.908L870.436 678.182ZM941.682 602.58L953.045 614.387L957.401 610.195L946.037 598.388L941.682 602.58ZM953.086 610.153L889.332 673.908L893.606 678.182L957.36 614.428L953.086 610.153ZM889.329 678.179L953.083 742.081L957.363 737.812L893.609 673.91L889.329 678.179ZM1112.1 676.045L1114.24 678.182L1116.37 676.045L1114.24 673.908L1112.1 676.045ZM1036.54 751.605L1034.39 753.729L1036.53 755.893L1038.68 753.742L1036.54 751.605ZM1025.03 739.946L1022.89 737.812L1020.77 739.935L1022.88 742.07L1025.03 739.946ZM1088.78 676.045L1090.92 678.179L1093.05 676.042L1090.92 673.908L1088.78 676.045ZM1025.03 612.291L1022.86 610.181L1020.78 612.317L1022.89 614.428L1025.03 612.291ZM1036.54 600.484L1038.68 598.347L1036.51 596.183L1034.38 598.374L1036.54 600.484ZM1109.96 673.908L1034.4 749.468L1038.68 753.742L1114.24 678.182L1109.96 673.908ZM1038.69 749.482L1027.18 737.823L1022.88 742.07L1034.39 753.729L1038.69 749.482ZM1027.17 742.081L1090.92 678.179L1086.64 673.91L1022.89 737.812L1027.17 742.081ZM1090.92 673.908L1027.17 610.153L1022.89 614.428L1086.64 678.182L1090.92 673.908ZM1027.19 614.401L1038.7 602.594L1034.38 598.374L1022.86 610.181L1027.19 614.401ZM1034.4 602.621L1109.96 678.182L1114.24 673.908L1038.68 598.347L1034.4 602.621Z" fill="#85B6FF" mask="url(#path-6-outside-1_268_3203)"/>
<path d="M59.0252 1166.04V728.304M37.7104 1251.37H350.327V459.658H215.334M59.0252 728.304V459.658H215.334M59.0252 728.304H81.1295L148.232 586.87H215.334V459.658" stroke="#85B6FF" stroke-width="3.69961"/>
<path d="M198.498 774.466C193.539 774.466 189.487 770.257 189.487 765.175C189.487 762.725 190.437 760.376 192.126 758.644C193.816 756.911 196.108 755.938 198.498 755.938C203.51 755.938 207.562 760.092 207.562 765.175C207.562 770.257 203.51 774.466 198.498 774.466ZM182.289 838.738L150.672 832.289L152.485 822.998L174.611 827.643L181.809 790.151L173.705 793.43V809.061H164.694V787.419L188.154 777.198L191.727 776.761C194.926 776.761 197.591 778.619 199.351 781.407L203.936 788.785C207.562 795.398 214.76 799.88 223.344 799.88V809.061C213.427 809.061 204.363 804.525 198.498 797.584L195.832 811.466L205.269 820.702V855.517H196.259V827.643L186.768 818.407L182.289 838.738ZM239.339 855.517H228.676V746.21H159.363V817.86L148.699 815.565V735.279H239.339V855.517ZM159.363 855.517H148.699V837.918L159.363 840.214V855.517Z" fill="#85B6FF"/>
<rect x="57" y="69" width="871" height="245" stroke="#85B6FF" stroke-width="4"/>
<path d="M111.594 180H85.5312V139.219H111.594V142.875H89.8125V157.469H105.875V161.125H89.8125V176.344H111.594V180ZM118.938 176.344C119.917 176.135 120.854 175.573 121.75 174.656C122.646 173.74 123.427 172.469 124.094 170.844C124.76 169.219 125.292 167.25 125.688 164.938C126.104 162.604 126.312 159.927 126.312 156.906V150.875H142.219V176.344H148.062V189.969H144.219V180H122.781V189.969H118.938V176.344ZM130.594 156.906C130.594 159.323 130.417 161.594 130.062 163.719C129.729 165.823 129.281 167.708 128.719 169.375C128.177 171.042 127.552 172.479 126.844 173.688C126.135 174.875 125.438 175.76 124.75 176.344H137.938V154.531H130.594V156.906ZM155.406 150.875H159.688V174.375L175.438 150.875H181.469V180H177.156V155.438L160.719 180H155.406V150.875ZM216.406 180H212.094V166.938H194.625V180H190.344V150.875H194.625V163.281H212.094V150.875H216.406V180ZM248.594 150.875H252.875V180H248.594V150.875ZM228.031 162.531H233.031C236.24 162.531 238.677 163.229 240.344 164.625C242.031 166 242.875 168.198 242.875 171.219C242.875 174.26 242.031 176.49 240.344 177.906C238.677 179.302 236.26 180 233.094 180H223.75V150.875H228.031V162.531ZM238.594 171.219C238.594 169.615 238.115 168.375 237.156 167.5C236.198 166.625 234.844 166.188 233.094 166.188H228.031V176.344H233.094C234.844 176.344 236.198 175.896 237.156 175C238.115 174.104 238.594 172.844 238.594 171.219ZM260.219 150.875H264.5V174.375L280.25 150.875H286.281V180H281.969V155.438L265.531 180H260.219V150.875ZM282.188 142.188C279.75 144.604 276.781 145.812 273.281 145.812C269.781 145.812 266.812 144.604 264.375 142.188L266.812 139.812C268.771 141.771 270.927 142.75 273.281 142.75C275.635 142.75 277.792 141.771 279.75 139.812L282.188 142.188ZM357.688 164.625H354.031V154.531H345.281V176.344H351.844V180H334.375V176.344H340.969V154.531H332.219V164.625H328.562V150.875H357.688V164.625ZM367.781 166.938C368.094 170.021 369.219 172.479 371.156 174.312C373.094 176.146 375.615 177.062 378.719 177.062C380.906 177.062 382.854 176.615 384.562 175.719C386.271 174.823 387.552 173.708 388.406 172.375L391.406 174.438C389.948 176.479 388.208 178.042 386.188 179.125C384.167 180.188 381.677 180.719 378.719 180.719C376.469 180.719 374.406 180.344 372.531 179.594C370.656 178.844 369.031 177.802 367.656 176.469C366.302 175.115 365.25 173.51 364.5 171.656C363.75 169.802 363.375 167.74 363.375 165.469C363.375 163.26 363.708 161.229 364.375 159.375C365.062 157.5 366.042 155.885 367.312 154.531C368.604 153.156 370.167 152.094 372 151.344C373.833 150.573 375.885 150.188 378.156 150.188C380.635 150.188 382.802 150.604 384.656 151.438C386.51 152.271 388.052 153.427 389.281 154.906C390.531 156.365 391.448 158.115 392.031 160.156C392.635 162.198 392.938 164.458 392.938 166.938H367.781ZM388.406 163.281C387.927 160.094 386.771 157.719 384.938 156.156C383.104 154.594 380.844 153.812 378.156 153.812C376.781 153.812 375.51 154.042 374.344 154.5C373.177 154.938 372.146 155.573 371.25 156.406C370.354 157.24 369.604 158.25 369 159.438C368.396 160.604 368.01 161.885 367.844 163.281H388.406ZM426.031 150.875V180H421.719V154.531H408.562V173.531C408.562 174.677 408.365 175.698 407.969 176.594C407.594 177.49 407.083 178.24 406.438 178.844C405.792 179.448 405.042 179.906 404.188 180.219C403.333 180.552 402.438 180.719 401.5 180.719C399.75 180.719 398.469 180.458 397.656 179.938L398.5 176.531C398.792 176.719 399.115 176.854 399.469 176.938C399.844 177.021 400.333 177.062 400.938 177.062C403.146 177.062 404.25 175.885 404.25 173.531V150.875H426.031ZM437.656 166.938C437.969 170.021 439.094 172.479 441.031 174.312C442.969 176.146 445.49 177.062 448.594 177.062C450.781 177.062 452.729 176.615 454.438 175.719C456.146 174.823 457.427 173.708 458.281 172.375L461.281 174.438C459.823 176.479 458.083 178.042 456.062 179.125C454.042 180.188 451.552 180.719 448.594 180.719C446.344 180.719 444.281 180.344 442.406 179.594C440.531 178.844 438.906 177.802 437.531 176.469C436.177 175.115 435.125 173.51 434.375 171.656C433.625 169.802 433.25 167.74 433.25 165.469C433.25 163.26 433.583 161.229 434.25 159.375C434.938 157.5 435.917 155.885 437.188 154.531C438.479 153.156 440.042 152.094 441.875 151.344C443.708 150.573 445.76 150.188 448.031 150.188C450.51 150.188 452.677 150.604 454.531 151.438C456.385 152.271 457.927 153.427 459.156 154.906C460.406 156.365 461.323 158.115 461.906 160.156C462.51 162.198 462.812 164.458 462.812 166.938H437.656ZM458.281 163.281C457.802 160.094 456.646 157.719 454.812 156.156C452.979 154.594 450.719 153.812 448.031 153.812C446.656 153.812 445.385 154.042 444.219 154.5C443.052 154.938 442.021 155.573 441.125 156.406C440.229 157.24 439.479 158.25 438.875 159.438C438.271 160.604 437.885 161.885 437.719 163.281H458.281ZM480.719 156.781C479.531 154.802 478.062 153.812 476.312 153.812C474.771 153.812 473.615 154.708 472.844 156.5C472.094 158.292 471.719 161.281 471.719 165.469C471.719 169.656 472.094 172.635 472.844 174.406C473.615 176.177 474.771 177.062 476.312 177.062C478.062 177.062 479.531 176.083 480.719 174.125V156.781ZM480.719 178.031C479.615 179.823 478.146 180.719 476.312 180.719C473.333 180.719 471.104 179.406 469.625 176.781C468.146 174.156 467.406 170.385 467.406 165.469C467.406 160.573 468.146 156.802 469.625 154.156C471.104 151.51 473.333 150.188 476.312 150.188C478.146 150.188 479.615 151.083 480.719 152.875V139.219H485.031V152.875C486.135 151.083 487.604 150.188 489.438 150.188C492.417 150.188 494.646 151.51 496.125 154.156C497.604 156.802 498.344 160.573 498.344 165.469C498.344 170.385 497.604 174.156 496.125 176.781C494.646 179.406 492.417 180.719 489.438 180.719C487.604 180.719 486.135 179.823 485.031 178.031V191.656H480.719V178.031ZM485.031 174.125C486.219 176.083 487.688 177.062 489.438 177.062C490.979 177.062 492.125 176.177 492.875 174.406C493.646 172.635 494.031 169.656 494.031 165.469C494.031 161.281 493.646 158.292 492.875 156.5C492.125 154.708 490.979 153.812 489.438 153.812C487.688 153.812 486.219 154.802 485.031 156.781V174.125ZM533.125 165.531C533.125 167.802 532.76 169.865 532.031 171.719C531.323 173.573 530.292 175.167 528.938 176.5C527.604 177.812 526 178.844 524.125 179.594C522.25 180.344 520.156 180.719 517.844 180.719C515.573 180.719 513.5 180.344 511.625 179.594C509.75 178.844 508.135 177.812 506.781 176.5C505.448 175.167 504.417 173.573 503.688 171.719C502.979 169.865 502.625 167.802 502.625 165.531C502.625 163.323 502.979 161.271 503.688 159.375C504.417 157.458 505.448 155.833 506.781 154.5C508.135 153.146 509.75 152.094 511.625 151.344C513.5 150.573 515.573 150.188 517.844 150.188C520.156 150.188 522.25 150.573 524.125 151.344C526 152.094 527.604 153.146 528.938 154.5C530.292 155.833 531.323 157.458 532.031 159.375C532.76 161.271 533.125 163.323 533.125 165.531ZM528.844 165.531C528.844 163.865 528.594 162.333 528.094 160.938C527.615 159.521 526.896 158.281 525.938 157.219C524.979 156.156 523.812 155.323 522.438 154.719C521.083 154.115 519.552 153.812 517.844 153.812C516.135 153.812 514.594 154.115 513.219 154.719C511.865 155.323 510.719 156.156 509.781 157.219C508.844 158.281 508.125 159.521 507.625 160.938C507.146 162.333 506.906 163.865 506.906 165.531C506.906 167.198 507.146 168.74 507.625 170.156C508.125 171.552 508.844 172.76 509.781 173.781C510.719 174.802 511.865 175.604 513.219 176.188C514.594 176.771 516.135 177.062 517.844 177.062C519.552 177.062 521.083 176.771 522.438 176.188C523.812 175.604 524.979 174.802 525.938 173.781C526.896 172.76 527.615 171.552 528.094 170.156C528.594 168.74 528.844 167.198 528.844 165.531ZM565.781 180H561.469V166.938H544V180H539.719V150.875H544V163.281H561.469V150.875H565.781V180ZM112.031 238.5C110.802 240.417 109.115 241.938 106.969 243.062C104.844 244.167 102.312 244.719 99.375 244.719C97.1042 244.719 95.0208 244.344 93.125 243.594C91.2292 242.844 89.6042 241.802 88.25 240.469C86.9167 239.115 85.875 237.51 85.125 235.656C84.375 233.802 84 231.74 84 229.469C84 227.26 84.3438 225.219 85.0312 223.344C85.7188 221.448 86.6979 219.833 87.9688 218.5C89.2396 217.146 90.7917 216.094 92.625 215.344C94.4792 214.573 96.5312 214.188 98.7812 214.188C99.6771 214.188 100.594 214.292 101.531 214.5C102.469 214.708 103.354 215.031 104.188 215.469C105.021 215.885 105.771 216.396 106.438 217C107.104 217.583 107.604 218.281 107.938 219.094V214.875H111.781V226.531H107.938C107.938 225.24 107.698 224.062 107.219 223C106.76 221.938 106.125 221.021 105.312 220.25C104.5 219.479 103.531 218.885 102.406 218.469C101.281 218.031 100.073 217.812 98.7812 217.812C97.0312 217.812 95.5 218.115 94.1875 218.719C92.8958 219.323 91.8125 220.146 90.9375 221.188C90.0625 222.229 89.3958 223.458 88.9375 224.875C88.5 226.271 88.2812 227.802 88.2812 229.469C88.2812 231.135 88.5312 232.677 89.0312 234.094C89.5521 235.49 90.2917 236.698 91.25 237.719C92.2292 238.74 93.3958 239.552 94.75 240.156C96.125 240.76 97.6667 241.062 99.375 241.062C101.542 241.062 103.469 240.646 105.156 239.812C106.844 238.979 108.135 237.854 109.031 236.438L112.031 238.5ZM146.531 214.875V244H142.219V218.531H129.062V237.531C129.062 238.677 128.865 239.698 128.469 240.594C128.094 241.49 127.583 242.24 126.938 242.844C126.292 243.448 125.542 243.906 124.688 244.219C123.833 244.552 122.938 244.719 122 244.719C120.25 244.719 118.969 244.458 118.156 243.938L119 240.531C119.292 240.719 119.615 240.854 119.969 240.938C120.344 241.021 120.833 241.062 121.438 241.062C123.646 241.062 124.75 239.885 124.75 237.531V214.875H146.531ZM183.906 214.875L168.156 251.375C167.344 253.417 166.198 254.75 164.719 255.375C163.24 256.021 161.604 256.344 159.812 256.344C157.812 256.344 155.812 255.979 153.812 255.25L154.656 251.562C155.635 251.979 156.594 252.271 157.531 252.438C158.469 252.625 159.229 252.719 159.812 252.719C161.229 252.719 162.198 252.375 162.719 251.688C163.26 251 163.729 250.188 164.125 249.25L165.906 244.844L152.906 214.875H157.969L168.469 240.344L178.781 214.875H183.906ZM197.25 227.625L188.312 214.875H193.094L201.219 227.156V214.875H205.531V227.156L213.656 214.875H218.438L209.5 227.625L218.438 244H213.844L207.062 230.938L205.531 233.188V244H201.219V233.188L199.688 230.938L192.906 244H188.312L197.25 227.625ZM228.438 230.125C228.438 233.438 229.333 236.094 231.125 238.094C232.917 240.073 235.385 241.062 238.531 241.062C239.99 241.062 241.333 240.812 242.562 240.312C243.812 239.792 244.885 239.052 245.781 238.094C246.677 237.115 247.365 235.958 247.844 234.625C248.344 233.271 248.594 231.771 248.594 230.125C248.594 226.792 247.719 224.135 245.969 222.156C244.219 220.156 241.74 219.156 238.531 219.156C235.073 219.156 232.521 220.156 230.875 222.156C229.25 224.135 228.438 226.792 228.438 230.125ZM223.75 223.656C223.75 220.531 224.073 217.677 224.719 215.094C225.385 212.51 226.312 210.292 227.5 208.438C228.708 206.583 230.135 205.135 231.781 204.094C233.427 203.052 235.25 202.531 237.25 202.531C238.188 202.531 238.979 202.625 239.625 202.812C240.271 203 240.844 203.229 241.344 203.5C241.865 203.75 242.354 203.969 242.812 204.156C243.292 204.344 243.854 204.438 244.5 204.438C245.354 204.438 246.073 204.292 246.656 204C247.26 203.708 247.99 203.219 248.844 202.531L251.062 205.094C250.167 205.948 249.115 206.667 247.906 207.25C246.698 207.812 245.562 208.094 244.5 208.094C243.688 208.094 242.979 208 242.375 207.812C241.771 207.625 241.208 207.406 240.688 207.156C240.188 206.885 239.667 206.656 239.125 206.469C238.604 206.281 237.979 206.188 237.25 206.188C235.979 206.188 234.781 206.542 233.656 207.25C232.552 207.938 231.583 208.948 230.75 210.281C229.917 211.594 229.26 213.188 228.781 215.062C228.323 216.938 228.094 219.052 228.094 221.406C228.615 220.469 229.25 219.635 230 218.906C230.75 218.177 231.583 217.562 232.5 217.062C233.417 216.542 234.396 216.156 235.438 215.906C236.479 215.656 237.51 215.531 238.531 215.531C240.573 215.531 242.469 215.844 244.219 216.469C245.969 217.073 247.479 217.99 248.75 219.219C250.042 220.427 251.052 221.938 251.781 223.75C252.51 225.562 252.875 227.688 252.875 230.125C252.875 232.167 252.51 234.083 251.781 235.875C251.052 237.667 250.042 239.219 248.75 240.531C247.479 241.823 245.969 242.844 244.219 243.594C242.469 244.344 240.573 244.719 238.531 244.719C233.635 244.719 229.948 243.01 227.469 239.594C224.99 236.177 223.75 230.865 223.75 223.656ZM283.531 214.875H287.812V244H283.531V214.875ZM262.969 226.531H267.969C271.177 226.531 273.615 227.229 275.281 228.625C276.969 230 277.812 232.198 277.812 235.219C277.812 238.26 276.969 240.49 275.281 241.906C273.615 243.302 271.198 244 268.031 244H258.688V214.875H262.969V226.531ZM273.531 235.219C273.531 233.615 273.052 232.375 272.094 231.5C271.135 230.625 269.781 230.188 268.031 230.188H262.969V240.344H268.031C269.781 240.344 271.135 239.896 272.094 239C273.052 238.104 273.531 236.844 273.531 235.219ZM356.594 238.5C355.365 240.417 353.677 241.938 351.531 243.062C349.406 244.167 346.875 244.719 343.938 244.719C341.667 244.719 339.583 244.344 337.688 243.594C335.792 242.844 334.167 241.802 332.812 240.469C331.479 239.115 330.438 237.51 329.688 235.656C328.938 233.802 328.562 231.74 328.562 229.469C328.562 227.26 328.906 225.219 329.594 223.344C330.281 221.448 331.26 219.833 332.531 218.5C333.802 217.146 335.354 216.094 337.188 215.344C339.042 214.573 341.094 214.188 343.344 214.188C344.24 214.188 345.156 214.292 346.094 214.5C347.031 214.708 347.917 215.031 348.75 215.469C349.583 215.885 350.333 216.396 351 217C351.667 217.583 352.167 218.281 352.5 219.094V214.875H356.344V226.531H352.5C352.5 225.24 352.26 224.062 351.781 223C351.323 221.938 350.688 221.021 349.875 220.25C349.062 219.479 348.094 218.885 346.969 218.469C345.844 218.031 344.635 217.812 343.344 217.812C341.594 217.812 340.062 218.115 338.75 218.719C337.458 219.323 336.375 220.146 335.5 221.188C334.625 222.229 333.958 223.458 333.5 224.875C333.062 226.271 332.844 227.802 332.844 229.469C332.844 231.135 333.094 232.677 333.594 234.094C334.115 235.49 334.854 236.698 335.812 237.719C336.792 238.74 337.958 239.552 339.312 240.156C340.688 240.76 342.229 241.062 343.938 241.062C346.104 241.062 348.031 240.646 349.719 239.812C351.406 238.979 352.698 237.854 353.594 236.438L356.594 238.5ZM391.094 244H386.781V218.531H369.312V244H365.031V214.875H391.094V244ZM398.375 236.125C398.375 234.292 398.833 232.76 399.75 231.531C400.667 230.281 401.865 229.302 403.344 228.594C404.844 227.865 406.552 227.344 408.469 227.031C410.406 226.698 412.375 226.531 414.375 226.531C415.146 226.531 415.833 226.542 416.438 226.562C417.062 226.583 417.646 226.615 418.188 226.656C418.75 226.698 419.312 226.75 419.875 226.812C420.438 226.875 421.052 226.948 421.719 227.031V224.938C421.719 223.521 421.406 222.354 420.781 221.438C420.177 220.521 419.427 219.802 418.531 219.281C417.635 218.74 416.698 218.365 415.719 218.156C414.74 217.927 413.906 217.812 413.219 217.812C411.052 217.812 409.052 218.104 407.219 218.688C405.385 219.271 403.677 220.052 402.094 221.031L400.156 217.812C401.906 216.75 403.865 215.885 406.031 215.219C408.219 214.531 410.615 214.188 413.219 214.188C414.802 214.188 416.354 214.396 417.875 214.812C419.417 215.208 420.792 215.833 422 216.688C423.229 217.521 424.208 218.625 424.938 220C425.667 221.375 426.031 223.021 426.031 224.938V244H421.719V239.125C420.969 240.062 420.115 240.885 419.156 241.594C418.219 242.302 417.229 242.885 416.188 243.344C415.146 243.781 414.104 244.115 413.062 244.344C412.021 244.594 411.031 244.719 410.094 244.719C406.24 244.719 403.323 243.979 401.344 242.5C399.365 241.021 398.375 238.896 398.375 236.125ZM410.094 241.062C411.885 241.062 413.49 240.802 414.906 240.281C416.344 239.74 417.562 239.073 418.562 238.281C419.562 237.49 420.333 236.646 420.875 235.75C421.438 234.854 421.719 234.042 421.719 233.312V230.562C420.323 230.354 418.979 230.24 417.688 230.219C416.417 230.198 415.312 230.188 414.375 230.188C412.833 230.188 411.344 230.292 409.906 230.5C408.49 230.708 407.25 231.052 406.188 231.531C405.125 231.99 404.271 232.594 403.625 233.344C402.979 234.094 402.656 235.021 402.656 236.125C402.656 237.354 403.25 238.49 404.438 239.531C405.646 240.552 407.531 241.062 410.094 241.062ZM461.406 238.5C460.177 240.417 458.49 241.938 456.344 243.062C454.219 244.167 451.688 244.719 448.75 244.719C446.479 244.719 444.396 244.344 442.5 243.594C440.604 242.844 438.979 241.802 437.625 240.469C436.292 239.115 435.25 237.51 434.5 235.656C433.75 233.802 433.375 231.74 433.375 229.469C433.375 227.26 433.719 225.219 434.406 223.344C435.094 221.448 436.073 219.833 437.344 218.5C438.615 217.146 440.167 216.094 442 215.344C443.854 214.573 445.906 214.188 448.156 214.188C449.052 214.188 449.969 214.292 450.906 214.5C451.844 214.708 452.729 215.031 453.562 215.469C454.396 215.885 455.146 216.396 455.812 217C456.479 217.583 456.979 218.281 457.312 219.094V214.875H461.156V226.531H457.312C457.312 225.24 457.073 224.062 456.594 223C456.135 221.938 455.5 221.021 454.688 220.25C453.875 219.479 452.906 218.885 451.781 218.469C450.656 218.031 449.448 217.812 448.156 217.812C446.406 217.812 444.875 218.115 443.562 218.719C442.271 219.323 441.188 220.146 440.312 221.188C439.438 222.229 438.771 223.458 438.312 224.875C437.875 226.271 437.656 227.802 437.656 229.469C437.656 231.135 437.906 232.677 438.406 234.094C438.927 235.49 439.667 236.698 440.625 237.719C441.604 238.74 442.771 239.552 444.125 240.156C445.5 240.76 447.042 241.062 448.75 241.062C450.917 241.062 452.844 240.646 454.531 239.812C456.219 238.979 457.51 237.854 458.406 236.438L461.406 238.5ZM472.594 230.938C472.906 234.021 474.031 236.479 475.969 238.312C477.906 240.146 480.427 241.062 483.531 241.062C485.719 241.062 487.667 240.615 489.375 239.719C491.083 238.823 492.365 237.708 493.219 236.375L496.219 238.438C494.76 240.479 493.021 242.042 491 243.125C488.979 244.188 486.49 244.719 483.531 244.719C481.281 244.719 479.219 244.344 477.344 243.594C475.469 242.844 473.844 241.802 472.469 240.469C471.115 239.115 470.062 237.51 469.312 235.656C468.562 233.802 468.188 231.74 468.188 229.469C468.188 227.26 468.521 225.229 469.188 223.375C469.875 221.5 470.854 219.885 472.125 218.531C473.417 217.156 474.979 216.094 476.812 215.344C478.646 214.573 480.698 214.188 482.969 214.188C485.448 214.188 487.615 214.604 489.469 215.438C491.323 216.271 492.865 217.427 494.094 218.906C495.344 220.365 496.26 222.115 496.844 224.156C497.448 226.198 497.75 228.458 497.75 230.938H472.594ZM493.219 227.281C492.74 224.094 491.583 221.719 489.75 220.156C487.917 218.594 485.656 217.812 482.969 217.812C481.594 217.812 480.323 218.042 479.156 218.5C477.99 218.938 476.958 219.573 476.062 220.406C475.167 221.24 474.417 222.25 473.812 223.438C473.208 224.604 472.823 225.885 472.656 227.281H493.219ZM530.844 244H526.531V230.938H509.062V244H504.781V214.875H509.062V227.281H526.531V214.875H530.844V244ZM539.719 214.875H544V238.375L559.75 214.875H565.781V244H561.469V219.438L545.031 244H539.719V214.875ZM583.938 232.344C580.479 232.177 577.823 231.406 575.969 230.031C574.115 228.635 573.188 226.51 573.188 223.656C573.188 220.615 574.219 218.396 576.281 217C578.365 215.583 581.344 214.875 585.219 214.875H600.719V244H596.406V232.344H589.438L578.812 244H572.75L583.938 232.344ZM577.469 223.656C577.469 225.281 578.156 226.531 579.531 227.406C580.927 228.281 582.844 228.719 585.281 228.719H596.406V218.531H585.281C582.844 218.531 580.927 218.979 579.531 219.875C578.156 220.771 577.469 222.031 577.469 223.656Z" fill="#5DA0FF"/>
<path d="M708.562 169H673.625V161.688H686.812V106C686.062 107.708 684.875 109.542 683.25 111.5C681.625 113.417 679.708 115.188 677.5 116.812C675.292 118.396 672.854 119.729 670.188 120.812C667.562 121.896 664.833 122.438 662 122.438V113.562C664.542 113.562 667.271 112.771 670.188 111.188C673.104 109.604 675.792 107.583 678.25 105.125C680.708 102.667 682.75 99.875 684.375 96.75C686 93.625 686.812 90.5208 686.812 87.4375H695.438V161.688H708.562V169ZM738.375 128.312C738.375 134.354 739.104 140.021 740.562 145.312L778.75 105C776.75 101.25 774.271 98.375 771.312 96.375C768.396 94.375 764.979 93.375 761.062 93.375C753.729 93.375 748.104 96.5 744.188 102.75C740.312 108.958 738.375 117.479 738.375 128.312ZM743.5 152.25C747.625 159.583 753.479 163.25 761.062 163.25C768.229 163.25 773.792 160.146 777.75 153.938C781.708 147.688 783.688 139.146 783.688 128.312C783.688 125.312 783.5 122.479 783.125 119.812C782.75 117.104 782.229 114.521 781.562 112.062L743.5 152.25ZM729.812 128.312C729.812 122.854 730.396 117.583 731.562 112.5C732.729 107.417 734.542 102.917 737 99C739.458 95.0833 742.667 91.9583 746.625 89.625C750.625 87.25 755.438 86.0625 761.062 86.0625C766.688 86.0625 771.479 87.25 775.438 89.625C779.438 91.9583 782.688 95.0833 785.188 99C787.688 102.917 789.5 107.417 790.625 112.5C791.75 117.583 792.312 122.854 792.312 128.312C792.312 133.771 791.75 139.042 790.625 144.125C789.5 149.208 787.708 153.688 785.25 157.562C782.792 161.438 779.562 164.562 775.562 166.938C771.604 169.271 766.771 170.438 761.062 170.438C755.354 170.438 750.5 169.271 746.5 166.938C742.542 164.562 739.312 161.438 736.812 157.562C734.354 153.688 732.583 149.208 731.5 144.125C730.375 139.042 729.812 133.771 729.812 128.312ZM848.312 169H813.375V161.688H826.562V106C825.812 107.708 824.625 109.542 823 111.5C821.375 113.417 819.458 115.188 817.25 116.812C815.042 118.396 812.604 119.729 809.938 120.812C807.312 121.896 804.583 122.438 801.75 122.438V113.562C804.292 113.562 807.021 112.771 809.938 111.188C812.854 109.604 815.542 107.583 818 105.125C820.458 102.667 822.5 99.875 824.125 96.75C825.75 93.625 826.562 90.5208 826.562 87.4375H835.188V161.688H848.312V169ZM708.562 297H673.625V289.688H686.812V234C686.062 235.708 684.875 237.542 683.25 239.5C681.625 241.417 679.708 243.188 677.5 244.812C675.292 246.396 672.854 247.729 670.188 248.812C667.562 249.896 664.833 250.438 662 250.438V241.562C664.542 241.562 667.271 240.771 670.188 239.188C673.104 237.604 675.792 235.583 678.25 233.125C680.708 230.667 682.75 227.875 684.375 224.75C686 221.625 686.812 218.521 686.812 215.438H695.438V289.688H708.562V297ZM778.438 297H743.5V289.688H756.688V234C755.938 235.708 754.75 237.542 753.125 239.5C751.5 241.417 749.583 243.188 747.375 244.812C745.167 246.396 742.729 247.729 740.062 248.812C737.438 249.896 734.708 250.438 731.875 250.438V241.562C734.417 241.562 737.146 240.771 740.062 239.188C742.979 237.604 745.667 235.583 748.125 233.125C750.583 230.667 752.625 227.875 754.25 224.75C755.875 221.625 756.688 218.521 756.688 215.438H765.312V289.688H778.438V297ZM856.938 236.562C856.938 238.812 856.729 240.833 856.312 242.625C855.938 244.417 855.229 246.229 854.188 248.062C853.188 249.896 851.854 251.833 850.188 253.875C848.521 255.917 846.417 258.25 843.875 260.875L815.438 289.688H849.875V273.688H857.188V297H804.188V289.438L835.938 257.188C837.562 255.562 839.104 253.938 840.562 252.312C842.062 250.688 843.396 249.042 844.562 247.375C845.729 245.708 846.646 243.979 847.312 242.188C847.979 240.396 848.312 238.521 848.312 236.562C848.312 231.562 846.646 227.792 843.312 225.25C840.021 222.667 835.938 221.375 831.062 221.375C824.229 221.375 819.062 223.271 815.562 227.062C812.062 230.854 810.312 236.333 810.312 243.5H802.375C802.375 234.292 804.833 227.083 809.75 221.875C814.667 216.667 821.771 214.062 831.062 214.062C834.562 214.062 837.854 214.583 840.938 215.625C844.062 216.625 846.812 218.083 849.188 220C851.604 221.917 853.5 224.271 854.875 227.062C856.25 229.812 856.938 232.979 856.938 236.562Z" fill="#5DA0FF"/>
<rect x="57" y="69" width="871" height="245" stroke="#85B6FF" stroke-width="4"/>
<path d="M111.594 180H85.5312V139.219H111.594V142.875H89.8125V157.469H105.875V161.125H89.8125V176.344H111.594V180ZM118.938 176.344C119.917 176.135 120.854 175.573 121.75 174.656C122.646 173.74 123.427 172.469 124.094 170.844C124.76 169.219 125.292 167.25 125.688 164.938C126.104 162.604 126.312 159.927 126.312 156.906V150.875H142.219V176.344H148.062V189.969H144.219V180H122.781V189.969H118.938V176.344ZM130.594 156.906C130.594 159.323 130.417 161.594 130.062 163.719C129.729 165.823 129.281 167.708 128.719 169.375C128.177 171.042 127.552 172.479 126.844 173.688C126.135 174.875 125.438 175.76 124.75 176.344H137.938V154.531H130.594V156.906ZM155.406 150.875H159.688V174.375L175.438 150.875H181.469V180H177.156V155.438L160.719 180H155.406V150.875ZM216.406 180H212.094V166.938H194.625V180H190.344V150.875H194.625V163.281H212.094V150.875H216.406V180ZM248.594 150.875H252.875V180H248.594V150.875ZM228.031 162.531H233.031C236.24 162.531 238.677 163.229 240.344 164.625C242.031 166 242.875 168.198 242.875 171.219C242.875 174.26 242.031 176.49 240.344 177.906C238.677 179.302 236.26 180 233.094 180H223.75V150.875H228.031V162.531ZM238.594 171.219C238.594 169.615 238.115 168.375 237.156 167.5C236.198 166.625 234.844 166.188 233.094 166.188H228.031V176.344H233.094C234.844 176.344 236.198 175.896 237.156 175C238.115 174.104 238.594 172.844 238.594 171.219ZM260.219 150.875H264.5V174.375L280.25 150.875H286.281V180H281.969V155.438L265.531 180H260.219V150.875ZM282.188 142.188C279.75 144.604 276.781 145.812 273.281 145.812C269.781 145.812 266.812 144.604 264.375 142.188L266.812 139.812C268.771 141.771 270.927 142.75 273.281 142.75C275.635 142.75 277.792 141.771 279.75 139.812L282.188 142.188ZM357.688 164.625H354.031V154.531H345.281V176.344H351.844V180H334.375V176.344H340.969V154.531H332.219V164.625H328.562V150.875H357.688V164.625ZM367.781 166.938C368.094 170.021 369.219 172.479 371.156 174.312C373.094 176.146 375.615 177.062 378.719 177.062C380.906 177.062 382.854 176.615 384.562 175.719C386.271 174.823 387.552 173.708 388.406 172.375L391.406 174.438C389.948 176.479 388.208 178.042 386.188 179.125C384.167 180.188 381.677 180.719 378.719 180.719C376.469 180.719 374.406 180.344 372.531 179.594C370.656 178.844 369.031 177.802 367.656 176.469C366.302 175.115 365.25 173.51 364.5 171.656C363.75 169.802 363.375 167.74 363.375 165.469C363.375 163.26 363.708 161.229 364.375 159.375C365.062 157.5 366.042 155.885 367.312 154.531C368.604 153.156 370.167 152.094 372 151.344C373.833 150.573 375.885 150.188 378.156 150.188C380.635 150.188 382.802 150.604 384.656 151.438C386.51 152.271 388.052 153.427 389.281 154.906C390.531 156.365 391.448 158.115 392.031 160.156C392.635 162.198 392.938 164.458 392.938 166.938H367.781ZM388.406 163.281C387.927 160.094 386.771 157.719 384.938 156.156C383.104 154.594 380.844 153.812 378.156 153.812C376.781 153.812 375.51 154.042 374.344 154.5C373.177 154.938 372.146 155.573 371.25 156.406C370.354 157.24 369.604 158.25 369 159.438C368.396 160.604 368.01 161.885 367.844 163.281H388.406ZM426.031 150.875V180H421.719V154.531H408.562V173.531C408.562 174.677 408.365 175.698 407.969 176.594C407.594 177.49 407.083 178.24 406.438 178.844C405.792 179.448 405.042 179.906 404.188 180.219C403.333 180.552 402.438 180.719 401.5 180.719C399.75 180.719 398.469 180.458 397.656 179.938L398.5 176.531C398.792 176.719 399.115 176.854 399.469 176.938C399.844 177.021 400.333 177.062 400.938 177.062C403.146 177.062 404.25 175.885 404.25 173.531V150.875H426.031ZM437.656 166.938C437.969 170.021 439.094 172.479 441.031 174.312C442.969 176.146 445.49 177.062 448.594 177.062C450.781 177.062 452.729 176.615 454.438 175.719C456.146 174.823 457.427 173.708 458.281 172.375L461.281 174.438C459.823 176.479 458.083 178.042 456.062 179.125C454.042 180.188 451.552 180.719 448.594 180.719C446.344 180.719 444.281 180.344 442.406 179.594C440.531 178.844 438.906 177.802 437.531 176.469C436.177 175.115 435.125 173.51 434.375 171.656C433.625 169.802 433.25 167.74 433.25 165.469C433.25 163.26 433.583 161.229 434.25 159.375C434.938 157.5 435.917 155.885 437.188 154.531C438.479 153.156 440.042 152.094 441.875 151.344C443.708 150.573 445.76 150.188 448.031 150.188C450.51 150.188 452.677 150.604 454.531 151.438C456.385 152.271 457.927 153.427 459.156 154.906C460.406 156.365 461.323 158.115 461.906 160.156C462.51 162.198 462.812 164.458 462.812 166.938H437.656ZM458.281 163.281C457.802 160.094 456.646 157.719 454.812 156.156C452.979 154.594 450.719 153.812 448.031 153.812C446.656 153.812 445.385 154.042 444.219 154.5C443.052 154.938 442.021 155.573 441.125 156.406C440.229 157.24 439.479 158.25 438.875 159.438C438.271 160.604 437.885 161.885 437.719 163.281H458.281ZM480.719 156.781C479.531 154.802 478.062 153.812 476.312 153.812C474.771 153.812 473.615 154.708 472.844 156.5C472.094 158.292 471.719 161.281 471.719 165.469C471.719 169.656 472.094 172.635 472.844 174.406C473.615 176.177 474.771 177.062 476.312 177.062C478.062 177.062 479.531 176.083 480.719 174.125V156.781ZM480.719 178.031C479.615 179.823 478.146 180.719 476.312 180.719C473.333 180.719 471.104 179.406 469.625 176.781C468.146 174.156 467.406 170.385 467.406 165.469C467.406 160.573 468.146 156.802 469.625 154.156C471.104 151.51 473.333 150.188 476.312 150.188C478.146 150.188 479.615 151.083 480.719 152.875V139.219H485.031V152.875C486.135 151.083 487.604 150.188 489.438 150.188C492.417 150.188 494.646 151.51 496.125 154.156C497.604 156.802 498.344 160.573 498.344 165.469C498.344 170.385 497.604 174.156 496.125 176.781C494.646 179.406 492.417 180.719 489.438 180.719C487.604 180.719 486.135 179.823 485.031 178.031V191.656H480.719V178.031ZM485.031 174.125C486.219 176.083 487.688 177.062 489.438 177.062C490.979 177.062 492.125 176.177 492.875 174.406C493.646 172.635 494.031 169.656 494.031 165.469C494.031 161.281 493.646 158.292 492.875 156.5C492.125 154.708 490.979 153.812 489.438 153.812C487.688 153.812 486.219 154.802 485.031 156.781V174.125ZM533.125 165.531C533.125 167.802 532.76 169.865 532.031 171.719C531.323 173.573 530.292 175.167 528.938 176.5C527.604 177.812 526 178.844 524.125 179.594C522.25 180.344 520.156 180.719 517.844 180.719C515.573 180.719 513.5 180.344 511.625 179.594C509.75 178.844 508.135 177.812 506.781 176.5C505.448 175.167 504.417 173.573 503.688 171.719C502.979 169.865 502.625 167.802 502.625 165.531C502.625 163.323 502.979 161.271 503.688 159.375C504.417 157.458 505.448 155.833 506.781 154.5C508.135 153.146 509.75 152.094 511.625 151.344C513.5 150.573 515.573 150.188 517.844 150.188C520.156 150.188 522.25 150.573 524.125 151.344C526 152.094 527.604 153.146 528.938 154.5C530.292 155.833 531.323 157.458 532.031 159.375C532.76 161.271 533.125 163.323 533.125 165.531ZM528.844 165.531C528.844 163.865 528.594 162.333 528.094 160.938C527.615 159.521 526.896 158.281 525.938 157.219C524.979 156.156 523.812 155.323 522.438 154.719C521.083 154.115 519.552 153.812 517.844 153.812C516.135 153.812 514.594 154.115 513.219 154.719C511.865 155.323 510.719 156.156 509.781 157.219C508.844 158.281 508.125 159.521 507.625 160.938C507.146 162.333 506.906 163.865 506.906 165.531C506.906 167.198 507.146 168.74 507.625 170.156C508.125 171.552 508.844 172.76 509.781 173.781C510.719 174.802 511.865 175.604 513.219 176.188C514.594 176.771 516.135 177.062 517.844 177.062C519.552 177.062 521.083 176.771 522.438 176.188C523.812 175.604 524.979 174.802 525.938 173.781C526.896 172.76 527.615 171.552 528.094 170.156C528.594 168.74 528.844 167.198 528.844 165.531ZM565.781 180H561.469V166.938H544V180H539.719V150.875H544V163.281H561.469V150.875H565.781V180ZM112.031 238.5C110.802 240.417 109.115 241.938 106.969 243.062C104.844 244.167 102.312 244.719 99.375 244.719C97.1042 244.719 95.0208 244.344 93.125 243.594C91.2292 242.844 89.6042 241.802 88.25 240.469C86.9167 239.115 85.875 237.51 85.125 235.656C84.375 233.802 84 231.74 84 229.469C84 227.26 84.3438 225.219 85.0312 223.344C85.7188 221.448 86.6979 219.833 87.9688 218.5C89.2396 217.146 90.7917 216.094 92.625 215.344C94.4792 214.573 96.5312 214.188 98.7812 214.188C99.6771 214.188 100.594 214.292 101.531 214.5C102.469 214.708 103.354 215.031 104.188 215.469C105.021 215.885 105.771 216.396 106.438 217C107.104 217.583 107.604 218.281 107.938 219.094V214.875H111.781V226.531H107.938C107.938 225.24 107.698 224.062 107.219 223C106.76 221.938 106.125 221.021 105.312 220.25C104.5 219.479 103.531 218.885 102.406 218.469C101.281 218.031 100.073 217.812 98.7812 217.812C97.0312 217.812 95.5 218.115 94.1875 218.719C92.8958 219.323 91.8125 220.146 90.9375 221.188C90.0625 222.229 89.3958 223.458 88.9375 224.875C88.5 226.271 88.2812 227.802 88.2812 229.469C88.2812 231.135 88.5312 232.677 89.0312 234.094C89.5521 235.49 90.2917 236.698 91.25 237.719C92.2292 238.74 93.3958 239.552 94.75 240.156C96.125 240.76 97.6667 241.062 99.375 241.062C101.542 241.062 103.469 240.646 105.156 239.812C106.844 238.979 108.135 237.854 109.031 236.438L112.031 238.5ZM146.531 214.875V244H142.219V218.531H129.062V237.531C129.062 238.677 128.865 239.698 128.469 240.594C128.094 241.49 127.583 242.24 126.938 242.844C126.292 243.448 125.542 243.906 124.688 244.219C123.833 244.552 122.938 244.719 122 244.719C120.25 244.719 118.969 244.458 118.156 243.938L119 240.531C119.292 240.719 119.615 240.854 119.969 240.938C120.344 241.021 120.833 241.062 121.438 241.062C123.646 241.062 124.75 239.885 124.75 237.531V214.875H146.531ZM183.906 214.875L168.156 251.375C167.344 253.417 166.198 254.75 164.719 255.375C163.24 256.021 161.604 256.344 159.812 256.344C157.812 256.344 155.812 255.979 153.812 255.25L154.656 251.562C155.635 251.979 156.594 252.271 157.531 252.438C158.469 252.625 159.229 252.719 159.812 252.719C161.229 252.719 162.198 252.375 162.719 251.688C163.26 251 163.729 250.188 164.125 249.25L165.906 244.844L152.906 214.875H157.969L168.469 240.344L178.781 214.875H183.906ZM197.25 227.625L188.312 214.875H193.094L201.219 227.156V214.875H205.531V227.156L213.656 214.875H218.438L209.5 227.625L218.438 244H213.844L207.062 230.938L205.531 233.188V244H201.219V233.188L199.688 230.938L192.906 244H188.312L197.25 227.625ZM228.438 230.125C228.438 233.438 229.333 236.094 231.125 238.094C232.917 240.073 235.385 241.062 238.531 241.062C239.99 241.062 241.333 240.812 242.562 240.312C243.812 239.792 244.885 239.052 245.781 238.094C246.677 237.115 247.365 235.958 247.844 234.625C248.344 233.271 248.594 231.771 248.594 230.125C248.594 226.792 247.719 224.135 245.969 222.156C244.219 220.156 241.74 219.156 238.531 219.156C235.073 219.156 232.521 220.156 230.875 222.156C229.25 224.135 228.438 226.792 228.438 230.125ZM223.75 223.656C223.75 220.531 224.073 217.677 224.719 215.094C225.385 212.51 226.312 210.292 227.5 208.438C228.708 206.583 230.135 205.135 231.781 204.094C233.427 203.052 235.25 202.531 237.25 202.531C238.188 202.531 238.979 202.625 239.625 202.812C240.271 203 240.844 203.229 241.344 203.5C241.865 203.75 242.354 203.969 242.812 204.156C243.292 204.344 243.854 204.438 244.5 204.438C245.354 204.438 246.073 204.292 246.656 204C247.26 203.708 247.99 203.219 248.844 202.531L251.062 205.094C250.167 205.948 249.115 206.667 247.906 207.25C246.698 207.812 245.562 208.094 244.5 208.094C243.688 208.094 242.979 208 242.375 207.812C241.771 207.625 241.208 207.406 240.688 207.156C240.188 206.885 239.667 206.656 239.125 206.469C238.604 206.281 237.979 206.188 237.25 206.188C235.979 206.188 234.781 206.542 233.656 207.25C232.552 207.938 231.583 208.948 230.75 210.281C229.917 211.594 229.26 213.188 228.781 215.062C228.323 216.938 228.094 219.052 228.094 221.406C228.615 220.469 229.25 219.635 230 218.906C230.75 218.177 231.583 217.562 232.5 217.062C233.417 216.542 234.396 216.156 235.438 215.906C236.479 215.656 237.51 215.531 238.531 215.531C240.573 215.531 242.469 215.844 244.219 216.469C245.969 217.073 247.479 217.99 248.75 219.219C250.042 220.427 251.052 221.938 251.781 223.75C252.51 225.562 252.875 227.688 252.875 230.125C252.875 232.167 252.51 234.083 251.781 235.875C251.052 237.667 250.042 239.219 248.75 240.531C247.479 241.823 245.969 242.844 244.219 243.594C242.469 244.344 240.573 244.719 238.531 244.719C233.635 244.719 229.948 243.01 227.469 239.594C224.99 236.177 223.75 230.865 223.75 223.656ZM283.531 214.875H287.812V244H283.531V214.875ZM262.969 226.531H267.969C271.177 226.531 273.615 227.229 275.281 228.625C276.969 230 277.812 232.198 277.812 235.219C277.812 238.26 276.969 240.49 275.281 241.906C273.615 243.302 271.198 244 268.031 244H258.688V214.875H262.969V226.531ZM273.531 235.219C273.531 233.615 273.052 232.375 272.094 231.5C271.135 230.625 269.781 230.188 268.031 230.188H262.969V240.344H268.031C269.781 240.344 271.135 239.896 272.094 239C273.052 238.104 273.531 236.844 273.531 235.219ZM356.594 238.5C355.365 240.417 353.677 241.938 351.531 243.062C349.406 244.167 346.875 244.719 343.938 244.719C341.667 244.719 339.583 244.344 337.688 243.594C335.792 242.844 334.167 241.802 332.812 240.469C331.479 239.115 330.438 237.51 329.688 235.656C328.938 233.802 328.562 231.74 328.562 229.469C328.562 227.26 328.906 225.219 329.594 223.344C330.281 221.448 331.26 219.833 332.531 218.5C333.802 217.146 335.354 216.094 337.188 215.344C339.042 214.573 341.094 214.188 343.344 214.188C344.24 214.188 345.156 214.292 346.094 214.5C347.031 214.708 347.917 215.031 348.75 215.469C349.583 215.885 350.333 216.396 351 217C351.667 217.583 352.167 218.281 352.5 219.094V214.875H356.344V226.531H352.5C352.5 225.24 352.26 224.062 351.781 223C351.323 221.938 350.688 221.021 349.875 220.25C349.062 219.479 348.094 218.885 346.969 218.469C345.844 218.031 344.635 217.812 343.344 217.812C341.594 217.812 340.062 218.115 338.75 218.719C337.458 219.323 336.375 220.146 335.5 221.188C334.625 222.229 333.958 223.458 333.5 224.875C333.062 226.271 332.844 227.802 332.844 229.469C332.844 231.135 333.094 232.677 333.594 234.094C334.115 235.49 334.854 236.698 335.812 237.719C336.792 238.74 337.958 239.552 339.312 240.156C340.688 240.76 342.229 241.062 343.938 241.062C346.104 241.062 348.031 240.646 349.719 239.812C351.406 238.979 352.698 237.854 353.594 236.438L356.594 238.5ZM391.094 244H386.781V218.531H369.312V244H365.031V214.875H391.094V244ZM398.375 236.125C398.375 234.292 398.833 232.76 399.75 231.531C400.667 230.281 401.865 229.302 403.344 228.594C404.844 227.865 406.552 227.344 408.469 227.031C410.406 226.698 412.375 226.531 414.375 226.531C415.146 226.531 415.833 226.542 416.438 226.562C417.062 226.583 417.646 226.615 418.188 226.656C418.75 226.698 419.312 226.75 419.875 226.812C420.438 226.875 421.052 226.948 421.719 227.031V224.938C421.719 223.521 421.406 222.354 420.781 221.438C420.177 220.521 419.427 219.802 418.531 219.281C417.635 218.74 416.698 218.365 415.719 218.156C414.74 217.927 413.906 217.812 413.219 217.812C411.052 217.812 409.052 218.104 407.219 218.688C405.385 219.271 403.677 220.052 402.094 221.031L400.156 217.812C401.906 216.75 403.865 215.885 406.031 215.219C408.219 214.531 410.615 214.188 413.219 214.188C414.802 214.188 416.354 214.396 417.875 214.812C419.417 215.208 420.792 215.833 422 216.688C423.229 217.521 424.208 218.625 424.938 220C425.667 221.375 426.031 223.021 426.031 224.938V244H421.719V239.125C420.969 240.062 420.115 240.885 419.156 241.594C418.219 242.302 417.229 242.885 416.188 243.344C415.146 243.781 414.104 244.115 413.062 244.344C412.021 244.594 411.031 244.719 410.094 244.719C406.24 244.719 403.323 243.979 401.344 242.5C399.365 241.021 398.375 238.896 398.375 236.125ZM410.094 241.062C411.885 241.062 413.49 240.802 414.906 240.281C416.344 239.74 417.562 239.073 418.562 238.281C419.562 237.49 420.333 236.646 420.875 235.75C421.438 234.854 421.719 234.042 421.719 233.312V230.562C420.323 230.354 418.979 230.24 417.688 230.219C416.417 230.198 415.312 230.188 414.375 230.188C412.833 230.188 411.344 230.292 409.906 230.5C408.49 230.708 407.25 231.052 406.188 231.531C405.125 231.99 404.271 232.594 403.625 233.344C402.979 234.094 402.656 235.021 402.656 236.125C402.656 237.354 403.25 238.49 404.438 239.531C405.646 240.552 407.531 241.062 410.094 241.062ZM461.406 238.5C460.177 240.417 458.49 241.938 456.344 243.062C454.219 244.167 451.688 244.719 448.75 244.719C446.479 244.719 444.396 244.344 442.5 243.594C440.604 242.844 438.979 241.802 437.625 240.469C436.292 239.115 435.25 237.51 434.5 235.656C433.75 233.802 433.375 231.74 433.375 229.469C433.375 227.26 433.719 225.219 434.406 223.344C435.094 221.448 436.073 219.833 437.344 218.5C438.615 217.146 440.167 216.094 442 215.344C443.854 214.573 445.906 214.188 448.156 214.188C449.052 214.188 449.969 214.292 450.906 214.5C451.844 214.708 452.729 215.031 453.562 215.469C454.396 215.885 455.146 216.396 455.812 217C456.479 217.583 456.979 218.281 457.312 219.094V214.875H461.156V226.531H457.312C457.312 225.24 457.073 224.062 456.594 223C456.135 221.938 455.5 221.021 454.688 220.25C453.875 219.479 452.906 218.885 451.781 218.469C450.656 218.031 449.448 217.812 448.156 217.812C446.406 217.812 444.875 218.115 443.562 218.719C442.271 219.323 441.188 220.146 440.312 221.188C439.438 222.229 438.771 223.458 438.312 224.875C437.875 226.271 437.656 227.802 437.656 229.469C437.656 231.135 437.906 232.677 438.406 234.094C438.927 235.49 439.667 236.698 440.625 237.719C441.604 238.74 442.771 239.552 444.125 240.156C445.5 240.76 447.042 241.062 448.75 241.062C450.917 241.062 452.844 240.646 454.531 239.812C456.219 238.979 457.51 237.854 458.406 236.438L461.406 238.5ZM472.594 230.938C472.906 234.021 474.031 236.479 475.969 238.312C477.906 240.146 480.427 241.062 483.531 241.062C485.719 241.062 487.667 240.615 489.375 239.719C491.083 238.823 492.365 237.708 493.219 236.375L496.219 238.438C494.76 240.479 493.021 242.042 491 243.125C488.979 244.188 486.49 244.719 483.531 244.719C481.281 244.719 479.219 244.344 477.344 243.594C475.469 242.844 473.844 241.802 472.469 240.469C471.115 239.115 470.062 237.51 469.312 235.656C468.562 233.802 468.188 231.74 468.188 229.469C468.188 227.26 468.521 225.229 469.188 223.375C469.875 221.5 470.854 219.885 472.125 218.531C473.417 217.156 474.979 216.094 476.812 215.344C478.646 214.573 480.698 214.188 482.969 214.188C485.448 214.188 487.615 214.604 489.469 215.438C491.323 216.271 492.865 217.427 494.094 218.906C495.344 220.365 496.26 222.115 496.844 224.156C497.448 226.198 497.75 228.458 497.75 230.938H472.594ZM493.219 227.281C492.74 224.094 491.583 221.719 489.75 220.156C487.917 218.594 485.656 217.812 482.969 217.812C481.594 217.812 480.323 218.042 479.156 218.5C477.99 218.938 476.958 219.573 476.062 220.406C475.167 221.24 474.417 222.25 473.812 223.438C473.208 224.604 472.823 225.885 472.656 227.281H493.219ZM530.844 244H526.531V230.938H509.062V244H504.781V214.875H509.062V227.281H526.531V214.875H530.844V244ZM539.719 214.875H544V238.375L559.75 214.875H565.781V244H561.469V219.438L545.031 244H539.719V214.875ZM583.938 232.344C580.479 232.177 577.823 231.406 575.969 230.031C574.115 228.635 573.188 226.51 573.188 223.656C573.188 220.615 574.219 218.396 576.281 217C578.365 215.583 581.344 214.875 585.219 214.875H600.719V244H596.406V232.344H589.438L578.812 244H572.75L583.938 232.344ZM577.469 223.656C577.469 225.281 578.156 226.531 579.531 227.406C580.927 228.281 582.844 228.719 585.281 228.719H596.406V218.531H585.281C582.844 218.531 580.927 218.979 579.531 219.875C578.156 220.771 577.469 222.031 577.469 223.656Z" fill="#5DA0FF"/>
<path d="M708.562 169H673.625V161.688H686.812V106C686.062 107.708 684.875 109.542 683.25 111.5C681.625 113.417 679.708 115.188 677.5 116.812C675.292 118.396 672.854 119.729 670.188 120.812C667.562 121.896 664.833 122.438 662 122.438V113.562C664.542 113.562 667.271 112.771 670.188 111.188C673.104 109.604 675.792 107.583 678.25 105.125C680.708 102.667 682.75 99.875 684.375 96.75C686 93.625 686.812 90.5208 686.812 87.4375H695.438V161.688H708.562V169ZM738.375 128.312C738.375 134.354 739.104 140.021 740.562 145.312L778.75 105C776.75 101.25 774.271 98.375 771.312 96.375C768.396 94.375 764.979 93.375 761.062 93.375C753.729 93.375 748.104 96.5 744.188 102.75C740.312 108.958 738.375 117.479 738.375 128.312ZM743.5 152.25C747.625 159.583 753.479 163.25 761.062 163.25C768.229 163.25 773.792 160.146 777.75 153.938C781.708 147.688 783.688 139.146 783.688 128.312C783.688 125.312 783.5 122.479 783.125 119.812C782.75 117.104 782.229 114.521 781.562 112.062L743.5 152.25ZM729.812 128.312C729.812 122.854 730.396 117.583 731.562 112.5C732.729 107.417 734.542 102.917 737 99C739.458 95.0833 742.667 91.9583 746.625 89.625C750.625 87.25 755.438 86.0625 761.062 86.0625C766.688 86.0625 771.479 87.25 775.438 89.625C779.438 91.9583 782.688 95.0833 785.188 99C787.688 102.917 789.5 107.417 790.625 112.5C791.75 117.583 792.312 122.854 792.312 128.312C792.312 133.771 791.75 139.042 790.625 144.125C789.5 149.208 787.708 153.688 785.25 157.562C782.792 161.438 779.562 164.562 775.562 166.938C771.604 169.271 766.771 170.438 761.062 170.438C755.354 170.438 750.5 169.271 746.5 166.938C742.542 164.562 739.312 161.438 736.812 157.562C734.354 153.688 732.583 149.208 731.5 144.125C730.375 139.042 729.812 133.771 729.812 128.312ZM848.312 169H813.375V161.688H826.562V106C825.812 107.708 824.625 109.542 823 111.5C821.375 113.417 819.458 115.188 817.25 116.812C815.042 118.396 812.604 119.729 809.938 120.812C807.312 121.896 804.583 122.438 801.75 122.438V113.562C804.292 113.562 807.021 112.771 809.938 111.188C812.854 109.604 815.542 107.583 818 105.125C820.458 102.667 822.5 99.875 824.125 96.75C825.75 93.625 826.562 90.5208 826.562 87.4375H835.188V161.688H848.312V169ZM708.562 297H673.625V289.688H686.812V234C686.062 235.708 684.875 237.542 683.25 239.5C681.625 241.417 679.708 243.188 677.5 244.812C675.292 246.396 672.854 247.729 670.188 248.812C667.562 249.896 664.833 250.438 662 250.438V241.562C664.542 241.562 667.271 240.771 670.188 239.188C673.104 237.604 675.792 235.583 678.25 233.125C680.708 230.667 682.75 227.875 684.375 224.75C686 221.625 686.812 218.521 686.812 215.438H695.438V289.688H708.562V297ZM778.438 297H743.5V289.688H756.688V234C755.938 235.708 754.75 237.542 753.125 239.5C751.5 241.417 749.583 243.188 747.375 244.812C745.167 246.396 742.729 247.729 740.062 248.812C737.438 249.896 734.708 250.438 731.875 250.438V241.562C734.417 241.562 737.146 240.771 740.062 239.188C742.979 237.604 745.667 235.583 748.125 233.125C750.583 230.667 752.625 227.875 754.25 224.75C755.875 221.625 756.688 218.521 756.688 215.438H765.312V289.688H778.438V297ZM856.938 236.562C856.938 238.812 856.729 240.833 856.312 242.625C855.938 244.417 855.229 246.229 854.188 248.062C853.188 249.896 851.854 251.833 850.188 253.875C848.521 255.917 846.417 258.25 843.875 260.875L815.438 289.688H849.875V273.688H857.188V297H804.188V289.438L835.938 257.188C837.562 255.562 839.104 253.938 840.562 252.312C842.062 250.688 843.396 249.042 844.562 247.375C845.729 245.708 846.646 243.979 847.312 242.188C847.979 240.396 848.312 238.521 848.312 236.562C848.312 231.562 846.646 227.792 843.312 225.25C840.021 222.667 835.938 221.375 831.062 221.375C824.229 221.375 819.062 223.271 815.562 227.062C812.062 230.854 810.312 236.333 810.312 243.5H802.375C802.375 234.292 804.833 227.083 809.75 221.875C814.667 216.667 821.771 214.062 831.062 214.062C834.562 214.062 837.854 214.583 840.938 215.625C844.062 216.625 846.812 218.083 849.188 220C851.604 221.917 853.5 224.271 854.875 227.062C856.25 229.812 856.938 232.979 856.938 236.562Z" fill="#5DA0FF"/>
</g>
</g>
<defs>
<clipPath id="clip0_268_3203">
<rect width="1440" height="800" fill="white" transform="translate(0.7146 0.943848)"/>
</clipPath>
<clipPath id="clip1_268_3203">
<rect width="1450.76" height="10980.4" fill="white" transform="translate(0.7146 -4828.93)"/>
</clipPath>
</defs>
</svg>
