<svg width="1440" height="800" viewBox="0 0 1440 800" fill="none" xmlns="http://www.w3.org/2000/svg">
<g clip-path="url(#clip0_320_444)">
<rect width="1440" height="800" fill="#DEDEDE"/>
<path d="M0 -1028.43V-939.644H88.7861V-850.853H446.705V-759.287H627.052V-573.382H713.064V-393.025H627.052V-490.14H446.705V-393.025V-307.009V-129.428H269.133V-218.218H88.7861V-129.428H0V-43.4115H627.052V-218.218H713.064V-43.4115H893.41V-218.218H998.844V87H1079.31V53.7034V-129.428H1259.65V-307.009H1440V-573.382H1259.65V-479.041H1079.31V-573.382H1170.87V-667.722H893.41V-939.644H1079.31V-850.853H1440V-939.644H1342.89V-1028.43H1259.65V-939.644H1170.87V-1120H815.723V-1028.43H713.064V-939.644H269.133V-1028.43H0Z" fill="#85B6FF"/>
<path d="M1042.71 -135.707C1042.32 -136.098 1041.68 -136.098 1041.29 -135.707L1034.93 -129.343C1034.54 -128.953 1034.54 -128.32 1034.93 -127.929C1035.32 -127.539 1035.95 -127.539 1036.34 -127.929L1042 -133.586L1047.66 -127.929C1048.05 -127.539 1048.68 -127.539 1049.07 -127.929C1049.46 -128.32 1049.46 -128.953 1049.07 -129.343L1042.71 -135.707ZM1043 50.5288V-135H1041V50.5288H1043Z" fill="#E0E0E0"/>
<path d="M1380 965.967V709.644L1213.19 709.644V544.949H1144.38V582.475H892.085V497L691.915 497L691.915 893.102H498L498 996.5V1112H712.766H892.085V840.983L1067.23 840.983V1112L1380 1112V1044.33" stroke="#85B6FF" stroke-width="4"/>
<mask id="path-4-outside-1_320_444" maskUnits="userSpaceOnUse" x="856" y="632" width="252" height="160" fill="black">
<rect fill="white" x="856" y="632" width="252" height="160"/>
<path d="M947.43 775.408L936.15 786.98L861.15 711.98L936.15 636.98L947.43 648.699L884.148 711.98L947.43 775.408ZM1103.14 711.98L1028.14 786.98L1016.72 775.408L1080 711.98L1016.72 648.699L1028.14 636.98L1103.14 711.98Z"/>
</mask>
<path d="M947.43 775.408L949.578 777.502L951.643 775.384L949.553 773.289L947.43 775.408ZM936.15 786.98L934.029 789.102L936.178 791.25L938.299 789.074L936.15 786.98ZM861.15 711.98L859.029 709.859L856.908 711.98L859.029 714.102L861.15 711.98ZM936.15 636.98L938.312 634.9L936.191 632.697L934.029 634.859L936.15 636.98ZM947.43 648.699L949.551 650.821L951.632 648.739L949.591 646.619L947.43 648.699ZM884.148 711.98L882.027 709.859L879.908 711.978L882.025 714.099L884.148 711.98ZM945.281 773.314L934.002 784.887L938.299 789.074L949.578 777.502L945.281 773.314ZM938.272 784.859L863.272 709.859L859.029 714.102L934.029 789.102L938.272 784.859ZM863.272 714.102L938.272 639.102L934.029 634.859L859.029 709.859L863.272 714.102ZM933.989 639.061L945.268 650.78L949.591 646.619L938.312 634.9L933.989 639.061ZM945.308 646.578L882.027 709.859L886.27 714.102L949.551 650.821L945.308 646.578ZM882.025 714.099L945.306 777.527L949.553 773.289L886.272 709.862L882.025 714.099ZM1103.14 711.98L1105.26 714.102L1107.39 711.98L1105.26 709.859L1103.14 711.98ZM1028.14 786.98L1026.01 789.088L1028.13 791.237L1030.26 789.102L1028.14 786.98ZM1016.72 775.408L1014.59 773.289L1012.49 775.397L1014.58 777.516L1016.72 775.408ZM1080 711.98L1082.12 714.099L1084.24 711.978L1082.12 709.859L1080 711.98ZM1016.72 648.699L1014.57 646.605L1012.5 648.726L1014.6 650.821L1016.72 648.699ZM1028.14 636.98L1030.26 634.859L1028.12 632.711L1025.99 634.886L1028.14 636.98ZM1101.02 709.859L1026.02 784.859L1030.26 789.102L1105.26 714.102L1101.02 709.859ZM1030.28 784.873L1018.85 773.3L1014.58 777.516L1026.01 789.088L1030.28 784.873ZM1018.84 777.527L1082.12 714.099L1077.87 709.862L1014.59 773.289L1018.84 777.527ZM1082.12 709.859L1018.84 646.578L1014.6 650.821L1077.88 714.102L1082.12 709.859ZM1018.86 650.794L1030.29 639.075L1025.99 634.886L1014.57 646.605L1018.86 650.794ZM1026.02 639.102L1101.02 714.102L1105.26 709.859L1030.26 634.859L1026.02 639.102Z" fill="#85B6FF" mask="url(#path-4-outside-1_320_444)"/>
<rect x="49" y="92" width="871" height="245" stroke="#85B6FF" stroke-width="4"/>
<path d="M358.559 705H396.441L396.441 755H427L377.5 804L328 755H358.559L358.559 705Z" fill="#85B6FF"/>
<path d="M22.1818 1164.38V750.812M2 1245H298V497H170.182M22.1818 750.812V497H170.182M22.1818 750.812H43.1111L106.646 617.188H170.182V497" stroke="#85B6FF" stroke-width="4"/>
<path d="M153.799 794.828C149.039 794.828 145.15 790.873 145.15 786.096C145.15 783.794 146.061 781.586 147.683 779.958C149.305 778.33 151.505 777.415 153.799 777.415C158.609 777.415 162.499 781.319 162.499 786.096C162.499 790.873 158.609 794.828 153.799 794.828ZM138.241 855.231L107.894 849.17L109.634 840.439L130.872 844.805L137.781 809.569L130.002 812.651V827.341H121.353V807.001L143.871 797.396L147.299 796.985C150.37 796.985 152.929 798.731 154.618 801.351L159.019 808.285C162.499 814.5 169.408 818.712 177.647 818.712V827.341C168.128 827.341 159.428 823.078 153.799 816.555L151.24 829.601L160.298 838.281V871H151.649V844.805L142.54 836.124L138.241 855.231ZM193 871H182.765V768.273H116.235V835.61L106 833.453V758H193V871ZM116.235 871H106V854.461L116.235 856.618V871Z" fill="#85B6FF"/>
</g>
<defs>
<clipPath id="clip0_320_444">
<rect width="1440" height="800" fill="white"/>
</clipPath>
</defs>
</svg>
