<svg width="1441" height="801" viewBox="0 0 1441 801" fill="none" xmlns="http://www.w3.org/2000/svg">
<g clip-path="url(#clip0_268_3584)">
<rect width="1440" height="800" transform="translate(0.7146 0.0404663)" fill="#DEDEDE"/>
<g clip-path="url(#clip1_268_3584)">
<rect width="1450.76" height="10980.4" transform="translate(0.7146 -7291.94)" fill="#E0E0E0"/>
<path d="M-787.129 431.915V521.37H-697.679V610.824H-337.086V703.073H-155.391V890.368H-68.7371V1072.07H-155.391V974.232H-337.086V1072.07V1158.73V1337.64H-515.985V1248.19H-697.679V1337.64H-787.129V1424.3H-155.391V1248.19H-68.7371V1424.3H112.957V1248.19H219.179V1555.68H300.242V1522.14V1337.64H481.937V1158.73H663.631V890.368H481.937V985.414H300.242V890.368H392.487V795.323H112.957V521.37H300.242V610.824H663.631V521.37H565.796V431.915H481.937V521.37H392.487V339.666H34.689V431.915H-68.7371V521.37H-515.985V431.915H-787.129Z" fill="#85B6FF"/>
<mask id="path-2-outside-1_268_3584" maskUnits="userSpaceOnUse" x="796.431" y="37.7129" width="253" height="161" fill="black">
<rect fill="white" x="796.431" y="37.7129" width="253" height="161"/>
<path d="M887.723 182.072L876.359 193.731L800.799 118.17L876.359 42.6098L887.723 54.4161L823.969 118.17L887.723 182.072ZM1044.6 118.17L969.039 193.731L957.528 182.072L1021.28 118.17L957.528 54.4161L969.039 42.6098L1044.6 118.17Z"/>
</mask>
<path d="M887.723 182.072L889.887 184.181L891.968 182.047L889.862 179.937L887.723 182.072ZM876.359 193.731L874.222 195.868L876.387 198.033L878.524 195.84L876.359 193.731ZM800.799 118.17L798.662 116.033L796.525 118.17L798.662 120.307L800.799 118.17ZM876.359 42.6098L878.537 40.5138L876.4 38.2942L874.222 40.4726L876.359 42.6098ZM887.723 54.4161L889.86 56.5533L891.957 54.4565L889.9 52.3201L887.723 54.4161ZM823.969 118.17L821.832 116.033L819.697 118.168L821.829 120.305L823.969 118.17ZM885.558 179.962L874.195 191.621L878.524 195.84L889.887 184.181L885.558 179.962ZM878.496 191.593L802.936 116.033L798.662 120.307L874.222 195.868L878.496 191.593ZM802.936 120.307L878.496 44.7469L874.222 40.4726L798.662 116.033L802.936 120.307ZM874.182 44.7057L885.545 56.512L889.9 52.3201L878.537 40.5138L874.182 44.7057ZM885.586 52.2789L821.832 116.033L826.106 120.307L889.86 56.5533L885.586 52.2789ZM821.829 120.305L885.583 184.207L889.862 179.937L826.108 116.035L821.829 120.305ZM1044.6 118.17L1046.74 120.307L1048.87 118.17L1046.74 116.033L1044.6 118.17ZM969.039 193.731L966.888 195.854L969.025 198.019L971.176 195.868L969.039 193.731ZM957.528 182.072L955.388 179.937L953.269 182.061L955.377 184.195L957.528 182.072ZM1021.28 118.17L1023.42 120.305L1025.55 118.168L1023.42 116.033L1021.28 118.17ZM957.528 54.4161L955.364 52.3061L953.28 54.443L955.391 56.5533L957.528 54.4161ZM969.039 42.6098L971.176 40.4726L969.012 38.3082L966.875 40.4998L969.039 42.6098ZM1042.46 116.033L966.902 191.593L971.176 195.868L1046.74 120.307L1042.46 116.033ZM971.19 191.607L959.678 179.948L955.377 184.195L966.888 195.854L971.19 191.607ZM959.667 184.207L1023.42 120.305L1019.14 116.035L955.388 179.937L959.667 184.207ZM1023.42 116.033L959.665 52.2789L955.391 56.5533L1019.14 120.307L1023.42 116.033ZM959.692 56.526L971.203 44.7197L966.875 40.4998L955.364 52.3061L959.692 56.526ZM966.902 44.7469L1042.46 120.307L1046.74 116.033L971.176 40.4726L966.902 44.7469Z" fill="#85B6FF" mask="url(#path-2-outside-1_268_3584)"/>
<mask id="path-4-outside-2_268_3584" maskUnits="userSpaceOnUse" x="1138.97" y="37.7129" width="253" height="161" fill="black">
<rect fill="white" x="1138.97" y="37.7129" width="253" height="161"/>
<path d="M1230.26 182.072L1218.9 193.731L1143.34 118.17L1218.9 42.6098L1230.26 54.4161L1166.51 118.17L1230.26 182.072ZM1387.14 118.17L1311.58 193.731L1300.07 182.072L1363.82 118.17L1300.07 54.4161L1311.58 42.6098L1387.14 118.17Z"/>
</mask>
<path d="M1230.26 182.072L1232.43 184.181L1234.51 182.047L1232.4 179.937L1230.26 182.072ZM1218.9 193.731L1216.76 195.868L1218.93 198.033L1221.06 195.84L1218.9 193.731ZM1143.34 118.17L1141.2 116.033L1139.07 118.17L1141.2 120.307L1143.34 118.17ZM1218.9 42.6098L1221.08 40.5138L1218.94 38.2942L1216.76 40.4726L1218.9 42.6098ZM1230.26 54.4161L1232.4 56.5533L1234.5 54.4565L1232.44 52.3201L1230.26 54.4161ZM1166.51 118.17L1164.37 116.033L1162.24 118.168L1164.37 120.305L1166.51 118.17ZM1228.1 179.962L1216.74 191.621L1221.06 195.84L1232.43 184.181L1228.1 179.962ZM1221.04 191.593L1145.48 116.033L1141.2 120.307L1216.76 195.868L1221.04 191.593ZM1145.48 120.307L1221.04 44.7469L1216.76 40.4726L1141.2 116.033L1145.48 120.307ZM1216.72 44.7057L1228.09 56.512L1232.44 52.3201L1221.08 40.5138L1216.72 44.7057ZM1228.13 52.2789L1164.37 116.033L1168.65 120.307L1232.4 56.5533L1228.13 52.2789ZM1164.37 120.305L1228.12 184.207L1232.4 179.937L1168.65 116.035L1164.37 120.305ZM1387.14 118.17L1389.28 120.307L1391.41 118.17L1389.28 116.033L1387.14 118.17ZM1311.58 193.731L1309.43 195.854L1311.57 198.019L1313.72 195.868L1311.58 193.731ZM1300.07 182.072L1297.93 179.937L1295.81 182.061L1297.92 184.195L1300.07 182.072ZM1363.82 118.17L1365.96 120.305L1368.09 118.168L1365.96 116.033L1363.82 118.17ZM1300.07 54.4161L1297.9 52.3061L1295.82 54.443L1297.93 56.5533L1300.07 54.4161ZM1311.58 42.6098L1313.72 40.4726L1311.55 38.3082L1309.42 40.4998L1311.58 42.6098ZM1385 116.033L1309.44 191.593L1313.72 195.868L1389.28 120.307L1385 116.033ZM1313.73 191.607L1302.22 179.948L1297.92 184.195L1309.43 195.854L1313.73 191.607ZM1302.21 184.207L1365.96 120.305L1361.68 116.035L1297.93 179.937L1302.21 184.207ZM1365.96 116.033L1302.21 52.2789L1297.93 56.5533L1361.69 120.307L1365.96 116.033ZM1302.23 56.526L1313.74 44.7197L1309.42 40.4998L1297.9 52.3061L1302.23 56.526ZM1309.44 44.7469L1385 120.307L1389.28 116.033L1313.72 40.4726L1309.44 44.7469Z" fill="#85B6FF" mask="url(#path-4-outside-2_268_3584)"/>
<path d="M684.789 305.411H971.791L1210.15 450.093L1283.12 337.022L1542.15 530.337L1298.92 1163.78H684.789V751.616M684.789 666.509V415.691M684.789 428.209V415.691M684.789 415.691L947.795 415.691L1246.96 583.473M786.942 1067.56H985.168" stroke="#85B6FF" stroke-width="4.02989"/>
<path d="M1123.5 463.53C1124.59 463.273 1125.26 462.186 1125 461.104L1120.81 443.46C1120.55 442.378 1119.46 441.709 1118.38 441.966C1117.3 442.223 1116.63 443.309 1116.89 444.392L1120.61 460.075L1104.93 463.802C1103.85 464.059 1103.18 465.145 1103.43 466.228C1103.69 467.31 1104.78 467.98 1105.86 467.722L1123.5 463.53ZM996.047 385.71L1121.98 463.285L1124.1 459.854L998.161 382.279L996.047 385.71Z" fill="#5DA0FF"/>
<path d="M725.391 574.121L723.887 575.664L713.887 565.664L723.887 555.664L725.391 557.227L716.953 565.664L725.391 574.121ZM749.082 575H746.387V563.77C746.387 562.142 746.035 560.879 745.332 559.98C744.629 559.082 743.49 558.633 741.914 558.633C740.924 558.633 740.026 558.861 739.219 559.316C738.424 559.772 737.747 560.384 737.188 561.152C736.628 561.908 736.198 562.78 735.898 563.77C735.612 564.746 735.469 565.768 735.469 566.836V575H732.793V549.512H735.469V561.367C736.758 558.034 739.056 556.367 742.363 556.367C746.842 556.367 749.082 558.835 749.082 563.77V575ZM772.07 569.199C771.862 571.113 771.107 572.637 769.805 573.77C768.516 574.889 766.901 575.449 764.961 575.449C763.893 575.449 762.917 575.273 762.031 574.922C761.146 574.57 760.391 574.082 759.766 573.457C759.141 572.832 758.652 572.083 758.301 571.211C757.962 570.326 757.793 569.362 757.793 568.32V559.082H753.672V556.797H757.793V549.512H760.469V556.797H768.223V559.082H760.469V568.32C760.469 568.984 760.573 569.609 760.781 570.195C761.003 570.781 761.302 571.296 761.68 571.738C762.07 572.181 762.539 572.533 763.086 572.793C763.633 573.04 764.258 573.164 764.961 573.164C766.289 573.164 767.396 572.754 768.281 571.934C769.18 571.1 769.694 570.026 769.824 568.711L772.07 569.199ZM793.711 575H791.035V561.914C791.035 560.872 790.853 560.065 790.488 559.492C790.124 558.919 789.596 558.633 788.906 558.633C787.891 558.633 787.142 559.167 786.66 560.234C786.191 561.302 785.957 562.799 785.957 564.727V575H783.262V561.914C783.262 560.872 783.073 560.065 782.695 559.492C782.331 558.919 781.803 558.633 781.113 558.633C780.475 558.633 779.967 558.822 779.59 559.199C779.212 559.577 778.913 560.059 778.691 560.645C778.483 561.23 778.346 561.882 778.281 562.598C778.216 563.314 778.184 564.023 778.184 564.727V575H775.508V556.797H778.184V559.434C778.743 557.389 779.961 556.367 781.836 556.367C783.62 556.367 784.831 557.259 785.469 559.043C786.354 557.259 787.604 556.367 789.219 556.367C790.768 556.367 791.901 556.829 792.617 557.754C793.346 558.665 793.711 560.052 793.711 561.914V575ZM811.895 575H800.977V572.715H805.098V551.797H800.977V549.512H807.793V572.715H811.895V575ZM855.566 575H844.648V572.715H848.77V551.797H844.648V549.512H851.465V572.715H855.566V575ZM862.812 570.078C862.812 568.932 863.099 567.975 863.672 567.207C864.245 566.426 864.993 565.814 865.918 565.371C866.855 564.915 867.923 564.59 869.121 564.395C870.332 564.186 871.562 564.082 872.812 564.082C873.294 564.082 873.724 564.089 874.102 564.102C874.492 564.115 874.857 564.134 875.195 564.16C875.547 564.186 875.898 564.219 876.25 564.258C876.602 564.297 876.986 564.342 877.402 564.395V563.086C877.402 562.201 877.207 561.471 876.816 560.898C876.439 560.326 875.97 559.876 875.41 559.551C874.85 559.212 874.264 558.978 873.652 558.848C873.04 558.704 872.52 558.633 872.09 558.633C870.736 558.633 869.486 558.815 868.34 559.18C867.194 559.544 866.126 560.033 865.137 560.645L863.926 558.633C865.02 557.969 866.243 557.428 867.598 557.012C868.965 556.582 870.462 556.367 872.09 556.367C873.079 556.367 874.049 556.497 875 556.758C875.964 557.005 876.823 557.396 877.578 557.93C878.346 558.451 878.958 559.141 879.414 560C879.87 560.859 880.098 561.888 880.098 563.086V575H877.402V571.953C876.934 572.539 876.4 573.053 875.801 573.496C875.215 573.939 874.596 574.303 873.945 574.59C873.294 574.863 872.643 575.072 871.992 575.215C871.341 575.371 870.723 575.449 870.137 575.449C867.728 575.449 865.905 574.987 864.668 574.062C863.431 573.138 862.812 571.81 862.812 570.078ZM870.137 573.164C871.257 573.164 872.259 573.001 873.145 572.676C874.043 572.337 874.805 571.921 875.43 571.426C876.055 570.931 876.536 570.404 876.875 569.844C877.227 569.284 877.402 568.776 877.402 568.32V566.602C876.53 566.471 875.69 566.4 874.883 566.387C874.089 566.374 873.398 566.367 872.812 566.367C871.849 566.367 870.918 566.432 870.02 566.562C869.134 566.693 868.359 566.908 867.695 567.207C867.031 567.493 866.497 567.871 866.094 568.34C865.69 568.809 865.488 569.388 865.488 570.078C865.488 570.846 865.859 571.556 866.602 572.207C867.357 572.845 868.535 573.164 870.137 573.164ZM901.934 575H899.238V563.77C899.238 562.142 898.887 560.879 898.184 559.98C897.48 559.082 896.341 558.633 894.766 558.633C893.776 558.633 892.878 558.861 892.07 559.316C891.276 559.772 890.599 560.384 890.039 561.152C889.479 561.908 889.049 562.78 888.75 563.77C888.464 564.746 888.32 565.768 888.32 566.836V575H885.645V556.797H888.32V561.367C889.609 558.034 891.908 556.367 895.215 556.367C899.694 556.367 901.934 558.835 901.934 563.77V575ZM923.77 574.805C923.77 576.055 923.555 577.168 923.125 578.145C922.695 579.121 922.09 579.948 921.309 580.625C920.54 581.302 919.629 581.816 918.574 582.168C917.533 582.533 916.367 582.715 915.078 582.715C913.268 582.715 911.725 582.376 910.449 581.699C909.186 581.022 908.092 580.046 907.168 578.77L909.043 577.324C909.603 578.171 910.41 578.88 911.465 579.453C912.52 580.026 913.724 580.312 915.078 580.312C916.927 580.312 918.385 579.844 919.453 578.906C920.534 577.982 921.074 576.641 921.074 574.883V572.93C919.486 574.336 917.676 575.039 915.645 575.039C912.793 575.039 910.553 574.225 908.926 572.598C907.298 570.97 906.484 568.743 906.484 565.918C906.484 564.538 906.693 563.268 907.109 562.109C907.539 560.938 908.145 559.928 908.926 559.082C909.72 558.223 910.684 557.559 911.816 557.09C912.949 556.608 914.225 556.367 915.645 556.367C916.634 556.367 917.591 556.543 918.516 556.895C919.453 557.233 920.306 557.747 921.074 558.438V556.797H923.77V574.805ZM921.074 561.035C920.306 560.189 919.46 559.577 918.535 559.199C917.624 558.822 916.66 558.633 915.645 558.633C914.577 558.633 913.633 558.822 912.812 559.199C912.005 559.577 911.335 560.091 910.801 560.742C910.267 561.393 909.857 562.168 909.57 563.066C909.297 563.952 909.16 564.902 909.16 565.918C909.16 568.001 909.701 569.661 910.781 570.898C911.862 572.135 913.483 572.754 915.645 572.754C916.66 572.754 917.624 572.565 918.535 572.188C919.46 571.797 920.306 571.172 921.074 570.312V561.035ZM946.562 562.52H928.359V560.195H946.562V562.52ZM946.562 571.113H928.359V568.828H946.562V571.113ZM964.746 549.512L963.965 558.594H961.953L961.113 549.512H964.746ZM957.48 549.512L956.641 558.594H954.668L953.828 549.512H957.48ZM989.238 559.355C988.275 558.874 987.129 558.633 985.801 558.633C984.707 558.633 983.73 558.867 982.871 559.336C982.012 559.805 981.283 560.423 980.684 561.191C980.085 561.947 979.622 562.819 979.297 563.809C978.984 564.785 978.828 565.794 978.828 566.836V572.715H982.949V575H972.031V572.715H976.152V559.082H972.031V556.797H978.828V561.367C980.052 558.034 982.376 556.367 985.801 556.367C986.725 556.367 987.526 556.426 988.203 556.543C988.893 556.66 989.531 556.868 990.117 557.168L989.238 559.355ZM994.824 556.797H997.5V568.047C997.5 569.674 997.852 570.938 998.555 571.836C999.271 572.721 1000.42 573.164 1001.99 573.164C1002.98 573.164 1003.87 572.936 1004.67 572.48C1005.46 572.025 1006.14 571.419 1006.7 570.664C1007.26 569.896 1007.68 569.023 1007.97 568.047C1008.27 567.057 1008.42 566.029 1008.42 564.961V556.797H1011.11V575H1008.42V570.449C1007.14 573.783 1004.85 575.449 1001.54 575.449C997.064 575.449 994.824 572.982 994.824 568.047V556.797ZM1030.25 549.512L1029.47 558.594H1027.46L1026.62 549.512H1030.25ZM1022.99 549.512L1022.15 558.594H1020.18L1019.34 549.512H1022.99ZM1051.86 565.664L1041.86 575.664L1040.33 574.121L1048.77 565.664L1040.33 557.227L1041.86 555.664L1051.86 565.664ZM725.391 614.121L723.887 615.664L713.887 605.664L723.887 595.664L725.391 597.227L716.953 605.664L725.391 614.121ZM749.082 615H746.387V603.77C746.387 602.142 746.035 600.879 745.332 599.98C744.629 599.082 743.49 598.633 741.914 598.633C740.924 598.633 740.026 598.861 739.219 599.316C738.424 599.772 737.747 600.384 737.188 601.152C736.628 601.908 736.198 602.78 735.898 603.77C735.612 604.746 735.469 605.768 735.469 606.836V615H732.793V589.512H735.469V601.367C736.758 598.034 739.056 596.367 742.363 596.367C746.842 596.367 749.082 598.835 749.082 603.77V615ZM756.348 606.836C756.543 608.763 757.246 610.299 758.457 611.445C759.668 612.591 761.243 613.164 763.184 613.164C764.551 613.164 765.768 612.884 766.836 612.324C767.904 611.764 768.704 611.068 769.238 610.234L771.113 611.523C770.202 612.799 769.115 613.776 767.852 614.453C766.589 615.117 765.033 615.449 763.184 615.449C761.777 615.449 760.488 615.215 759.316 614.746C758.145 614.277 757.129 613.626 756.27 612.793C755.423 611.947 754.766 610.944 754.297 609.785C753.828 608.626 753.594 607.337 753.594 605.918C753.594 604.538 753.802 603.268 754.219 602.109C754.648 600.938 755.26 599.928 756.055 599.082C756.862 598.223 757.839 597.559 758.984 597.09C760.13 596.608 761.413 596.367 762.832 596.367C764.382 596.367 765.736 596.628 766.895 597.148C768.053 597.669 769.017 598.392 769.785 599.316C770.566 600.228 771.139 601.322 771.504 602.598C771.882 603.874 772.07 605.286 772.07 606.836H756.348ZM769.238 604.551C768.939 602.559 768.216 601.074 767.07 600.098C765.924 599.121 764.512 598.633 762.832 598.633C761.973 598.633 761.178 598.776 760.449 599.062C759.72 599.336 759.076 599.733 758.516 600.254C757.956 600.775 757.487 601.406 757.109 602.148C756.732 602.878 756.491 603.678 756.387 604.551H769.238ZM775.469 610.078C775.469 608.932 775.755 607.975 776.328 607.207C776.901 606.426 777.65 605.814 778.574 605.371C779.512 604.915 780.579 604.59 781.777 604.395C782.988 604.186 784.219 604.082 785.469 604.082C785.951 604.082 786.38 604.089 786.758 604.102C787.148 604.115 787.513 604.134 787.852 604.16C788.203 604.186 788.555 604.219 788.906 604.258C789.258 604.297 789.642 604.342 790.059 604.395V603.086C790.059 602.201 789.863 601.471 789.473 600.898C789.095 600.326 788.626 599.876 788.066 599.551C787.507 599.212 786.921 598.978 786.309 598.848C785.697 598.704 785.176 598.633 784.746 598.633C783.392 598.633 782.142 598.815 780.996 599.18C779.85 599.544 778.783 600.033 777.793 600.645L776.582 598.633C777.676 597.969 778.9 597.428 780.254 597.012C781.621 596.582 783.118 596.367 784.746 596.367C785.736 596.367 786.706 596.497 787.656 596.758C788.62 597.005 789.479 597.396 790.234 597.93C791.003 598.451 791.615 599.141 792.07 600C792.526 600.859 792.754 601.888 792.754 603.086V615H790.059V611.953C789.59 612.539 789.056 613.053 788.457 613.496C787.871 613.939 787.253 614.303 786.602 614.59C785.951 614.863 785.299 615.072 784.648 615.215C783.997 615.371 783.379 615.449 782.793 615.449C780.384 615.449 778.561 614.987 777.324 614.062C776.087 613.138 775.469 611.81 775.469 610.078ZM782.793 613.164C783.913 613.164 784.915 613.001 785.801 612.676C786.699 612.337 787.461 611.921 788.086 611.426C788.711 610.931 789.193 610.404 789.531 609.844C789.883 609.284 790.059 608.776 790.059 608.32V606.602C789.186 606.471 788.346 606.4 787.539 606.387C786.745 606.374 786.055 606.367 785.469 606.367C784.505 606.367 783.574 606.432 782.676 606.562C781.79 606.693 781.016 606.908 780.352 607.207C779.688 607.493 779.154 607.871 778.75 608.34C778.346 608.809 778.145 609.388 778.145 610.078C778.145 610.846 778.516 611.556 779.258 612.207C780.013 612.845 781.191 613.164 782.793 613.164ZM814.59 615H811.895V613.32C811.126 614.01 810.28 614.538 809.355 614.902C808.444 615.267 807.507 615.449 806.543 615.449C805.098 615.449 803.802 615.215 802.656 614.746C801.51 614.277 800.54 613.626 799.746 612.793C798.965 611.947 798.359 610.938 797.93 609.766C797.513 608.594 797.305 607.311 797.305 605.918C797.305 604.538 797.513 603.262 797.93 602.09C798.359 600.905 798.965 599.896 799.746 599.062C800.54 598.216 801.51 597.559 802.656 597.09C803.802 596.608 805.098 596.367 806.543 596.367C807.507 596.367 808.444 596.543 809.355 596.895C810.28 597.233 811.126 597.747 811.895 598.438V591.797H808.262V589.512H814.59V615ZM811.895 601.035C811.126 600.189 810.286 599.577 809.375 599.199C808.477 598.822 807.52 598.633 806.504 598.633C805.436 598.633 804.492 598.822 803.672 599.199C802.865 599.577 802.188 600.091 801.641 600.742C801.094 601.393 800.677 602.161 800.391 603.047C800.117 603.919 799.98 604.876 799.98 605.918C799.98 606.96 800.117 607.923 800.391 608.809C800.677 609.681 801.094 610.443 801.641 611.094C802.188 611.745 802.865 612.259 803.672 612.637C804.492 613.014 805.436 613.203 806.504 613.203C808.561 613.203 810.358 612.389 811.895 610.762V601.035ZM833.496 605.664L823.496 615.664L821.973 614.121L830.41 605.664L821.973 597.227L823.496 595.664L833.496 605.664ZM769.062 654.121L767.559 655.664L757.559 645.664L767.559 635.664L769.062 637.227L760.625 645.664L769.062 654.121ZM793.711 655H791.035V641.914C791.035 640.872 790.853 640.065 790.488 639.492C790.124 638.919 789.596 638.633 788.906 638.633C787.891 638.633 787.142 639.167 786.66 640.234C786.191 641.302 785.957 642.799 785.957 644.727V655H783.262V641.914C783.262 640.872 783.073 640.065 782.695 639.492C782.331 638.919 781.803 638.633 781.113 638.633C780.475 638.633 779.967 638.822 779.59 639.199C779.212 639.577 778.913 640.059 778.691 640.645C778.483 641.23 778.346 641.882 778.281 642.598C778.216 643.314 778.184 644.023 778.184 644.727V655H775.508V636.797H778.184V639.434C778.743 637.389 779.961 636.367 781.836 636.367C783.62 636.367 784.831 637.259 785.469 639.043C786.354 637.259 787.604 636.367 789.219 636.367C790.768 636.367 791.901 636.829 792.617 637.754C793.346 638.665 793.711 640.052 793.711 641.914V655ZM800.02 646.836C800.215 648.763 800.918 650.299 802.129 651.445C803.34 652.591 804.915 653.164 806.855 653.164C808.223 653.164 809.44 652.884 810.508 652.324C811.576 651.764 812.376 651.068 812.91 650.234L814.785 651.523C813.874 652.799 812.786 653.776 811.523 654.453C810.26 655.117 808.704 655.449 806.855 655.449C805.449 655.449 804.16 655.215 802.988 654.746C801.816 654.277 800.801 653.626 799.941 652.793C799.095 651.947 798.438 650.944 797.969 649.785C797.5 648.626 797.266 647.337 797.266 645.918C797.266 644.538 797.474 643.268 797.891 642.109C798.32 640.938 798.932 639.928 799.727 639.082C800.534 638.223 801.51 637.559 802.656 637.09C803.802 636.608 805.085 636.367 806.504 636.367C808.053 636.367 809.408 636.628 810.566 637.148C811.725 637.669 812.689 638.392 813.457 639.316C814.238 640.228 814.811 641.322 815.176 642.598C815.553 643.874 815.742 645.286 815.742 646.836H800.02ZM812.91 644.551C812.611 642.559 811.888 641.074 810.742 640.098C809.596 639.121 808.184 638.633 806.504 638.633C805.645 638.633 804.85 638.776 804.121 639.062C803.392 639.336 802.747 639.733 802.188 640.254C801.628 640.775 801.159 641.406 800.781 642.148C800.404 642.878 800.163 643.678 800.059 644.551H812.91ZM837.578 649.199C837.37 651.113 836.615 652.637 835.312 653.77C834.023 654.889 832.409 655.449 830.469 655.449C829.401 655.449 828.424 655.273 827.539 654.922C826.654 654.57 825.898 654.082 825.273 653.457C824.648 652.832 824.16 652.083 823.809 651.211C823.47 650.326 823.301 649.362 823.301 648.32V639.082H819.18V636.797H823.301V629.512H825.977V636.797H833.73V639.082H825.977V648.32C825.977 648.984 826.081 649.609 826.289 650.195C826.51 650.781 826.81 651.296 827.188 651.738C827.578 652.181 828.047 652.533 828.594 652.793C829.141 653.04 829.766 653.164 830.469 653.164C831.797 653.164 832.904 652.754 833.789 651.934C834.688 651.1 835.202 650.026 835.332 648.711L837.578 649.199ZM840.977 650.078C840.977 648.932 841.263 647.975 841.836 647.207C842.409 646.426 843.158 645.814 844.082 645.371C845.02 644.915 846.087 644.59 847.285 644.395C848.496 644.186 849.727 644.082 850.977 644.082C851.458 644.082 851.888 644.089 852.266 644.102C852.656 644.115 853.021 644.134 853.359 644.16C853.711 644.186 854.062 644.219 854.414 644.258C854.766 644.297 855.15 644.342 855.566 644.395V643.086C855.566 642.201 855.371 641.471 854.98 640.898C854.603 640.326 854.134 639.876 853.574 639.551C853.014 639.212 852.428 638.978 851.816 638.848C851.204 638.704 850.684 638.633 850.254 638.633C848.9 638.633 847.65 638.815 846.504 639.18C845.358 639.544 844.29 640.033 843.301 640.645L842.09 638.633C843.184 637.969 844.408 637.428 845.762 637.012C847.129 636.582 848.626 636.367 850.254 636.367C851.243 636.367 852.214 636.497 853.164 636.758C854.128 637.005 854.987 637.396 855.742 637.93C856.51 638.451 857.122 639.141 857.578 640C858.034 640.859 858.262 641.888 858.262 643.086V655H855.566V651.953C855.098 652.539 854.564 653.053 853.965 653.496C853.379 653.939 852.76 654.303 852.109 654.59C851.458 654.863 850.807 655.072 850.156 655.215C849.505 655.371 848.887 655.449 848.301 655.449C845.892 655.449 844.069 654.987 842.832 654.062C841.595 653.138 840.977 651.81 840.977 650.078ZM848.301 653.164C849.421 653.164 850.423 653.001 851.309 652.676C852.207 652.337 852.969 651.921 853.594 651.426C854.219 650.931 854.701 650.404 855.039 649.844C855.391 649.284 855.566 648.776 855.566 648.32V646.602C854.694 646.471 853.854 646.4 853.047 646.387C852.253 646.374 851.562 646.367 850.977 646.367C850.013 646.367 849.082 646.432 848.184 646.562C847.298 646.693 846.523 646.908 845.859 647.207C845.195 647.493 844.661 647.871 844.258 648.34C843.854 648.809 843.652 649.388 843.652 650.078C843.652 650.846 844.023 651.556 844.766 652.207C845.521 652.845 846.699 653.164 848.301 653.164ZM902.207 651.523C901.439 652.721 900.384 653.678 899.043 654.395C897.715 655.098 896.133 655.449 894.297 655.449C892.878 655.449 891.576 655.215 890.391 654.746C889.206 654.277 888.19 653.626 887.344 652.793C886.51 651.947 885.859 650.944 885.391 649.785C884.922 648.626 884.688 647.337 884.688 645.918C884.688 644.538 884.902 643.262 885.332 642.09C885.762 640.905 886.374 639.896 887.168 639.062C887.962 638.216 888.932 637.559 890.078 637.09C891.237 636.608 892.52 636.367 893.926 636.367C894.486 636.367 895.059 636.432 895.645 636.562C896.23 636.693 896.784 636.895 897.305 637.168C897.826 637.428 898.294 637.747 898.711 638.125C899.128 638.49 899.44 638.926 899.648 639.434V636.797H902.051V644.082H899.648C899.648 643.275 899.499 642.539 899.199 641.875C898.913 641.211 898.516 640.638 898.008 640.156C897.5 639.674 896.895 639.303 896.191 639.043C895.488 638.77 894.733 638.633 893.926 638.633C892.832 638.633 891.875 638.822 891.055 639.199C890.247 639.577 889.57 640.091 889.023 640.742C888.477 641.393 888.06 642.161 887.773 643.047C887.5 643.919 887.363 644.876 887.363 645.918C887.363 646.96 887.52 647.923 887.832 648.809C888.158 649.681 888.62 650.436 889.219 651.074C889.831 651.712 890.56 652.22 891.406 652.598C892.266 652.975 893.229 653.164 894.297 653.164C895.651 653.164 896.855 652.897 897.91 652.363C898.965 651.829 899.772 651.12 900.332 650.234L902.207 651.523ZM923.77 655H921.074V643.77C921.074 642.142 920.723 640.879 920.02 639.98C919.316 639.082 918.177 638.633 916.602 638.633C915.612 638.633 914.714 638.861 913.906 639.316C913.112 639.772 912.435 640.384 911.875 641.152C911.315 641.908 910.885 642.78 910.586 643.77C910.299 644.746 910.156 645.768 910.156 646.836V655H907.48V629.512H910.156V641.367C911.445 638.034 913.743 636.367 917.051 636.367C921.53 636.367 923.77 638.835 923.77 643.77V655ZM928.32 650.078C928.32 648.932 928.607 647.975 929.18 647.207C929.753 646.426 930.501 645.814 931.426 645.371C932.363 644.915 933.431 644.59 934.629 644.395C935.84 644.186 937.07 644.082 938.32 644.082C938.802 644.082 939.232 644.089 939.609 644.102C940 644.115 940.365 644.134 940.703 644.16C941.055 644.186 941.406 644.219 941.758 644.258C942.109 644.297 942.493 644.342 942.91 644.395V643.086C942.91 642.201 942.715 641.471 942.324 640.898C941.947 640.326 941.478 639.876 940.918 639.551C940.358 639.212 939.772 638.978 939.16 638.848C938.548 638.704 938.027 638.633 937.598 638.633C936.243 638.633 934.993 638.815 933.848 639.18C932.702 639.544 931.634 640.033 930.645 640.645L929.434 638.633C930.527 637.969 931.751 637.428 933.105 637.012C934.473 636.582 935.97 636.367 937.598 636.367C938.587 636.367 939.557 636.497 940.508 636.758C941.471 637.005 942.331 637.396 943.086 637.93C943.854 638.451 944.466 639.141 944.922 640C945.378 640.859 945.605 641.888 945.605 643.086V655H942.91V651.953C942.441 652.539 941.908 653.053 941.309 653.496C940.723 653.939 940.104 654.303 939.453 654.59C938.802 654.863 938.151 655.072 937.5 655.215C936.849 655.371 936.23 655.449 935.645 655.449C933.236 655.449 931.413 654.987 930.176 654.062C928.939 653.138 928.32 651.81 928.32 650.078ZM935.645 653.164C936.764 653.164 937.767 653.001 938.652 652.676C939.551 652.337 940.312 651.921 940.938 651.426C941.562 650.931 942.044 650.404 942.383 649.844C942.734 649.284 942.91 648.776 942.91 648.32V646.602C942.038 646.471 941.198 646.4 940.391 646.387C939.596 646.374 938.906 646.367 938.32 646.367C937.357 646.367 936.426 646.432 935.527 646.562C934.642 646.693 933.867 646.908 933.203 647.207C932.539 647.493 932.005 647.871 931.602 648.34C931.198 648.809 930.996 649.388 930.996 650.078C930.996 650.846 931.367 651.556 932.109 652.207C932.865 652.845 934.043 653.164 935.645 653.164ZM967.402 639.355C966.439 638.874 965.293 638.633 963.965 638.633C962.871 638.633 961.895 638.867 961.035 639.336C960.176 639.805 959.447 640.423 958.848 641.191C958.249 641.947 957.786 642.819 957.461 643.809C957.148 644.785 956.992 645.794 956.992 646.836V652.715H961.113V655H950.195V652.715H954.316V639.082H950.195V636.797H956.992V641.367C958.216 638.034 960.54 636.367 963.965 636.367C964.889 636.367 965.69 636.426 966.367 636.543C967.057 636.66 967.695 636.868 968.281 637.168L967.402 639.355ZM989.746 649.961C989.746 651.029 989.479 651.914 988.945 652.617C988.411 653.32 987.721 653.88 986.875 654.297C986.042 654.714 985.104 655.007 984.062 655.176C983.034 655.358 982.025 655.449 981.035 655.449C979.382 655.449 977.734 655.208 976.094 654.727C974.453 654.245 973.034 653.613 971.836 652.832L973.027 650.527C974.368 651.374 975.69 652.025 976.992 652.48C978.294 652.936 979.642 653.164 981.035 653.164C985.059 653.164 987.07 652.122 987.07 650.039C987.07 649.531 986.901 649.121 986.562 648.809C986.237 648.483 985.794 648.223 985.234 648.027C984.674 647.819 984.03 647.656 983.301 647.539C982.585 647.422 981.829 647.311 981.035 647.207C980.02 647.064 979.01 646.895 978.008 646.699C977.005 646.504 976.087 646.211 975.254 645.82C974.434 645.43 973.77 644.909 973.262 644.258C972.767 643.607 972.52 642.747 972.52 641.68C972.52 640.768 972.747 639.98 973.203 639.316C973.672 638.652 974.29 638.099 975.059 637.656C975.84 637.214 976.751 636.888 977.793 636.68C978.835 636.471 979.915 636.367 981.035 636.367C982.637 636.367 984.069 636.556 985.332 636.934C986.595 637.298 987.734 637.826 988.75 638.516L987.676 640.605C986.634 639.876 985.579 639.368 984.512 639.082C983.444 638.783 982.285 638.633 981.035 638.633C980.475 638.633 979.85 638.685 979.16 638.789C978.483 638.88 977.852 639.049 977.266 639.297C976.68 639.531 976.185 639.844 975.781 640.234C975.391 640.612 975.195 641.094 975.195 641.68C975.195 642.188 975.358 642.598 975.684 642.91C976.022 643.21 976.471 643.464 977.031 643.672C977.591 643.867 978.229 644.023 978.945 644.141C979.674 644.258 980.436 644.368 981.23 644.473C982.22 644.616 983.216 644.785 984.219 644.98C985.234 645.176 986.152 645.462 986.973 645.84C987.806 646.217 988.477 646.732 988.984 647.383C989.492 648.034 989.746 648.893 989.746 649.961ZM996.543 646.836C996.738 648.763 997.441 650.299 998.652 651.445C999.863 652.591 1001.44 653.164 1003.38 653.164C1004.75 653.164 1005.96 652.884 1007.03 652.324C1008.1 651.764 1008.9 651.068 1009.43 650.234L1011.31 651.523C1010.4 652.799 1009.31 653.776 1008.05 654.453C1006.78 655.117 1005.23 655.449 1003.38 655.449C1001.97 655.449 1000.68 655.215 999.512 654.746C998.34 654.277 997.324 653.626 996.465 652.793C995.618 651.947 994.961 650.944 994.492 649.785C994.023 648.626 993.789 647.337 993.789 645.918C993.789 644.538 993.997 643.268 994.414 642.109C994.844 640.938 995.456 639.928 996.25 639.082C997.057 638.223 998.034 637.559 999.18 637.09C1000.33 636.608 1001.61 636.367 1003.03 636.367C1004.58 636.367 1005.93 636.628 1007.09 637.148C1008.25 637.669 1009.21 638.392 1009.98 639.316C1010.76 640.228 1011.33 641.322 1011.7 642.598C1012.08 643.874 1012.27 645.286 1012.27 646.836H996.543ZM1009.43 644.551C1009.13 642.559 1008.41 641.074 1007.27 640.098C1006.12 639.121 1004.71 638.633 1003.03 638.633C1002.17 638.633 1001.37 638.776 1000.64 639.062C999.915 639.336 999.271 639.733 998.711 640.254C998.151 640.775 997.682 641.406 997.305 642.148C996.927 642.878 996.686 643.678 996.582 644.551H1009.43ZM1034.1 649.199C1033.89 651.113 1033.14 652.637 1031.84 653.77C1030.55 654.889 1028.93 655.449 1026.99 655.449C1025.92 655.449 1024.95 655.273 1024.06 654.922C1023.18 654.57 1022.42 654.082 1021.8 653.457C1021.17 652.832 1020.68 652.083 1020.33 651.211C1019.99 650.326 1019.82 649.362 1019.82 648.32V639.082H1015.7V636.797H1019.82V629.512H1022.5V636.797H1030.25V639.082H1022.5V648.32C1022.5 648.984 1022.6 649.609 1022.81 650.195C1023.03 650.781 1023.33 651.296 1023.71 651.738C1024.1 652.181 1024.57 652.533 1025.12 652.793C1025.66 653.04 1026.29 653.164 1026.99 653.164C1028.32 653.164 1029.43 652.754 1030.31 651.934C1031.21 651.1 1031.73 650.026 1031.86 648.711L1034.1 649.199ZM1055.74 642.52H1037.54V640.195H1055.74V642.52ZM1055.74 651.113H1037.54V648.828H1055.74V651.113ZM1073.93 629.512L1073.14 638.594H1071.13L1070.29 629.512H1073.93ZM1066.66 629.512L1065.82 638.594H1063.85L1063.01 629.512H1066.66ZM1098.46 645.918C1098.46 647.363 1098.29 648.672 1097.97 649.844C1097.66 651.016 1097.16 652.018 1096.48 652.852C1095.82 653.672 1094.97 654.31 1093.95 654.766C1092.92 655.221 1091.7 655.449 1090.29 655.449C1088.87 655.449 1087.65 655.221 1086.62 654.766C1085.61 654.31 1084.77 653.672 1084.1 652.852C1083.45 652.018 1082.96 651.009 1082.64 649.824C1082.32 648.639 1082.17 647.324 1082.17 645.879V629.512H1084.84V645.918C1084.84 646.686 1084.91 647.5 1085.04 648.359C1085.18 649.219 1085.45 650 1085.84 650.703C1086.24 651.406 1086.8 651.992 1087.5 652.461C1088.22 652.93 1089.15 653.164 1090.29 653.164C1091.44 653.164 1092.37 652.93 1093.09 652.461C1093.82 651.992 1094.38 651.406 1094.77 650.703C1095.17 650 1095.44 649.219 1095.57 648.359C1095.7 647.5 1095.76 646.686 1095.76 645.918V629.512H1098.46V645.918ZM1121.25 638.125H1118.96V631.797H1113.5V652.715H1117.6V655H1106.68V652.715H1110.8V631.797H1105.33V638.125H1103.05V629.512H1121.25V638.125ZM1142.13 631.797H1128.52V640.918H1138.55V643.203H1128.52V655H1125.84V629.512H1142.13V631.797ZM1164.92 646.797H1146.72V644.512H1164.92V646.797ZM1186.95 647.832C1186.95 649.173 1186.71 650.319 1186.23 651.27C1185.75 652.207 1185.08 652.988 1184.24 653.613C1183.4 654.238 1182.42 654.701 1181.29 655C1180.16 655.299 1178.95 655.449 1177.68 655.449C1176.37 655.449 1175.16 655.299 1174.04 655C1172.92 654.701 1171.94 654.238 1171.09 653.613C1170.26 652.988 1169.6 652.207 1169.12 651.27C1168.64 650.319 1168.4 649.173 1168.4 647.832C1168.4 647.142 1168.52 646.445 1168.77 645.742C1169.03 645.039 1169.39 644.388 1169.86 643.789C1170.35 643.177 1170.92 642.676 1171.6 642.285C1172.29 641.882 1173.05 641.628 1173.87 641.523C1173.15 641.445 1172.51 641.211 1171.95 640.82C1171.39 640.43 1170.92 639.974 1170.53 639.453C1170.15 638.932 1169.85 638.366 1169.63 637.754C1169.42 637.142 1169.32 636.556 1169.32 635.996C1169.32 634.85 1169.54 633.848 1170 632.988C1170.46 632.116 1171.07 631.393 1171.84 630.82C1172.6 630.247 1173.5 629.818 1174.51 629.531C1175.53 629.232 1176.58 629.082 1177.68 629.082C1178.77 629.082 1179.82 629.232 1180.84 629.531C1181.86 629.818 1182.75 630.247 1183.52 630.82C1184.28 631.393 1184.9 632.116 1185.35 632.988C1185.81 633.848 1186.04 634.85 1186.04 635.996C1186.04 636.556 1185.92 637.142 1185.7 637.754C1185.49 638.366 1185.2 638.932 1184.8 639.453C1184.43 639.974 1183.95 640.43 1183.38 640.82C1182.81 641.211 1182.15 641.445 1181.43 641.523C1182.26 641.628 1183.01 641.882 1183.69 642.285C1184.37 642.676 1184.95 643.177 1185.43 643.789C1185.91 644.388 1186.28 645.039 1186.54 645.742C1186.82 646.445 1186.95 647.142 1186.95 647.832ZM1183.36 635.996C1183.36 634.564 1182.85 633.438 1181.84 632.617C1180.82 631.784 1179.43 631.367 1177.68 631.367C1175.92 631.367 1174.53 631.784 1173.52 632.617C1172.5 633.438 1171.99 634.564 1171.99 635.996C1171.99 637.337 1172.47 638.405 1173.44 639.199C1174.4 639.993 1175.81 640.391 1177.68 640.391C1179.54 640.391 1180.95 639.993 1181.91 639.199C1182.88 638.405 1183.36 637.337 1183.36 635.996ZM1184.28 647.832C1184.28 646.908 1184.1 646.12 1183.73 645.469C1183.38 644.805 1182.89 644.271 1182.27 643.867C1181.65 643.451 1180.96 643.151 1180.18 642.969C1179.39 642.773 1178.56 642.676 1177.68 642.676C1176.79 642.676 1175.96 642.773 1175.18 642.969C1174.39 643.151 1173.69 643.451 1173.07 643.867C1172.45 644.271 1171.97 644.805 1171.6 645.469C1171.25 646.12 1171.07 646.908 1171.07 647.832C1171.07 648.743 1171.25 649.531 1171.6 650.195C1171.97 650.859 1172.45 651.413 1173.07 651.855C1173.69 652.298 1174.39 652.63 1175.18 652.852C1175.96 653.06 1176.79 653.164 1177.68 653.164C1178.56 653.164 1179.39 653.06 1180.18 652.852C1180.96 652.63 1181.65 652.298 1182.27 651.855C1182.89 651.413 1183.38 650.859 1183.73 650.195C1184.1 649.531 1184.28 648.743 1184.28 647.832ZM1204.94 629.512L1204.16 638.594H1202.15L1201.31 629.512H1204.94ZM1197.68 629.512L1196.84 638.594H1194.86L1194.02 629.512H1197.68ZM1226.54 645.664L1216.54 655.664L1215.02 654.121L1223.46 645.664L1215.02 637.227L1216.54 635.664L1226.54 645.664ZM769.062 694.121L767.559 695.664L757.559 685.664L767.559 675.664L769.062 677.227L760.625 685.664L769.062 694.121ZM793.906 689.199C793.698 691.113 792.943 692.637 791.641 693.77C790.352 694.889 788.737 695.449 786.797 695.449C785.729 695.449 784.753 695.273 783.867 694.922C782.982 694.57 782.227 694.082 781.602 693.457C780.977 692.832 780.488 692.083 780.137 691.211C779.798 690.326 779.629 689.362 779.629 688.32V679.082H775.508V676.797H779.629V669.512H782.305V676.797H790.059V679.082H782.305V688.32C782.305 688.984 782.409 689.609 782.617 690.195C782.839 690.781 783.138 691.296 783.516 691.738C783.906 692.181 784.375 692.533 784.922 692.793C785.469 693.04 786.094 693.164 786.797 693.164C788.125 693.164 789.232 692.754 790.117 691.934C791.016 691.1 791.53 690.026 791.66 688.711L793.906 689.199ZM808.262 673.164H804.629V669.512H808.262V673.164ZM811.895 695H800.977V692.715H805.098V679.082H800.977V676.797H807.793V692.715H811.895V695ZM837.578 689.199C837.37 691.113 836.615 692.637 835.312 693.77C834.023 694.889 832.409 695.449 830.469 695.449C829.401 695.449 828.424 695.273 827.539 694.922C826.654 694.57 825.898 694.082 825.273 693.457C824.648 692.832 824.16 692.083 823.809 691.211C823.47 690.326 823.301 689.362 823.301 688.32V679.082H819.18V676.797H823.301V669.512H825.977V676.797H833.73V679.082H825.977V688.32C825.977 688.984 826.081 689.609 826.289 690.195C826.51 690.781 826.81 691.296 827.188 691.738C827.578 692.181 828.047 692.533 828.594 692.793C829.141 693.04 829.766 693.164 830.469 693.164C831.797 693.164 832.904 692.754 833.789 691.934C834.688 691.1 835.202 690.026 835.332 688.711L837.578 689.199ZM855.566 695H844.648V692.715H848.77V671.797H844.648V669.512H851.465V692.715H855.566V695ZM865.527 686.836C865.723 688.763 866.426 690.299 867.637 691.445C868.848 692.591 870.423 693.164 872.363 693.164C873.73 693.164 874.948 692.884 876.016 692.324C877.083 691.764 877.884 691.068 878.418 690.234L880.293 691.523C879.382 692.799 878.294 693.776 877.031 694.453C875.768 695.117 874.212 695.449 872.363 695.449C870.957 695.449 869.668 695.215 868.496 694.746C867.324 694.277 866.309 693.626 865.449 692.793C864.603 691.947 863.945 690.944 863.477 689.785C863.008 688.626 862.773 687.337 862.773 685.918C862.773 684.538 862.982 683.268 863.398 682.109C863.828 680.938 864.44 679.928 865.234 679.082C866.042 678.223 867.018 677.559 868.164 677.09C869.31 676.608 870.592 676.367 872.012 676.367C873.561 676.367 874.915 676.628 876.074 677.148C877.233 677.669 878.197 678.392 878.965 679.316C879.746 680.228 880.319 681.322 880.684 682.598C881.061 683.874 881.25 685.286 881.25 686.836H865.527ZM878.418 684.551C878.118 682.559 877.396 681.074 876.25 680.098C875.104 679.121 873.691 678.633 872.012 678.633C871.152 678.633 870.358 678.776 869.629 679.062C868.9 679.336 868.255 679.733 867.695 680.254C867.135 680.775 866.667 681.406 866.289 682.148C865.911 682.878 865.671 683.678 865.566 684.551H878.418ZM899.004 685.664L889.004 695.664L887.48 694.121L895.918 685.664L887.48 677.227L889.004 675.664L899.004 685.664ZM925.957 695H923.086L920.684 687.715H910.605L908.242 695H905.371L913.848 669.512H917.48L925.957 695ZM919.922 685.352L915.645 672.207L911.367 685.352H919.922ZM945.605 695H942.91V683.77C942.91 682.142 942.559 680.879 941.855 679.98C941.152 679.082 940.013 678.633 938.438 678.633C937.448 678.633 936.549 678.861 935.742 679.316C934.948 679.772 934.271 680.384 933.711 681.152C933.151 681.908 932.721 682.78 932.422 683.77C932.135 684.746 931.992 685.768 931.992 686.836V695H929.316V676.797H931.992V681.367C933.281 678.034 935.579 676.367 938.887 676.367C943.366 676.367 945.605 678.835 945.605 683.77V695ZM968.867 685.957C968.867 687.376 968.639 688.665 968.184 689.824C967.741 690.983 967.096 691.979 966.25 692.812C965.417 693.633 964.414 694.277 963.242 694.746C962.07 695.215 960.762 695.449 959.316 695.449C957.897 695.449 956.602 695.215 955.43 694.746C954.258 694.277 953.249 693.633 952.402 692.812C951.569 691.979 950.924 690.983 950.469 689.824C950.026 688.665 949.805 687.376 949.805 685.957C949.805 684.577 950.026 683.294 950.469 682.109C950.924 680.911 951.569 679.896 952.402 679.062C953.249 678.216 954.258 677.559 955.43 677.09C956.602 676.608 957.897 676.367 959.316 676.367C960.762 676.367 962.07 676.608 963.242 677.09C964.414 677.559 965.417 678.216 966.25 679.062C967.096 679.896 967.741 680.911 968.184 682.109C968.639 683.294 968.867 684.577 968.867 685.957ZM966.191 685.957C966.191 684.915 966.035 683.958 965.723 683.086C965.423 682.201 964.974 681.426 964.375 680.762C963.776 680.098 963.047 679.577 962.188 679.199C961.341 678.822 960.384 678.633 959.316 678.633C958.249 678.633 957.285 678.822 956.426 679.199C955.579 679.577 954.863 680.098 954.277 680.762C953.691 681.426 953.242 682.201 952.93 683.086C952.63 683.958 952.48 684.915 952.48 685.957C952.48 686.999 952.63 687.962 952.93 688.848C953.242 689.72 953.691 690.475 954.277 691.113C954.863 691.751 955.579 692.253 956.426 692.617C957.285 692.982 958.249 693.164 959.316 693.164C960.384 693.164 961.341 692.982 962.188 692.617C963.047 692.253 963.776 691.751 964.375 691.113C964.974 690.475 965.423 689.72 965.723 688.848C966.035 687.962 966.191 686.999 966.191 685.957ZM989.277 695H986.582V683.77C986.582 682.142 986.23 680.879 985.527 679.98C984.824 679.082 983.685 678.633 982.109 678.633C981.12 678.633 980.221 678.861 979.414 679.316C978.62 679.772 977.943 680.384 977.383 681.152C976.823 681.908 976.393 682.78 976.094 683.77C975.807 684.746 975.664 685.768 975.664 686.836V695H972.988V676.797H975.664V681.367C976.953 678.034 979.251 676.367 982.559 676.367C987.038 676.367 989.277 678.835 989.277 683.77V695ZM1012.64 676.797L1002.79 699.609C1002.29 700.885 1001.57 701.719 1000.64 702.109C999.72 702.513 998.698 702.715 997.578 702.715C996.328 702.715 995.078 702.487 993.828 702.031L994.355 699.727C994.967 699.987 995.566 700.169 996.152 700.273C996.738 700.391 997.214 700.449 997.578 700.449C998.464 700.449 999.069 700.234 999.395 699.805C999.733 699.375 1000.03 698.867 1000.27 698.281L1001.39 695.527L993.262 676.797H996.426L1002.99 692.715L1009.43 676.797H1012.64ZM1033.91 695H1031.23V681.914C1031.23 680.872 1031.05 680.065 1030.68 679.492C1030.32 678.919 1029.79 678.633 1029.1 678.633C1028.09 678.633 1027.34 679.167 1026.86 680.234C1026.39 681.302 1026.15 682.799 1026.15 684.727V695H1023.46V681.914C1023.46 680.872 1023.27 680.065 1022.89 679.492C1022.53 678.919 1022 678.633 1021.31 678.633C1020.67 678.633 1020.16 678.822 1019.79 679.199C1019.41 679.577 1019.11 680.059 1018.89 680.645C1018.68 681.23 1018.54 681.882 1018.48 682.598C1018.41 683.314 1018.38 684.023 1018.38 684.727V695H1015.7V676.797H1018.38V679.434C1018.94 677.389 1020.16 676.367 1022.03 676.367C1023.82 676.367 1025.03 677.259 1025.66 679.043C1026.55 677.259 1027.8 676.367 1029.41 676.367C1030.96 676.367 1032.1 676.829 1032.81 677.754C1033.54 678.665 1033.91 680.052 1033.91 681.914V695ZM1056.21 685.957C1056.21 687.376 1055.98 688.665 1055.53 689.824C1055.08 690.983 1054.44 691.979 1053.59 692.812C1052.76 693.633 1051.76 694.277 1050.59 694.746C1049.41 695.215 1048.11 695.449 1046.66 695.449C1045.24 695.449 1043.95 695.215 1042.77 694.746C1041.6 694.277 1040.59 693.633 1039.75 692.812C1038.91 691.979 1038.27 690.983 1037.81 689.824C1037.37 688.665 1037.15 687.376 1037.15 685.957C1037.15 684.577 1037.37 683.294 1037.81 682.109C1038.27 680.911 1038.91 679.896 1039.75 679.062C1040.59 678.216 1041.6 677.559 1042.77 677.09C1043.95 676.608 1045.24 676.367 1046.66 676.367C1048.11 676.367 1049.41 676.608 1050.59 677.09C1051.76 677.559 1052.76 678.216 1053.59 679.062C1054.44 679.896 1055.08 680.911 1055.53 682.109C1055.98 683.294 1056.21 684.577 1056.21 685.957ZM1053.54 685.957C1053.54 684.915 1053.38 683.958 1053.07 683.086C1052.77 682.201 1052.32 681.426 1051.72 680.762C1051.12 680.098 1050.39 679.577 1049.53 679.199C1048.68 678.822 1047.73 678.633 1046.66 678.633C1045.59 678.633 1044.63 678.822 1043.77 679.199C1042.92 679.577 1042.21 680.098 1041.62 680.762C1041.04 681.426 1040.59 682.201 1040.27 683.086C1039.97 683.958 1039.82 684.915 1039.82 685.957C1039.82 686.999 1039.97 687.962 1040.27 688.848C1040.59 689.72 1041.04 690.475 1041.62 691.113C1042.21 691.751 1042.92 692.253 1043.77 692.617C1044.63 692.982 1045.59 693.164 1046.66 693.164C1047.73 693.164 1048.68 692.982 1049.53 692.617C1050.39 692.253 1051.12 691.751 1051.72 691.113C1052.32 690.475 1052.77 689.72 1053.07 688.848C1053.38 687.962 1053.54 686.999 1053.54 685.957ZM1060.33 676.797H1063.01V688.047C1063.01 689.674 1063.36 690.938 1064.06 691.836C1064.78 692.721 1065.92 693.164 1067.5 693.164C1068.49 693.164 1069.38 692.936 1070.18 692.48C1070.97 692.025 1071.65 691.419 1072.21 690.664C1072.77 689.896 1073.19 689.023 1073.48 688.047C1073.78 687.057 1073.93 686.029 1073.93 684.961V676.797H1076.62V695H1073.93V690.449C1072.65 693.783 1070.36 695.449 1067.05 695.449C1062.57 695.449 1060.33 692.982 1060.33 688.047V676.797ZM1098.93 689.961C1098.93 691.029 1098.66 691.914 1098.12 692.617C1097.59 693.32 1096.9 693.88 1096.05 694.297C1095.22 694.714 1094.28 695.007 1093.24 695.176C1092.21 695.358 1091.2 695.449 1090.21 695.449C1088.56 695.449 1086.91 695.208 1085.27 694.727C1083.63 694.245 1082.21 693.613 1081.02 692.832L1082.21 690.527C1083.55 691.374 1084.87 692.025 1086.17 692.48C1087.47 692.936 1088.82 693.164 1090.21 693.164C1094.24 693.164 1096.25 692.122 1096.25 690.039C1096.25 689.531 1096.08 689.121 1095.74 688.809C1095.42 688.483 1094.97 688.223 1094.41 688.027C1093.85 687.819 1093.21 687.656 1092.48 687.539C1091.76 687.422 1091.01 687.311 1090.21 687.207C1089.2 687.064 1088.19 686.895 1087.19 686.699C1086.18 686.504 1085.27 686.211 1084.43 685.82C1083.61 685.43 1082.95 684.909 1082.44 684.258C1081.95 683.607 1081.7 682.747 1081.7 681.68C1081.7 680.768 1081.93 679.98 1082.38 679.316C1082.85 678.652 1083.47 678.099 1084.24 677.656C1085.02 677.214 1085.93 676.888 1086.97 676.68C1088.01 676.471 1089.1 676.367 1090.21 676.367C1091.82 676.367 1093.25 676.556 1094.51 676.934C1095.77 677.298 1096.91 677.826 1097.93 678.516L1096.86 680.605C1095.81 679.876 1094.76 679.368 1093.69 679.082C1092.62 678.783 1091.46 678.633 1090.21 678.633C1089.65 678.633 1089.03 678.685 1088.34 678.789C1087.66 678.88 1087.03 679.049 1086.45 679.297C1085.86 679.531 1085.36 679.844 1084.96 680.234C1084.57 680.612 1084.38 681.094 1084.38 681.68C1084.38 682.188 1084.54 682.598 1084.86 682.91C1085.2 683.21 1085.65 683.464 1086.21 683.672C1086.77 683.867 1087.41 684.023 1088.12 684.141C1088.85 684.258 1089.62 684.368 1090.41 684.473C1091.4 684.616 1092.4 684.785 1093.4 684.98C1094.41 685.176 1095.33 685.462 1096.15 685.84C1096.99 686.217 1097.66 686.732 1098.16 687.383C1098.67 688.034 1098.93 688.893 1098.93 689.961ZM1143.05 676.797C1143.05 679.258 1142.28 681.087 1140.74 682.285C1139.21 683.483 1137.05 684.082 1134.28 684.082H1128.52V695H1125.84V669.512H1134.24C1137.04 669.512 1139.21 670.124 1140.74 671.348C1142.28 672.559 1143.05 674.375 1143.05 676.797ZM1140.37 676.797C1140.37 675.039 1139.82 673.77 1138.71 672.988C1137.6 672.194 1136.13 671.797 1134.28 671.797H1128.52V681.797H1134.28C1136.13 681.797 1137.6 681.406 1138.71 680.625C1139.82 679.831 1140.37 678.555 1140.37 676.797ZM1163.93 679.355C1162.96 678.874 1161.82 678.633 1160.49 678.633C1159.39 678.633 1158.42 678.867 1157.56 679.336C1156.7 679.805 1155.97 680.423 1155.37 681.191C1154.77 681.947 1154.31 682.819 1153.98 683.809C1153.67 684.785 1153.52 685.794 1153.52 686.836V692.715H1157.64V695H1146.72V692.715H1150.84V679.082H1146.72V676.797H1153.52V681.367C1154.74 678.034 1157.06 676.367 1160.49 676.367C1161.41 676.367 1162.21 676.426 1162.89 676.543C1163.58 676.66 1164.22 676.868 1164.8 677.168L1163.93 679.355ZM1187.23 685.957C1187.23 687.376 1187 688.665 1186.54 689.824C1186.1 690.983 1185.46 691.979 1184.61 692.812C1183.78 693.633 1182.77 694.277 1181.6 694.746C1180.43 695.215 1179.12 695.449 1177.68 695.449C1176.26 695.449 1174.96 695.215 1173.79 694.746C1172.62 694.277 1171.61 693.633 1170.76 692.812C1169.93 691.979 1169.28 690.983 1168.83 689.824C1168.39 688.665 1168.16 687.376 1168.16 685.957C1168.16 684.577 1168.39 683.294 1168.83 682.109C1169.28 680.911 1169.93 679.896 1170.76 679.062C1171.61 678.216 1172.62 677.559 1173.79 677.09C1174.96 676.608 1176.26 676.367 1177.68 676.367C1179.12 676.367 1180.43 676.608 1181.6 677.09C1182.77 677.559 1183.78 678.216 1184.61 679.062C1185.46 679.896 1186.1 680.911 1186.54 682.109C1187 683.294 1187.23 684.577 1187.23 685.957ZM1184.55 685.957C1184.55 684.915 1184.39 683.958 1184.08 683.086C1183.78 682.201 1183.33 681.426 1182.73 680.762C1182.14 680.098 1181.41 679.577 1180.55 679.199C1179.7 678.822 1178.74 678.633 1177.68 678.633C1176.61 678.633 1175.64 678.822 1174.79 679.199C1173.94 679.577 1173.22 680.098 1172.64 680.762C1172.05 681.426 1171.6 682.201 1171.29 683.086C1170.99 683.958 1170.84 684.915 1170.84 685.957C1170.84 686.999 1170.99 687.962 1171.29 688.848C1171.6 689.72 1172.05 690.475 1172.64 691.113C1173.22 691.751 1173.94 692.253 1174.79 692.617C1175.64 692.982 1176.61 693.164 1177.68 693.164C1178.74 693.164 1179.7 692.982 1180.55 692.617C1181.41 692.253 1182.14 691.751 1182.73 691.113C1183.33 690.475 1183.78 689.72 1184.08 688.848C1184.39 687.962 1184.55 686.999 1184.55 685.957ZM1205.78 694.121L1204.28 695.664L1194.28 685.664L1204.28 675.664L1205.78 677.227L1197.34 685.664L1205.78 694.121ZM1229.9 669.551L1214.94 699.688L1213.03 698.672L1227.99 668.555L1229.9 669.551ZM1252.46 689.199C1252.25 691.113 1251.5 692.637 1250.2 693.77C1248.91 694.889 1247.29 695.449 1245.35 695.449C1244.28 695.449 1243.31 695.273 1242.42 694.922C1241.54 694.57 1240.78 694.082 1240.16 693.457C1239.53 692.832 1239.04 692.083 1238.69 691.211C1238.35 690.326 1238.18 689.362 1238.18 688.32V679.082H1234.06V676.797H1238.18V669.512H1240.86V676.797H1248.61V679.082H1240.86V688.32C1240.86 688.984 1240.96 689.609 1241.17 690.195C1241.39 690.781 1241.69 691.296 1242.07 691.738C1242.46 692.181 1242.93 692.533 1243.48 692.793C1244.02 693.04 1244.65 693.164 1245.35 693.164C1246.68 693.164 1247.79 692.754 1248.67 691.934C1249.57 691.1 1250.08 690.026 1250.21 688.711L1252.46 689.199ZM1266.82 673.164H1263.18V669.512H1266.82V673.164ZM1270.45 695H1259.53V692.715H1263.65V679.082H1259.53V676.797H1266.35V692.715H1270.45V695ZM1296.13 689.199C1295.92 691.113 1295.17 692.637 1293.87 693.77C1292.58 694.889 1290.96 695.449 1289.02 695.449C1287.96 695.449 1286.98 695.273 1286.09 694.922C1285.21 694.57 1284.45 694.082 1283.83 693.457C1283.2 692.832 1282.71 692.083 1282.36 691.211C1282.02 690.326 1281.86 689.362 1281.86 688.32V679.082H1277.73V676.797H1281.86V669.512H1284.53V676.797H1292.29V679.082H1284.53V688.32C1284.53 688.984 1284.64 689.609 1284.84 690.195C1285.07 690.781 1285.36 691.296 1285.74 691.738C1286.13 692.181 1286.6 692.533 1287.15 692.793C1287.7 693.04 1288.32 693.164 1289.02 693.164C1290.35 693.164 1291.46 692.754 1292.34 691.934C1293.24 691.1 1293.76 690.026 1293.89 688.711L1296.13 689.199ZM1314.12 695H1303.2V692.715H1307.32V671.797H1303.2V669.512H1310.02V692.715H1314.12V695ZM1324.08 686.836C1324.28 688.763 1324.98 690.299 1326.19 691.445C1327.4 692.591 1328.98 693.164 1330.92 693.164C1332.29 693.164 1333.5 692.884 1334.57 692.324C1335.64 691.764 1336.44 691.068 1336.97 690.234L1338.85 691.523C1337.94 692.799 1336.85 693.776 1335.59 694.453C1334.32 695.117 1332.77 695.449 1330.92 695.449C1329.51 695.449 1328.22 695.215 1327.05 694.746C1325.88 694.277 1324.86 693.626 1324 692.793C1323.16 691.947 1322.5 690.944 1322.03 689.785C1321.56 688.626 1321.33 687.337 1321.33 685.918C1321.33 684.538 1321.54 683.268 1321.95 682.109C1322.38 680.938 1322.99 679.928 1323.79 679.082C1324.6 678.223 1325.57 677.559 1326.72 677.09C1327.86 676.608 1329.15 676.367 1330.57 676.367C1332.12 676.367 1333.47 676.628 1334.63 677.148C1335.79 677.669 1336.75 678.392 1337.52 679.316C1338.3 680.228 1338.87 681.322 1339.24 682.598C1339.62 683.874 1339.8 685.286 1339.8 686.836H1324.08ZM1336.97 684.551C1336.67 682.559 1335.95 681.074 1334.8 680.098C1333.66 679.121 1332.25 678.633 1330.57 678.633C1329.71 678.633 1328.91 678.776 1328.18 679.062C1327.45 679.336 1326.81 679.733 1326.25 680.254C1325.69 680.775 1325.22 681.406 1324.84 682.148C1324.47 682.878 1324.23 683.678 1324.12 684.551H1336.97ZM1357.56 685.664L1347.56 695.664L1346.04 694.121L1354.47 685.664L1346.04 677.227L1347.56 675.664L1357.56 685.664ZM769.062 734.121L767.559 735.664L757.559 725.664L767.559 715.664L769.062 717.227L760.625 725.664L769.062 734.121ZM793.223 729.961C793.223 731.029 792.956 731.914 792.422 732.617C791.888 733.32 791.198 733.88 790.352 734.297C789.518 734.714 788.581 735.007 787.539 735.176C786.51 735.358 785.501 735.449 784.512 735.449C782.858 735.449 781.211 735.208 779.57 734.727C777.93 734.245 776.51 733.613 775.312 732.832L776.504 730.527C777.845 731.374 779.167 732.025 780.469 732.48C781.771 732.936 783.118 733.164 784.512 733.164C788.535 733.164 790.547 732.122 790.547 730.039C790.547 729.531 790.378 729.121 790.039 728.809C789.714 728.483 789.271 728.223 788.711 728.027C788.151 727.819 787.507 727.656 786.777 727.539C786.061 727.422 785.306 727.311 784.512 727.207C783.496 727.064 782.487 726.895 781.484 726.699C780.482 726.504 779.564 726.211 778.73 725.82C777.91 725.43 777.246 724.909 776.738 724.258C776.243 723.607 775.996 722.747 775.996 721.68C775.996 720.768 776.224 719.98 776.68 719.316C777.148 718.652 777.767 718.099 778.535 717.656C779.316 717.214 780.228 716.888 781.27 716.68C782.311 716.471 783.392 716.367 784.512 716.367C786.113 716.367 787.546 716.556 788.809 716.934C790.072 717.298 791.211 717.826 792.227 718.516L791.152 720.605C790.111 719.876 789.056 719.368 787.988 719.082C786.921 718.783 785.762 718.633 784.512 718.633C783.952 718.633 783.327 718.685 782.637 718.789C781.96 718.88 781.328 719.049 780.742 719.297C780.156 719.531 779.661 719.844 779.258 720.234C778.867 720.612 778.672 721.094 778.672 721.68C778.672 722.188 778.835 722.598 779.16 722.91C779.499 723.21 779.948 723.464 780.508 723.672C781.068 723.867 781.706 724.023 782.422 724.141C783.151 724.258 783.913 724.368 784.707 724.473C785.697 724.616 786.693 724.785 787.695 724.98C788.711 725.176 789.629 725.462 790.449 725.84C791.283 726.217 791.953 726.732 792.461 727.383C792.969 728.034 793.223 728.893 793.223 729.961ZM815.742 729.199C815.534 731.113 814.779 732.637 813.477 733.77C812.188 734.889 810.573 735.449 808.633 735.449C807.565 735.449 806.589 735.273 805.703 734.922C804.818 734.57 804.062 734.082 803.438 733.457C802.812 732.832 802.324 732.083 801.973 731.211C801.634 730.326 801.465 729.362 801.465 728.32V719.082H797.344V716.797H801.465V709.512H804.141V716.797H811.895V719.082H804.141V728.32C804.141 728.984 804.245 729.609 804.453 730.195C804.674 730.781 804.974 731.296 805.352 731.738C805.742 732.181 806.211 732.533 806.758 732.793C807.305 733.04 807.93 733.164 808.633 733.164C809.961 733.164 811.068 732.754 811.953 731.934C812.852 731.1 813.366 730.026 813.496 728.711L815.742 729.199ZM837.949 716.797L828.105 739.609C827.598 740.885 826.882 741.719 825.957 742.109C825.033 742.513 824.01 742.715 822.891 742.715C821.641 742.715 820.391 742.487 819.141 742.031L819.668 739.727C820.28 739.987 820.879 740.169 821.465 740.273C822.051 740.391 822.526 740.449 822.891 740.449C823.776 740.449 824.382 740.234 824.707 739.805C825.046 739.375 825.339 738.867 825.586 738.281L826.699 735.527L818.574 716.797H821.738L828.301 732.715L834.746 716.797H837.949ZM855.566 735H844.648V732.715H848.77V711.797H844.648V709.512H851.465V732.715H855.566V735ZM865.527 726.836C865.723 728.763 866.426 730.299 867.637 731.445C868.848 732.591 870.423 733.164 872.363 733.164C873.73 733.164 874.948 732.884 876.016 732.324C877.083 731.764 877.884 731.068 878.418 730.234L880.293 731.523C879.382 732.799 878.294 733.776 877.031 734.453C875.768 735.117 874.212 735.449 872.363 735.449C870.957 735.449 869.668 735.215 868.496 734.746C867.324 734.277 866.309 733.626 865.449 732.793C864.603 731.947 863.945 730.944 863.477 729.785C863.008 728.626 862.773 727.337 862.773 725.918C862.773 724.538 862.982 723.268 863.398 722.109C863.828 720.938 864.44 719.928 865.234 719.082C866.042 718.223 867.018 717.559 868.164 717.09C869.31 716.608 870.592 716.367 872.012 716.367C873.561 716.367 874.915 716.628 876.074 717.148C877.233 717.669 878.197 718.392 878.965 719.316C879.746 720.228 880.319 721.322 880.684 722.598C881.061 723.874 881.25 725.286 881.25 726.836H865.527ZM878.418 724.551C878.118 722.559 877.396 721.074 876.25 720.098C875.104 719.121 873.691 718.633 872.012 718.633C871.152 718.633 870.358 718.776 869.629 719.062C868.9 719.336 868.255 719.733 867.695 720.254C867.135 720.775 866.667 721.406 866.289 722.148C865.911 722.878 865.671 723.678 865.566 724.551H878.418ZM899.004 725.664L889.004 735.664L887.48 734.121L895.918 725.664L887.48 717.227L889.004 715.664L899.004 725.664ZM815.547 765.918C815.547 767.311 815.332 768.594 814.902 769.766C814.473 770.938 813.854 771.947 813.047 772.793C812.253 773.626 811.289 774.277 810.156 774.746C809.023 775.215 807.754 775.449 806.348 775.449C805.358 775.449 804.408 775.273 803.496 774.922C802.598 774.57 801.758 774.049 800.977 773.359V775H798.301V749.512H800.977V758.477C801.758 757.812 802.598 757.298 803.496 756.934C804.408 756.556 805.358 756.367 806.348 756.367C807.754 756.367 809.023 756.608 810.156 757.09C811.289 757.559 812.253 758.216 813.047 759.062C813.854 759.896 814.473 760.905 814.902 762.09C815.332 763.262 815.547 764.538 815.547 765.918ZM812.832 765.918C812.832 764.876 812.695 763.919 812.422 763.047C812.161 762.161 811.758 761.393 811.211 760.742C810.664 760.091 809.98 759.577 809.16 759.199C808.353 758.822 807.415 758.633 806.348 758.633C804.29 758.633 802.5 759.447 800.977 761.074V770.801C801.758 771.647 802.591 772.253 803.477 772.617C804.375 772.982 805.332 773.164 806.348 773.164C807.415 773.164 808.346 772.975 809.141 772.598C809.948 772.22 810.625 771.706 811.172 771.055C811.719 770.404 812.129 769.642 812.402 768.77C812.689 767.884 812.832 766.934 812.832 765.918ZM837.852 765.957C837.852 767.376 837.624 768.665 837.168 769.824C836.725 770.983 836.081 771.979 835.234 772.812C834.401 773.633 833.398 774.277 832.227 774.746C831.055 775.215 829.746 775.449 828.301 775.449C826.882 775.449 825.586 775.215 824.414 774.746C823.242 774.277 822.233 773.633 821.387 772.812C820.553 771.979 819.909 770.983 819.453 769.824C819.01 768.665 818.789 767.376 818.789 765.957C818.789 764.577 819.01 763.294 819.453 762.109C819.909 760.911 820.553 759.896 821.387 759.062C822.233 758.216 823.242 757.559 824.414 757.09C825.586 756.608 826.882 756.367 828.301 756.367C829.746 756.367 831.055 756.608 832.227 757.09C833.398 757.559 834.401 758.216 835.234 759.062C836.081 759.896 836.725 760.911 837.168 762.109C837.624 763.294 837.852 764.577 837.852 765.957ZM835.176 765.957C835.176 764.915 835.02 763.958 834.707 763.086C834.408 762.201 833.958 761.426 833.359 760.762C832.76 760.098 832.031 759.577 831.172 759.199C830.326 758.822 829.368 758.633 828.301 758.633C827.233 758.633 826.27 758.822 825.41 759.199C824.564 759.577 823.848 760.098 823.262 760.762C822.676 761.426 822.227 762.201 821.914 763.086C821.615 763.958 821.465 764.915 821.465 765.957C821.465 766.999 821.615 767.962 821.914 768.848C822.227 769.72 822.676 770.475 823.262 771.113C823.848 771.751 824.564 772.253 825.41 772.617C826.27 772.982 827.233 773.164 828.301 773.164C829.368 773.164 830.326 772.982 831.172 772.617C832.031 772.253 832.76 771.751 833.359 771.113C833.958 770.475 834.408 769.72 834.707 768.848C835.02 767.962 835.176 766.999 835.176 765.957ZM858.262 775H855.566V773.32C854.798 774.01 853.952 774.538 853.027 774.902C852.116 775.267 851.178 775.449 850.215 775.449C848.77 775.449 847.474 775.215 846.328 774.746C845.182 774.277 844.212 773.626 843.418 772.793C842.637 771.947 842.031 770.938 841.602 769.766C841.185 768.594 840.977 767.311 840.977 765.918C840.977 764.538 841.185 763.262 841.602 762.09C842.031 760.905 842.637 759.896 843.418 759.062C844.212 758.216 845.182 757.559 846.328 757.09C847.474 756.608 848.77 756.367 850.215 756.367C851.178 756.367 852.116 756.543 853.027 756.895C853.952 757.233 854.798 757.747 855.566 758.438V751.797H851.934V749.512H858.262V775ZM855.566 761.035C854.798 760.189 853.958 759.577 853.047 759.199C852.148 758.822 851.191 758.633 850.176 758.633C849.108 758.633 848.164 758.822 847.344 759.199C846.536 759.577 845.859 760.091 845.312 760.742C844.766 761.393 844.349 762.161 844.062 763.047C843.789 763.919 843.652 764.876 843.652 765.918C843.652 766.96 843.789 767.923 844.062 768.809C844.349 769.681 844.766 770.443 845.312 771.094C845.859 771.745 846.536 772.259 847.344 772.637C848.164 773.014 849.108 773.203 850.176 773.203C852.233 773.203 854.03 772.389 855.566 770.762V761.035ZM881.621 756.797L871.777 779.609C871.27 780.885 870.553 781.719 869.629 782.109C868.704 782.513 867.682 782.715 866.562 782.715C865.312 782.715 864.062 782.487 862.812 782.031L863.34 779.727C863.952 779.987 864.551 780.169 865.137 780.273C865.723 780.391 866.198 780.449 866.562 780.449C867.448 780.449 868.053 780.234 868.379 779.805C868.717 779.375 869.01 778.867 869.258 778.281L870.371 775.527L862.246 756.797H865.41L871.973 772.715L878.418 756.797H881.621ZM921.035 782.285H919.238C918.444 782.285 917.708 782.142 917.031 781.855C916.367 781.582 915.794 781.204 915.312 780.723C914.844 780.241 914.473 779.661 914.199 778.984C913.939 778.307 913.809 777.565 913.809 776.758V768.477C913.809 766.289 912.591 765.195 910.156 765.195V763.008C912.591 763.008 913.809 761.914 913.809 759.727V751.328C913.809 750.521 913.939 749.785 914.199 749.121C914.473 748.457 914.844 747.884 915.312 747.402C915.794 746.921 916.367 746.549 917.031 746.289C917.708 746.016 918.444 745.879 919.238 745.879H921.035V748.047H919.238C917.025 748.047 915.918 749.141 915.918 751.328V759.727C915.918 760.169 915.833 760.632 915.664 761.113C915.495 761.595 915.26 762.044 914.961 762.461C914.674 762.878 914.323 763.242 913.906 763.555C913.49 763.854 913.04 764.043 912.559 764.121C913.04 764.199 913.483 764.388 913.887 764.688C914.29 764.974 914.642 765.326 914.941 765.742C915.254 766.159 915.495 766.608 915.664 767.09C915.833 767.559 915.918 768.021 915.918 768.477V776.758C915.918 778.971 917.025 780.078 919.238 780.078H921.035V782.285ZM859.219 799.082H851.465V812.715H855.566V815H844.648V812.715H848.77V799.082H844.648V796.797H848.77C848.77 794.297 849.414 792.389 850.703 791.074C852.005 789.746 853.965 789.082 856.582 789.082C857.194 789.082 857.708 789.102 858.125 789.141C858.555 789.18 858.919 789.225 859.219 789.277V791.562C858.841 791.51 858.444 791.465 858.027 791.426C857.624 791.387 857.142 791.367 856.582 791.367C854.876 791.367 853.594 791.803 852.734 792.676C851.888 793.535 851.465 794.909 851.465 796.797H859.219V799.082ZM881.523 805.957C881.523 807.376 881.296 808.665 880.84 809.824C880.397 810.983 879.753 811.979 878.906 812.812C878.073 813.633 877.07 814.277 875.898 814.746C874.727 815.215 873.418 815.449 871.973 815.449C870.553 815.449 869.258 815.215 868.086 814.746C866.914 814.277 865.905 813.633 865.059 812.812C864.225 811.979 863.581 810.983 863.125 809.824C862.682 808.665 862.461 807.376 862.461 805.957C862.461 804.577 862.682 803.294 863.125 802.109C863.581 800.911 864.225 799.896 865.059 799.062C865.905 798.216 866.914 797.559 868.086 797.09C869.258 796.608 870.553 796.367 871.973 796.367C873.418 796.367 874.727 796.608 875.898 797.09C877.07 797.559 878.073 798.216 878.906 799.062C879.753 799.896 880.397 800.911 880.84 802.109C881.296 803.294 881.523 804.577 881.523 805.957ZM878.848 805.957C878.848 804.915 878.691 803.958 878.379 803.086C878.079 802.201 877.63 801.426 877.031 800.762C876.432 800.098 875.703 799.577 874.844 799.199C873.997 798.822 873.04 798.633 871.973 798.633C870.905 798.633 869.941 798.822 869.082 799.199C868.236 799.577 867.52 800.098 866.934 800.762C866.348 801.426 865.898 802.201 865.586 803.086C865.286 803.958 865.137 804.915 865.137 805.957C865.137 806.999 865.286 807.962 865.586 808.848C865.898 809.72 866.348 810.475 866.934 811.113C867.52 811.751 868.236 812.253 869.082 812.617C869.941 812.982 870.905 813.164 871.973 813.164C873.04 813.164 873.997 812.982 874.844 812.617C875.703 812.253 876.432 811.751 877.031 811.113C877.63 810.475 878.079 809.72 878.379 808.848C878.691 807.962 878.848 806.999 878.848 805.957ZM901.934 815H899.238V803.77C899.238 802.142 898.887 800.879 898.184 799.98C897.48 799.082 896.341 798.633 894.766 798.633C893.776 798.633 892.878 798.861 892.07 799.316C891.276 799.772 890.599 800.384 890.039 801.152C889.479 801.908 889.049 802.78 888.75 803.77C888.464 804.746 888.32 805.768 888.32 806.836V815H885.645V796.797H888.32V801.367C889.609 798.034 891.908 796.367 895.215 796.367C899.694 796.367 901.934 798.835 901.934 803.77V815ZM924.922 809.199C924.714 811.113 923.958 812.637 922.656 813.77C921.367 814.889 919.753 815.449 917.812 815.449C916.745 815.449 915.768 815.273 914.883 814.922C913.997 814.57 913.242 814.082 912.617 813.457C911.992 812.832 911.504 812.083 911.152 811.211C910.814 810.326 910.645 809.362 910.645 808.32V799.082H906.523V796.797H910.645V789.512H913.32V796.797H921.074V799.082H913.32V808.32C913.32 808.984 913.424 809.609 913.633 810.195C913.854 810.781 914.154 811.296 914.531 811.738C914.922 812.181 915.391 812.533 915.938 812.793C916.484 813.04 917.109 813.164 917.812 813.164C919.141 813.164 920.247 812.754 921.133 811.934C922.031 811.1 922.546 810.026 922.676 808.711L924.922 809.199ZM946.562 806.797H928.359V804.512H946.562V806.797ZM968.398 799.082H960.645V812.715H964.746V815H953.828V812.715H957.949V799.082H953.828V796.797H957.949C957.949 794.297 958.594 792.389 959.883 791.074C961.185 789.746 963.145 789.082 965.762 789.082C966.374 789.082 966.888 789.102 967.305 789.141C967.734 789.18 968.099 789.225 968.398 789.277V791.562C968.021 791.51 967.624 791.465 967.207 791.426C966.803 791.387 966.322 791.367 965.762 791.367C964.056 791.367 962.773 791.803 961.914 792.676C961.068 793.535 960.645 794.909 960.645 796.797H968.398V799.082ZM971.992 810.078C971.992 808.932 972.279 807.975 972.852 807.207C973.424 806.426 974.173 805.814 975.098 805.371C976.035 804.915 977.103 804.59 978.301 804.395C979.512 804.186 980.742 804.082 981.992 804.082C982.474 804.082 982.904 804.089 983.281 804.102C983.672 804.115 984.036 804.134 984.375 804.16C984.727 804.186 985.078 804.219 985.43 804.258C985.781 804.297 986.165 804.342 986.582 804.395V803.086C986.582 802.201 986.387 801.471 985.996 800.898C985.618 800.326 985.15 799.876 984.59 799.551C984.03 799.212 983.444 798.978 982.832 798.848C982.22 798.704 981.699 798.633 981.27 798.633C979.915 798.633 978.665 798.815 977.52 799.18C976.374 799.544 975.306 800.033 974.316 800.645L973.105 798.633C974.199 797.969 975.423 797.428 976.777 797.012C978.145 796.582 979.642 796.367 981.27 796.367C982.259 796.367 983.229 796.497 984.18 796.758C985.143 797.005 986.003 797.396 986.758 797.93C987.526 798.451 988.138 799.141 988.594 800C989.049 800.859 989.277 801.888 989.277 803.086V815H986.582V811.953C986.113 812.539 985.579 813.053 984.98 813.496C984.395 813.939 983.776 814.303 983.125 814.59C982.474 814.863 981.823 815.072 981.172 815.215C980.521 815.371 979.902 815.449 979.316 815.449C976.908 815.449 975.085 814.987 973.848 814.062C972.611 813.138 971.992 811.81 971.992 810.078ZM979.316 813.164C980.436 813.164 981.439 813.001 982.324 812.676C983.223 812.337 983.984 811.921 984.609 811.426C985.234 810.931 985.716 810.404 986.055 809.844C986.406 809.284 986.582 808.776 986.582 808.32V806.602C985.71 806.471 984.87 806.4 984.062 806.387C983.268 806.374 982.578 806.367 981.992 806.367C981.029 806.367 980.098 806.432 979.199 806.562C978.314 806.693 977.539 806.908 976.875 807.207C976.211 807.493 975.677 807.871 975.273 808.34C974.87 808.809 974.668 809.388 974.668 810.078C974.668 810.846 975.039 811.556 975.781 812.207C976.536 812.845 977.715 813.164 979.316 813.164ZM1012.07 815H1009.39V801.914C1009.39 800.872 1009.21 800.065 1008.85 799.492C1008.48 798.919 1007.96 798.633 1007.27 798.633C1006.25 798.633 1005.5 799.167 1005.02 800.234C1004.55 801.302 1004.32 802.799 1004.32 804.727V815H1001.62V801.914C1001.62 800.872 1001.43 800.065 1001.05 799.492C1000.69 798.919 1000.16 798.633 999.473 798.633C998.835 798.633 998.327 798.822 997.949 799.199C997.572 799.577 997.272 800.059 997.051 800.645C996.842 801.23 996.706 801.882 996.641 802.598C996.576 803.314 996.543 804.023 996.543 804.727V815H993.867V796.797H996.543V799.434C997.103 797.389 998.32 796.367 1000.2 796.367C1001.98 796.367 1003.19 797.259 1003.83 799.043C1004.71 797.259 1005.96 796.367 1007.58 796.367C1009.13 796.367 1010.26 796.829 1010.98 797.754C1011.71 798.665 1012.07 800.052 1012.07 801.914V815ZM1026.62 793.164H1022.99V789.512H1026.62V793.164ZM1030.25 815H1019.34V812.715H1023.46V799.082H1019.34V796.797H1026.15V812.715H1030.25V815ZM1052.09 815H1041.17V812.715H1045.29V791.797H1041.17V789.512H1047.99V812.715H1052.09V815ZM1078.14 796.797L1068.3 819.609C1067.79 820.885 1067.08 821.719 1066.15 822.109C1065.23 822.513 1064.21 822.715 1063.09 822.715C1061.84 822.715 1060.59 822.487 1059.34 822.031L1059.86 819.727C1060.48 819.987 1061.07 820.169 1061.66 820.273C1062.25 820.391 1062.72 820.449 1063.09 820.449C1063.97 820.449 1064.58 820.234 1064.9 819.805C1065.24 819.375 1065.53 818.867 1065.78 818.281L1066.89 815.527L1058.77 796.797H1061.93L1068.5 812.715L1074.94 796.797H1078.14ZM1092.13 800.449H1088.5V796.797H1092.13V800.449ZM1092.13 815H1088.5V811.367H1092.13V815ZM1135.8 789.512L1134.96 798.672H1132.97L1132.17 789.512H1135.8ZM1166.15 815H1163.28L1160.88 807.715H1150.8L1148.44 815H1145.57L1154.04 789.512H1157.68L1166.15 815ZM1160.12 805.352L1155.84 792.207L1151.56 805.352H1160.12ZM1185.8 815H1183.11V803.77C1183.11 802.142 1182.75 800.879 1182.05 799.98C1181.35 799.082 1180.21 798.633 1178.63 798.633C1177.64 798.633 1176.74 798.861 1175.94 799.316C1175.14 799.772 1174.47 800.384 1173.91 801.152C1173.35 801.908 1172.92 802.78 1172.62 803.77C1172.33 804.746 1172.19 805.768 1172.19 806.836V815H1169.51V796.797H1172.19V801.367C1173.48 798.034 1175.77 796.367 1179.08 796.367C1183.56 796.367 1185.8 798.835 1185.8 803.77V815ZM1209.06 805.957C1209.06 807.376 1208.83 808.665 1208.38 809.824C1207.94 810.983 1207.29 811.979 1206.45 812.812C1205.61 813.633 1204.61 814.277 1203.44 814.746C1202.27 815.215 1200.96 815.449 1199.51 815.449C1198.09 815.449 1196.8 815.215 1195.62 814.746C1194.45 814.277 1193.44 813.633 1192.6 812.812C1191.76 811.979 1191.12 810.983 1190.66 809.824C1190.22 808.665 1190 807.376 1190 805.957C1190 804.577 1190.22 803.294 1190.66 802.109C1191.12 800.911 1191.76 799.896 1192.6 799.062C1193.44 798.216 1194.45 797.559 1195.62 797.09C1196.8 796.608 1198.09 796.367 1199.51 796.367C1200.96 796.367 1202.27 796.608 1203.44 797.09C1204.61 797.559 1205.61 798.216 1206.45 799.062C1207.29 799.896 1207.94 800.911 1208.38 802.109C1208.83 803.294 1209.06 804.577 1209.06 805.957ZM1206.39 805.957C1206.39 804.915 1206.23 803.958 1205.92 803.086C1205.62 802.201 1205.17 801.426 1204.57 800.762C1203.97 800.098 1203.24 799.577 1202.38 799.199C1201.54 798.822 1200.58 798.633 1199.51 798.633C1198.44 798.633 1197.48 798.822 1196.62 799.199C1195.77 799.577 1195.06 800.098 1194.47 800.762C1193.89 801.426 1193.44 802.201 1193.12 803.086C1192.83 803.958 1192.68 804.915 1192.68 805.957C1192.68 806.999 1192.83 807.962 1193.12 808.848C1193.44 809.72 1193.89 810.475 1194.47 811.113C1195.06 811.751 1195.77 812.253 1196.62 812.617C1197.48 812.982 1198.44 813.164 1199.51 813.164C1200.58 813.164 1201.54 812.982 1202.38 812.617C1203.24 812.253 1203.97 811.751 1204.57 811.113C1205.17 810.475 1205.62 809.72 1205.92 808.848C1206.23 807.962 1206.39 806.999 1206.39 805.957ZM1229.47 815H1226.78V803.77C1226.78 802.142 1226.43 800.879 1225.72 799.98C1225.02 799.082 1223.88 798.633 1222.3 798.633C1221.32 798.633 1220.42 798.861 1219.61 799.316C1218.82 799.772 1218.14 800.384 1217.58 801.152C1217.02 801.908 1216.59 802.78 1216.29 803.77C1216 804.746 1215.86 805.768 1215.86 806.836V815H1213.18V796.797H1215.86V801.367C1217.15 798.034 1219.45 796.367 1222.75 796.367C1227.23 796.367 1229.47 798.835 1229.47 803.77V815ZM1252.83 796.797L1242.99 819.609C1242.48 820.885 1241.76 821.719 1240.84 822.109C1239.92 822.513 1238.89 822.715 1237.77 822.715C1236.52 822.715 1235.27 822.487 1234.02 822.031L1234.55 819.727C1235.16 819.987 1235.76 820.169 1236.35 820.273C1236.93 820.391 1237.41 820.449 1237.77 820.449C1238.66 820.449 1239.26 820.234 1239.59 819.805C1239.93 819.375 1240.22 818.867 1240.47 818.281L1241.58 815.527L1233.46 796.797H1236.62L1243.18 812.715L1249.63 796.797H1252.83ZM1274.1 815H1271.43V801.914C1271.43 800.872 1271.24 800.065 1270.88 799.492C1270.51 798.919 1269.99 798.633 1269.3 798.633C1268.28 798.633 1267.53 799.167 1267.05 800.234C1266.58 801.302 1266.35 802.799 1266.35 804.727V815H1263.65V801.914C1263.65 800.872 1263.46 800.065 1263.09 799.492C1262.72 798.919 1262.19 798.633 1261.5 798.633C1260.87 798.633 1260.36 798.822 1259.98 799.199C1259.6 799.577 1259.3 800.059 1259.08 800.645C1258.87 801.23 1258.74 801.882 1258.67 802.598C1258.61 803.314 1258.57 804.023 1258.57 804.727V815H1255.9V796.797H1258.57V799.434C1259.13 797.389 1260.35 796.367 1262.23 796.367C1264.01 796.367 1265.22 797.259 1265.86 799.043C1266.74 797.259 1267.99 796.367 1269.61 796.367C1271.16 796.367 1272.29 796.829 1273.01 797.754C1273.74 798.665 1274.1 800.052 1274.1 801.914V815ZM1296.41 805.957C1296.41 807.376 1296.18 808.665 1295.72 809.824C1295.28 810.983 1294.64 811.979 1293.79 812.812C1292.96 813.633 1291.95 814.277 1290.78 814.746C1289.61 815.215 1288.3 815.449 1286.86 815.449C1285.44 815.449 1284.14 815.215 1282.97 814.746C1281.8 814.277 1280.79 813.633 1279.94 812.812C1279.11 811.979 1278.46 810.983 1278.01 809.824C1277.57 808.665 1277.34 807.376 1277.34 805.957C1277.34 804.577 1277.57 803.294 1278.01 802.109C1278.46 800.911 1279.11 799.896 1279.94 799.062C1280.79 798.216 1281.8 797.559 1282.97 797.09C1284.14 796.608 1285.44 796.367 1286.86 796.367C1288.3 796.367 1289.61 796.608 1290.78 797.09C1291.95 797.559 1292.96 798.216 1293.79 799.062C1294.64 799.896 1295.28 800.911 1295.72 802.109C1296.18 803.294 1296.41 804.577 1296.41 805.957ZM1293.73 805.957C1293.73 804.915 1293.57 803.958 1293.26 803.086C1292.96 802.201 1292.51 801.426 1291.91 800.762C1291.32 800.098 1290.59 799.577 1289.73 799.199C1288.88 798.822 1287.92 798.633 1286.86 798.633C1285.79 798.633 1284.82 798.822 1283.96 799.199C1283.12 799.577 1282.4 800.098 1281.82 800.762C1281.23 801.426 1280.78 802.201 1280.47 803.086C1280.17 803.958 1280.02 804.915 1280.02 805.957C1280.02 806.999 1280.17 807.962 1280.47 808.848C1280.78 809.72 1281.23 810.475 1281.82 811.113C1282.4 811.751 1283.12 812.253 1283.96 812.617C1284.82 812.982 1285.79 813.164 1286.86 813.164C1287.92 813.164 1288.88 812.982 1289.73 812.617C1290.59 812.253 1291.32 811.751 1291.91 811.113C1292.51 810.475 1292.96 809.72 1293.26 808.848C1293.57 807.962 1293.73 806.999 1293.73 805.957ZM1300.53 796.797H1303.2V808.047C1303.2 809.674 1303.55 810.938 1304.26 811.836C1304.97 812.721 1306.12 813.164 1307.7 813.164C1308.68 813.164 1309.58 812.936 1310.37 812.48C1311.17 812.025 1311.84 811.419 1312.4 810.664C1312.96 809.896 1313.39 809.023 1313.67 808.047C1313.97 807.057 1314.12 806.029 1314.12 804.961V796.797H1316.82V815H1314.12V810.449C1312.85 813.783 1310.55 815.449 1307.25 815.449C1302.77 815.449 1300.53 812.982 1300.53 808.047V796.797ZM1339.12 809.961C1339.12 811.029 1338.85 811.914 1338.32 812.617C1337.79 813.32 1337.1 813.88 1336.25 814.297C1335.42 814.714 1334.48 815.007 1333.44 815.176C1332.41 815.358 1331.4 815.449 1330.41 815.449C1328.76 815.449 1327.11 815.208 1325.47 814.727C1323.83 814.245 1322.41 813.613 1321.21 812.832L1322.4 810.527C1323.74 811.374 1325.07 812.025 1326.37 812.48C1327.67 812.936 1329.02 813.164 1330.41 813.164C1334.43 813.164 1336.45 812.122 1336.45 810.039C1336.45 809.531 1336.28 809.121 1335.94 808.809C1335.61 808.483 1335.17 808.223 1334.61 808.027C1334.05 807.819 1333.4 807.656 1332.68 807.539C1331.96 807.422 1331.2 807.311 1330.41 807.207C1329.39 807.064 1328.39 806.895 1327.38 806.699C1326.38 806.504 1325.46 806.211 1324.63 805.82C1323.81 805.43 1323.14 804.909 1322.64 804.258C1322.14 803.607 1321.89 802.747 1321.89 801.68C1321.89 800.768 1322.12 799.98 1322.58 799.316C1323.05 798.652 1323.67 798.099 1324.43 797.656C1325.21 797.214 1326.13 796.888 1327.17 796.68C1328.21 796.471 1329.29 796.367 1330.41 796.367C1332.01 796.367 1333.44 796.556 1334.71 796.934C1335.97 797.298 1337.11 797.826 1338.12 798.516L1337.05 800.605C1336.01 799.876 1334.95 799.368 1333.89 799.082C1332.82 798.783 1331.66 798.633 1330.41 798.633C1329.85 798.633 1329.23 798.685 1328.54 798.789C1327.86 798.88 1327.23 799.049 1326.64 799.297C1326.05 799.531 1325.56 799.844 1325.16 800.234C1324.77 800.612 1324.57 801.094 1324.57 801.68C1324.57 802.188 1324.73 802.598 1325.06 802.91C1325.4 803.21 1325.85 803.464 1326.41 803.672C1326.97 803.867 1327.6 804.023 1328.32 804.141C1329.05 804.258 1329.81 804.368 1330.61 804.473C1331.6 804.616 1332.59 804.785 1333.59 804.98C1334.61 805.176 1335.53 805.462 1336.35 805.84C1337.18 806.217 1337.85 806.732 1338.36 807.383C1338.87 808.034 1339.12 808.893 1339.12 809.961ZM728.164 836.797C728.164 839.258 727.396 841.087 725.859 842.285C724.323 843.483 722.168 844.082 719.395 844.082H713.633V855H710.957V829.512H719.355C722.155 829.512 724.323 830.124 725.859 831.348C727.396 832.559 728.164 834.375 728.164 836.797ZM725.488 836.797C725.488 835.039 724.935 833.77 723.828 832.988C722.721 832.194 721.243 831.797 719.395 831.797H713.633V841.797H719.395C721.243 841.797 722.721 841.406 723.828 840.625C724.935 839.831 725.488 838.555 725.488 836.797ZM749.043 839.355C748.079 838.874 746.934 838.633 745.605 838.633C744.512 838.633 743.535 838.867 742.676 839.336C741.816 839.805 741.087 840.423 740.488 841.191C739.889 841.947 739.427 842.819 739.102 843.809C738.789 844.785 738.633 845.794 738.633 846.836V852.715H742.754V855H731.836V852.715H735.957V839.082H731.836V836.797H738.633V841.367C739.857 838.034 742.181 836.367 745.605 836.367C746.53 836.367 747.331 836.426 748.008 836.543C748.698 836.66 749.336 836.868 749.922 837.168L749.043 839.355ZM772.344 845.957C772.344 847.376 772.116 848.665 771.66 849.824C771.217 850.983 770.573 851.979 769.727 852.812C768.893 853.633 767.891 854.277 766.719 854.746C765.547 855.215 764.238 855.449 762.793 855.449C761.374 855.449 760.078 855.215 758.906 854.746C757.734 854.277 756.725 853.633 755.879 852.812C755.046 851.979 754.401 850.983 753.945 849.824C753.503 848.665 753.281 847.376 753.281 845.957C753.281 844.577 753.503 843.294 753.945 842.109C754.401 840.911 755.046 839.896 755.879 839.062C756.725 838.216 757.734 837.559 758.906 837.09C760.078 836.608 761.374 836.367 762.793 836.367C764.238 836.367 765.547 836.608 766.719 837.09C767.891 837.559 768.893 838.216 769.727 839.062C770.573 839.896 771.217 840.911 771.66 842.109C772.116 843.294 772.344 844.577 772.344 845.957ZM769.668 845.957C769.668 844.915 769.512 843.958 769.199 843.086C768.9 842.201 768.451 841.426 767.852 840.762C767.253 840.098 766.523 839.577 765.664 839.199C764.818 838.822 763.861 838.633 762.793 838.633C761.725 838.633 760.762 838.822 759.902 839.199C759.056 839.577 758.34 840.098 757.754 840.762C757.168 841.426 756.719 842.201 756.406 843.086C756.107 843.958 755.957 844.915 755.957 845.957C755.957 846.999 756.107 847.962 756.406 848.848C756.719 849.72 757.168 850.475 757.754 851.113C758.34 851.751 759.056 852.253 759.902 852.617C760.762 852.982 761.725 853.164 762.793 853.164C763.861 853.164 764.818 852.982 765.664 852.617C766.523 852.253 767.253 851.751 767.852 851.113C768.451 850.475 768.9 849.72 769.199 848.848C769.512 847.962 769.668 846.999 769.668 845.957ZM786.426 829.512L785.586 838.672H783.594L782.793 829.512H786.426ZM809.258 851.367L803.906 862.285H802.031L805.664 851.367H809.258ZM859.219 855H856.543V841.914C856.543 840.872 856.361 840.065 855.996 839.492C855.632 838.919 855.104 838.633 854.414 838.633C853.398 838.633 852.65 839.167 852.168 840.234C851.699 841.302 851.465 842.799 851.465 844.727V855H848.77V841.914C848.77 840.872 848.581 840.065 848.203 839.492C847.839 838.919 847.311 838.633 846.621 838.633C845.983 838.633 845.475 838.822 845.098 839.199C844.72 839.577 844.421 840.059 844.199 840.645C843.991 841.23 843.854 841.882 843.789 842.598C843.724 843.314 843.691 844.023 843.691 844.727V855H841.016V836.797H843.691V839.434C844.251 837.389 845.469 836.367 847.344 836.367C849.128 836.367 850.339 837.259 850.977 839.043C851.862 837.259 853.112 836.367 854.727 836.367C856.276 836.367 857.409 836.829 858.125 837.754C858.854 838.665 859.219 840.052 859.219 841.914V855ZM881.523 845.957C881.523 847.376 881.296 848.665 880.84 849.824C880.397 850.983 879.753 851.979 878.906 852.812C878.073 853.633 877.07 854.277 875.898 854.746C874.727 855.215 873.418 855.449 871.973 855.449C870.553 855.449 869.258 855.215 868.086 854.746C866.914 854.277 865.905 853.633 865.059 852.812C864.225 851.979 863.581 850.983 863.125 849.824C862.682 848.665 862.461 847.376 862.461 845.957C862.461 844.577 862.682 843.294 863.125 842.109C863.581 840.911 864.225 839.896 865.059 839.062C865.905 838.216 866.914 837.559 868.086 837.09C869.258 836.608 870.553 836.367 871.973 836.367C873.418 836.367 874.727 836.608 875.898 837.09C877.07 837.559 878.073 838.216 878.906 839.062C879.753 839.896 880.397 840.911 880.84 842.109C881.296 843.294 881.523 844.577 881.523 845.957ZM878.848 845.957C878.848 844.915 878.691 843.958 878.379 843.086C878.079 842.201 877.63 841.426 877.031 840.762C876.432 840.098 875.703 839.577 874.844 839.199C873.997 838.822 873.04 838.633 871.973 838.633C870.905 838.633 869.941 838.822 869.082 839.199C868.236 839.577 867.52 840.098 866.934 840.762C866.348 841.426 865.898 842.201 865.586 843.086C865.286 843.958 865.137 844.915 865.137 845.957C865.137 846.999 865.286 847.962 865.586 848.848C865.898 849.72 866.348 850.475 866.934 851.113C867.52 851.751 868.236 852.253 869.082 852.617C869.941 852.982 870.905 853.164 871.973 853.164C873.04 853.164 873.997 852.982 874.844 852.617C875.703 852.253 876.432 851.751 877.031 851.113C877.63 850.475 878.079 849.72 878.379 848.848C878.691 847.962 878.848 846.999 878.848 845.957ZM901.934 855H899.238V843.77C899.238 842.142 898.887 840.879 898.184 839.98C897.48 839.082 896.341 838.633 894.766 838.633C893.776 838.633 892.878 838.861 892.07 839.316C891.276 839.772 890.599 840.384 890.039 841.152C889.479 841.908 889.049 842.78 888.75 843.77C888.464 844.746 888.32 845.768 888.32 846.836V855H885.645V836.797H888.32V841.367C889.609 838.034 891.908 836.367 895.215 836.367C899.694 836.367 901.934 838.835 901.934 843.77V855ZM925.195 845.957C925.195 847.376 924.967 848.665 924.512 849.824C924.069 850.983 923.424 851.979 922.578 852.812C921.745 853.633 920.742 854.277 919.57 854.746C918.398 855.215 917.09 855.449 915.645 855.449C914.225 855.449 912.93 855.215 911.758 854.746C910.586 854.277 909.577 853.633 908.73 852.812C907.897 851.979 907.253 850.983 906.797 849.824C906.354 848.665 906.133 847.376 906.133 845.957C906.133 844.577 906.354 843.294 906.797 842.109C907.253 840.911 907.897 839.896 908.73 839.062C909.577 838.216 910.586 837.559 911.758 837.09C912.93 836.608 914.225 836.367 915.645 836.367C917.09 836.367 918.398 836.608 919.57 837.09C920.742 837.559 921.745 838.216 922.578 839.062C923.424 839.896 924.069 840.911 924.512 842.109C924.967 843.294 925.195 844.577 925.195 845.957ZM922.52 845.957C922.52 844.915 922.363 843.958 922.051 843.086C921.751 842.201 921.302 841.426 920.703 840.762C920.104 840.098 919.375 839.577 918.516 839.199C917.669 838.822 916.712 838.633 915.645 838.633C914.577 838.633 913.613 838.822 912.754 839.199C911.908 839.577 911.191 840.098 910.605 840.762C910.02 841.426 909.57 842.201 909.258 843.086C908.958 843.958 908.809 844.915 908.809 845.957C908.809 846.999 908.958 847.962 909.258 848.848C909.57 849.72 910.02 850.475 910.605 851.113C911.191 851.751 911.908 852.253 912.754 852.617C913.613 852.982 914.577 853.164 915.645 853.164C916.712 853.164 917.669 852.982 918.516 852.617C919.375 852.253 920.104 851.751 920.703 851.113C921.302 850.475 921.751 849.72 922.051 848.848C922.363 847.962 922.52 846.999 922.52 845.957ZM946.074 849.961C946.074 851.029 945.807 851.914 945.273 852.617C944.74 853.32 944.049 853.88 943.203 854.297C942.37 854.714 941.432 855.007 940.391 855.176C939.362 855.358 938.353 855.449 937.363 855.449C935.71 855.449 934.062 855.208 932.422 854.727C930.781 854.245 929.362 853.613 928.164 852.832L929.355 850.527C930.697 851.374 932.018 852.025 933.32 852.48C934.622 852.936 935.97 853.164 937.363 853.164C941.387 853.164 943.398 852.122 943.398 850.039C943.398 849.531 943.229 849.121 942.891 848.809C942.565 848.483 942.122 848.223 941.562 848.027C941.003 847.819 940.358 847.656 939.629 847.539C938.913 847.422 938.158 847.311 937.363 847.207C936.348 847.064 935.339 846.895 934.336 846.699C933.333 846.504 932.415 846.211 931.582 845.82C930.762 845.43 930.098 844.909 929.59 844.258C929.095 843.607 928.848 842.747 928.848 841.68C928.848 840.768 929.076 839.98 929.531 839.316C930 838.652 930.618 838.099 931.387 837.656C932.168 837.214 933.079 836.888 934.121 836.68C935.163 836.471 936.243 836.367 937.363 836.367C938.965 836.367 940.397 836.556 941.66 836.934C942.923 837.298 944.062 837.826 945.078 838.516L944.004 840.605C942.962 839.876 941.908 839.368 940.84 839.082C939.772 838.783 938.613 838.633 937.363 838.633C936.803 838.633 936.178 838.685 935.488 838.789C934.811 838.88 934.18 839.049 933.594 839.297C933.008 839.531 932.513 839.844 932.109 840.234C931.719 840.612 931.523 841.094 931.523 841.68C931.523 842.188 931.686 842.598 932.012 842.91C932.35 843.21 932.799 843.464 933.359 843.672C933.919 843.867 934.557 844.023 935.273 844.141C936.003 844.258 936.764 844.368 937.559 844.473C938.548 844.616 939.544 844.785 940.547 844.98C941.562 845.176 942.48 845.462 943.301 845.84C944.134 846.217 944.805 846.732 945.312 847.383C945.82 848.034 946.074 848.893 946.074 849.961ZM968.398 845.918C968.398 847.337 968.177 848.626 967.734 849.785C967.292 850.944 966.667 851.947 965.859 852.793C965.065 853.626 964.102 854.277 962.969 854.746C961.836 855.215 960.566 855.449 959.16 855.449C958.197 855.449 957.259 855.273 956.348 854.922C955.449 854.57 954.609 854.049 953.828 853.359V862.285H951.152V836.797H953.828V838.477C955.482 837.07 957.259 836.367 959.16 836.367C960.566 836.367 961.836 836.602 962.969 837.07C964.102 837.526 965.065 838.184 965.859 839.043C966.667 839.889 967.292 840.905 967.734 842.09C968.177 843.262 968.398 844.538 968.398 845.918ZM965.723 845.918C965.723 844.902 965.579 843.952 965.293 843.066C965.02 842.168 964.603 841.393 964.043 840.742C963.483 840.091 962.793 839.577 961.973 839.199C961.165 838.822 960.228 838.633 959.16 838.633C958.145 838.633 957.194 838.822 956.309 839.199C955.436 839.577 954.609 840.189 953.828 841.035V850.801C954.609 851.647 955.436 852.253 956.309 852.617C957.194 852.982 958.145 853.164 959.16 853.164C960.228 853.164 961.165 852.975 961.973 852.598C962.793 852.22 963.483 851.706 964.043 851.055C964.603 850.404 965.02 849.642 965.293 848.77C965.579 847.884 965.723 846.934 965.723 845.918ZM971.992 850.078C971.992 848.932 972.279 847.975 972.852 847.207C973.424 846.426 974.173 845.814 975.098 845.371C976.035 844.915 977.103 844.59 978.301 844.395C979.512 844.186 980.742 844.082 981.992 844.082C982.474 844.082 982.904 844.089 983.281 844.102C983.672 844.115 984.036 844.134 984.375 844.16C984.727 844.186 985.078 844.219 985.43 844.258C985.781 844.297 986.165 844.342 986.582 844.395V843.086C986.582 842.201 986.387 841.471 985.996 840.898C985.618 840.326 985.15 839.876 984.59 839.551C984.03 839.212 983.444 838.978 982.832 838.848C982.22 838.704 981.699 838.633 981.27 838.633C979.915 838.633 978.665 838.815 977.52 839.18C976.374 839.544 975.306 840.033 974.316 840.645L973.105 838.633C974.199 837.969 975.423 837.428 976.777 837.012C978.145 836.582 979.642 836.367 981.27 836.367C982.259 836.367 983.229 836.497 984.18 836.758C985.143 837.005 986.003 837.396 986.758 837.93C987.526 838.451 988.138 839.141 988.594 840C989.049 840.859 989.277 841.888 989.277 843.086V855H986.582V851.953C986.113 852.539 985.579 853.053 984.98 853.496C984.395 853.939 983.776 854.303 983.125 854.59C982.474 854.863 981.823 855.072 981.172 855.215C980.521 855.371 979.902 855.449 979.316 855.449C976.908 855.449 975.085 854.987 973.848 854.062C972.611 853.138 971.992 851.81 971.992 850.078ZM979.316 853.164C980.436 853.164 981.439 853.001 982.324 852.676C983.223 852.337 983.984 851.921 984.609 851.426C985.234 850.931 985.716 850.404 986.055 849.844C986.406 849.284 986.582 848.776 986.582 848.32V846.602C985.71 846.471 984.87 846.4 984.062 846.387C983.268 846.374 982.578 846.367 981.992 846.367C981.029 846.367 980.098 846.432 979.199 846.562C978.314 846.693 977.539 846.908 976.875 847.207C976.211 847.493 975.677 847.871 975.273 848.34C974.87 848.809 974.668 849.388 974.668 850.078C974.668 850.846 975.039 851.556 975.781 852.207C976.536 852.845 977.715 853.164 979.316 853.164ZM1011.39 851.523C1010.62 852.721 1009.56 853.678 1008.22 854.395C1006.89 855.098 1005.31 855.449 1003.48 855.449C1002.06 855.449 1000.76 855.215 999.57 854.746C998.385 854.277 997.37 853.626 996.523 852.793C995.69 851.947 995.039 850.944 994.57 849.785C994.102 848.626 993.867 847.337 993.867 845.918C993.867 844.538 994.082 843.262 994.512 842.09C994.941 840.905 995.553 839.896 996.348 839.062C997.142 838.216 998.112 837.559 999.258 837.09C1000.42 836.608 1001.7 836.367 1003.11 836.367C1003.67 836.367 1004.24 836.432 1004.82 836.562C1005.41 836.693 1005.96 836.895 1006.48 837.168C1007.01 837.428 1007.47 837.747 1007.89 838.125C1008.31 838.49 1008.62 838.926 1008.83 839.434V836.797H1011.23V844.082H1008.83C1008.83 843.275 1008.68 842.539 1008.38 841.875C1008.09 841.211 1007.7 840.638 1007.19 840.156C1006.68 839.674 1006.07 839.303 1005.37 839.043C1004.67 838.77 1003.91 838.633 1003.11 838.633C1002.01 838.633 1001.05 838.822 1000.23 839.199C999.427 839.577 998.75 840.091 998.203 840.742C997.656 841.393 997.24 842.161 996.953 843.047C996.68 843.919 996.543 844.876 996.543 845.918C996.543 846.96 996.699 847.923 997.012 848.809C997.337 849.681 997.799 850.436 998.398 851.074C999.01 851.712 999.74 852.22 1000.59 852.598C1001.45 852.975 1002.41 853.164 1003.48 853.164C1004.83 853.164 1006.04 852.897 1007.09 852.363C1008.14 851.829 1008.95 851.12 1009.51 850.234L1011.39 851.523ZM1018.38 846.836C1018.57 848.763 1019.28 850.299 1020.49 851.445C1021.7 852.591 1023.27 853.164 1025.21 853.164C1026.58 853.164 1027.8 852.884 1028.87 852.324C1029.93 851.764 1030.74 851.068 1031.27 850.234L1033.14 851.523C1032.23 852.799 1031.15 853.776 1029.88 854.453C1028.62 855.117 1027.06 855.449 1025.21 855.449C1023.81 855.449 1022.52 855.215 1021.35 854.746C1020.18 854.277 1019.16 853.626 1018.3 852.793C1017.45 851.947 1016.8 850.944 1016.33 849.785C1015.86 848.626 1015.62 847.337 1015.62 845.918C1015.62 844.538 1015.83 843.268 1016.25 842.109C1016.68 840.938 1017.29 839.928 1018.09 839.082C1018.89 838.223 1019.87 837.559 1021.02 837.09C1022.16 836.608 1023.44 836.367 1024.86 836.367C1026.41 836.367 1027.77 836.628 1028.93 837.148C1030.08 837.669 1031.05 838.392 1031.82 839.316C1032.6 840.228 1033.17 841.322 1033.54 842.598C1033.91 843.874 1034.1 845.286 1034.1 846.836H1018.38ZM1031.27 844.551C1030.97 842.559 1030.25 841.074 1029.1 840.098C1027.96 839.121 1026.54 838.633 1024.86 838.633C1024 838.633 1023.21 838.776 1022.48 839.062C1021.75 839.336 1021.11 839.733 1020.55 840.254C1019.99 840.775 1019.52 841.406 1019.14 842.148C1018.76 842.878 1018.52 843.678 1018.42 844.551H1031.27ZM1048.46 840.449H1044.82V836.797H1048.46V840.449ZM1049.45 851.367L1044.1 862.285H1042.23L1045.86 851.367H1049.45Z" fill="#5DA0FF"/>
</g>
</g>
<defs>
<clipPath id="clip0_268_3584">
<rect width="1440" height="800" fill="white" transform="translate(0.7146 0.0404663)"/>
</clipPath>
<clipPath id="clip1_268_3584">
<rect width="1450.76" height="10980.4" fill="white" transform="translate(0.7146 -7291.94)"/>
</clipPath>
</defs>
</svg>
