<svg width="1440" height="800" viewBox="0 0 1440 800" fill="none" xmlns="http://www.w3.org/2000/svg">
<g clip-path="url(#clip0_320_486)">
<rect width="1440" height="800" fill="#DEDEDE"/>
<path d="M1380 165.967V-90.356L1213.19 -90.356V-255.051H1144.38V-217.525H892.085V-303L691.915 -303L691.915 93.1017L498 93.1017L498 196.5V312L712.766 312H892.085V40.983L1067.23 40.983V312L1380 312V244.326" stroke="#85B6FF" stroke-width="4"/>
<path d="M553 442.566V531.356H641.786V620.147H999.705V711.713H1180.05V897.618H1266.06V1077.97H1180.05V980.86H999.705V1077.97V1163.99V1341.57H822.133V1252.78H641.786V1341.57H553V1427.59H1180.05V1252.78H1266.06V1427.59H1446.41V1252.78H1551.84V1558H1632.31V1524.7V1341.57H1812.65V1163.99H1993V897.618H1812.65V991.959H1632.31V897.618H1723.87V803.278H1446.41V531.356H1632.31V620.147H1993V531.356H1895.89V442.566H1812.65V531.356H1723.87V351H1368.72V442.566H1266.06V531.356H822.133V442.566H553Z" fill="#85B6FF"/>
<mask id="path-3-outside-1_320_486" maskUnits="userSpaceOnUse" x="610" y="131" width="143" height="143" fill="black">
<rect fill="white" x="610" y="131" width="143" height="143"/>
<path d="M749.523 238.48H717.15V270.854H700.012V238.48H662.512V270.854H645.373V238.48H613V222.367H645.373V183.695H613V167.729H645.373V134.33H662.512V167.729H700.012V134.33H717.15V167.729H749.523V183.695H717.15V222.367H749.523V238.48ZM700.012 222.367V183.695H662.512V222.367H700.012Z"/>
</mask>
<path d="M749.523 238.48V241.48H752.523V238.48H749.523ZM717.15 238.48V235.48H714.15V238.48H717.15ZM717.15 270.854V273.854H720.15V270.854H717.15ZM700.012 270.854H697.012V273.854H700.012V270.854ZM700.012 238.48H703.012V235.48H700.012V238.48ZM662.512 238.48V235.48H659.512V238.48H662.512ZM662.512 270.854V273.854H665.512V270.854H662.512ZM645.373 270.854H642.373V273.854H645.373V270.854ZM645.373 238.48H648.373V235.48H645.373V238.48ZM613 238.48H610V241.48H613V238.48ZM613 222.367V219.367H610V222.367H613ZM645.373 222.367V225.367H648.373V222.367H645.373ZM645.373 183.695H648.373V180.695H645.373V183.695ZM613 183.695H610V186.695H613V183.695ZM613 167.729V164.729H610V167.729H613ZM645.373 167.729V170.729H648.373V167.729H645.373ZM645.373 134.33V131.33H642.373V134.33H645.373ZM662.512 134.33H665.512V131.33H662.512V134.33ZM662.512 167.729H659.512V170.729H662.512V167.729ZM700.012 167.729V170.729H703.012V167.729H700.012ZM700.012 134.33V131.33H697.012V134.33H700.012ZM717.15 134.33H720.15V131.33H717.15V134.33ZM717.15 167.729H714.15V170.729H717.15V167.729ZM749.523 167.729H752.523V164.729H749.523V167.729ZM749.523 183.695V186.695H752.523V183.695H749.523ZM717.15 183.695V180.695H714.15V183.695H717.15ZM717.15 222.367H714.15V225.367H717.15V222.367ZM749.523 222.367H752.523V219.367H749.523V222.367ZM700.012 222.367V225.367H703.012V222.367H700.012ZM700.012 183.695H703.012V180.695H700.012V183.695ZM662.512 183.695V180.695H659.512V183.695H662.512ZM662.512 222.367H659.512V225.367H662.512V222.367ZM749.523 235.48H717.15V241.48H749.523V235.48ZM714.15 238.48V270.854H720.15V238.48H714.15ZM717.15 267.854H700.012V273.854H717.15V267.854ZM703.012 270.854V238.48H697.012V270.854H703.012ZM700.012 235.48H662.512V241.48H700.012V235.48ZM659.512 238.48V270.854H665.512V238.48H659.512ZM662.512 267.854H645.373V273.854H662.512V267.854ZM648.373 270.854V238.48H642.373V270.854H648.373ZM645.373 235.48H613V241.48H645.373V235.48ZM616 238.48V222.367H610V238.48H616ZM613 225.367H645.373V219.367H613V225.367ZM648.373 222.367V183.695H642.373V222.367H648.373ZM645.373 180.695H613V186.695H645.373V180.695ZM616 183.695V167.729H610V183.695H616ZM613 170.729H645.373V164.729H613V170.729ZM648.373 167.729V134.33H642.373V167.729H648.373ZM645.373 137.33H662.512V131.33H645.373V137.33ZM659.512 134.33V167.729H665.512V134.33H659.512ZM662.512 170.729H700.012V164.729H662.512V170.729ZM703.012 167.729V134.33H697.012V167.729H703.012ZM700.012 137.33H717.15V131.33H700.012V137.33ZM714.15 134.33V167.729H720.15V134.33H714.15ZM717.15 170.729H749.523V164.729H717.15V170.729ZM746.523 167.729V183.695H752.523V167.729H746.523ZM749.523 180.695H717.15V186.695H749.523V180.695ZM714.15 183.695V222.367H720.15V183.695H714.15ZM717.15 225.367H749.523V219.367H717.15V225.367ZM746.523 222.367V238.48H752.523V222.367H746.523ZM703.012 222.367V183.695H697.012V222.367H703.012ZM700.012 180.695H662.512V186.695H700.012V180.695ZM659.512 183.695V222.367H665.512V183.695H659.512ZM662.512 225.367H700.012V219.367H662.512V225.367Z" fill="#85B6FF" mask="url(#path-3-outside-1_320_486)"/>
<mask id="path-5-outside-2_320_486" maskUnits="userSpaceOnUse" x="1159" y="130" width="138" height="145" fill="black">
<rect fill="white" x="1159" y="130" width="138" height="145"/>
<path d="M1291.4 175.492L1241.3 202.445L1291.4 230.131L1283.34 243.9L1234.71 214.164L1236.76 270.854H1219.77L1221.82 214.164L1173.18 243.9L1165.13 230.131L1215.22 202.445L1165.13 175.492L1173.18 161.43L1221.82 191.459L1219.77 134.33H1236.76L1234.71 191.459L1283.34 161.43L1291.4 175.492Z"/>
</mask>
<path d="M1291.4 175.492L1293.29 179.015L1296.91 177.068L1294.87 173.504L1291.4 175.492ZM1241.3 202.445L1239.4 198.923L1232.94 202.398L1239.36 205.946L1241.3 202.445ZM1291.4 230.131L1294.85 232.151L1296.92 228.613L1293.33 226.63L1291.4 230.131ZM1283.34 243.9L1281.25 247.313L1284.73 249.441L1286.79 245.92L1283.34 243.9ZM1234.71 214.164L1236.79 210.751L1230.44 206.867L1230.71 214.309L1234.71 214.164ZM1236.76 270.854V274.854H1240.91L1240.76 270.709L1236.76 270.854ZM1219.77 270.854L1215.77 270.709L1215.62 274.854H1219.77V270.854ZM1221.82 214.164L1225.81 214.309L1226.08 206.867L1219.73 210.751L1221.82 214.164ZM1173.18 243.9L1169.73 245.92L1171.79 249.441L1175.27 247.313L1173.18 243.9ZM1165.13 230.131L1163.19 226.63L1159.6 228.613L1161.67 232.151L1165.13 230.131ZM1215.22 202.445L1217.16 205.946L1223.58 202.398L1217.12 198.923L1215.22 202.445ZM1165.13 175.492L1161.66 173.504L1159.61 177.068L1163.23 179.015L1165.13 175.492ZM1173.18 161.43L1175.29 158.026L1171.77 155.854L1169.71 159.441L1173.18 161.43ZM1221.82 191.459L1219.71 194.862L1226.08 198.794L1225.81 191.315L1221.82 191.459ZM1219.77 134.33V130.33H1215.62L1215.77 134.474L1219.77 134.33ZM1236.76 134.33L1240.76 134.474L1240.9 130.33H1236.76V134.33ZM1234.71 191.459L1230.71 191.315L1230.44 198.794L1236.81 194.862L1234.71 191.459ZM1283.34 161.43L1286.81 159.441L1284.76 155.854L1281.24 158.026L1283.34 161.43ZM1289.5 171.97L1239.4 198.923L1243.19 205.968L1293.29 179.015L1289.5 171.97ZM1239.36 205.946L1289.46 233.632L1293.33 226.63L1243.23 198.944L1239.36 205.946ZM1287.94 228.111L1279.89 241.88L1286.79 245.92L1294.85 232.151L1287.94 228.111ZM1285.43 240.488L1236.79 210.751L1232.62 217.577L1281.25 247.313L1285.43 240.488ZM1230.71 214.309L1232.76 270.998L1240.76 270.709L1238.7 214.019L1230.71 214.309ZM1236.76 266.854H1219.77V274.854H1236.76V266.854ZM1223.76 270.998L1225.81 214.309L1217.82 214.019L1215.77 270.709L1223.76 270.998ZM1219.73 210.751L1171.1 240.488L1175.27 247.313L1223.9 217.577L1219.73 210.751ZM1176.64 241.88L1168.58 228.111L1161.67 232.151L1169.73 245.92L1176.64 241.88ZM1167.06 233.632L1217.16 205.946L1213.29 198.944L1163.19 226.63L1167.06 233.632ZM1217.12 198.923L1167.02 171.97L1163.23 179.015L1213.33 205.968L1217.12 198.923ZM1168.6 177.481L1176.65 163.418L1169.71 159.441L1161.66 173.504L1168.6 177.481ZM1171.08 164.833L1219.71 194.862L1223.92 188.056L1175.29 158.026L1171.08 164.833ZM1225.81 191.315L1223.76 134.187L1215.77 134.474L1217.82 191.602L1225.81 191.315ZM1219.77 138.33H1236.76V130.33H1219.77V138.33ZM1232.76 134.187L1230.71 191.315L1238.7 191.602L1240.76 134.474L1232.76 134.187ZM1236.81 194.862L1285.44 164.833L1281.24 158.026L1232.61 188.056L1236.81 194.862ZM1279.87 163.418L1287.93 177.481L1294.87 173.504L1286.81 159.441L1279.87 163.418Z" fill="#85B6FF" mask="url(#path-5-outside-2_320_486)"/>
<path d="M168.441 221H130.559V171H100L149.5 122L199 171H168.441V221Z" fill="#85B6FF"/>
<path d="M358.559 -95L396.441 -95L396.441 -45L427 -45L377.5 4L328 -45L358.559 -45L358.559 -95Z" fill="#85B6FF"/>
<path d="M377.5 267.186L332.863 223L358.559 223H360.559V221L360.559 173L394.441 173L394.441 221V223H396.441H422.137L377.5 267.186Z" stroke="#85B6FF" stroke-width="4"/>
<path d="M22.1818 364.377V-49.1876M2 445H298V-303H170.182M22.1818 -49.1876V-303H170.182M22.1818 -49.1876H43.1111L106.646 -182.812H170.182V-303" stroke="#85B6FF" stroke-width="4"/>
<path d="M153.799 309.828C149.039 309.828 145.15 305.873 145.15 301.096C145.15 298.794 146.061 296.586 147.683 294.958C149.305 293.33 151.505 292.415 153.799 292.415C158.609 292.415 162.499 296.319 162.499 301.096C162.499 305.873 158.609 309.828 153.799 309.828ZM138.241 370.231L107.894 364.17L109.634 355.439L130.872 359.805L137.781 324.569L130.002 327.651V342.341H121.353V322.001L143.871 312.396L147.299 311.985C150.37 311.985 152.929 313.731 154.618 316.351L159.019 323.285C162.499 329.5 169.408 333.712 177.647 333.712V342.341C168.128 342.341 159.428 338.078 153.799 331.555L151.24 344.601L160.298 353.281V386H151.649V359.805L142.54 351.124L138.241 370.231ZM193 386H182.765V283.273H116.235V350.61L106 348.453V273H193V386ZM116.235 386H106V369.461L116.235 371.618V386Z" fill="#85B6FF"/>
<path d="M153.799 -5.17227C149.039 -5.17227 145.15 -9.12727 145.15 -13.9041C145.15 -16.2063 146.061 -18.4142 147.683 -20.0421C149.305 -21.67 151.505 -22.5845 153.799 -22.5845C158.609 -22.5845 162.499 -18.6809 162.499 -13.9041C162.499 -9.12727 158.609 -5.17227 153.799 -5.17227ZM138.241 55.2314L107.894 49.1705L109.634 40.4386L130.872 44.8045L137.781 9.56909L130.002 12.6509V27.3409H121.353V7.00091L143.871 -2.60409L147.299 -3.015C150.37 -3.015 152.929 -1.26864 154.618 1.35091L159.019 8.285C162.499 14.5 169.408 18.7118 177.647 18.7118V27.3409C168.128 27.3409 159.428 23.0777 153.799 16.5545L151.24 29.6009L160.298 38.2814V71H151.649V44.8045L142.54 36.1241L138.241 55.2314ZM193 71H182.765V-31.7273H116.235V35.6105L106 33.4532V-42H193V71ZM116.235 71H106V54.4609L116.235 56.6182V71Z" fill="#85B6FF"/>
</g>
<defs>
<clipPath id="clip0_320_486">
<rect width="1440" height="800" fill="white"/>
</clipPath>
</defs>
</svg>
