<svg width="1441" height="801" viewBox="0 0 1441 801" fill="none" xmlns="http://www.w3.org/2000/svg">
<g clip-path="url(#clip0_268_3457)">
<rect width="1440" height="800" transform="translate(0.7146 0.903687)" fill="#DEDEDE"/>
<g clip-path="url(#clip1_268_3457)">
<rect width="1450.76" height="10980.4" transform="translate(0.7146 -6216.85)" fill="#E0E0E0"/>
<rect x="-16.9162" y="238.527" width="950.046" height="200.487" fill="#85B6FF" fill-opacity="0.14" stroke="#85B6FF" stroke-width="1.00747"/>
<path d="M818.026 302.668H827.051L828.856 288.228H816.221L785.535 306.278V317.109H771.094V299.058L814.416 273.787H828.856V266.567H843.296V273.787H857.737L864.957 270.177V291.838L857.737 288.228H843.296L845.101 302.668H854.127C856.999 302.668 859.754 303.809 861.785 305.84C863.816 307.872 864.957 310.626 864.957 313.499V410.972H807.195V313.499C807.195 310.626 808.336 307.872 810.367 305.84C812.399 303.809 815.153 302.668 818.026 302.668Z" fill="#85B6FF"/>
<path d="M114.311 409.067H59.3137V397.556H80.0731V309.894C78.8925 312.583 77.0232 315.469 74.4651 318.552C71.9071 321.569 68.8899 324.357 65.4136 326.915C61.9373 329.407 58.1003 331.506 53.9025 333.211C49.7703 334.917 45.4741 335.769 41.0139 335.769V321.799C45.0149 321.799 49.3111 320.552 53.9025 318.06C58.4938 315.567 62.7244 312.386 66.5943 308.516C70.4641 304.647 73.678 300.252 76.2361 295.333C78.7941 290.413 80.0731 285.527 80.0731 280.673H93.6504V397.556H114.311V409.067Z" fill="#5DA0FF"/>
<path d="M899.846 616.384V580.936H933.462V616.384H970.812V651.832H935.329V689.146H899.846V653.698H864.364V618.25H903.124M841.954 560.414H995.089V711.534H841.954V560.414Z" stroke="#85B6FF" stroke-width="4.02989"/>
<path d="M557.847 -177.493V-88.0387H647.297V1.41556H1007.89V93.6653H1189.58V280.96H1276.24V462.664H1189.58V364.823H1007.89V462.664V549.323V728.231H828.991V638.777H647.297V728.231H557.847V814.89H1189.58V638.777H1276.24V814.89H1457.93V638.777H1564.15V946.276H1645.22V912.731V728.231H1826.91V549.323H2008.61V280.96H1826.91V376.005H1645.22V280.96H1737.46V185.915H1457.93V-88.0387H1645.22V1.41556H2008.61V-88.0387H1910.77V-177.493H1826.91V-88.0387H1737.46V-269.743H1379.66V-177.493H1276.24V-88.0387H828.991V-177.493H557.847Z" fill="#85B6FF"/>
<path d="M449.72 137.009L401.555 90.1673L429.546 90.1673H431.396V88.3175L431.396 37.8496L468.043 37.8496L468.043 88.3175V90.1673L469.893 90.1673L497.884 90.1673L449.72 137.009Z" stroke="#85B6FF" stroke-width="3.69961"/>
</g>
</g>
<defs>
<clipPath id="clip0_268_3457">
<rect width="1440" height="800" fill="white" transform="translate(0.7146 0.903687)"/>
</clipPath>
<clipPath id="clip1_268_3457">
<rect width="1450.76" height="10980.4" fill="white" transform="translate(0.7146 -6216.85)"/>
</clipPath>
</defs>
</svg>
