<svg width="1440" height="800" viewBox="0 0 1440 800" fill="none" xmlns="http://www.w3.org/2000/svg">
<g clip-path="url(#clip0_320_530)">
<rect width="1440" height="800" fill="#DEDEDE"/>
<rect x="-17.5" y="119.5" width="943" height="199" fill="#85B6FF" fill-opacity="0.14" stroke="#85B6FF"/>
<path d="M811.249 183.167H820.208L821.999 168.833H809.458L778.999 186.75V197.5H764.666V179.583L807.666 154.5H821.999V147.333H836.333V154.5H850.666L857.833 150.917V172.417L850.666 168.833H836.333L838.124 183.167H847.083C849.934 183.167 852.668 184.299 854.684 186.315C856.7 188.331 857.833 191.066 857.833 193.917V290.667H800.499V193.917C800.499 191.066 801.632 188.331 803.648 186.315C805.664 184.299 808.398 183.167 811.249 183.167Z" fill="#85B6FF"/>
<path d="M892.463 494.556V459.37H925.829V494.556H962.902V529.741H927.683V566.778H892.463V531.593H857.244V496.407H895.717M835 439H987V589H835V439Z" stroke="#85B6FF" stroke-width="4"/>
<path d="M553 -293.434V-204.644H641.786V-115.853H999.705V-24.2874H1180.05V161.618H1266.06V341.975H1180.05V244.86H999.705V341.975V427.991V605.572H822.133V516.782H641.786V605.572H553V691.589H1180.05V516.782H1266.06V691.589H1446.41V516.782H1551.84V822H1632.31V788.703V605.572H1812.65V427.991H1993V161.618H1812.65V255.959H1632.31V161.618H1723.87V67.2781H1446.41V-204.644H1632.31V-115.853H1993V-204.644H1895.89V-293.434H1812.65V-204.644H1723.87V-385H1368.72V-293.434H1266.06V-204.644H822.133V-293.434H553Z" fill="#85B6FF"/>
<path d="M-561.276 1869H-478.149V1785.89H-395.023V1450.83H-309.299L-309.299 1282.01H-135.253V1201.49H33.5977V1282.01H-57.3219V1450.83H33.5977H114.126H280.379V1617.06H197.253V1785.89H280.379V1869H360.908V1282.01H197.253V1201.49H360.908V1032.67H197.253L197.253 933.971L483 933.971V858.649H451.828L280.379 858.649V689.825H114.126V521H-135.253V689.825H-46.931V858.649H-135.253V772.938H-223.575V1032.67H-478.149V858.649H-395.023L-395.023 521H-478.149V611.906H-561.276V689.825H-478.149L-478.149 772.938H-647L-647 1105.39H-561.276V1201.49H-478.149V1617.06H-561.276V1869Z" fill="#85B6FF"/>
<path d="M-607.276 1738H-524.149V1654.89H-441.023V1319.83H-355.299L-355.299 1151.01H-181.253V1070.49H-12.4023V1151.01H-103.322V1319.83H-12.4023H68.1264H234.379V1486.06H151.253V1654.89H234.379V1738H314.908V1151.01H151.253V1070.49H314.908V901.669L151.253 901.669L151.253 802.971L437 802.971V727.649H405.828L234.379 727.649V558.825H68.1264V390H-181.253V558.825H-92.931V727.649H-181.253V641.938H-269.575V901.669H-524.149V727.649H-441.023L-441.023 390H-524.149V480.906H-607.276V558.825H-524.149L-524.149 641.938H-693L-693 974.393H-607.276V1070.49H-524.149V1486.06H-607.276V1738Z" fill="#85B6FF"/>
</g>
<defs>
<clipPath id="clip0_320_530">
<rect width="1440" height="800" fill="white"/>
</clipPath>
</defs>
</svg>
